<svg width="372" height="332" viewBox="0 0 372 332" fill="none" xmlns="http://www.w3.org/2000/svg">
<path d="M69.7614 166V151.455H74.6761C75.8172 151.455 76.75 151.661 77.4744 152.072C78.2036 152.48 78.7434 153.031 79.0938 153.727C79.4441 154.423 79.6193 155.2 79.6193 156.057C79.6193 156.914 79.4441 157.693 79.0938 158.393C78.7481 159.094 78.2131 159.653 77.4886 160.07C76.7642 160.482 75.8362 160.688 74.7045 160.688H71.1818V159.125H74.6477C75.429 159.125 76.0563 158.99 76.5298 158.72C77.0033 158.45 77.3466 158.086 77.5597 157.626C77.7775 157.162 77.8864 156.639 77.8864 156.057C77.8864 155.474 77.7775 154.954 77.5597 154.494C77.3466 154.035 77.0009 153.675 76.5227 153.415C76.0445 153.15 75.41 153.017 74.6193 153.017H71.5227V166H69.7614ZM82.2294 166V155.091H83.8487V156.739H83.9624C84.1612 156.199 84.5211 155.761 85.0419 155.425C85.5627 155.089 86.1499 154.92 86.8033 154.92C86.9264 154.92 87.0803 154.923 87.2649 154.928C87.4496 154.932 87.5893 154.939 87.6839 154.949V156.653C87.6271 156.639 87.4969 156.618 87.2933 156.589C87.0945 156.556 86.8838 156.54 86.6612 156.54C86.1309 156.54 85.6574 156.651 85.2408 156.874C84.8288 157.091 84.5021 157.394 84.2607 157.783C84.0239 158.166 83.9055 158.604 83.9055 159.097V166H82.2294ZM93.9126 166.227C92.8615 166.227 91.9548 165.995 91.1925 165.531C90.4349 165.062 89.8501 164.409 89.4382 163.571C89.031 162.728 88.8274 161.748 88.8274 160.631C88.8274 159.513 89.031 158.528 89.4382 157.676C89.8501 156.819 90.4231 156.152 91.157 155.673C91.8956 155.19 92.7573 154.949 93.7422 154.949C94.3104 154.949 94.8714 155.044 95.4254 155.233C95.9794 155.422 96.4837 155.73 96.9382 156.156C97.3928 156.578 97.755 157.136 98.0249 157.832C98.2947 158.528 98.4297 159.385 98.4297 160.403V161.114H90.0206V159.665H96.7251C96.7251 159.049 96.602 158.5 96.3558 158.017C96.1143 157.534 95.7687 157.153 95.3189 156.874C94.8738 156.594 94.3482 156.455 93.7422 156.455C93.0746 156.455 92.4969 156.62 92.0092 156.952C91.5263 157.278 91.1546 157.705 90.8942 158.23C90.6338 158.756 90.5036 159.319 90.5036 159.92V160.886C90.5036 161.71 90.6456 162.409 90.9297 162.982C91.2185 163.55 91.6186 163.983 92.13 164.281C92.6413 164.575 93.2356 164.722 93.9126 164.722C94.353 164.722 94.7507 164.66 95.1058 164.537C95.4657 164.409 95.7758 164.22 96.0362 163.969C96.2966 163.713 96.4979 163.396 96.6399 163.017L98.2592 163.472C98.0888 164.021 97.8023 164.504 97.3999 164.92C96.9974 165.332 96.5002 165.654 95.9084 165.886C95.3165 166.114 94.6513 166.227 93.9126 166.227ZM105.411 166.227C104.388 166.227 103.508 165.986 102.769 165.503C102.031 165.02 101.462 164.355 101.065 163.507C100.667 162.66 100.468 161.691 100.468 160.602C100.468 159.494 100.672 158.517 101.079 157.669C101.491 156.817 102.064 156.152 102.798 155.673C103.536 155.19 104.398 154.949 105.383 154.949C106.15 154.949 106.841 155.091 107.457 155.375C108.072 155.659 108.576 156.057 108.969 156.568C109.362 157.08 109.606 157.676 109.701 158.358H108.025C107.897 157.861 107.613 157.42 107.173 157.037C106.737 156.649 106.15 156.455 105.411 156.455C104.758 156.455 104.185 156.625 103.692 156.966C103.205 157.302 102.824 157.778 102.549 158.393C102.279 159.004 102.144 159.722 102.144 160.545C102.144 161.388 102.277 162.122 102.542 162.747C102.812 163.372 103.191 163.857 103.678 164.203C104.171 164.549 104.748 164.722 105.411 164.722C105.847 164.722 106.242 164.646 106.597 164.494C106.952 164.343 107.253 164.125 107.499 163.841C107.746 163.557 107.921 163.216 108.025 162.818H109.701C109.606 163.462 109.372 164.042 108.998 164.558C108.629 165.07 108.138 165.477 107.528 165.78C106.922 166.078 106.216 166.227 105.411 166.227ZM112.151 166V155.091H113.827V166H112.151ZM113.004 153.273C112.677 153.273 112.395 153.161 112.158 152.939C111.926 152.716 111.81 152.449 111.81 152.136C111.81 151.824 111.926 151.556 112.158 151.334C112.395 151.111 112.677 151 113.004 151C113.33 151 113.61 151.111 113.842 151.334C114.078 151.556 114.197 151.824 114.197 152.136C114.197 152.449 114.078 152.716 113.842 152.939C113.61 153.161 113.33 153.273 113.004 153.273ZM124.625 157.534L123.119 157.96C123.024 157.709 122.885 157.465 122.7 157.229C122.52 156.987 122.274 156.788 121.961 156.632C121.649 156.476 121.249 156.398 120.761 156.398C120.093 156.398 119.537 156.552 119.092 156.859C118.652 157.162 118.431 157.548 118.431 158.017C118.431 158.434 118.583 158.763 118.886 159.004C119.189 159.246 119.663 159.447 120.306 159.608L121.926 160.006C122.901 160.242 123.628 160.605 124.106 161.092C124.584 161.575 124.824 162.198 124.824 162.96C124.824 163.585 124.644 164.144 124.284 164.636C123.929 165.129 123.431 165.517 122.792 165.801C122.153 166.085 121.41 166.227 120.562 166.227C119.449 166.227 118.529 165.986 117.799 165.503C117.07 165.02 116.609 164.314 116.414 163.386L118.005 162.989C118.157 163.576 118.443 164.016 118.865 164.31C119.291 164.603 119.847 164.75 120.534 164.75C121.315 164.75 121.935 164.584 122.395 164.253C122.859 163.917 123.091 163.514 123.091 163.045C123.091 162.667 122.958 162.349 122.693 162.094C122.428 161.833 122.02 161.639 121.471 161.511L119.653 161.085C118.654 160.848 117.92 160.482 117.451 159.984C116.987 159.482 116.755 158.855 116.755 158.102C116.755 157.487 116.928 156.942 117.274 156.469C117.624 155.995 118.1 155.624 118.701 155.354C119.307 155.084 119.994 154.949 120.761 154.949C121.841 154.949 122.688 155.186 123.304 155.659C123.924 156.133 124.364 156.758 124.625 157.534ZM131.92 166.227C130.869 166.227 129.963 165.995 129.2 165.531C128.443 165.062 127.858 164.409 127.446 163.571C127.039 162.728 126.835 161.748 126.835 160.631C126.835 159.513 127.039 158.528 127.446 157.676C127.858 156.819 128.431 156.152 129.165 155.673C129.903 155.19 130.765 154.949 131.75 154.949C132.318 154.949 132.879 155.044 133.433 155.233C133.987 155.422 134.491 155.73 134.946 156.156C135.401 156.578 135.763 157.136 136.033 157.832C136.303 158.528 136.438 159.385 136.438 160.403V161.114H128.028V159.665H134.733C134.733 159.049 134.61 158.5 134.364 158.017C134.122 157.534 133.777 157.153 133.327 156.874C132.882 156.594 132.356 156.455 131.75 156.455C131.082 156.455 130.505 156.62 130.017 156.952C129.534 157.278 129.162 157.705 128.902 158.23C128.642 158.756 128.511 159.319 128.511 159.92V160.886C128.511 161.71 128.653 162.409 128.938 162.982C129.226 163.55 129.626 163.983 130.138 164.281C130.649 164.575 131.243 164.722 131.92 164.722C132.361 164.722 132.759 164.66 133.114 164.537C133.473 164.409 133.784 164.22 134.044 163.969C134.304 163.713 134.506 163.396 134.648 163.017L136.267 163.472C136.097 164.021 135.81 164.504 135.408 164.92C135.005 165.332 134.508 165.654 133.916 165.886C133.324 166.114 132.659 166.227 131.92 166.227ZM144.839 166V151.455H153.618V153.017H146.601V157.932H153.163V159.494H146.601V164.438H153.732V166H144.839ZM157.815 155.091L160.429 159.551L163.043 155.091H164.974L161.452 160.545L164.974 166H163.043L160.429 161.767L157.815 166H155.884L159.349 160.545L155.884 155.091H157.815ZM171.491 166.227C170.44 166.227 169.533 165.995 168.771 165.531C168.013 165.062 167.428 164.409 167.016 163.571C166.609 162.728 166.406 161.748 166.406 160.631C166.406 159.513 166.609 158.528 167.016 157.676C167.428 156.819 168.001 156.152 168.735 155.673C169.474 155.19 170.335 154.949 171.32 154.949C171.888 154.949 172.45 155.044 173.004 155.233C173.558 155.422 174.062 155.73 174.516 156.156C174.971 156.578 175.333 157.136 175.603 157.832C175.873 158.528 176.008 159.385 176.008 160.403V161.114H167.599V159.665H174.303C174.303 159.049 174.18 158.5 173.934 158.017C173.692 157.534 173.347 157.153 172.897 156.874C172.452 156.594 171.926 156.455 171.32 156.455C170.653 156.455 170.075 156.62 169.587 156.952C169.104 157.278 168.733 157.705 168.472 158.23C168.212 158.756 168.082 159.319 168.082 159.92V160.886C168.082 161.71 168.224 162.409 168.508 162.982C168.797 163.55 169.197 163.983 169.708 164.281C170.219 164.575 170.814 164.722 171.491 164.722C171.931 164.722 172.329 164.66 172.684 164.537C173.044 164.409 173.354 164.22 173.614 163.969C173.875 163.713 174.076 163.396 174.218 163.017L175.837 163.472C175.667 164.021 175.38 164.504 174.978 164.92C174.576 165.332 174.078 165.654 173.487 165.886C172.895 166.114 172.229 166.227 171.491 166.227ZM182.989 166.227C181.967 166.227 181.086 165.986 180.347 165.503C179.609 165.02 179.04 164.355 178.643 163.507C178.245 162.66 178.046 161.691 178.046 160.602C178.046 159.494 178.25 158.517 178.657 157.669C179.069 156.817 179.642 156.152 180.376 155.673C181.114 155.19 181.976 154.949 182.961 154.949C183.728 154.949 184.419 155.091 185.035 155.375C185.65 155.659 186.155 156.057 186.548 156.568C186.941 157.08 187.184 157.676 187.279 158.358H185.603C185.475 157.861 185.191 157.42 184.751 157.037C184.315 156.649 183.728 156.455 182.989 156.455C182.336 156.455 181.763 156.625 181.271 156.966C180.783 157.302 180.402 157.778 180.127 158.393C179.857 159.004 179.722 159.722 179.722 160.545C179.722 161.388 179.855 162.122 180.12 162.747C180.39 163.372 180.769 163.857 181.256 164.203C181.749 164.549 182.326 164.722 182.989 164.722C183.425 164.722 183.82 164.646 184.175 164.494C184.531 164.343 184.831 164.125 185.077 163.841C185.324 163.557 185.499 163.216 185.603 162.818H187.279C187.184 163.462 186.95 164.042 186.576 164.558C186.207 165.07 185.717 165.477 185.106 165.78C184.5 166.078 183.794 166.227 182.989 166.227ZM196.604 161.54V155.091H198.281V166H196.604V164.153H196.491C196.235 164.707 195.837 165.179 195.298 165.567C194.758 165.95 194.076 166.142 193.252 166.142C192.57 166.142 191.964 165.993 191.434 165.695C190.904 165.392 190.487 164.937 190.184 164.331C189.881 163.72 189.729 162.951 189.729 162.023V155.091H191.406V161.909C191.406 162.705 191.628 163.339 192.073 163.812C192.523 164.286 193.096 164.523 193.792 164.523C194.209 164.523 194.632 164.416 195.063 164.203C195.499 163.99 195.863 163.663 196.157 163.223C196.455 162.783 196.604 162.222 196.604 161.54ZM206.095 155.091V156.511H200.441V155.091H206.095ZM202.089 152.477H203.765V162.875C203.765 163.348 203.834 163.704 203.971 163.94C204.113 164.172 204.293 164.329 204.511 164.409C204.734 164.485 204.968 164.523 205.214 164.523C205.399 164.523 205.55 164.513 205.669 164.494C205.787 164.471 205.882 164.452 205.953 164.438L206.294 165.943C206.18 165.986 206.021 166.028 205.818 166.071C205.614 166.118 205.356 166.142 205.044 166.142C204.57 166.142 204.106 166.04 203.652 165.837C203.202 165.633 202.828 165.323 202.529 164.906C202.236 164.49 202.089 163.964 202.089 163.33V152.477ZM208.616 166V155.091H210.292V166H208.616ZM209.468 153.273C209.142 153.273 208.86 153.161 208.623 152.939C208.391 152.716 208.275 152.449 208.275 152.136C208.275 151.824 208.391 151.556 208.623 151.334C208.86 151.111 209.142 151 209.468 151C209.795 151 210.074 151.111 210.306 151.334C210.543 151.556 210.662 151.824 210.662 152.136C210.662 152.449 210.543 152.716 210.306 152.939C210.074 153.161 209.795 153.273 209.468 153.273ZM217.794 166.227C216.809 166.227 215.945 165.993 215.202 165.524C214.463 165.055 213.885 164.4 213.469 163.557C213.057 162.714 212.851 161.729 212.851 160.602C212.851 159.466 213.057 158.474 213.469 157.626C213.885 156.779 214.463 156.121 215.202 155.652C215.945 155.183 216.809 154.949 217.794 154.949C218.779 154.949 219.641 155.183 220.379 155.652C221.123 156.121 221.7 156.779 222.112 157.626C222.529 158.474 222.737 159.466 222.737 160.602C222.737 161.729 222.529 162.714 222.112 163.557C221.7 164.4 221.123 165.055 220.379 165.524C219.641 165.993 218.779 166.227 217.794 166.227ZM217.794 164.722C218.542 164.722 219.158 164.53 219.641 164.146C220.124 163.763 220.481 163.259 220.713 162.634C220.945 162.009 221.061 161.331 221.061 160.602C221.061 159.873 220.945 159.194 220.713 158.564C220.481 157.934 220.124 157.425 219.641 157.037C219.158 156.649 218.542 156.455 217.794 156.455C217.046 156.455 216.43 156.649 215.947 157.037C215.464 157.425 215.107 157.934 214.875 158.564C214.643 159.194 214.527 159.873 214.527 160.602C214.527 161.331 214.643 162.009 214.875 162.634C215.107 163.259 215.464 163.763 215.947 164.146C216.43 164.53 217.046 164.722 217.794 164.722ZM226.972 159.438V166H225.296V155.091H226.915V156.795H227.057C227.313 156.241 227.701 155.796 228.222 155.46C228.743 155.119 229.415 154.949 230.239 154.949C230.978 154.949 231.624 155.1 232.178 155.403C232.732 155.702 233.163 156.156 233.471 156.767C233.778 157.373 233.932 158.14 233.932 159.068V166H232.256V159.182C232.256 158.325 232.033 157.657 231.588 157.179C231.143 156.696 230.533 156.455 229.756 156.455C229.221 156.455 228.743 156.571 228.321 156.803C227.905 157.035 227.576 157.373 227.334 157.818C227.093 158.263 226.972 158.803 226.972 159.438ZM255.12 158.727C255.12 160.261 254.843 161.587 254.289 162.705C253.735 163.822 252.975 164.684 252.009 165.29C251.043 165.896 249.94 166.199 248.7 166.199C247.459 166.199 246.356 165.896 245.39 165.29C244.424 164.684 243.664 163.822 243.11 162.705C242.556 161.587 242.279 160.261 242.279 158.727C242.279 157.193 242.556 155.867 243.11 154.75C243.664 153.633 244.424 152.771 245.39 152.165C246.356 151.559 247.459 151.256 248.7 151.256C249.94 151.256 251.043 151.559 252.009 152.165C252.975 152.771 253.735 153.633 254.289 154.75C254.843 155.867 255.12 157.193 255.12 158.727ZM253.415 158.727C253.415 157.468 253.205 156.405 252.783 155.538C252.367 154.672 251.801 154.016 251.086 153.571C250.376 153.126 249.58 152.903 248.7 152.903C247.819 152.903 247.021 153.126 246.306 153.571C245.596 154.016 245.03 154.672 244.609 155.538C244.192 156.405 243.984 157.468 243.984 158.727C243.984 159.987 244.192 161.05 244.609 161.916C245.03 162.783 245.596 163.438 246.306 163.884C247.021 164.329 247.819 164.551 248.7 164.551C249.58 164.551 250.376 164.329 251.086 163.884C251.801 163.438 252.367 162.783 252.783 161.916C253.205 161.05 253.415 159.987 253.415 158.727ZM262.712 155.091V156.511H256.832V155.091H262.712ZM258.593 166V153.585C258.593 152.96 258.74 152.439 259.033 152.023C259.327 151.606 259.708 151.294 260.177 151.085C260.646 150.877 261.14 150.773 261.661 150.773C262.073 150.773 262.409 150.806 262.67 150.872C262.93 150.938 263.124 151 263.252 151.057L262.769 152.506C262.684 152.477 262.566 152.442 262.414 152.399C262.267 152.357 262.073 152.335 261.832 152.335C261.278 152.335 260.878 152.475 260.631 152.754C260.39 153.034 260.269 153.443 260.269 153.983V166H258.593ZM77.7159 179.091C77.6307 178.371 77.285 177.812 76.679 177.415C76.0729 177.017 75.3295 176.818 74.4489 176.818C73.8049 176.818 73.2415 176.922 72.7585 177.131C72.2803 177.339 71.9063 177.625 71.6364 177.99C71.3712 178.355 71.2386 178.769 71.2386 179.233C71.2386 179.621 71.331 179.955 71.5156 180.234C71.705 180.509 71.9465 180.739 72.2401 180.923C72.5336 181.103 72.8414 181.252 73.1634 181.371C73.4853 181.484 73.7812 181.577 74.0511 181.648L75.5284 182.045C75.9072 182.145 76.3286 182.282 76.7926 182.457C77.2614 182.633 77.7088 182.872 78.1349 183.175C78.5658 183.473 78.9209 183.857 79.2003 184.325C79.4796 184.794 79.6193 185.369 79.6193 186.051C79.6193 186.837 79.4134 187.547 79.0014 188.182C78.5942 188.816 77.9976 189.321 77.2116 189.695C76.4304 190.069 75.4811 190.256 74.3636 190.256C73.322 190.256 72.42 190.088 71.6577 189.751C70.9001 189.415 70.3035 188.946 69.8679 188.345C69.437 187.744 69.1932 187.045 69.1364 186.25H70.9545C71.0019 186.799 71.1866 187.254 71.5085 187.614C71.8352 187.969 72.2472 188.234 72.7443 188.409C73.2462 188.58 73.786 188.665 74.3636 188.665C75.036 188.665 75.6397 188.556 76.1747 188.338C76.7098 188.116 77.1335 187.808 77.446 187.415C77.7585 187.017 77.9148 186.553 77.9148 186.023C77.9148 185.54 77.7798 185.147 77.5099 184.844C77.2401 184.541 76.8849 184.295 76.4446 184.105C76.0043 183.916 75.5284 183.75 75.017 183.608L73.2273 183.097C72.0909 182.77 71.1913 182.304 70.5284 181.697C69.8655 181.091 69.5341 180.298 69.5341 179.318C69.5341 178.504 69.7543 177.794 70.1946 177.188C70.6397 176.577 71.2363 176.103 71.9844 175.767C72.7372 175.426 73.5777 175.256 74.5057 175.256C75.4432 175.256 76.2765 175.424 77.0057 175.76C77.7348 176.091 78.3125 176.546 78.7386 177.124C79.1695 177.701 79.3968 178.357 79.4205 179.091H77.7159ZM87.0323 179.091V180.511H81.3789V179.091H87.0323ZM83.0266 176.477H84.7028V186.875C84.7028 187.348 84.7714 187.704 84.9087 187.94C85.0508 188.172 85.2307 188.329 85.4485 188.409C85.671 188.485 85.9054 188.523 86.1516 188.523C86.3363 188.523 86.4878 188.513 86.6062 188.494C86.7246 188.471 86.8192 188.452 86.8903 188.438L87.2312 189.943C87.1175 189.986 86.9589 190.028 86.7553 190.071C86.5517 190.118 86.2937 190.142 85.9812 190.142C85.5077 190.142 85.0437 190.04 84.5891 189.837C84.1393 189.633 83.7653 189.323 83.467 188.906C83.1734 188.49 83.0266 187.964 83.0266 187.33V176.477ZM89.5536 190V179.091H91.1729V180.739H91.2866C91.4854 180.199 91.8453 179.761 92.3661 179.425C92.887 179.089 93.4741 178.92 94.1275 178.92C94.2506 178.92 94.4045 178.923 94.5891 178.928C94.7738 178.932 94.9135 178.939 95.0082 178.949V180.653C94.9513 180.639 94.8211 180.618 94.6175 180.589C94.4187 180.556 94.208 180.54 93.9854 180.54C93.4551 180.54 92.9817 180.651 92.565 180.874C92.1531 181.091 91.8263 181.394 91.5849 181.783C91.3481 182.166 91.2298 182.604 91.2298 183.097V190H89.5536ZM100.205 190.256C99.514 190.256 98.8866 190.125 98.3232 189.865C97.7597 189.6 97.3123 189.219 96.9808 188.722C96.6494 188.22 96.4837 187.614 96.4837 186.903C96.4837 186.278 96.6068 185.772 96.853 185.384C97.0992 184.991 97.4283 184.683 97.8402 184.46C98.2521 184.238 98.7067 184.072 99.2038 183.963C99.7057 183.849 100.21 183.759 100.717 183.693C101.379 183.608 101.917 183.544 102.329 183.501C102.746 183.454 103.049 183.376 103.238 183.267C103.432 183.158 103.529 182.969 103.529 182.699V182.642C103.529 181.941 103.337 181.397 102.954 181.009C102.575 180.62 102 180.426 101.228 180.426C100.428 180.426 99.8004 180.601 99.3459 180.952C98.8913 181.302 98.5717 181.676 98.3871 182.074L96.7962 181.506C97.0803 180.843 97.459 180.327 97.9325 179.957C98.4107 179.583 98.9316 179.323 99.495 179.176C100.063 179.025 100.622 178.949 101.171 178.949C101.522 178.949 101.924 178.991 102.379 179.077C102.838 179.157 103.281 179.325 103.707 179.581C104.138 179.837 104.495 180.223 104.779 180.739C105.063 181.255 105.205 181.946 105.205 182.812V190H103.529V188.523H103.444C103.33 188.759 103.141 189.013 102.876 189.283C102.611 189.553 102.258 189.782 101.817 189.972C101.377 190.161 100.84 190.256 100.205 190.256ZM100.461 188.75C101.124 188.75 101.683 188.62 102.137 188.359C102.596 188.099 102.942 187.763 103.174 187.351C103.411 186.939 103.529 186.506 103.529 186.051V184.517C103.458 184.602 103.302 184.68 103.06 184.751C102.824 184.818 102.549 184.877 102.237 184.929C101.929 184.976 101.628 185.019 101.335 185.057C101.046 185.09 100.811 185.118 100.631 185.142C100.196 185.199 99.7886 185.291 99.4098 185.419C99.0357 185.542 98.7327 185.729 98.5007 185.98C98.2734 186.226 98.1598 186.562 98.1598 186.989C98.1598 187.571 98.3752 188.011 98.8061 188.31C99.2417 188.603 99.7933 188.75 100.461 188.75ZM113.009 179.091V180.511H107.355V179.091H113.009ZM109.003 176.477H110.679V186.875C110.679 187.348 110.748 187.704 110.885 187.94C111.027 188.172 111.207 188.329 111.425 188.409C111.648 188.485 111.882 188.523 112.128 188.523C112.313 188.523 112.464 188.513 112.583 188.494C112.701 188.471 112.796 188.452 112.867 188.438L113.208 189.943C113.094 189.986 112.935 190.028 112.732 190.071C112.528 190.118 112.27 190.142 111.958 190.142C111.484 190.142 111.02 190.04 110.566 189.837C110.116 189.633 109.742 189.323 109.444 188.906C109.15 188.49 109.003 187.964 109.003 187.33V176.477ZM119.987 190.227C118.936 190.227 118.029 189.995 117.267 189.531C116.509 189.062 115.924 188.409 115.512 187.571C115.105 186.728 114.902 185.748 114.902 184.631C114.902 183.513 115.105 182.528 115.512 181.676C115.924 180.819 116.497 180.152 117.231 179.673C117.97 179.19 118.832 178.949 119.816 178.949C120.385 178.949 120.946 179.044 121.5 179.233C122.054 179.422 122.558 179.73 123.012 180.156C123.467 180.578 123.829 181.136 124.099 181.832C124.369 182.528 124.504 183.385 124.504 184.403V185.114H116.095V183.665H122.799C122.799 183.049 122.676 182.5 122.43 182.017C122.189 181.534 121.843 181.153 121.393 180.874C120.948 180.594 120.422 180.455 119.816 180.455C119.149 180.455 118.571 180.62 118.083 180.952C117.6 181.278 117.229 181.705 116.968 182.23C116.708 182.756 116.578 183.319 116.578 183.92V184.886C116.578 185.71 116.72 186.409 117.004 186.982C117.293 187.55 117.693 187.983 118.204 188.281C118.716 188.575 119.31 188.722 119.987 188.722C120.427 188.722 120.825 188.66 121.18 188.537C121.54 188.409 121.85 188.22 122.11 187.969C122.371 187.713 122.572 187.396 122.714 187.017L124.333 187.472C124.163 188.021 123.877 188.504 123.474 188.92C123.072 189.332 122.574 189.654 121.983 189.886C121.391 190.114 120.725 190.227 119.987 190.227ZM131.457 194.318C130.647 194.318 129.951 194.214 129.369 194.006C128.787 193.802 128.301 193.532 127.913 193.196C127.529 192.865 127.224 192.509 126.997 192.131L128.332 191.193C128.484 191.392 128.675 191.619 128.907 191.875C129.139 192.135 129.457 192.36 129.859 192.55C130.266 192.744 130.799 192.841 131.457 192.841C132.338 192.841 133.065 192.628 133.637 192.202C134.21 191.776 134.497 191.108 134.497 190.199V187.983H134.355C134.232 188.182 134.056 188.428 133.829 188.722C133.607 189.01 133.285 189.268 132.863 189.496C132.447 189.718 131.883 189.83 131.173 189.83C130.292 189.83 129.502 189.621 128.801 189.205C128.105 188.788 127.553 188.182 127.146 187.386C126.743 186.591 126.542 185.625 126.542 184.489C126.542 183.371 126.739 182.398 127.132 181.57C127.525 180.736 128.072 180.092 128.772 179.638C129.473 179.179 130.283 178.949 131.201 178.949C131.912 178.949 132.475 179.067 132.892 179.304C133.313 179.536 133.635 179.801 133.858 180.099C134.085 180.393 134.26 180.634 134.383 180.824H134.554V179.091H136.173V190.312C136.173 191.25 135.96 192.012 135.534 192.599C135.112 193.191 134.544 193.625 133.829 193.899C133.119 194.179 132.328 194.318 131.457 194.318ZM131.4 188.324C132.073 188.324 132.641 188.17 133.105 187.862C133.569 187.554 133.922 187.112 134.163 186.534C134.404 185.956 134.525 185.265 134.525 184.46C134.525 183.674 134.407 182.981 134.17 182.379C133.933 181.778 133.583 181.307 133.119 180.966C132.655 180.625 132.082 180.455 131.4 180.455C130.69 180.455 130.098 180.634 129.625 180.994C129.156 181.354 128.803 181.837 128.566 182.443C128.334 183.049 128.218 183.722 128.218 184.46C128.218 185.218 128.337 185.888 128.574 186.47C128.815 187.048 129.17 187.502 129.639 187.834C130.112 188.161 130.699 188.324 131.4 188.324ZM139.241 190V179.091H140.917V190H139.241ZM140.093 177.273C139.767 177.273 139.485 177.161 139.248 176.939C139.016 176.716 138.9 176.449 138.9 176.136C138.9 175.824 139.016 175.556 139.248 175.334C139.485 175.111 139.767 175 140.093 175C140.42 175 140.699 175.111 140.931 175.334C141.168 175.556 141.287 175.824 141.287 176.136C141.287 176.449 141.168 176.716 140.931 176.939C140.699 177.161 140.42 177.273 140.093 177.273ZM148.561 190.227C147.51 190.227 146.603 189.995 145.841 189.531C145.083 189.062 144.499 188.409 144.087 187.571C143.679 186.728 143.476 185.748 143.476 184.631C143.476 183.513 143.679 182.528 144.087 181.676C144.499 180.819 145.071 180.152 145.805 179.673C146.544 179.19 147.406 178.949 148.391 178.949C148.959 178.949 149.52 179.044 150.074 179.233C150.628 179.422 151.132 179.73 151.587 180.156C152.041 180.578 152.403 181.136 152.673 181.832C152.943 182.528 153.078 183.385 153.078 184.403V185.114H144.669V183.665H151.374C151.374 183.049 151.25 182.5 151.004 182.017C150.763 181.534 150.417 181.153 149.967 180.874C149.522 180.594 148.997 180.455 148.391 180.455C147.723 180.455 147.145 180.62 146.658 180.952C146.175 181.278 145.803 181.705 145.543 182.23C145.282 182.756 145.152 183.319 145.152 183.92V184.886C145.152 185.71 145.294 186.409 145.578 186.982C145.867 187.55 146.267 187.983 146.778 188.281C147.29 188.575 147.884 188.722 148.561 188.722C149.001 188.722 149.399 188.66 149.754 188.537C150.114 188.409 150.424 188.22 150.685 187.969C150.945 187.713 151.146 187.396 151.288 187.017L152.908 187.472C152.737 188.021 152.451 188.504 152.048 188.92C151.646 189.332 151.149 189.654 150.557 189.886C149.965 190.114 149.3 190.227 148.561 190.227ZM163.355 181.534L161.849 181.96C161.755 181.709 161.615 181.465 161.43 181.229C161.25 180.987 161.004 180.788 160.692 180.632C160.379 180.476 159.979 180.398 159.491 180.398C158.824 180.398 158.268 180.552 157.822 180.859C157.382 181.162 157.162 181.548 157.162 182.017C157.162 182.434 157.313 182.763 157.616 183.004C157.92 183.246 158.393 183.447 159.037 183.608L160.656 184.006C161.632 184.242 162.358 184.605 162.837 185.092C163.315 185.575 163.554 186.198 163.554 186.96C163.554 187.585 163.374 188.144 163.014 188.636C162.659 189.129 162.162 189.517 161.523 189.801C160.884 190.085 160.14 190.227 159.293 190.227C158.18 190.227 157.259 189.986 156.53 189.503C155.801 189.02 155.339 188.314 155.145 187.386L156.736 186.989C156.887 187.576 157.174 188.016 157.595 188.31C158.021 188.603 158.578 188.75 159.264 188.75C160.045 188.75 160.666 188.584 161.125 188.253C161.589 187.917 161.821 187.514 161.821 187.045C161.821 186.667 161.688 186.349 161.423 186.094C161.158 185.833 160.751 185.639 160.202 185.511L158.384 185.085C157.384 184.848 156.651 184.482 156.182 183.984C155.718 183.482 155.486 182.855 155.486 182.102C155.486 181.487 155.659 180.942 156.004 180.469C156.355 179.995 156.83 179.624 157.432 179.354C158.038 179.084 158.724 178.949 159.491 178.949C160.571 178.949 161.419 179.186 162.034 179.659C162.654 180.133 163.095 180.758 163.355 181.534ZM171.929 190V175.455H180.651V177.017H173.691V181.932H179.998V183.494H173.691V190H171.929ZM187.071 190.227C186.087 190.227 185.222 189.993 184.479 189.524C183.74 189.055 183.163 188.4 182.746 187.557C182.334 186.714 182.128 185.729 182.128 184.602C182.128 183.466 182.334 182.474 182.746 181.626C183.163 180.779 183.74 180.121 184.479 179.652C185.222 179.183 186.087 178.949 187.071 178.949C188.056 178.949 188.918 179.183 189.657 179.652C190.4 180.121 190.978 180.779 191.39 181.626C191.806 182.474 192.015 183.466 192.015 184.602C192.015 185.729 191.806 186.714 191.39 187.557C190.978 188.4 190.4 189.055 189.657 189.524C188.918 189.993 188.056 190.227 187.071 190.227ZM187.071 188.722C187.819 188.722 188.435 188.53 188.918 188.146C189.401 187.763 189.758 187.259 189.99 186.634C190.222 186.009 190.338 185.331 190.338 184.602C190.338 183.873 190.222 183.194 189.99 182.564C189.758 181.934 189.401 181.425 188.918 181.037C188.435 180.649 187.819 180.455 187.071 180.455C186.323 180.455 185.708 180.649 185.225 181.037C184.742 181.425 184.384 181.934 184.152 182.564C183.92 183.194 183.804 183.873 183.804 184.602C183.804 185.331 183.92 186.009 184.152 186.634C184.384 187.259 184.742 187.763 185.225 188.146C185.708 188.53 186.323 188.722 187.071 188.722ZM194.573 190V179.091H196.192V180.739H196.306C196.505 180.199 196.865 179.761 197.386 179.425C197.906 179.089 198.494 178.92 199.147 178.92C199.27 178.92 199.424 178.923 199.609 178.928C199.793 178.932 199.933 178.939 200.028 178.949V180.653C199.971 180.639 199.841 180.618 199.637 180.589C199.438 180.556 199.228 180.54 199.005 180.54C198.475 180.54 198.001 180.651 197.585 180.874C197.173 181.091 196.846 181.394 196.604 181.783C196.368 182.166 196.249 182.604 196.249 183.097V190H194.573ZM215.821 179.091C215.736 178.371 215.391 177.812 214.784 177.415C214.178 177.017 213.435 176.818 212.554 176.818C211.91 176.818 211.347 176.922 210.864 177.131C210.386 177.339 210.012 177.625 209.742 177.99C209.477 178.355 209.344 178.769 209.344 179.233C209.344 179.621 209.436 179.955 209.621 180.234C209.81 180.509 210.052 180.739 210.346 180.923C210.639 181.103 210.947 181.252 211.269 181.371C211.591 181.484 211.887 181.577 212.157 181.648L213.634 182.045C214.013 182.145 214.434 182.282 214.898 182.457C215.367 182.633 215.814 182.872 216.24 183.175C216.671 183.473 217.026 183.857 217.306 184.325C217.585 184.794 217.725 185.369 217.725 186.051C217.725 186.837 217.519 187.547 217.107 188.182C216.7 188.816 216.103 189.321 215.317 189.695C214.536 190.069 213.587 190.256 212.469 190.256C211.427 190.256 210.525 190.088 209.763 189.751C209.006 189.415 208.409 188.946 207.973 188.345C207.542 187.744 207.299 187.045 207.242 186.25H209.06C209.107 186.799 209.292 187.254 209.614 187.614C209.941 187.969 210.353 188.234 210.85 188.409C211.352 188.58 211.891 188.665 212.469 188.665C213.141 188.665 213.745 188.556 214.28 188.338C214.815 188.116 215.239 187.808 215.551 187.415C215.864 187.017 216.02 186.553 216.02 186.023C216.02 185.54 215.885 185.147 215.615 184.844C215.346 184.541 214.99 184.295 214.55 184.105C214.11 183.916 213.634 183.75 213.123 183.608L211.333 183.097C210.196 182.77 209.297 182.304 208.634 181.697C207.971 181.091 207.64 180.298 207.64 179.318C207.64 178.504 207.86 177.794 208.3 177.188C208.745 176.577 209.342 176.103 210.09 175.767C210.843 175.426 211.683 175.256 212.611 175.256C213.549 175.256 214.382 175.424 215.111 175.76C215.84 176.091 216.418 176.546 216.844 177.124C217.275 177.701 217.502 178.357 217.526 179.091H215.821ZM224.967 190.227C223.916 190.227 223.009 189.995 222.247 189.531C221.49 189.062 220.905 188.409 220.493 187.571C220.086 186.728 219.882 185.748 219.882 184.631C219.882 183.513 220.086 182.528 220.493 181.676C220.905 180.819 221.478 180.152 222.212 179.673C222.95 179.19 223.812 178.949 224.797 178.949C225.365 178.949 225.926 179.044 226.48 179.233C227.034 179.422 227.538 179.73 227.993 180.156C228.447 180.578 228.81 181.136 229.08 181.832C229.349 182.528 229.484 183.385 229.484 184.403V185.114H221.075V183.665H227.78C227.78 183.049 227.657 182.5 227.411 182.017C227.169 181.534 226.823 181.153 226.374 180.874C225.929 180.594 225.403 180.455 224.797 180.455C224.129 180.455 223.552 180.62 223.064 180.952C222.581 181.278 222.209 181.705 221.949 182.23C221.688 182.756 221.558 183.319 221.558 183.92V184.886C221.558 185.71 221.7 186.409 221.984 186.982C222.273 187.55 222.673 187.983 223.185 188.281C223.696 188.575 224.29 188.722 224.967 188.722C225.408 188.722 225.805 188.66 226.161 188.537C226.52 188.409 226.83 188.22 227.091 187.969C227.351 187.713 227.553 187.396 227.695 187.017L229.314 187.472C229.143 188.021 228.857 188.504 228.455 188.92C228.052 189.332 227.555 189.654 226.963 189.886C226.371 190.114 225.706 190.227 224.967 190.227ZM235.244 190.256C234.553 190.256 233.926 190.125 233.362 189.865C232.799 189.6 232.351 189.219 232.02 188.722C231.688 188.22 231.523 187.614 231.523 186.903C231.523 186.278 231.646 185.772 231.892 185.384C232.138 184.991 232.467 184.683 232.879 184.46C233.291 184.238 233.746 184.072 234.243 183.963C234.745 183.849 235.249 183.759 235.756 183.693C236.419 183.608 236.956 183.544 237.368 183.501C237.785 183.454 238.088 183.376 238.277 183.267C238.471 183.158 238.568 182.969 238.568 182.699V182.642C238.568 181.941 238.376 181.397 237.993 181.009C237.614 180.62 237.039 180.426 236.267 180.426C235.467 180.426 234.839 180.601 234.385 180.952C233.93 181.302 233.611 181.676 233.426 182.074L231.835 181.506C232.119 180.843 232.498 180.327 232.972 179.957C233.45 179.583 233.971 179.323 234.534 179.176C235.102 179.025 235.661 178.949 236.21 178.949C236.561 178.949 236.963 178.991 237.418 179.077C237.877 179.157 238.32 179.325 238.746 179.581C239.177 179.837 239.534 180.223 239.818 180.739C240.102 181.255 240.244 181.946 240.244 182.812V190H238.568V188.523H238.483C238.369 188.759 238.18 189.013 237.915 189.283C237.65 189.553 237.297 189.782 236.857 189.972C236.416 190.161 235.879 190.256 235.244 190.256ZM235.5 188.75C236.163 188.75 236.722 188.62 237.176 188.359C237.635 188.099 237.981 187.763 238.213 187.351C238.45 186.939 238.568 186.506 238.568 186.051V184.517C238.497 184.602 238.341 184.68 238.099 184.751C237.863 184.818 237.588 184.877 237.276 184.929C236.968 184.976 236.667 185.019 236.374 185.057C236.085 185.09 235.85 185.118 235.67 185.142C235.235 185.199 234.828 185.291 234.449 185.419C234.075 185.542 233.772 185.729 233.54 185.98C233.313 186.226 233.199 186.562 233.199 186.989C233.199 187.571 233.414 188.011 233.845 188.31C234.281 188.603 234.832 188.75 235.5 188.75ZM243.304 190V179.091H244.923V180.795H245.065C245.292 180.213 245.659 179.761 246.166 179.439C246.672 179.112 247.281 178.949 247.991 178.949C248.711 178.949 249.31 179.112 249.788 179.439C250.271 179.761 250.647 180.213 250.917 180.795H251.031C251.31 180.232 251.729 179.785 252.288 179.453C252.847 179.117 253.517 178.949 254.298 178.949C255.273 178.949 256.071 179.254 256.691 179.865C257.312 180.471 257.622 181.416 257.622 182.699V190H255.946V182.699C255.946 181.894 255.725 181.319 255.285 180.973C254.845 180.627 254.326 180.455 253.73 180.455C252.963 180.455 252.368 180.687 251.947 181.151C251.526 181.61 251.315 182.192 251.315 182.898V190H249.61V182.528C249.61 181.908 249.409 181.409 249.007 181.03C248.604 180.646 248.086 180.455 247.451 180.455C247.016 180.455 246.609 180.571 246.23 180.803C245.856 181.035 245.553 181.357 245.321 181.768C245.093 182.176 244.98 182.647 244.98 183.182V190H243.304ZM262.363 175.455V190H260.686V175.455H262.363ZM270.006 190.227C268.955 190.227 268.049 189.995 267.286 189.531C266.529 189.062 265.944 188.409 265.532 187.571C265.125 186.728 264.921 185.748 264.921 184.631C264.921 183.513 265.125 182.528 265.532 181.676C265.944 180.819 266.517 180.152 267.251 179.673C267.989 179.19 268.851 178.949 269.836 178.949C270.404 178.949 270.965 179.044 271.519 179.233C272.073 179.422 272.577 179.73 273.032 180.156C273.487 180.578 273.849 181.136 274.119 181.832C274.388 182.528 274.523 183.385 274.523 184.403V185.114H266.114V183.665H272.819C272.819 183.049 272.696 182.5 272.45 182.017C272.208 181.534 271.862 181.153 271.413 180.874C270.968 180.594 270.442 180.455 269.836 180.455C269.168 180.455 268.591 180.62 268.103 180.952C267.62 181.278 267.248 181.705 266.988 182.23C266.728 182.756 266.597 183.319 266.597 183.92V184.886C266.597 185.71 266.739 186.409 267.023 186.982C267.312 187.55 267.712 187.983 268.224 188.281C268.735 188.575 269.329 188.722 270.006 188.722C270.447 188.722 270.844 188.66 271.2 188.537C271.559 188.409 271.87 188.22 272.13 187.969C272.39 187.713 272.592 187.396 272.734 187.017L274.353 187.472C274.183 188.021 273.896 188.504 273.494 188.92C273.091 189.332 272.594 189.654 272.002 189.886C271.41 190.114 270.745 190.227 270.006 190.227ZM284.8 181.534L283.295 181.96C283.2 181.709 283.06 181.465 282.876 181.229C282.696 180.987 282.45 180.788 282.137 180.632C281.825 180.476 281.424 180.398 280.937 180.398C280.269 180.398 279.713 180.552 279.268 180.859C278.827 181.162 278.607 181.548 278.607 182.017C278.607 182.434 278.759 182.763 279.062 183.004C279.365 183.246 279.838 183.447 280.482 183.608L282.102 184.006C283.077 184.242 283.804 184.605 284.282 185.092C284.76 185.575 284.999 186.198 284.999 186.96C284.999 187.585 284.819 188.144 284.46 188.636C284.104 189.129 283.607 189.517 282.968 189.801C282.329 190.085 281.585 190.227 280.738 190.227C279.625 190.227 278.704 189.986 277.975 189.503C277.246 189.02 276.784 188.314 276.59 187.386L278.181 186.989C278.333 187.576 278.619 188.016 279.04 188.31C279.467 188.603 280.023 188.75 280.71 188.75C281.491 188.75 282.111 188.584 282.57 188.253C283.034 187.917 283.266 187.514 283.266 187.045C283.266 186.667 283.134 186.349 282.869 186.094C282.603 185.833 282.196 185.639 281.647 185.511L279.829 185.085C278.83 184.848 278.096 184.482 277.627 183.984C277.163 183.482 276.931 182.855 276.931 182.102C276.931 181.487 277.104 180.942 277.45 180.469C277.8 179.995 278.276 179.624 278.877 179.354C279.483 179.084 280.17 178.949 280.937 178.949C282.016 178.949 282.864 179.186 283.479 179.659C284.1 180.133 284.54 180.758 284.8 181.534ZM295.25 181.534L293.744 181.96C293.649 181.709 293.51 181.465 293.325 181.229C293.145 180.987 292.899 180.788 292.586 180.632C292.274 180.476 291.874 180.398 291.386 180.398C290.718 180.398 290.162 180.552 289.717 180.859C289.277 181.162 289.056 181.548 289.056 182.017C289.056 182.434 289.208 182.763 289.511 183.004C289.814 183.246 290.288 183.447 290.931 183.608L292.551 184.006C293.526 184.242 294.253 184.605 294.731 185.092C295.209 185.575 295.449 186.198 295.449 186.96C295.449 187.585 295.269 188.144 294.909 188.636C294.554 189.129 294.056 189.517 293.417 189.801C292.778 190.085 292.035 190.227 291.187 190.227C290.074 190.227 289.154 189.986 288.424 189.503C287.695 189.02 287.234 188.314 287.039 187.386L288.63 186.989C288.782 187.576 289.068 188.016 289.49 188.31C289.916 188.603 290.472 188.75 291.159 188.75C291.94 188.75 292.56 188.584 293.02 188.253C293.484 187.917 293.716 187.514 293.716 187.045C293.716 186.667 293.583 186.349 293.318 186.094C293.053 185.833 292.645 185.639 292.096 185.511L290.278 185.085C289.279 184.848 288.545 184.482 288.076 183.984C287.612 183.482 287.38 182.855 287.38 182.102C287.38 181.487 287.553 180.942 287.899 180.469C288.249 179.995 288.725 179.624 289.326 179.354C289.932 179.084 290.619 178.949 291.386 178.949C292.466 178.949 293.313 179.186 293.929 179.659C294.549 180.133 294.989 180.758 295.25 181.534ZM71.5227 199.455V214H69.7614V199.455H71.5227ZM76.5032 207.438V214H74.8271V203.091H76.4464V204.795H76.5884C76.8441 204.241 77.2324 203.796 77.7532 203.46C78.274 203.119 78.9464 202.949 79.7702 202.949C80.5089 202.949 81.1552 203.1 81.7092 203.403C82.2631 203.702 82.694 204.156 83.0018 204.767C83.3095 205.373 83.4634 206.14 83.4634 207.068V214H81.7873V207.182C81.7873 206.325 81.5647 205.657 81.1197 205.179C80.6746 204.696 80.0638 204.455 79.2873 204.455C78.7522 204.455 78.274 204.571 77.8526 204.803C77.436 205.035 77.1069 205.373 76.8654 205.818C76.6239 206.263 76.5032 206.803 76.5032 207.438ZM91.2706 203.091V204.511H85.6172V203.091H91.2706ZM87.2649 200.477H88.9411V210.875C88.9411 211.348 89.0097 211.704 89.147 211.94C89.2891 212.172 89.469 212.329 89.6868 212.409C89.9093 212.485 90.1437 212.523 90.3899 212.523C90.5746 212.523 90.7261 212.513 90.8445 212.494C90.9628 212.471 91.0575 212.452 91.1286 212.438L91.4695 213.943C91.3558 213.986 91.1972 214.028 90.9936 214.071C90.79 214.118 90.532 214.142 90.2195 214.142C89.746 214.142 89.282 214.04 88.8274 213.837C88.3776 213.633 88.0036 213.323 87.7053 212.906C87.4117 212.49 87.2649 211.964 87.2649 211.33V200.477ZM98.2486 214.227C97.1974 214.227 96.2907 213.995 95.5284 213.531C94.7708 213.062 94.1861 212.409 93.7741 211.571C93.367 210.728 93.1634 209.748 93.1634 208.631C93.1634 207.513 93.367 206.528 93.7741 205.676C94.1861 204.819 94.759 204.152 95.4929 203.673C96.2315 203.19 97.0933 202.949 98.0781 202.949C98.6463 202.949 99.2074 203.044 99.7614 203.233C100.315 203.422 100.82 203.73 101.274 204.156C101.729 204.578 102.091 205.136 102.361 205.832C102.631 206.528 102.766 207.385 102.766 208.403V209.114H94.3565V207.665H101.061C101.061 207.049 100.938 206.5 100.692 206.017C100.45 205.534 100.105 205.153 99.6548 204.874C99.2098 204.594 98.6842 204.455 98.0781 204.455C97.4105 204.455 96.8329 204.62 96.3452 204.952C95.8622 205.278 95.4905 205.705 95.2301 206.23C94.9697 206.756 94.8395 207.319 94.8395 207.92V208.886C94.8395 209.71 94.9815 210.409 95.2656 210.982C95.5545 211.55 95.9545 211.983 96.4659 212.281C96.9773 212.575 97.5715 212.722 98.2486 212.722C98.6889 212.722 99.0866 212.66 99.4418 212.537C99.8016 212.409 100.112 212.22 100.372 211.969C100.633 211.713 100.834 211.396 100.976 211.017L102.595 211.472C102.425 212.021 102.138 212.504 101.736 212.92C101.333 213.332 100.836 213.654 100.244 213.886C99.6525 214.114 98.9872 214.227 98.2486 214.227ZM109.719 218.318C108.909 218.318 108.213 218.214 107.631 218.006C107.048 217.802 106.563 217.532 106.175 217.196C105.791 216.865 105.486 216.509 105.259 216.131L106.594 215.193C106.745 215.392 106.937 215.619 107.169 215.875C107.401 216.135 107.718 216.36 108.121 216.55C108.528 216.744 109.061 216.841 109.719 216.841C110.599 216.841 111.326 216.628 111.899 216.202C112.472 215.776 112.759 215.108 112.759 214.199V211.983H112.616C112.493 212.182 112.318 212.428 112.091 212.722C111.868 213.01 111.546 213.268 111.125 213.496C110.708 213.718 110.145 213.83 109.435 213.83C108.554 213.83 107.763 213.621 107.062 213.205C106.366 212.788 105.815 212.182 105.408 211.386C105.005 210.591 104.804 209.625 104.804 208.489C104.804 207.371 105 206.398 105.393 205.57C105.786 204.736 106.333 204.092 107.034 203.638C107.735 203.179 108.545 202.949 109.463 202.949C110.173 202.949 110.737 203.067 111.153 203.304C111.575 203.536 111.897 203.801 112.119 204.099C112.347 204.393 112.522 204.634 112.645 204.824H112.815V203.091H114.435V214.312C114.435 215.25 114.222 216.012 113.795 216.599C113.374 217.191 112.806 217.625 112.091 217.899C111.381 218.179 110.59 218.318 109.719 218.318ZM109.662 212.324C110.334 212.324 110.902 212.17 111.366 211.862C111.83 211.554 112.183 211.112 112.425 210.534C112.666 209.956 112.787 209.265 112.787 208.46C112.787 207.674 112.669 206.981 112.432 206.379C112.195 205.778 111.845 205.307 111.381 204.966C110.917 204.625 110.344 204.455 109.662 204.455C108.952 204.455 108.36 204.634 107.886 204.994C107.418 205.354 107.065 205.837 106.828 206.443C106.596 207.049 106.48 207.722 106.48 208.46C106.48 209.218 106.598 209.888 106.835 210.47C107.077 211.048 107.432 211.502 107.901 211.834C108.374 212.161 108.961 212.324 109.662 212.324ZM117.503 214V203.091H119.122V204.739H119.236C119.435 204.199 119.795 203.761 120.315 203.425C120.836 203.089 121.423 202.92 122.077 202.92C122.2 202.92 122.354 202.923 122.538 202.928C122.723 202.932 122.863 202.939 122.957 202.949V204.653C122.901 204.639 122.77 204.618 122.567 204.589C122.368 204.556 122.157 204.54 121.935 204.54C121.404 204.54 120.931 204.651 120.514 204.874C120.102 205.091 119.776 205.394 119.534 205.783C119.297 206.166 119.179 206.604 119.179 207.097V214H117.503ZM128.154 214.256C127.463 214.256 126.836 214.125 126.272 213.865C125.709 213.6 125.261 213.219 124.93 212.722C124.599 212.22 124.433 211.614 124.433 210.903C124.433 210.278 124.556 209.772 124.802 209.384C125.048 208.991 125.377 208.683 125.789 208.46C126.201 208.238 126.656 208.072 127.153 207.963C127.655 207.849 128.159 207.759 128.666 207.693C129.329 207.608 129.866 207.544 130.278 207.501C130.695 207.454 130.998 207.376 131.187 207.267C131.381 207.158 131.478 206.969 131.478 206.699V206.642C131.478 205.941 131.287 205.397 130.903 205.009C130.524 204.62 129.949 204.426 129.177 204.426C128.377 204.426 127.75 204.601 127.295 204.952C126.841 205.302 126.521 205.676 126.336 206.074L124.745 205.506C125.029 204.843 125.408 204.327 125.882 203.957C126.36 203.583 126.881 203.323 127.444 203.176C128.012 203.025 128.571 202.949 129.12 202.949C129.471 202.949 129.873 202.991 130.328 203.077C130.787 203.157 131.23 203.325 131.656 203.581C132.087 203.837 132.444 204.223 132.728 204.739C133.012 205.255 133.154 205.946 133.154 206.812V214H131.478V212.523H131.393C131.279 212.759 131.09 213.013 130.825 213.283C130.56 213.553 130.207 213.782 129.767 213.972C129.326 214.161 128.789 214.256 128.154 214.256ZM128.41 212.75C129.073 212.75 129.632 212.62 130.086 212.359C130.546 212.099 130.891 211.763 131.123 211.351C131.36 210.939 131.478 210.506 131.478 210.051V208.517C131.407 208.602 131.251 208.68 131.01 208.751C130.773 208.818 130.498 208.877 130.186 208.929C129.878 208.976 129.577 209.019 129.284 209.057C128.995 209.09 128.761 209.118 128.581 209.142C128.145 209.199 127.738 209.291 127.359 209.419C126.985 209.542 126.682 209.729 126.45 209.98C126.223 210.226 126.109 210.562 126.109 210.989C126.109 211.571 126.324 212.011 126.755 212.31C127.191 212.603 127.743 212.75 128.41 212.75ZM140.958 203.091V204.511H135.305V203.091H140.958ZM136.952 200.477H138.629V210.875C138.629 211.348 138.697 211.704 138.835 211.94C138.977 212.172 139.156 212.329 139.374 212.409C139.597 212.485 139.831 212.523 140.077 212.523C140.262 212.523 140.414 212.513 140.532 212.494C140.65 212.471 140.745 212.452 140.816 212.438L141.157 213.943C141.043 213.986 140.885 214.028 140.681 214.071C140.478 214.118 140.219 214.142 139.907 214.142C139.433 214.142 138.969 214.04 138.515 213.837C138.065 213.633 137.691 213.323 137.393 212.906C137.099 212.49 136.952 211.964 136.952 211.33V200.477ZM143.479 214V203.091H145.156V214H143.479ZM144.332 201.273C144.005 201.273 143.723 201.161 143.487 200.939C143.254 200.716 143.138 200.449 143.138 200.136C143.138 199.824 143.254 199.556 143.487 199.334C143.723 199.111 144.005 199 144.332 199C144.658 199 144.938 199.111 145.17 199.334C145.406 199.556 145.525 199.824 145.525 200.136C145.525 200.449 145.406 200.716 145.17 200.939C144.938 201.161 144.658 201.273 144.332 201.273ZM152.657 214.227C151.672 214.227 150.808 213.993 150.065 213.524C149.326 213.055 148.749 212.4 148.332 211.557C147.92 210.714 147.714 209.729 147.714 208.602C147.714 207.466 147.92 206.474 148.332 205.626C148.749 204.779 149.326 204.121 150.065 203.652C150.808 203.183 151.672 202.949 152.657 202.949C153.642 202.949 154.504 203.183 155.243 203.652C155.986 204.121 156.564 204.779 156.975 205.626C157.392 206.474 157.6 207.466 157.6 208.602C157.6 209.729 157.392 210.714 156.975 211.557C156.564 212.4 155.986 213.055 155.243 213.524C154.504 213.993 153.642 214.227 152.657 214.227ZM152.657 212.722C153.405 212.722 154.021 212.53 154.504 212.146C154.987 211.763 155.344 211.259 155.576 210.634C155.808 210.009 155.924 209.331 155.924 208.602C155.924 207.873 155.808 207.194 155.576 206.564C155.344 205.934 154.987 205.425 154.504 205.037C154.021 204.649 153.405 204.455 152.657 204.455C151.909 204.455 151.294 204.649 150.811 205.037C150.328 205.425 149.97 205.934 149.738 206.564C149.506 207.194 149.39 207.873 149.39 208.602C149.39 209.331 149.506 210.009 149.738 210.634C149.97 211.259 150.328 211.763 150.811 212.146C151.294 212.53 151.909 212.722 152.657 212.722ZM161.835 207.438V214H160.159V203.091H161.778V204.795H161.92C162.176 204.241 162.564 203.796 163.085 203.46C163.606 203.119 164.278 202.949 165.102 202.949C165.841 202.949 166.487 203.1 167.041 203.403C167.595 203.702 168.026 204.156 168.334 204.767C168.642 205.373 168.795 206.14 168.795 207.068V214H167.119V207.182C167.119 206.325 166.897 205.657 166.452 205.179C166.007 204.696 165.396 204.455 164.619 204.455C164.084 204.455 163.606 204.571 163.185 204.803C162.768 205.035 162.439 205.373 162.197 205.818C161.956 206.263 161.835 206.803 161.835 207.438ZM178.307 214H176.461L181.801 199.455H183.62L188.961 214H187.114L182.767 201.756H182.654L178.307 214ZM178.989 208.318H186.432V209.881H178.989V208.318ZM192.675 207.438V214H190.999V203.091H192.618V204.795H192.76C193.016 204.241 193.404 203.796 193.925 203.46C194.446 203.119 195.118 202.949 195.942 202.949C196.681 202.949 197.327 203.1 197.881 203.403C198.435 203.702 198.866 204.156 199.174 204.767C199.481 205.373 199.635 206.14 199.635 207.068V214H197.959V207.182C197.959 206.325 197.737 205.657 197.292 205.179C196.846 204.696 196.236 204.455 195.459 204.455C194.924 204.455 194.446 204.571 194.025 204.803C193.608 205.035 193.279 205.373 193.037 205.818C192.796 206.263 192.675 206.803 192.675 207.438ZM206.817 214.227C205.908 214.227 205.106 213.998 204.41 213.538C203.714 213.074 203.169 212.421 202.776 211.578C202.383 210.731 202.187 209.729 202.187 208.574C202.187 207.428 202.383 206.434 202.776 205.591C203.169 204.748 203.716 204.097 204.417 203.638C205.118 203.179 205.927 202.949 206.846 202.949C207.556 202.949 208.117 203.067 208.529 203.304C208.946 203.536 209.263 203.801 209.481 204.099C209.703 204.393 209.876 204.634 209.999 204.824H210.141V199.455H211.817V214H210.198V212.324H209.999C209.876 212.523 209.701 212.774 209.474 213.077C209.246 213.375 208.922 213.643 208.501 213.879C208.079 214.111 207.518 214.227 206.817 214.227ZM207.045 212.722C207.717 212.722 208.285 212.546 208.749 212.196C209.213 211.841 209.566 211.351 209.808 210.726C210.049 210.096 210.17 209.369 210.17 208.545C210.17 207.731 210.051 207.018 209.815 206.408C209.578 205.792 209.228 205.314 208.763 204.973C208.299 204.627 207.727 204.455 207.045 204.455C206.335 204.455 205.743 204.637 205.269 205.001C204.8 205.361 204.448 205.851 204.211 206.472C203.979 207.087 203.863 207.778 203.863 208.545C203.863 209.322 203.981 210.027 204.218 210.662C204.46 211.292 204.815 211.794 205.283 212.168C205.757 212.537 206.344 212.722 207.045 212.722ZM220.972 214V199.455H229.751V201.017H222.734V205.932H229.296V207.494H222.734V212.438H229.864V214H220.972ZM237.556 203.091V204.511H231.675V203.091H237.556ZM233.437 214V201.585C233.437 200.96 233.584 200.439 233.877 200.023C234.171 199.606 234.552 199.294 235.021 199.085C235.489 198.877 235.984 198.773 236.505 198.773C236.917 198.773 237.253 198.806 237.513 198.872C237.774 198.938 237.968 199 238.096 199.057L237.613 200.506C237.528 200.477 237.409 200.442 237.258 200.399C237.111 200.357 236.917 200.335 236.675 200.335C236.121 200.335 235.721 200.475 235.475 200.754C235.234 201.034 235.113 201.443 235.113 201.983V214H233.437ZM244.763 203.091V204.511H238.882V203.091H244.763ZM240.644 214V201.585C240.644 200.96 240.791 200.439 241.084 200.023C241.378 199.606 241.759 199.294 242.228 199.085C242.696 198.877 243.191 198.773 243.712 198.773C244.124 198.773 244.46 198.806 244.721 198.872C244.981 198.938 245.175 199 245.303 199.057L244.82 200.506C244.735 200.477 244.616 200.442 244.465 200.399C244.318 200.357 244.124 200.335 243.882 200.335C243.328 200.335 242.928 200.475 242.682 200.754C242.441 201.034 242.32 201.443 242.32 201.983V214H240.644ZM247.112 214V203.091H248.788V214H247.112ZM247.964 201.273C247.638 201.273 247.356 201.161 247.119 200.939C246.887 200.716 246.771 200.449 246.771 200.136C246.771 199.824 246.887 199.556 247.119 199.334C247.356 199.111 247.638 199 247.964 199C248.291 199 248.571 199.111 248.803 199.334C249.039 199.556 249.158 199.824 249.158 200.136C249.158 200.449 249.039 200.716 248.803 200.939C248.571 201.161 248.291 201.273 247.964 201.273ZM256.29 214.227C255.267 214.227 254.387 213.986 253.648 213.503C252.909 213.02 252.341 212.355 251.944 211.507C251.546 210.66 251.347 209.691 251.347 208.602C251.347 207.494 251.551 206.517 251.958 205.669C252.37 204.817 252.943 204.152 253.676 203.673C254.415 203.19 255.277 202.949 256.262 202.949C257.029 202.949 257.72 203.091 258.336 203.375C258.951 203.659 259.455 204.057 259.848 204.568C260.241 205.08 260.485 205.676 260.58 206.358H258.904C258.776 205.861 258.492 205.42 258.051 205.037C257.616 204.649 257.029 204.455 256.29 204.455C255.637 204.455 255.064 204.625 254.571 204.966C254.084 205.302 253.703 205.778 253.428 206.393C253.158 207.004 253.023 207.722 253.023 208.545C253.023 209.388 253.156 210.122 253.421 210.747C253.691 211.372 254.069 211.857 254.557 212.203C255.05 212.549 255.627 212.722 256.29 212.722C256.726 212.722 257.121 212.646 257.476 212.494C257.831 212.343 258.132 212.125 258.378 211.841C258.624 211.557 258.8 211.216 258.904 210.818H260.58C260.485 211.462 260.251 212.042 259.877 212.558C259.507 213.07 259.017 213.477 258.407 213.78C257.801 214.078 257.095 214.227 256.29 214.227ZM263.03 214V203.091H264.706V214H263.03ZM263.882 201.273C263.556 201.273 263.274 201.161 263.037 200.939C262.805 200.716 262.689 200.449 262.689 200.136C262.689 199.824 262.805 199.556 263.037 199.334C263.274 199.111 263.556 199 263.882 199C264.209 199 264.489 199.111 264.721 199.334C264.957 199.556 265.076 199.824 265.076 200.136C265.076 200.449 264.957 200.716 264.721 200.939C264.489 201.161 264.209 201.273 263.882 201.273ZM272.35 214.227C271.299 214.227 270.392 213.995 269.63 213.531C268.872 213.062 268.288 212.409 267.876 211.571C267.469 210.728 267.265 209.748 267.265 208.631C267.265 207.513 267.469 206.528 267.876 205.676C268.288 204.819 268.861 204.152 269.594 203.673C270.333 203.19 271.195 202.949 272.18 202.949C272.748 202.949 273.309 203.044 273.863 203.233C274.417 203.422 274.921 203.73 275.376 204.156C275.83 204.578 276.192 205.136 276.462 205.832C276.732 206.528 276.867 207.385 276.867 208.403V209.114H268.458V207.665H275.163C275.163 207.049 275.04 206.5 274.793 206.017C274.552 205.534 274.206 205.153 273.756 204.874C273.311 204.594 272.786 204.455 272.18 204.455C271.512 204.455 270.934 204.62 270.447 204.952C269.964 205.278 269.592 205.705 269.332 206.23C269.071 206.756 268.941 207.319 268.941 207.92V208.886C268.941 209.71 269.083 210.409 269.367 210.982C269.656 211.55 270.056 211.983 270.567 212.281C271.079 212.575 271.673 212.722 272.35 212.722C272.79 212.722 273.188 212.66 273.543 212.537C273.903 212.409 274.213 212.22 274.474 211.969C274.734 211.713 274.935 211.396 275.077 211.017L276.697 211.472C276.526 212.021 276.24 212.504 275.837 212.92C275.435 213.332 274.938 213.654 274.346 213.886C273.754 214.114 273.089 214.227 272.35 214.227ZM281.093 207.438V214H279.417V203.091H281.036V204.795H281.178C281.434 204.241 281.822 203.796 282.343 203.46C282.864 203.119 283.536 202.949 284.36 202.949C285.099 202.949 285.745 203.1 286.299 203.403C286.853 203.702 287.284 204.156 287.592 204.767C287.899 205.373 288.053 206.14 288.053 207.068V214H286.377V207.182C286.377 206.325 286.155 205.657 285.71 205.179C285.264 204.696 284.654 204.455 283.877 204.455C283.342 204.455 282.864 204.571 282.442 204.803C282.026 205.035 281.697 205.373 281.455 205.818C281.214 206.263 281.093 206.803 281.093 207.438ZM295.548 214.227C294.525 214.227 293.645 213.986 292.906 213.503C292.167 213.02 291.599 212.355 291.201 211.507C290.804 210.66 290.605 209.691 290.605 208.602C290.605 207.494 290.808 206.517 291.216 205.669C291.627 204.817 292.2 204.152 292.934 203.673C293.673 203.19 294.535 202.949 295.52 202.949C296.287 202.949 296.978 203.091 297.593 203.375C298.209 203.659 298.713 204.057 299.106 204.568C299.499 205.08 299.743 205.676 299.838 206.358H298.162C298.034 205.861 297.75 205.42 297.309 205.037C296.874 204.649 296.287 204.455 295.548 204.455C294.895 204.455 294.322 204.625 293.829 204.966C293.342 205.302 292.96 205.778 292.686 206.393C292.416 207.004 292.281 207.722 292.281 208.545C292.281 209.388 292.413 210.122 292.679 210.747C292.949 211.372 293.327 211.857 293.815 212.203C294.307 212.549 294.885 212.722 295.548 212.722C295.984 212.722 296.379 212.646 296.734 212.494C297.089 212.343 297.39 212.125 297.636 211.841C297.882 211.557 298.057 211.216 298.162 210.818H299.838C299.743 211.462 299.509 212.042 299.135 212.558C298.765 213.07 298.275 213.477 297.664 213.78C297.058 214.078 296.353 214.227 295.548 214.227ZM303.368 218.091C303.083 218.091 302.83 218.067 302.608 218.02C302.385 217.977 302.231 217.935 302.146 217.892L302.572 216.415C302.979 216.519 303.339 216.557 303.652 216.528C303.964 216.5 304.241 216.36 304.483 216.109C304.729 215.863 304.954 215.463 305.157 214.909L305.47 214.057L301.436 203.091H303.254L306.265 211.784H306.379L309.39 203.091H311.208L306.578 215.591C306.369 216.154 306.111 216.621 305.804 216.99C305.496 217.364 305.138 217.641 304.731 217.821C304.329 218.001 303.874 218.091 303.368 218.091ZM313.959 214.114C313.608 214.114 313.308 213.988 313.057 213.737C312.806 213.486 312.68 213.186 312.68 212.835C312.68 212.485 312.806 212.184 313.057 211.933C313.308 211.682 313.608 211.557 313.959 211.557C314.309 211.557 314.61 211.682 314.861 211.933C315.112 212.184 315.237 212.485 315.237 212.835C315.237 213.067 315.178 213.28 315.06 213.474C314.946 213.669 314.792 213.825 314.598 213.943C314.409 214.057 314.196 214.114 313.959 214.114Z" fill="#585858"/>
<path d="M329.916 266.034H33.254C24.3182 266.034 16.1774 269.693 10.2944 275.58C4.41139 281.467 0.754395 289.614 0.754395 298.556C0.754395 316.472 15.3824 331.11 33.2858 331.11H329.948L371.415 298.556L329.916 266.034ZM34.2398 323.186C20.7884 323.186 9.88098 312.271 9.88098 298.811C9.88098 285.35 20.7884 274.435 34.2398 274.435C47.6912 274.435 58.5986 285.35 58.5986 298.811C58.6304 312.271 47.723 323.186 34.2398 323.186Z" fill="#00A797"/>
<path opacity="0.3" d="M108.27 0H0.722656V90.5979H108.27V0Z" fill="#00A797"/>
<path d="M35.5755 90.5979H32.936V266.034H35.5755V90.5979Z" fill="#00A797"/>
<path d="M27.4148 308V305.341L33.6278 299.588C34.1563 299.077 34.5994 298.616 34.9574 298.207C35.321 297.798 35.5966 297.398 35.7841 297.006C35.9716 296.608 36.0653 296.179 36.0653 295.719C36.0653 295.207 35.9489 294.767 35.7159 294.398C35.483 294.023 35.1648 293.736 34.7614 293.537C34.358 293.332 33.9006 293.23 33.3892 293.23C32.8551 293.23 32.3892 293.338 31.9915 293.554C31.5938 293.77 31.2869 294.08 31.071 294.483C30.8551 294.886 30.7472 295.366 30.7472 295.923H27.2443C27.2443 294.781 27.5028 293.79 28.0199 292.949C28.5369 292.108 29.2614 291.457 30.1932 290.997C31.125 290.537 32.1989 290.307 33.4148 290.307C34.6648 290.307 35.7528 290.528 36.679 290.972C37.6108 291.409 38.3352 292.017 38.8523 292.795C39.3693 293.574 39.6278 294.466 39.6278 295.472C39.6278 296.131 39.4972 296.781 39.2358 297.423C38.9801 298.065 38.5227 298.778 37.8636 299.562C37.2045 300.341 36.2756 301.276 35.0767 302.366L32.5284 304.864V304.983H39.858V308H27.4148Z" fill="#00A797"/>
<path d="M72.3395 279.455V294H69.2642V279.455H72.3395ZM74.8697 279.455H78.6623L82.668 289.227H82.8384L86.8441 279.455H90.6367V294H87.6538V284.533H87.533L83.7688 293.929H81.7376L77.9734 284.497H77.8526V294H74.8697V279.455ZM93.1705 294V279.455H98.9091C100.012 279.455 100.952 279.665 101.729 280.087C102.505 280.503 103.097 281.083 103.504 281.827C103.916 282.565 104.122 283.418 104.122 284.384C104.122 285.349 103.914 286.202 103.497 286.94C103.08 287.679 102.477 288.254 101.686 288.666C100.9 289.078 99.9484 289.284 98.831 289.284H95.1733V286.82H98.3338C98.9257 286.82 99.4134 286.718 99.7969 286.514C100.185 286.306 100.474 286.019 100.663 285.655C100.857 285.286 100.955 284.862 100.955 284.384C100.955 283.901 100.857 283.479 100.663 283.119C100.474 282.755 100.185 282.473 99.7969 282.274C99.4086 282.071 98.9162 281.969 98.3196 281.969H96.2457V294H93.1705ZM106.12 294V279.455H109.195V291.464H115.431V294H106.12ZM117.467 294V279.455H127.268V281.99H120.543V285.456H126.764V287.991H120.543V291.464H127.297V294H117.467ZM129.713 279.455H133.506L137.512 289.227H137.682L141.688 279.455H145.48V294H142.498V284.533H142.377L138.613 293.929H136.581L132.817 284.497H132.696V294H129.713V279.455ZM148.014 294V279.455H157.815V281.99H151.089V285.456H157.311V287.991H151.089V291.464H157.844V294H148.014ZM172.426 279.455V294H169.77L163.442 284.845H163.336V294H160.26V279.455H162.959L169.238 288.602H169.365V279.455H172.426ZM174.413 281.99V279.455H186.359V281.99H181.906V294H178.866V281.99H174.413ZM189.056 294H185.761L190.782 279.455H194.745L199.76 294H196.464L192.821 282.778H192.707L189.056 294ZM188.85 288.283H196.635V290.683H188.85V288.283ZM199.179 281.99V279.455H211.125V281.99H206.672V294H203.632V281.99H199.179ZM216.168 279.455V294H213.092V279.455H216.168ZM232.064 286.727C232.064 288.313 231.764 289.663 231.162 290.776C230.566 291.888 229.751 292.738 228.719 293.325C227.692 293.908 226.536 294.199 225.253 294.199C223.961 294.199 222.801 293.905 221.773 293.318C220.746 292.731 219.934 291.881 219.337 290.768C218.74 289.656 218.442 288.309 218.442 286.727C218.442 285.141 218.74 283.792 219.337 282.679C219.934 281.566 220.746 280.719 221.773 280.136C222.801 279.549 223.961 279.256 225.253 279.256C226.536 279.256 227.692 279.549 228.719 280.136C229.751 280.719 230.566 281.566 231.162 282.679C231.764 283.792 232.064 285.141 232.064 286.727ZM228.946 286.727C228.946 285.7 228.792 284.833 228.485 284.128C228.182 283.422 227.753 282.887 227.199 282.523C226.645 282.158 225.997 281.976 225.253 281.976C224.51 281.976 223.861 282.158 223.307 282.523C222.753 282.887 222.322 283.422 222.015 284.128C221.712 284.833 221.56 285.7 221.56 286.727C221.56 287.755 221.712 288.621 222.015 289.327C222.322 290.032 222.753 290.567 223.307 290.932C223.861 291.296 224.51 291.479 225.253 291.479C225.997 291.479 226.645 291.296 227.199 290.932C227.753 290.567 228.182 290.032 228.485 289.327C228.792 288.621 228.946 287.755 228.946 286.727ZM246.509 279.455V294H243.852L237.524 284.845H237.418V294H234.342V279.455H237.041L243.32 288.602H243.447V279.455H246.509ZM256.185 294H252.89L257.911 279.455H261.874L266.888 294H263.593L259.95 282.778H259.836L256.185 294ZM255.979 288.283H263.763V290.683H255.979V288.283ZM280.805 279.455V294H278.149L271.821 284.845H271.714V294H268.639V279.455H271.338L277.616 288.602H277.744V279.455H280.805ZM288.502 294H283.346V279.455H288.545C290.008 279.455 291.268 279.746 292.324 280.328C293.379 280.906 294.191 281.737 294.76 282.821C295.333 283.905 295.619 285.203 295.619 286.713C295.619 288.228 295.333 289.53 294.76 290.619C294.191 291.708 293.375 292.544 292.309 293.126C291.249 293.709 289.98 294 288.502 294ZM286.422 291.365H288.375C289.284 291.365 290.048 291.204 290.669 290.882C291.294 290.555 291.762 290.051 292.075 289.369C292.392 288.683 292.551 287.797 292.551 286.713C292.551 285.638 292.392 284.76 292.075 284.078C291.762 283.396 291.296 282.894 290.676 282.572C290.056 282.25 289.291 282.089 288.382 282.089H286.422V291.365ZM69.2642 318V303.455H79.0653V305.99H72.3395V309.456H78.5611V311.991H72.3395V315.464H79.0938V318H69.2642ZM84.3938 303.455L87.3271 308.412H87.4407L90.3881 303.455H93.8612L89.4222 310.727L93.9606 318H90.4237L87.4407 313.036H87.3271L84.3441 318H80.8214L85.3739 310.727L80.9066 303.455H84.3938ZM95.8072 318V303.455H105.608V305.99H98.8825V309.456H105.104V311.991H98.8825V315.464H105.637V318H95.8072ZM120.887 308.547H117.776C117.719 308.144 117.603 307.787 117.428 307.474C117.253 307.157 117.028 306.887 116.754 306.665C116.479 306.442 116.162 306.272 115.802 306.153C115.447 306.035 115.061 305.976 114.644 305.976C113.891 305.976 113.236 306.163 112.677 306.537C112.118 306.906 111.685 307.446 111.377 308.156C111.069 308.862 110.915 309.719 110.915 310.727C110.915 311.764 111.069 312.635 111.377 313.341C111.69 314.046 112.125 314.579 112.684 314.939C113.243 315.299 113.889 315.479 114.623 315.479C115.035 315.479 115.416 315.424 115.766 315.315C116.121 315.206 116.436 315.048 116.711 314.839C116.986 314.626 117.213 314.368 117.393 314.065C117.577 313.762 117.705 313.417 117.776 313.028L120.887 313.043C120.807 313.71 120.605 314.354 120.283 314.974C119.966 315.59 119.538 316.142 118.998 316.629C118.463 317.112 117.824 317.496 117.08 317.78C116.342 318.059 115.506 318.199 114.573 318.199C113.276 318.199 112.116 317.905 111.093 317.318C110.075 316.731 109.27 315.881 108.678 314.768C108.091 313.656 107.798 312.309 107.798 310.727C107.798 309.141 108.096 307.792 108.692 306.679C109.289 305.566 110.099 304.719 111.121 304.136C112.144 303.549 113.295 303.256 114.573 303.256C115.416 303.256 116.197 303.374 116.917 303.611C117.641 303.848 118.283 304.193 118.842 304.648C119.4 305.098 119.855 305.649 120.205 306.303C120.56 306.956 120.788 307.704 120.887 308.547ZM132.077 303.455H135.152V312.901C135.152 313.961 134.899 314.889 134.392 315.685C133.89 316.48 133.187 317.1 132.283 317.545C131.378 317.986 130.325 318.206 129.122 318.206C127.915 318.206 126.859 317.986 125.955 317.545C125.05 317.1 124.347 316.48 123.845 315.685C123.343 314.889 123.092 313.961 123.092 312.901V303.455H126.168V312.638C126.168 313.192 126.288 313.684 126.53 314.115C126.776 314.546 127.122 314.884 127.567 315.131C128.012 315.377 128.53 315.5 129.122 315.5C129.719 315.5 130.237 315.377 130.678 315.131C131.123 314.884 131.466 314.546 131.707 314.115C131.954 313.684 132.077 313.192 132.077 312.638V303.455ZM137.128 305.99V303.455H149.074V305.99H144.621V318H141.581V305.99H137.128ZM154.117 303.455V318H151.042V303.455H154.117ZM170.013 310.727C170.013 312.313 169.713 313.663 169.112 314.776C168.515 315.888 167.701 316.738 166.668 317.325C165.641 317.908 164.486 318.199 163.202 318.199C161.91 318.199 160.75 317.905 159.722 317.318C158.695 316.731 157.883 315.881 157.286 314.768C156.69 313.656 156.391 312.309 156.391 310.727C156.391 309.141 156.69 307.792 157.286 306.679C157.883 305.566 158.695 304.719 159.722 304.136C160.75 303.549 161.91 303.256 163.202 303.256C164.486 303.256 165.641 303.549 166.668 304.136C167.701 304.719 168.515 305.566 169.112 306.679C169.713 307.792 170.013 309.141 170.013 310.727ZM166.896 310.727C166.896 309.7 166.742 308.833 166.434 308.128C166.131 307.422 165.702 306.887 165.148 306.523C164.594 306.158 163.946 305.976 163.202 305.976C162.459 305.976 161.81 306.158 161.256 306.523C160.702 306.887 160.272 307.422 159.964 308.128C159.661 308.833 159.509 309.7 159.509 310.727C159.509 311.755 159.661 312.621 159.964 313.327C160.272 314.032 160.702 314.567 161.256 314.932C161.81 315.296 162.459 315.479 163.202 315.479C163.946 315.479 164.594 315.296 165.148 314.932C165.702 314.567 166.131 314.032 166.434 313.327C166.742 312.621 166.896 311.755 166.896 310.727ZM184.458 303.455V318H181.801L175.473 308.845H175.367V318H172.292V303.455H174.99L181.269 312.602H181.397V303.455H184.458Z" fill="white"/>
<path d="M36.4878 32.2888C35.5854 32.2894 34.7112 32.605 34.014 33.1818C33.3168 33.7587 32.8399 34.5611 32.6643 35.4523C32.4888 36.3435 32.6256 37.2685 33.0515 38.0695C33.4773 38.8706 34.1658 39.4982 34.9997 39.8454C35.8335 40.1927 36.7612 40.238 37.6245 39.9738C38.4879 39.7096 39.2336 39.1522 39.7345 38.3965C40.2355 37.6407 40.4607 36.7335 40.3718 35.8294C40.2829 34.9252 39.8854 34.08 39.2471 33.4379C38.885 33.0728 38.4548 32.7833 37.9813 32.5862C37.5078 32.389 37.0002 32.2879 36.4878 32.2888Z" fill="#0E8372"/>
<path d="M51.7401 40.1854C52.0343 40.1854 52.3164 40.0677 52.5245 39.8582C52.7325 39.6488 52.8494 39.3647 52.8494 39.0684V33.3638C52.8494 33.0676 52.7325 32.7835 52.5245 32.574C52.3164 32.3645 52.0343 32.2469 51.7401 32.2469H47.8269C47.6742 31.8039 47.4958 31.3704 47.2926 30.9484L50.0604 28.1616C50.2684 27.9521 50.3852 27.6681 50.3852 27.3719C50.3852 27.0757 50.2684 26.7916 50.0604 26.5821L46.0551 22.5498C45.8471 22.3404 45.5649 22.2227 45.2708 22.2227C44.9766 22.2227 44.6945 22.3404 44.4865 22.5498L41.7187 25.3366C41.2997 25.1321 40.8691 24.9524 40.4292 24.7987V20.8585C40.4292 20.5623 40.3123 20.2782 40.1043 20.0687C39.8962 19.8593 39.6141 19.7416 39.3199 19.7416H33.6549C33.3607 19.7416 33.0785 19.8593 32.8705 20.0687C32.6625 20.2782 32.5456 20.5623 32.5456 20.8585V24.7987C32.1057 24.9524 31.6751 25.1321 31.2561 25.3366L28.4885 22.5498C28.2804 22.3404 27.9983 22.2227 27.7041 22.2227C27.41 22.2227 27.1278 22.3404 26.9198 22.5498L22.915 26.5827C22.707 26.7922 22.5901 27.0762 22.5901 27.3724C22.5901 27.6686 22.707 27.9527 22.915 28.1622L25.6827 30.949C25.4795 31.3709 25.3011 31.8045 25.1485 32.2474H21.2352C20.941 32.2474 20.6589 32.3651 20.4509 32.5746C20.2428 32.784 20.126 33.0681 20.126 33.3643V39.069C20.126 39.3652 20.2428 39.6493 20.4509 39.8588C20.6589 40.0682 20.941 40.1859 21.2352 40.1859H25.1485C25.3011 40.6289 25.4795 41.0624 25.6827 41.4843L22.915 44.2705C22.707 44.4799 22.5901 44.764 22.5901 45.0602C22.5901 45.3564 22.707 45.6405 22.915 45.8499L26.9202 49.8824C27.1283 50.0919 27.4104 50.2095 27.7046 50.2095C27.9987 50.2095 28.2809 50.0919 28.4889 49.8824L31.2566 47.0956C31.6757 47.3002 32.1062 47.4798 32.5462 47.6335V51.5737C32.5462 51.8699 32.663 52.154 32.8711 52.3635C33.0791 52.573 33.3612 52.6906 33.6554 52.6906H39.321C39.6152 52.6906 39.8974 52.573 40.1054 52.3635C40.3134 52.154 40.4303 51.8699 40.4303 51.5737V47.6335C40.8702 47.4798 41.3008 47.3002 41.7198 47.0956L44.4876 49.8824C44.6956 50.0919 44.9777 50.2095 45.2719 50.2095C45.5661 50.2095 45.8482 50.0919 46.0562 49.8824L50.0604 45.8495C50.2684 45.6401 50.3852 45.356 50.3852 45.0598C50.3852 44.7636 50.2684 44.4795 50.0604 44.2701L47.2926 41.4832C47.4958 41.0613 47.6742 40.6278 47.8269 40.1848L51.7401 40.1854ZM40.8158 40.574C39.9597 41.4359 38.8691 42.0229 37.6818 42.2607C36.4945 42.4985 35.2638 42.3764 34.1454 41.91C33.0269 41.4435 32.071 40.6536 31.3985 39.6401C30.7259 38.6266 30.3669 37.435 30.3669 36.2161C30.3669 34.9972 30.7259 33.8056 31.3985 32.7921C32.071 31.7786 33.0269 30.9887 34.1454 30.5222C35.2638 30.0558 36.4945 29.9337 37.6818 30.1715C38.8691 30.4093 39.9597 30.9963 40.8158 31.8582C41.3865 32.4291 41.8395 33.1081 42.1486 33.856C42.4576 34.6039 42.6168 35.406 42.6168 36.2161C42.6168 37.0262 42.4576 37.8283 42.1486 38.5762C41.8395 39.3241 41.3865 40.0031 40.8158 40.574Z" fill="#0E8372"/>
<path d="M21.3892 21.0128C29.0009 13.3484 40.9771 12.693 49.3373 19.0435H45.7785C45.4843 19.0435 45.2022 19.1612 44.9942 19.3707C44.7861 19.5801 44.6693 19.8642 44.6693 20.1605C44.6693 20.4567 44.7861 20.7408 44.9942 20.9502C45.2022 21.1597 45.4843 21.2774 45.7785 21.2774H52.0089C52.2054 21.3468 52.4175 21.3589 52.6205 21.312C52.8236 21.2652 53.0093 21.1615 53.1563 21.0128C53.1664 21.0026 53.1751 20.9916 53.1848 20.9811C53.2978 20.8768 53.3881 20.75 53.4498 20.6088C53.5115 20.4675 53.5434 20.3148 53.5434 20.1605V13.459C53.5434 13.1627 53.4265 12.8786 53.2185 12.6692C53.0105 12.4597 52.7283 12.342 52.4341 12.342C52.1399 12.342 51.8578 12.4597 51.6498 12.6692C51.4417 12.8786 51.3249 13.1627 51.3249 13.459V17.7719C42.0763 10.2177 28.4235 10.7711 19.8206 19.4334C19.6164 19.6436 19.5028 19.9264 19.5044 20.2205C19.506 20.5145 19.6228 20.7961 19.8293 21.004C20.0358 21.212 20.3154 21.3295 20.6075 21.3311C20.8995 21.3328 21.1804 21.2184 21.3892 21.0128Z" fill="#0E8372"/>
<path d="M51.588 51.4201C43.9756 59.0838 31.9994 59.7392 23.6392 53.3887H27.198C27.4922 53.3887 27.7743 53.271 27.9823 53.0615C28.1904 52.8521 28.3072 52.568 28.3072 52.2718C28.3072 51.9755 28.1904 51.6914 27.9823 51.482C27.7743 51.2725 27.4922 51.1548 27.198 51.1548H20.9676C20.771 51.086 20.5591 51.0743 20.3562 51.1211C20.1532 51.1678 19.9675 51.2712 19.8202 51.4194C19.8101 51.4296 19.8014 51.4406 19.7917 51.4511C19.6787 51.5554 19.5884 51.6822 19.5267 51.8235C19.465 51.9647 19.4331 52.1174 19.4331 52.2718V58.9733C19.4331 59.2695 19.55 59.5536 19.758 59.763C19.966 59.9725 20.2482 60.0902 20.5424 60.0902C20.8366 60.0902 21.1187 59.9725 21.3267 59.763C21.5348 59.5536 21.6516 59.2695 21.6516 58.9733V54.6603C26.1816 58.345 31.9044 60.2136 37.7199 59.9069C43.5354 59.6002 49.033 57.1399 53.1559 52.9989C53.3531 52.7873 53.4608 52.5069 53.4562 52.2168C53.4516 51.9268 53.3351 51.6499 53.1314 51.4448C52.9277 51.2397 52.6527 51.1224 52.3647 51.1178C52.0766 51.1132 51.7981 51.2216 51.588 51.4201Z" fill="#0E8372"/>
<path d="M70.321 47.5249C72.2354 47.5249 73.7874 45.9622 73.7874 44.0346C73.7874 42.1069 72.2354 40.5442 70.321 40.5442C68.4065 40.5442 66.8545 42.1069 66.8545 44.0346C66.8545 45.9622 68.4065 47.5249 70.321 47.5249Z" fill="#0E8372"/>
<path d="M70.3905 25.047C60.6806 25.047 52.7809 33.0457 52.7809 42.8772C52.7682 46.0586 53.6044 49.185 55.202 51.9298C56.7997 54.6745 59.1001 56.9368 61.863 58.4802V61.989C62.1603 61.9338 62.462 61.9057 62.7643 61.9053H69.2119V49.6486C67.8278 49.3714 66.5955 48.5856 65.7549 47.4443C64.9142 46.3029 64.5252 44.8875 64.6636 43.4733C64.8019 42.0591 65.4577 40.7474 66.5034 39.7931C67.5491 38.8388 68.9099 38.3103 70.3212 38.3103C71.7325 38.3103 73.0933 38.8388 74.139 39.7931C75.1847 40.7474 75.8405 42.0591 75.9788 43.4733C76.1172 44.8875 75.7282 46.3029 74.8875 47.4443C74.0468 48.5856 72.8146 49.3714 71.4305 49.6486V61.9053H78.0167C78.3191 61.9057 78.6207 61.9338 78.918 61.989V58.4802C81.6809 56.9368 83.9814 54.6745 85.579 51.9298C87.1767 49.185 88.0128 46.0586 88.0001 42.8772C88.0001 33.0457 80.1005 25.047 70.3905 25.047Z" fill="#0E8372"/>
<path d="M78.0167 63.0222H62.7643C61.7346 63.0222 60.7471 63.4341 60.019 64.1672C59.2909 64.9003 58.8818 65.8946 58.8818 66.9314C58.8818 67.9682 59.2909 68.9625 60.019 69.6957C60.7471 70.4288 61.7346 70.8406 62.7643 70.8406H78.0167C79.0464 70.8406 80.0339 70.4288 80.762 69.6957C81.4901 68.9625 81.8991 67.9682 81.8991 66.9314C81.8991 65.8946 81.4901 64.9003 80.762 64.1672C80.0339 63.4341 79.0464 63.0222 78.0167 63.0222Z" fill="#0E8372"/>
<path d="M66.9236 77.5421C66.669 77.5421 66.4148 77.5227 66.1631 77.4839C66.183 78.6202 66.6461 79.703 67.4524 80.4983C68.2587 81.2936 69.3434 81.7376 70.4721 81.7343C71.6008 81.731 72.6829 81.2807 73.4845 80.4807C74.2862 79.6806 74.7431 78.5951 74.7564 77.4587C74.4596 77.514 74.1584 77.542 73.8565 77.5425L66.9236 77.5421Z" fill="#0E8372"/>
<path d="M63.0812 71.9575C63.0013 72.5124 63.0409 73.078 63.1973 73.6161C63.3537 74.1542 63.6234 74.652 63.9879 75.0759C64.3524 75.4997 64.8032 75.8396 65.3097 76.0724C65.8163 76.3052 66.3666 76.4255 66.9234 76.4252H73.8564C74.4132 76.4255 74.9636 76.3052 75.4701 76.0724C75.9766 75.8396 76.4274 75.4997 76.7919 75.0759C77.1564 74.652 77.4261 74.1542 77.5825 73.6161C77.739 73.078 77.7785 72.5124 77.6986 71.9575H63.0812Z" fill="#0E8372"/>
</svg>
