<svg width="372" height="332" viewBox="0 0 372 332" fill="none" xmlns="http://www.w3.org/2000/svg">
<path d="M74.7614 166V151.455H79.6761C80.8125 151.455 81.7453 151.649 82.4744 152.037C83.2036 152.42 83.7434 152.948 84.0938 153.621C84.4441 154.293 84.6193 155.058 84.6193 155.915C84.6193 156.772 84.4441 157.532 84.0938 158.195C83.7434 158.857 83.206 159.378 82.4815 159.757C81.7571 160.131 80.8314 160.318 79.7045 160.318H75.7273V158.727H79.6477C80.4242 158.727 81.0492 158.614 81.5227 158.386C82.0009 158.159 82.3466 157.837 82.5597 157.42C82.7775 156.999 82.8864 156.497 82.8864 155.915C82.8864 155.332 82.7775 154.823 82.5597 154.388C82.3419 153.952 81.9938 153.616 81.5156 153.379C81.0374 153.138 80.4053 153.017 79.6193 153.017H76.5227V166H74.7614ZM81.608 159.466L85.1875 166H83.142L79.6193 159.466H81.608ZM91.7837 166.227C90.7326 166.227 89.8259 165.995 89.0636 165.531C88.306 165.062 87.7212 164.409 87.3093 163.571C86.9021 162.728 86.6985 161.748 86.6985 160.631C86.6985 159.513 86.9021 158.528 87.3093 157.676C87.7212 156.819 88.2942 156.152 89.0281 155.673C89.7667 155.19 90.6284 154.949 91.6133 154.949C92.1815 154.949 92.7425 155.044 93.2965 155.233C93.8505 155.422 94.3548 155.73 94.8093 156.156C95.2638 156.578 95.6261 157.136 95.896 157.832C96.1658 158.528 96.3008 159.385 96.3008 160.403V161.114H87.8917V159.665H94.5962C94.5962 159.049 94.4731 158.5 94.2269 158.017C93.9854 157.534 93.6398 157.153 93.19 156.874C92.7449 156.594 92.2193 156.455 91.6133 156.455C90.9457 156.455 90.368 156.62 89.8803 156.952C89.3974 157.278 89.0257 157.705 88.7653 158.23C88.5049 158.756 88.3746 159.319 88.3746 159.92V160.886C88.3746 161.71 88.5167 162.409 88.8008 162.982C89.0896 163.55 89.4897 163.983 90.0011 164.281C90.5124 164.575 91.1067 164.722 91.7837 164.722C92.2241 164.722 92.6218 164.66 92.9769 164.537C93.3368 164.409 93.6469 164.22 93.9073 163.969C94.1677 163.713 94.369 163.396 94.511 163.017L96.1303 163.472C95.9599 164.021 95.6734 164.504 95.271 164.92C94.8685 165.332 94.3713 165.654 93.7795 165.886C93.1876 166.114 92.5224 166.227 91.7837 166.227ZM102.061 166.256C101.369 166.256 100.742 166.125 100.179 165.865C99.6152 165.6 99.1677 165.219 98.8363 164.722C98.5049 164.22 98.3391 163.614 98.3391 162.903C98.3391 162.278 98.4622 161.772 98.7085 161.384C98.9547 160.991 99.2837 160.683 99.6957 160.46C100.108 160.238 100.562 160.072 101.059 159.963C101.561 159.849 102.065 159.759 102.572 159.693C103.235 159.608 103.772 159.544 104.184 159.501C104.601 159.454 104.904 159.376 105.093 159.267C105.288 159.158 105.385 158.969 105.385 158.699V158.642C105.385 157.941 105.193 157.397 104.809 157.009C104.431 156.62 103.855 156.426 103.083 156.426C102.283 156.426 101.656 156.601 101.201 156.952C100.747 157.302 100.427 157.676 100.243 158.074L98.6516 157.506C98.9357 156.843 99.3145 156.327 99.788 155.957C100.266 155.583 100.787 155.323 101.35 155.176C101.919 155.025 102.477 154.949 103.027 154.949C103.377 154.949 103.779 154.991 104.234 155.077C104.693 155.157 105.136 155.325 105.562 155.581C105.993 155.837 106.35 156.223 106.635 156.739C106.919 157.255 107.061 157.946 107.061 158.812V166H105.385V164.523H105.299C105.186 164.759 104.996 165.013 104.731 165.283C104.466 165.553 104.113 165.782 103.673 165.972C103.233 166.161 102.695 166.256 102.061 166.256ZM102.316 164.75C102.979 164.75 103.538 164.62 103.993 164.359C104.452 164.099 104.797 163.763 105.029 163.351C105.266 162.939 105.385 162.506 105.385 162.051V160.517C105.314 160.602 105.157 160.68 104.916 160.751C104.679 160.818 104.404 160.877 104.092 160.929C103.784 160.976 103.484 161.019 103.19 161.057C102.901 161.09 102.667 161.118 102.487 161.142C102.051 161.199 101.644 161.291 101.265 161.419C100.891 161.542 100.588 161.729 100.356 161.98C100.129 162.226 100.015 162.562 100.015 162.989C100.015 163.571 100.231 164.011 100.662 164.31C101.097 164.603 101.649 164.75 102.316 164.75ZM111.796 151.455V166H110.12V151.455H111.796ZM121.116 158.983V160.545H114.752V158.983H121.116ZM122.013 153.017V151.455H132.922V153.017H128.348V166H126.587V153.017H122.013ZM135.413 166V155.091H137.089V166H135.413ZM136.265 153.273C135.939 153.273 135.657 153.161 135.42 152.939C135.188 152.716 135.072 152.449 135.072 152.136C135.072 151.824 135.188 151.556 135.42 151.334C135.657 151.111 135.939 151 136.265 151C136.592 151 136.871 151.111 137.103 151.334C137.34 151.556 137.458 151.824 137.458 152.136C137.458 152.449 137.34 152.716 137.103 152.939C136.871 153.161 136.592 153.273 136.265 153.273ZM140.159 166V155.091H141.778V156.795H141.92C142.148 156.213 142.515 155.761 143.021 155.439C143.528 155.112 144.136 154.949 144.847 154.949C145.566 154.949 146.165 155.112 146.643 155.439C147.126 155.761 147.503 156.213 147.773 156.795H147.886C148.166 156.232 148.585 155.785 149.143 155.453C149.702 155.117 150.372 154.949 151.153 154.949C152.129 154.949 152.927 155.254 153.547 155.865C154.167 156.471 154.477 157.416 154.477 158.699V166H152.801V158.699C152.801 157.894 152.581 157.319 152.141 156.973C151.7 156.627 151.182 156.455 150.585 156.455C149.818 156.455 149.224 156.687 148.803 157.151C148.381 157.61 148.17 158.192 148.17 158.898V166H146.466V158.528C146.466 157.908 146.265 157.409 145.862 157.03C145.46 156.646 144.941 156.455 144.307 156.455C143.871 156.455 143.464 156.571 143.085 156.803C142.711 157.035 142.408 157.357 142.176 157.768C141.949 158.176 141.835 158.647 141.835 159.182V166H140.159ZM162.116 166.227C161.065 166.227 160.158 165.995 159.396 165.531C158.638 165.062 158.053 164.409 157.641 163.571C157.234 162.728 157.031 161.748 157.031 160.631C157.031 159.513 157.234 158.528 157.641 157.676C158.053 156.819 158.626 156.152 159.36 155.673C160.099 155.19 160.96 154.949 161.945 154.949C162.513 154.949 163.075 155.044 163.629 155.233C164.183 155.422 164.687 155.73 165.141 156.156C165.596 156.578 165.958 157.136 166.228 157.832C166.498 158.528 166.633 159.385 166.633 160.403V161.114H158.224V159.665H164.928C164.928 159.049 164.805 158.5 164.559 158.017C164.317 157.534 163.972 157.153 163.522 156.874C163.077 156.594 162.551 156.455 161.945 156.455C161.278 156.455 160.7 156.62 160.212 156.952C159.729 157.278 159.358 157.705 159.097 158.23C158.837 158.756 158.707 159.319 158.707 159.92V160.886C158.707 161.71 158.849 162.409 159.133 162.982C159.422 163.55 159.822 163.983 160.333 164.281C160.844 164.575 161.439 164.722 162.116 164.722C162.556 164.722 162.954 164.66 163.309 164.537C163.669 164.409 163.979 164.22 164.239 163.969C164.5 163.713 164.701 163.396 164.843 163.017L166.462 163.472C166.292 164.021 166.005 164.504 165.603 164.92C165.201 165.332 164.703 165.654 164.112 165.886C163.52 166.114 162.854 166.227 162.116 166.227ZM175.035 151.455H177.137L182.08 163.528H182.251L187.194 151.455H189.296V166H187.648V154.949H187.506L182.961 166H181.37L176.825 154.949H176.683V166H175.035V151.455ZM197.032 166.227C196.047 166.227 195.183 165.993 194.44 165.524C193.701 165.055 193.124 164.4 192.707 163.557C192.295 162.714 192.089 161.729 192.089 160.602C192.089 159.466 192.295 158.474 192.707 157.626C193.124 156.779 193.701 156.121 194.44 155.652C195.183 155.183 196.047 154.949 197.032 154.949C198.017 154.949 198.879 155.183 199.618 155.652C200.361 156.121 200.939 156.779 201.35 157.626C201.767 158.474 201.975 159.466 201.975 160.602C201.975 161.729 201.767 162.714 201.35 163.557C200.939 164.4 200.361 165.055 199.618 165.524C198.879 165.993 198.017 166.227 197.032 166.227ZM197.032 164.722C197.78 164.722 198.396 164.53 198.879 164.146C199.362 163.763 199.719 163.259 199.951 162.634C200.183 162.009 200.299 161.331 200.299 160.602C200.299 159.873 200.183 159.194 199.951 158.564C199.719 157.934 199.362 157.425 198.879 157.037C198.396 156.649 197.78 156.455 197.032 156.455C196.284 156.455 195.669 156.649 195.186 157.037C194.703 157.425 194.345 157.934 194.113 158.564C193.881 159.194 193.765 159.873 193.765 160.602C193.765 161.331 193.881 162.009 194.113 162.634C194.345 163.259 194.703 163.763 195.186 164.146C195.669 164.53 196.284 164.722 197.032 164.722ZM206.21 159.438V166H204.534V155.091H206.153V156.795H206.295C206.551 156.241 206.939 155.796 207.46 155.46C207.981 155.119 208.653 154.949 209.477 154.949C210.216 154.949 210.862 155.1 211.416 155.403C211.97 155.702 212.401 156.156 212.709 156.767C213.017 157.373 213.17 158.14 213.17 159.068V166H211.494V159.182C211.494 158.325 211.272 157.657 210.827 157.179C210.382 156.696 209.771 156.455 208.994 156.455C208.459 156.455 207.981 156.571 207.56 156.803C207.143 157.035 206.814 157.373 206.572 157.818C206.331 158.263 206.21 158.803 206.21 159.438ZM216.233 166V155.091H217.909V166H216.233ZM217.086 153.273C216.759 153.273 216.477 153.161 216.24 152.939C216.008 152.716 215.892 152.449 215.892 152.136C215.892 151.824 216.008 151.556 216.24 151.334C216.477 151.111 216.759 151 217.086 151C217.412 151 217.692 151.111 217.924 151.334C218.16 151.556 218.279 151.824 218.279 152.136C218.279 152.449 218.16 152.716 217.924 152.939C217.692 153.161 217.412 153.273 217.086 153.273ZM225.724 155.091V156.511H220.07V155.091H225.724ZM221.718 152.477H223.394V162.875C223.394 163.348 223.463 163.704 223.6 163.94C223.742 164.172 223.922 164.329 224.14 164.409C224.362 164.485 224.597 164.523 224.843 164.523C225.028 164.523 225.179 164.513 225.298 164.494C225.416 164.471 225.511 164.452 225.582 164.438L225.923 165.943C225.809 165.986 225.65 166.028 225.447 166.071C225.243 166.118 224.985 166.142 224.673 166.142C224.199 166.142 223.735 166.04 223.281 165.837C222.831 165.633 222.457 165.323 222.158 164.906C221.865 164.49 221.718 163.964 221.718 163.33V152.477ZM232.56 166.227C231.575 166.227 230.711 165.993 229.967 165.524C229.229 165.055 228.651 164.4 228.234 163.557C227.822 162.714 227.616 161.729 227.616 160.602C227.616 159.466 227.822 158.474 228.234 157.626C228.651 156.779 229.229 156.121 229.967 155.652C230.711 155.183 231.575 154.949 232.56 154.949C233.545 154.949 234.406 155.183 235.145 155.652C235.888 156.121 236.466 156.779 236.878 157.626C237.295 158.474 237.503 159.466 237.503 160.602C237.503 161.729 237.295 162.714 236.878 163.557C236.466 164.4 235.888 165.055 235.145 165.524C234.406 165.993 233.545 166.227 232.56 166.227ZM232.56 164.722C233.308 164.722 233.923 164.53 234.406 164.146C234.889 163.763 235.247 163.259 235.479 162.634C235.711 162.009 235.827 161.331 235.827 160.602C235.827 159.873 235.711 159.194 235.479 158.564C235.247 157.934 234.889 157.425 234.406 157.037C233.923 156.649 233.308 156.455 232.56 156.455C231.812 156.455 231.196 156.649 230.713 157.037C230.23 157.425 229.873 157.934 229.641 158.564C229.409 159.194 229.293 159.873 229.293 160.602C229.293 161.331 229.409 162.009 229.641 162.634C229.873 163.259 230.23 163.763 230.713 164.146C231.196 164.53 231.812 164.722 232.56 164.722ZM240.061 166V155.091H241.681V156.739H241.794C241.993 156.199 242.353 155.761 242.874 155.425C243.395 155.089 243.982 154.92 244.635 154.92C244.758 154.92 244.912 154.923 245.097 154.928C245.282 154.932 245.421 154.939 245.516 154.949V156.653C245.459 156.639 245.329 156.618 245.125 156.589C244.926 156.556 244.716 156.54 244.493 156.54C243.963 156.54 243.489 156.651 243.073 156.874C242.661 157.091 242.334 157.394 242.093 157.783C241.856 158.166 241.738 158.604 241.738 159.097V166H240.061ZM247.503 166V155.091H249.179V166H247.503ZM248.355 153.273C248.028 153.273 247.747 153.161 247.51 152.939C247.278 152.716 247.162 152.449 247.162 152.136C247.162 151.824 247.278 151.556 247.51 151.334C247.747 151.111 248.028 151 248.355 151C248.682 151 248.961 151.111 249.193 151.334C249.43 151.556 249.548 151.824 249.548 152.136C249.548 152.449 249.43 152.716 249.193 152.939C248.961 153.161 248.682 153.273 248.355 153.273ZM253.925 159.438V166H252.249V155.091H253.868V156.795H254.01C254.266 156.241 254.654 155.796 255.175 155.46C255.696 155.119 256.368 154.949 257.192 154.949C257.931 154.949 258.577 155.1 259.131 155.403C259.685 155.702 260.116 156.156 260.424 156.767C260.731 157.373 260.885 158.14 260.885 159.068V166H259.209V159.182C259.209 158.325 258.987 157.657 258.542 157.179C258.096 156.696 257.486 156.455 256.709 156.455C256.174 156.455 255.696 156.571 255.275 156.803C254.858 157.035 254.529 157.373 254.287 157.818C254.046 158.263 253.925 158.803 253.925 159.438ZM268.352 170.318C267.542 170.318 266.846 170.214 266.263 170.006C265.681 169.802 265.196 169.532 264.808 169.196C264.424 168.865 264.119 168.509 263.891 168.131L265.227 167.193C265.378 167.392 265.57 167.619 265.802 167.875C266.034 168.135 266.351 168.36 266.754 168.55C267.161 168.744 267.693 168.841 268.352 168.841C269.232 168.841 269.959 168.628 270.532 168.202C271.105 167.776 271.391 167.108 271.391 166.199V163.983H271.249C271.126 164.182 270.951 164.428 270.724 164.722C270.501 165.01 270.179 165.268 269.758 165.496C269.341 165.718 268.778 165.83 268.067 165.83C267.187 165.83 266.396 165.621 265.695 165.205C264.999 164.788 264.448 164.182 264.04 163.386C263.638 162.591 263.437 161.625 263.437 160.489C263.437 159.371 263.633 158.398 264.026 157.57C264.419 156.736 264.966 156.092 265.667 155.638C266.368 155.179 267.177 154.949 268.096 154.949C268.806 154.949 269.37 155.067 269.786 155.304C270.208 155.536 270.53 155.801 270.752 156.099C270.979 156.393 271.155 156.634 271.278 156.824H271.448V155.091H273.067V166.312C273.067 167.25 272.854 168.012 272.428 168.599C272.007 169.191 271.439 169.625 270.724 169.899C270.013 170.179 269.223 170.318 268.352 170.318ZM268.295 164.324C268.967 164.324 269.535 164.17 269.999 163.862C270.463 163.554 270.816 163.112 271.058 162.534C271.299 161.956 271.42 161.265 271.42 160.46C271.42 159.674 271.301 158.981 271.065 158.379C270.828 157.778 270.478 157.307 270.013 156.966C269.549 156.625 268.977 156.455 268.295 156.455C267.585 156.455 266.993 156.634 266.519 156.994C266.05 157.354 265.698 157.837 265.461 158.443C265.229 159.049 265.113 159.722 265.113 160.46C265.113 161.218 265.231 161.888 265.468 162.47C265.71 163.048 266.065 163.502 266.533 163.834C267.007 164.161 267.594 164.324 268.295 164.324ZM282.585 166H280.738L286.079 151.455H287.897L293.238 166H291.391L287.045 153.756H286.931L282.585 166ZM283.266 160.318H290.71V161.881H283.266V160.318ZM296.952 159.438V166H295.276V155.091H296.896V156.795H297.038C297.293 156.241 297.682 155.796 298.202 155.46C298.723 155.119 299.396 154.949 300.219 154.949C300.958 154.949 301.604 155.1 302.158 155.403C302.712 155.702 303.143 156.156 303.451 156.767C303.759 157.373 303.913 158.14 303.913 159.068V166H302.237V159.182C302.237 158.325 302.014 157.657 301.569 157.179C301.124 156.696 300.513 156.455 299.737 156.455C299.201 156.455 298.723 156.571 298.302 156.803C297.885 157.035 297.556 157.373 297.315 157.818C297.073 158.263 296.952 158.803 296.952 159.438ZM311.095 166.227C310.186 166.227 309.383 165.998 308.687 165.538C307.991 165.074 307.447 164.421 307.054 163.578C306.661 162.731 306.464 161.729 306.464 160.574C306.464 159.428 306.661 158.434 307.054 157.591C307.447 156.748 307.993 156.097 308.694 155.638C309.395 155.179 310.205 154.949 311.123 154.949C311.833 154.949 312.395 155.067 312.806 155.304C313.223 155.536 313.54 155.801 313.758 156.099C313.981 156.393 314.154 156.634 314.277 156.824H314.419V151.455H316.095V166H314.475V164.324H314.277C314.154 164.523 313.978 164.774 313.751 165.077C313.524 165.375 313.199 165.643 312.778 165.879C312.357 166.111 311.796 166.227 311.095 166.227ZM311.322 164.722C311.994 164.722 312.563 164.546 313.027 164.196C313.491 163.841 313.843 163.351 314.085 162.726C314.326 162.096 314.447 161.369 314.447 160.545C314.447 159.731 314.329 159.018 314.092 158.408C313.855 157.792 313.505 157.314 313.041 156.973C312.577 156.627 312.004 156.455 311.322 156.455C310.612 156.455 310.02 156.637 309.547 157.001C309.078 157.361 308.725 157.851 308.488 158.472C308.256 159.087 308.14 159.778 308.14 160.545C308.14 161.322 308.259 162.027 308.495 162.662C308.737 163.292 309.092 163.794 309.561 164.168C310.034 164.537 310.621 164.722 311.322 164.722ZM75.358 190H73.5114L78.8523 175.455H80.6705L86.0114 190H84.1648L79.8182 177.756H79.7045L75.358 190ZM76.0398 184.318H83.483V185.881H76.0398V184.318ZM92.169 190.227C91.2599 190.227 90.4574 189.998 89.7614 189.538C89.0653 189.074 88.5208 188.421 88.1278 187.578C87.7348 186.731 87.5384 185.729 87.5384 184.574C87.5384 183.428 87.7348 182.434 88.1278 181.591C88.5208 180.748 89.0677 180.097 89.7685 179.638C90.4692 179.179 91.2789 178.949 92.1974 178.949C92.9077 178.949 93.4688 179.067 93.8807 179.304C94.2973 179.536 94.6146 179.801 94.8324 180.099C95.0549 180.393 95.2277 180.634 95.3509 180.824H95.4929V175.455H97.169V190H95.5497V188.324H95.3509C95.2277 188.523 95.0526 188.774 94.8253 189.077C94.598 189.375 94.2737 189.643 93.8523 189.879C93.4309 190.111 92.8698 190.227 92.169 190.227ZM92.3963 188.722C93.0687 188.722 93.6368 188.546 94.1009 188.196C94.5649 187.841 94.9176 187.351 95.1591 186.726C95.4006 186.096 95.5213 185.369 95.5213 184.545C95.5213 183.731 95.4029 183.018 95.1662 182.408C94.9295 181.792 94.5791 181.314 94.1151 180.973C93.651 180.627 93.0781 180.455 92.3963 180.455C91.6861 180.455 91.0942 180.637 90.6207 181.001C90.152 181.361 89.7992 181.851 89.5625 182.472C89.3305 183.087 89.2145 183.778 89.2145 184.545C89.2145 185.322 89.3329 186.027 89.5696 186.662C89.8111 187.292 90.1662 187.794 90.6349 188.168C91.1084 188.537 91.6955 188.722 92.3963 188.722ZM100.472 179.091H102.148V190.795C102.148 191.468 102.032 192.05 101.8 192.543C101.572 193.035 101.227 193.416 100.763 193.686C100.304 193.956 99.7235 194.091 99.0227 194.091C98.9659 194.091 98.9091 194.091 98.8523 194.091C98.7955 194.091 98.7386 194.091 98.6818 194.091V192.528C98.7386 192.528 98.7907 192.528 98.8381 192.528C98.8854 192.528 98.9375 192.528 98.9943 192.528C99.5057 192.528 99.8797 192.377 100.116 192.074C100.353 191.776 100.472 191.349 100.472 190.795V179.091ZM101.295 177.273C100.969 177.273 100.687 177.161 100.45 176.939C100.218 176.716 100.102 176.449 100.102 176.136C100.102 175.824 100.218 175.556 100.45 175.334C100.687 175.111 100.969 175 101.295 175C101.622 175 101.902 175.111 102.134 175.334C102.37 175.556 102.489 175.824 102.489 176.136C102.489 176.449 102.37 176.716 102.134 176.939C101.902 177.161 101.622 177.273 101.295 177.273ZM112.093 185.54V179.091H113.769V190H112.093V188.153H111.979C111.723 188.707 111.326 189.179 110.786 189.567C110.246 189.95 109.564 190.142 108.74 190.142C108.059 190.142 107.453 189.993 106.922 189.695C106.392 189.392 105.975 188.937 105.672 188.331C105.369 187.72 105.218 186.951 105.218 186.023V179.091H106.894V185.909C106.894 186.705 107.116 187.339 107.561 187.812C108.011 188.286 108.584 188.523 109.28 188.523C109.697 188.523 110.121 188.416 110.551 188.203C110.987 187.99 111.352 187.663 111.645 187.223C111.944 186.783 112.093 186.222 112.093 185.54ZM124.566 181.534L123.06 181.96C122.966 181.709 122.826 181.465 122.641 181.229C122.461 180.987 122.215 180.788 121.903 180.632C121.59 180.476 121.19 180.398 120.702 180.398C120.035 180.398 119.478 180.552 119.033 180.859C118.593 181.162 118.373 181.548 118.373 182.017C118.373 182.434 118.524 182.763 118.827 183.004C119.13 183.246 119.604 183.447 120.248 183.608L121.867 184.006C122.843 184.242 123.569 184.605 124.048 185.092C124.526 185.575 124.765 186.198 124.765 186.96C124.765 187.585 124.585 188.144 124.225 188.636C123.87 189.129 123.373 189.517 122.734 189.801C122.094 190.085 121.351 190.227 120.504 190.227C119.391 190.227 118.47 189.986 117.741 189.503C117.012 189.02 116.55 188.314 116.356 187.386L117.947 186.989C118.098 187.576 118.385 188.016 118.806 188.31C119.232 188.603 119.789 188.75 120.475 188.75C121.256 188.75 121.877 188.584 122.336 188.253C122.8 187.917 123.032 187.514 123.032 187.045C123.032 186.667 122.899 186.349 122.634 186.094C122.369 185.833 121.962 185.639 121.413 185.511L119.594 185.085C118.595 184.848 117.862 184.482 117.393 183.984C116.929 183.482 116.697 182.855 116.697 182.102C116.697 181.487 116.87 180.942 117.215 180.469C117.566 179.995 118.041 179.624 118.643 179.354C119.249 179.084 119.935 178.949 120.702 178.949C121.782 178.949 122.629 179.186 123.245 179.659C123.865 180.133 124.306 180.758 124.566 181.534ZM132.032 179.091V180.511H126.379V179.091H132.032ZM128.027 176.477H129.703V186.875C129.703 187.348 129.771 187.704 129.909 187.94C130.051 188.172 130.231 188.329 130.449 188.409C130.671 188.485 130.905 188.523 131.152 188.523C131.336 188.523 131.488 188.513 131.606 188.494C131.725 188.471 131.819 188.452 131.89 188.438L132.231 189.943C132.118 189.986 131.959 190.028 131.755 190.071C131.552 190.118 131.294 190.142 130.981 190.142C130.508 190.142 130.044 190.04 129.589 189.837C129.139 189.633 128.765 189.323 128.467 188.906C128.173 188.49 128.027 187.964 128.027 187.33V176.477ZM134.554 190V179.091H136.173V180.795H136.315C136.542 180.213 136.909 179.761 137.416 179.439C137.922 179.112 138.531 178.949 139.241 178.949C139.961 178.949 140.56 179.112 141.038 179.439C141.521 179.761 141.897 180.213 142.167 180.795H142.281C142.56 180.232 142.979 179.785 143.538 179.453C144.097 179.117 144.767 178.949 145.548 178.949C146.523 178.949 147.321 179.254 147.941 179.865C148.562 180.471 148.872 181.416 148.872 182.699V190H147.196V182.699C147.196 181.894 146.975 181.319 146.535 180.973C146.095 180.627 145.576 180.455 144.98 180.455C144.213 180.455 143.618 180.687 143.197 181.151C142.776 181.61 142.565 182.192 142.565 182.898V190H140.86V182.528C140.86 181.908 140.659 181.409 140.257 181.03C139.854 180.646 139.336 180.455 138.701 180.455C138.266 180.455 137.859 180.571 137.48 180.803C137.106 181.035 136.803 181.357 136.571 181.768C136.343 182.176 136.23 182.647 136.23 183.182V190H134.554ZM156.51 190.227C155.459 190.227 154.552 189.995 153.79 189.531C153.033 189.062 152.448 188.409 152.036 187.571C151.629 186.728 151.425 185.748 151.425 184.631C151.425 183.513 151.629 182.528 152.036 181.676C152.448 180.819 153.021 180.152 153.755 179.673C154.493 179.19 155.355 178.949 156.34 178.949C156.908 178.949 157.469 179.044 158.023 179.233C158.577 179.422 159.081 179.73 159.536 180.156C159.99 180.578 160.353 181.136 160.623 181.832C160.892 182.528 161.027 183.385 161.027 184.403V185.114H152.618V183.665H159.323C159.323 183.049 159.2 182.5 158.953 182.017C158.712 181.534 158.366 181.153 157.917 180.874C157.471 180.594 156.946 180.455 156.34 180.455C155.672 180.455 155.095 180.62 154.607 180.952C154.124 181.278 153.752 181.705 153.492 182.23C153.231 182.756 153.101 183.319 153.101 183.92V184.886C153.101 185.71 153.243 186.409 153.527 186.982C153.816 187.55 154.216 187.983 154.728 188.281C155.239 188.575 155.833 188.722 156.51 188.722C156.951 188.722 157.348 188.66 157.703 188.537C158.063 188.409 158.373 188.22 158.634 187.969C158.894 187.713 159.096 187.396 159.238 187.017L160.857 187.472C160.686 188.021 160.4 188.504 159.998 188.92C159.595 189.332 159.098 189.654 158.506 189.886C157.914 190.114 157.249 190.227 156.51 190.227ZM165.253 183.438V190H163.577V179.091H165.196V180.795H165.338C165.594 180.241 165.982 179.796 166.503 179.46C167.024 179.119 167.696 178.949 168.52 178.949C169.259 178.949 169.905 179.1 170.459 179.403C171.013 179.702 171.444 180.156 171.752 180.767C172.06 181.373 172.213 182.14 172.213 183.068V190H170.537V183.182C170.537 182.325 170.315 181.657 169.87 181.179C169.425 180.696 168.814 180.455 168.037 180.455C167.502 180.455 167.024 180.571 166.603 180.803C166.186 181.035 165.857 181.373 165.615 181.818C165.374 182.263 165.253 182.803 165.253 183.438ZM180.021 179.091V180.511H174.367V179.091H180.021ZM176.015 176.477H177.691V186.875C177.691 187.348 177.76 187.704 177.897 187.94C178.039 188.172 178.219 188.329 178.437 188.409C178.659 188.485 178.894 188.523 179.14 188.523C179.325 188.523 179.476 188.513 179.594 188.494C179.713 188.471 179.808 188.452 179.879 188.438L180.219 189.943C180.106 189.986 179.947 190.028 179.744 190.071C179.54 190.118 179.282 190.142 178.969 190.142C178.496 190.142 178.032 190.04 177.577 189.837C177.128 189.633 176.754 189.323 176.455 188.906C176.162 188.49 176.015 187.964 176.015 187.33V176.477ZM190.074 181.534L188.568 181.96C188.473 181.709 188.334 181.465 188.149 181.229C187.969 180.987 187.723 180.788 187.411 180.632C187.098 180.476 186.698 180.398 186.21 180.398C185.543 180.398 184.986 180.552 184.541 180.859C184.101 181.162 183.881 181.548 183.881 182.017C183.881 182.434 184.032 182.763 184.335 183.004C184.638 183.246 185.112 183.447 185.756 183.608L187.375 184.006C188.35 184.242 189.077 184.605 189.555 185.092C190.034 185.575 190.273 186.198 190.273 186.96C190.273 187.585 190.093 188.144 189.733 188.636C189.378 189.129 188.881 189.517 188.241 189.801C187.602 190.085 186.859 190.227 186.011 190.227C184.899 190.227 183.978 189.986 183.249 189.503C182.519 189.02 182.058 188.314 181.864 187.386L183.455 186.989C183.606 187.576 183.893 188.016 184.314 188.31C184.74 188.603 185.296 188.75 185.983 188.75C186.764 188.75 187.384 188.584 187.844 188.253C188.308 187.917 188.54 187.514 188.54 187.045C188.54 186.667 188.407 186.349 188.142 186.094C187.877 185.833 187.47 185.639 186.92 185.511L185.102 185.085C184.103 184.848 183.369 184.482 182.901 183.984C182.437 183.482 182.205 182.855 182.205 182.102C182.205 181.487 182.377 180.942 182.723 180.469C183.073 179.995 183.549 179.624 184.151 179.354C184.757 179.084 185.443 178.949 186.21 178.949C187.29 178.949 188.137 179.186 188.753 179.659C189.373 180.133 189.813 180.758 190.074 181.534ZM198.648 190V175.455H203.733C204.747 175.455 205.582 175.63 206.24 175.98C206.899 176.326 207.389 176.792 207.711 177.379C208.033 177.962 208.194 178.608 208.194 179.318C208.194 179.943 208.082 180.459 207.86 180.866C207.642 181.274 207.353 181.596 206.993 181.832C206.638 182.069 206.252 182.244 205.836 182.358V182.5C206.281 182.528 206.728 182.685 207.178 182.969C207.628 183.253 208.004 183.66 208.307 184.19C208.61 184.721 208.762 185.369 208.762 186.136C208.762 186.866 208.596 187.521 208.265 188.104C207.933 188.686 207.41 189.148 206.695 189.489C205.98 189.83 205.05 190 203.904 190H198.648ZM200.409 188.438H203.904C205.054 188.438 205.871 188.215 206.354 187.77C206.842 187.32 207.086 186.776 207.086 186.136C207.086 185.644 206.96 185.189 206.709 184.773C206.458 184.351 206.101 184.015 205.637 183.764C205.173 183.509 204.623 183.381 203.989 183.381H200.409V188.438ZM200.409 181.847H203.676C204.207 181.847 204.685 181.742 205.111 181.534C205.542 181.326 205.883 181.032 206.134 180.653C206.39 180.275 206.517 179.83 206.517 179.318C206.517 178.679 206.295 178.137 205.85 177.692C205.405 177.242 204.699 177.017 203.733 177.017H200.409V181.847ZM214.639 190.256C213.948 190.256 213.32 190.125 212.757 189.865C212.193 189.6 211.746 189.219 211.414 188.722C211.083 188.22 210.917 187.614 210.917 186.903C210.917 186.278 211.04 185.772 211.287 185.384C211.533 184.991 211.862 184.683 212.274 184.46C212.686 184.238 213.14 184.072 213.637 183.963C214.139 183.849 214.644 183.759 215.15 183.693C215.813 183.608 216.35 183.544 216.762 183.501C217.179 183.454 217.482 183.376 217.672 183.267C217.866 183.158 217.963 182.969 217.963 182.699V182.642C217.963 181.941 217.771 181.397 217.387 181.009C217.009 180.62 216.433 180.426 215.662 180.426C214.861 180.426 214.234 180.601 213.779 180.952C213.325 181.302 213.005 181.676 212.821 182.074L211.23 181.506C211.514 180.843 211.893 180.327 212.366 179.957C212.844 179.583 213.365 179.323 213.929 179.176C214.497 179.025 215.056 178.949 215.605 178.949C215.955 178.949 216.358 178.991 216.812 179.077C217.271 179.157 217.714 179.325 218.14 179.581C218.571 179.837 218.929 180.223 219.213 180.739C219.497 181.255 219.639 181.946 219.639 182.812V190H217.963V188.523H217.877C217.764 188.759 217.574 189.013 217.309 189.283C217.044 189.553 216.691 189.782 216.251 189.972C215.811 190.161 215.273 190.256 214.639 190.256ZM214.895 188.75C215.557 188.75 216.116 188.62 216.571 188.359C217.03 188.099 217.376 187.763 217.608 187.351C217.844 186.939 217.963 186.506 217.963 186.051V184.517C217.892 184.602 217.735 184.68 217.494 184.751C217.257 184.818 216.983 184.877 216.67 184.929C216.362 184.976 216.062 185.019 215.768 185.057C215.479 185.09 215.245 185.118 215.065 185.142C214.629 185.199 214.222 185.291 213.843 185.419C213.469 185.542 213.166 185.729 212.934 185.98C212.707 186.226 212.593 186.562 212.593 186.989C212.593 187.571 212.809 188.011 213.24 188.31C213.675 188.603 214.227 188.75 214.895 188.75ZM230.425 181.534L228.92 181.96C228.825 181.709 228.685 181.465 228.501 181.229C228.321 180.987 228.075 180.788 227.762 180.632C227.45 180.476 227.049 180.398 226.562 180.398C225.894 180.398 225.338 180.552 224.893 180.859C224.452 181.162 224.232 181.548 224.232 182.017C224.232 182.434 224.384 182.763 224.687 183.004C224.99 183.246 225.463 183.447 226.107 183.608L227.727 184.006C228.702 184.242 229.429 184.605 229.907 185.092C230.385 185.575 230.624 186.198 230.624 186.96C230.624 187.585 230.444 188.144 230.085 188.636C229.729 189.129 229.232 189.517 228.593 189.801C227.954 190.085 227.21 190.227 226.363 190.227C225.25 190.227 224.329 189.986 223.6 189.503C222.871 189.02 222.409 188.314 222.215 187.386L223.806 186.989C223.958 187.576 224.244 188.016 224.665 188.31C225.092 188.603 225.648 188.75 226.335 188.75C227.116 188.75 227.736 188.584 228.195 188.253C228.659 187.917 228.891 187.514 228.891 187.045C228.891 186.667 228.759 186.349 228.494 186.094C228.228 185.833 227.821 185.639 227.272 185.511L225.454 185.085C224.455 184.848 223.721 184.482 223.252 183.984C222.788 183.482 222.556 182.855 222.556 182.102C222.556 181.487 222.729 180.942 223.075 180.469C223.425 179.995 223.901 179.624 224.502 179.354C225.108 179.084 225.795 178.949 226.562 178.949C227.641 178.949 228.489 179.186 229.104 179.659C229.725 180.133 230.165 180.758 230.425 181.534ZM237.721 190.227C236.67 190.227 235.763 189.995 235.001 189.531C234.243 189.062 233.659 188.409 233.247 187.571C232.84 186.728 232.636 185.748 232.636 184.631C232.636 183.513 232.84 182.528 233.247 181.676C233.659 180.819 234.232 180.152 234.966 179.673C235.704 179.19 236.566 178.949 237.551 178.949C238.119 178.949 238.68 179.044 239.234 179.233C239.788 179.422 240.292 179.73 240.747 180.156C241.201 180.578 241.564 181.136 241.833 181.832C242.103 182.528 242.238 183.385 242.238 184.403V185.114H233.829V183.665H240.534C240.534 183.049 240.411 182.5 240.164 182.017C239.923 181.534 239.577 181.153 239.127 180.874C238.682 180.594 238.157 180.455 237.551 180.455C236.883 180.455 236.306 180.62 235.818 180.952C235.335 181.278 234.963 181.705 234.703 182.23C234.442 182.756 234.312 183.319 234.312 183.92V184.886C234.312 185.71 234.454 186.409 234.738 186.982C235.027 187.55 235.427 187.983 235.939 188.281C236.45 188.575 237.044 188.722 237.721 188.722C238.162 188.722 238.559 188.66 238.914 188.537C239.274 188.409 239.584 188.22 239.845 187.969C240.105 187.713 240.306 187.396 240.449 187.017L242.068 187.472C241.897 188.021 241.611 188.504 241.208 188.92C240.806 189.332 240.309 189.654 239.717 189.886C239.125 190.114 238.46 190.227 237.721 190.227ZM248.907 190.227C247.998 190.227 247.196 189.998 246.5 189.538C245.804 189.074 245.259 188.421 244.866 187.578C244.473 186.731 244.277 185.729 244.277 184.574C244.277 183.428 244.473 182.434 244.866 181.591C245.259 180.748 245.806 180.097 246.507 179.638C247.208 179.179 248.017 178.949 248.936 178.949C249.646 178.949 250.207 179.067 250.619 179.304C251.036 179.536 251.353 179.801 251.571 180.099C251.793 180.393 251.966 180.634 252.089 180.824H252.231V175.455H253.907V190H252.288V188.324H252.089C251.966 188.523 251.791 188.774 251.564 189.077C251.336 189.375 251.012 189.643 250.591 189.879C250.169 190.111 249.608 190.227 248.907 190.227ZM249.135 188.722C249.807 188.722 250.375 188.546 250.839 188.196C251.303 187.841 251.656 187.351 251.897 186.726C252.139 186.096 252.26 185.369 252.26 184.545C252.26 183.731 252.141 183.018 251.904 182.408C251.668 181.792 251.317 181.314 250.853 180.973C250.389 180.627 249.816 180.455 249.135 180.455C248.424 180.455 247.833 180.637 247.359 181.001C246.89 181.361 246.538 181.851 246.301 182.472C246.069 183.087 245.953 183.778 245.953 184.545C245.953 185.322 246.071 186.027 246.308 186.662C246.549 187.292 246.904 187.794 247.373 188.168C247.847 188.537 248.434 188.722 249.135 188.722ZM275.335 182.727C275.335 184.261 275.058 185.587 274.504 186.705C273.95 187.822 273.19 188.684 272.224 189.29C271.258 189.896 270.155 190.199 268.914 190.199C267.674 190.199 266.571 189.896 265.605 189.29C264.639 188.684 263.879 187.822 263.325 186.705C262.771 185.587 262.494 184.261 262.494 182.727C262.494 181.193 262.771 179.867 263.325 178.75C263.879 177.633 264.639 176.771 265.605 176.165C266.571 175.559 267.674 175.256 268.914 175.256C270.155 175.256 271.258 175.559 272.224 176.165C273.19 176.771 273.95 177.633 274.504 178.75C275.058 179.867 275.335 181.193 275.335 182.727ZM273.63 182.727C273.63 181.468 273.42 180.405 272.998 179.538C272.582 178.672 272.016 178.016 271.301 177.571C270.591 177.126 269.795 176.903 268.914 176.903C268.034 176.903 267.236 177.126 266.521 177.571C265.811 178.016 265.245 178.672 264.824 179.538C264.407 180.405 264.199 181.468 264.199 182.727C264.199 183.987 264.407 185.05 264.824 185.916C265.245 186.783 265.811 187.438 266.521 187.884C267.236 188.329 268.034 188.551 268.914 188.551C269.795 188.551 270.591 188.329 271.301 187.884C272.016 187.438 272.582 186.783 272.998 185.916C273.42 185.05 273.63 183.987 273.63 182.727ZM279.745 183.438V190H278.069V179.091H279.689V180.795H279.831C280.086 180.241 280.475 179.796 280.995 179.46C281.516 179.119 282.189 178.949 283.012 178.949C283.751 178.949 284.397 179.1 284.951 179.403C285.505 179.702 285.936 180.156 286.244 180.767C286.552 181.373 286.706 182.14 286.706 183.068V190H285.029V183.182C285.029 182.325 284.807 181.657 284.362 181.179C283.917 180.696 283.306 180.455 282.529 180.455C281.994 180.455 281.516 180.571 281.095 180.803C280.678 181.035 280.349 181.373 280.108 181.818C279.866 182.263 279.745 182.803 279.745 183.438ZM295.621 175.455H297.723L302.666 187.528H302.837L307.78 175.455H309.882V190H308.234V178.949H308.092L303.547 190H301.956L297.411 178.949H297.268V190H295.621V175.455ZM316.397 190.256C315.705 190.256 315.078 190.125 314.515 189.865C313.951 189.6 313.504 189.219 313.172 188.722C312.841 188.22 312.675 187.614 312.675 186.903C312.675 186.278 312.798 185.772 313.044 185.384C313.291 184.991 313.62 184.683 314.032 184.46C314.444 184.238 314.898 184.072 315.395 183.963C315.897 183.849 316.401 183.759 316.908 183.693C317.571 183.608 318.108 183.544 318.52 183.501C318.937 183.454 319.24 183.376 319.429 183.267C319.623 183.158 319.721 182.969 319.721 182.699V182.642C319.721 181.941 319.529 181.397 319.145 181.009C318.766 180.62 318.191 180.426 317.419 180.426C316.619 180.426 315.992 180.601 315.537 180.952C315.083 181.302 314.763 181.676 314.578 182.074L312.988 181.506C313.272 180.843 313.65 180.327 314.124 179.957C314.602 179.583 315.123 179.323 315.686 179.176C316.255 179.025 316.813 178.949 317.363 178.949C317.713 178.949 318.115 178.991 318.57 179.077C319.029 179.157 319.472 179.325 319.898 179.581C320.329 179.837 320.686 180.223 320.971 180.739C321.255 181.255 321.397 181.946 321.397 182.812V190H319.721V188.523H319.635C319.522 188.759 319.332 189.013 319.067 189.283C318.802 189.553 318.449 189.782 318.009 189.972C317.569 190.161 317.031 190.256 316.397 190.256ZM316.652 188.75C317.315 188.75 317.874 188.62 318.328 188.359C318.788 188.099 319.133 187.763 319.365 187.351C319.602 186.939 319.721 186.506 319.721 186.051V184.517C319.65 184.602 319.493 184.68 319.252 184.751C319.015 184.818 318.74 184.877 318.428 184.929C318.12 184.976 317.819 185.019 317.526 185.057C317.237 185.09 317.003 185.118 316.823 185.142C316.387 185.199 315.98 185.291 315.601 185.419C315.227 185.542 314.924 185.729 314.692 185.98C314.465 186.226 314.351 186.562 314.351 186.989C314.351 187.571 314.567 188.011 314.998 188.31C315.433 188.603 315.985 188.75 316.652 188.75ZM324.456 190V179.091H326.075V180.739H326.189C326.388 180.199 326.748 179.761 327.268 179.425C327.789 179.089 328.376 178.92 329.03 178.92C329.153 178.92 329.307 178.923 329.491 178.928C329.676 178.932 329.816 178.939 329.911 178.949V180.653C329.854 180.639 329.723 180.618 329.52 180.589C329.321 180.556 329.11 180.54 328.888 180.54C328.357 180.54 327.884 180.651 327.467 180.874C327.055 181.091 326.729 181.394 326.487 181.783C326.25 182.166 326.132 182.604 326.132 183.097V190H324.456ZM333.46 186.023L333.431 183.949H333.772L338.545 179.091H340.619L335.534 184.233H335.392L333.46 186.023ZM331.897 190V175.455H333.574V190H331.897ZM338.829 190L334.568 184.602L335.761 183.438L340.96 190H338.829ZM346.901 190.227C345.85 190.227 344.943 189.995 344.181 189.531C343.423 189.062 342.838 188.409 342.426 187.571C342.019 186.728 341.816 185.748 341.816 184.631C341.816 183.513 342.019 182.528 342.426 181.676C342.838 180.819 343.411 180.152 344.145 179.673C344.884 179.19 345.746 178.949 346.73 178.949C347.299 178.949 347.86 179.044 348.414 179.233C348.968 179.422 349.472 179.73 349.926 180.156C350.381 180.578 350.743 181.136 351.013 181.832C351.283 182.528 351.418 183.385 351.418 184.403V185.114H343.009V183.665H349.713C349.713 183.049 349.59 182.5 349.344 182.017C349.103 181.534 348.757 181.153 348.307 180.874C347.862 180.594 347.337 180.455 346.73 180.455C346.063 180.455 345.485 180.62 344.998 180.952C344.515 181.278 344.143 181.705 343.882 182.23C343.622 182.756 343.492 183.319 343.492 183.92V184.886C343.492 185.71 343.634 186.409 343.918 186.982C344.207 187.55 344.607 187.983 345.118 188.281C345.63 188.575 346.224 188.722 346.901 188.722C347.341 188.722 347.739 188.66 348.094 188.537C348.454 188.409 348.764 188.22 349.025 187.969C349.285 187.713 349.486 187.396 349.628 187.017L351.248 187.472C351.077 188.021 350.791 188.504 350.388 188.92C349.986 189.332 349.489 189.654 348.897 189.886C348.305 190.114 347.64 190.227 346.901 190.227ZM358.712 179.091V180.511H353.059V179.091H358.712ZM354.706 176.477H356.382V186.875C356.382 187.348 356.451 187.704 356.588 187.94C356.73 188.172 356.91 188.329 357.128 188.409C357.351 188.485 357.585 188.523 357.831 188.523C358.016 188.523 358.167 188.513 358.286 188.494C358.404 188.471 358.499 188.452 358.57 188.438L358.911 189.943C358.797 189.986 358.639 190.028 358.435 190.071C358.231 190.118 357.973 190.142 357.661 190.142C357.187 190.142 356.723 190.04 356.269 189.837C355.819 189.633 355.445 189.323 355.147 188.906C354.853 188.49 354.706 187.964 354.706 187.33V176.477ZM73.9659 201.017V199.455H84.875V201.017H80.3011V214H78.5398V201.017H73.9659ZM86.2333 214V203.091H87.8526V204.739H87.9663C88.1651 204.199 88.525 203.761 89.0458 203.425C89.5666 203.089 90.1538 202.92 90.8072 202.92C90.9303 202.92 91.0842 202.923 91.2688 202.928C91.4535 202.932 91.5932 202.939 91.6879 202.949V204.653C91.631 204.639 91.5008 204.618 91.2972 204.589C91.0984 204.556 90.8877 204.54 90.6651 204.54C90.1348 204.54 89.6613 204.651 89.2447 204.874C88.8327 205.091 88.506 205.394 88.2646 205.783C88.0278 206.166 87.9094 206.604 87.9094 207.097V214H86.2333ZM97.9165 214.227C96.8654 214.227 95.9587 213.995 95.1964 213.531C94.4388 213.062 93.854 212.409 93.4421 211.571C93.0349 210.728 92.8313 209.748 92.8313 208.631C92.8313 207.513 93.0349 206.528 93.4421 205.676C93.854 204.819 94.427 204.152 95.1609 203.673C95.8995 203.19 96.7612 202.949 97.7461 202.949C98.3143 202.949 98.8754 203.044 99.4293 203.233C99.9833 203.422 100.488 203.73 100.942 204.156C101.397 204.578 101.759 205.136 102.029 205.832C102.299 206.528 102.434 207.385 102.434 208.403V209.114H94.0245V207.665H100.729C100.729 207.049 100.606 206.5 100.36 206.017C100.118 205.534 99.7726 205.153 99.3228 204.874C98.8777 204.594 98.3522 204.455 97.7461 204.455C97.0785 204.455 96.5008 204.62 96.0131 204.952C95.5302 205.278 95.1585 205.705 94.8981 206.23C94.6377 206.756 94.5075 207.319 94.5075 207.92V208.886C94.5075 209.71 94.6495 210.409 94.9336 210.982C95.2224 211.55 95.6225 211.983 96.1339 212.281C96.6452 212.575 97.2395 212.722 97.9165 212.722C98.3569 212.722 98.7546 212.66 99.1097 212.537C99.4696 212.409 99.7797 212.22 100.04 211.969C100.301 211.713 100.502 211.396 100.644 211.017L102.263 211.472C102.093 212.021 101.806 212.504 101.404 212.92C101.001 213.332 100.504 213.654 99.9123 213.886C99.3204 214.114 98.6552 214.227 97.9165 214.227ZM106.659 207.438V214H104.983V203.091H106.603V204.795H106.745C107 204.241 107.389 203.796 107.909 203.46C108.43 203.119 109.103 202.949 109.926 202.949C110.665 202.949 111.311 203.1 111.865 203.403C112.419 203.702 112.85 204.156 113.158 204.767C113.466 205.373 113.62 206.14 113.62 207.068V214H111.944V207.182C111.944 206.325 111.721 205.657 111.276 205.179C110.831 204.696 110.22 204.455 109.444 204.455C108.908 204.455 108.43 204.571 108.009 204.803C107.592 205.035 107.263 205.373 107.022 205.818C106.78 206.263 106.659 206.803 106.659 207.438ZM120.802 214.227C119.893 214.227 119.09 213.998 118.394 213.538C117.698 213.074 117.154 212.421 116.761 211.578C116.368 210.731 116.171 209.729 116.171 208.574C116.171 207.428 116.368 206.434 116.761 205.591C117.154 204.748 117.701 204.097 118.401 203.638C119.102 203.179 119.912 202.949 120.83 202.949C121.54 202.949 122.102 203.067 122.513 203.304C122.93 203.536 123.247 203.801 123.465 204.099C123.688 204.393 123.861 204.634 123.984 204.824H124.126V199.455H125.802V214H124.183V212.324H123.984C123.861 212.523 123.685 212.774 123.458 213.077C123.231 213.375 122.906 213.643 122.485 213.879C122.064 214.111 121.503 214.227 120.802 214.227ZM121.029 212.722C121.701 212.722 122.27 212.546 122.734 212.196C123.198 211.841 123.55 211.351 123.792 210.726C124.033 210.096 124.154 209.369 124.154 208.545C124.154 207.731 124.036 207.018 123.799 206.408C123.562 205.792 123.212 205.314 122.748 204.973C122.284 204.627 121.711 204.455 121.029 204.455C120.319 204.455 119.727 204.637 119.254 205.001C118.785 205.361 118.432 205.851 118.195 206.472C117.963 207.087 117.847 207.778 117.847 208.545C117.847 209.322 117.966 210.027 118.202 210.662C118.444 211.292 118.799 211.794 119.268 212.168C119.741 212.537 120.328 212.722 121.029 212.722ZM136.832 205.534L135.326 205.96C135.231 205.709 135.092 205.465 134.907 205.229C134.727 204.987 134.481 204.788 134.168 204.632C133.856 204.476 133.456 204.398 132.968 204.398C132.3 204.398 131.744 204.552 131.299 204.859C130.859 205.162 130.638 205.548 130.638 206.017C130.638 206.434 130.79 206.763 131.093 207.004C131.396 207.246 131.87 207.447 132.513 207.608L134.133 208.006C135.108 208.242 135.835 208.605 136.313 209.092C136.791 209.575 137.031 210.198 137.031 210.96C137.031 211.585 136.851 212.144 136.491 212.636C136.136 213.129 135.638 213.517 134.999 213.801C134.36 214.085 133.617 214.227 132.769 214.227C131.656 214.227 130.736 213.986 130.006 213.503C129.277 213.02 128.816 212.314 128.621 211.386L130.212 210.989C130.364 211.576 130.65 212.016 131.072 212.31C131.498 212.603 132.054 212.75 132.741 212.75C133.522 212.75 134.142 212.584 134.602 212.253C135.066 211.917 135.298 211.514 135.298 211.045C135.298 210.667 135.165 210.349 134.9 210.094C134.635 209.833 134.228 209.639 133.678 209.511L131.86 209.085C130.861 208.848 130.127 208.482 129.658 207.984C129.194 207.482 128.962 206.855 128.962 206.102C128.962 205.487 129.135 204.942 129.481 204.469C129.831 203.995 130.307 203.624 130.908 203.354C131.514 203.084 132.201 202.949 132.968 202.949C134.048 202.949 134.895 203.186 135.511 203.659C136.131 204.133 136.571 204.758 136.832 205.534ZM146.002 214H144.156L149.497 199.455H151.315L156.656 214H154.809L150.463 201.756H150.349L146.002 214ZM146.684 208.318H154.127V209.881H146.684V208.318ZM160.37 207.438V214H158.694V203.091H160.314V204.795H160.456C160.711 204.241 161.1 203.796 161.62 203.46C162.141 203.119 162.814 202.949 163.637 202.949C164.376 202.949 165.022 203.1 165.576 203.403C166.13 203.702 166.561 204.156 166.869 204.767C167.177 205.373 167.331 206.14 167.331 207.068V214H165.654V207.182C165.654 206.325 165.432 205.657 164.987 205.179C164.542 204.696 163.931 204.455 163.154 204.455C162.619 204.455 162.141 204.571 161.72 204.803C161.303 205.035 160.974 205.373 160.733 205.818C160.491 206.263 160.37 206.803 160.37 207.438ZM174.513 214.227C173.604 214.227 172.801 213.998 172.105 213.538C171.409 213.074 170.865 212.421 170.472 211.578C170.079 210.731 169.882 209.729 169.882 208.574C169.882 207.428 170.079 206.434 170.472 205.591C170.865 204.748 171.411 204.097 172.112 203.638C172.813 203.179 173.623 202.949 174.541 202.949C175.251 202.949 175.813 203.067 176.224 203.304C176.641 203.536 176.958 203.801 177.176 204.099C177.399 204.393 177.571 204.634 177.695 204.824H177.837V199.455H179.513V214H177.893V212.324H177.695C177.571 212.523 177.396 212.774 177.169 213.077C176.942 213.375 176.617 213.643 176.196 213.879C175.775 214.111 175.214 214.227 174.513 214.227ZM174.74 212.722C175.412 212.722 175.981 212.546 176.445 212.196C176.909 211.841 177.261 211.351 177.503 210.726C177.744 210.096 177.865 209.369 177.865 208.545C177.865 207.731 177.747 207.018 177.51 206.408C177.273 205.792 176.923 205.314 176.459 204.973C175.995 204.627 175.422 204.455 174.74 204.455C174.03 204.455 173.438 204.637 172.964 205.001C172.496 205.361 172.143 205.851 171.906 206.472C171.674 207.087 171.558 207.778 171.558 208.545C171.558 209.322 171.677 210.027 171.913 210.662C172.155 211.292 172.51 211.794 172.979 212.168C173.452 212.537 174.039 212.722 174.74 212.722ZM193.156 214H188.668V199.455H193.355C194.766 199.455 195.973 199.746 196.977 200.328C197.981 200.906 198.75 201.737 199.286 202.821C199.821 203.901 200.088 205.193 200.088 206.699C200.088 208.214 199.818 209.518 199.278 210.612C198.739 211.701 197.953 212.539 196.92 213.126C195.888 213.709 194.634 214 193.156 214ZM190.429 212.438H193.043C194.245 212.438 195.242 212.205 196.033 211.741C196.823 211.277 197.413 210.617 197.801 209.76C198.189 208.903 198.384 207.883 198.384 206.699C198.384 205.525 198.192 204.514 197.808 203.666C197.425 202.814 196.852 202.161 196.089 201.706C195.327 201.247 194.378 201.017 193.241 201.017H190.429V212.438ZM206.026 214.256C205.334 214.256 204.707 214.125 204.143 213.865C203.58 213.6 203.133 213.219 202.801 212.722C202.47 212.22 202.304 211.614 202.304 210.903C202.304 210.278 202.427 209.772 202.673 209.384C202.92 208.991 203.249 208.683 203.661 208.46C204.072 208.238 204.527 208.072 205.024 207.963C205.526 207.849 206.03 207.759 206.537 207.693C207.2 207.608 207.737 207.544 208.149 207.501C208.566 207.454 208.869 207.376 209.058 207.267C209.252 207.158 209.349 206.969 209.349 206.699V206.642C209.349 205.941 209.158 205.397 208.774 205.009C208.395 204.62 207.82 204.426 207.048 204.426C206.248 204.426 205.621 204.601 205.166 204.952C204.712 205.302 204.392 205.676 204.207 206.074L202.616 205.506C202.901 204.843 203.279 204.327 203.753 203.957C204.231 203.583 204.752 203.323 205.315 203.176C205.884 203.025 206.442 202.949 206.991 202.949C207.342 202.949 207.744 202.991 208.199 203.077C208.658 203.157 209.101 203.325 209.527 203.581C209.958 203.837 210.315 204.223 210.599 204.739C210.884 205.255 211.026 205.946 211.026 206.812V214H209.349V212.523H209.264C209.151 212.759 208.961 213.013 208.696 213.283C208.431 213.553 208.078 213.782 207.638 213.972C207.197 214.161 206.66 214.256 206.026 214.256ZM206.281 212.75C206.944 212.75 207.503 212.62 207.957 212.359C208.417 212.099 208.762 211.763 208.994 211.351C209.231 210.939 209.349 210.506 209.349 210.051V208.517C209.278 208.602 209.122 208.68 208.881 208.751C208.644 208.818 208.369 208.877 208.057 208.929C207.749 208.976 207.448 209.019 207.155 209.057C206.866 209.09 206.632 209.118 206.452 209.142C206.016 209.199 205.609 209.291 205.23 209.419C204.856 209.542 204.553 209.729 204.321 209.98C204.094 210.226 203.98 210.562 203.98 210.989C203.98 211.571 204.196 212.011 204.626 212.31C205.062 212.603 205.614 212.75 206.281 212.75ZM218.829 203.091V204.511H213.176V203.091H218.829ZM214.824 200.477H216.5V210.875C216.5 211.348 216.568 211.704 216.706 211.94C216.848 212.172 217.028 212.329 217.245 212.409C217.468 212.485 217.702 212.523 217.949 212.523C218.133 212.523 218.285 212.513 218.403 212.494C218.521 212.471 218.616 212.452 218.687 212.438L219.028 213.943C218.914 213.986 218.756 214.028 218.552 214.071C218.349 214.118 218.091 214.142 217.778 214.142C217.305 214.142 216.841 214.04 216.386 213.837C215.936 213.633 215.562 213.323 215.264 212.906C214.97 212.49 214.824 211.964 214.824 211.33V200.477ZM224.561 214.256C223.869 214.256 223.242 214.125 222.679 213.865C222.115 213.6 221.668 213.219 221.336 212.722C221.005 212.22 220.839 211.614 220.839 210.903C220.839 210.278 220.962 209.772 221.208 209.384C221.455 208.991 221.784 208.683 222.196 208.46C222.608 208.238 223.062 208.072 223.559 207.963C224.061 207.849 224.565 207.759 225.072 207.693C225.735 207.608 226.272 207.544 226.684 207.501C227.101 207.454 227.404 207.376 227.593 207.267C227.788 207.158 227.885 206.969 227.885 206.699V206.642C227.885 205.941 227.693 205.397 227.309 205.009C226.931 204.62 226.355 204.426 225.583 204.426C224.783 204.426 224.156 204.601 223.701 204.952C223.247 205.302 222.927 205.676 222.743 206.074L221.152 205.506C221.436 204.843 221.815 204.327 222.288 203.957C222.766 203.583 223.287 203.323 223.85 203.176C224.419 203.025 224.977 202.949 225.527 202.949C225.877 202.949 226.279 202.991 226.734 203.077C227.193 203.157 227.636 203.325 228.062 203.581C228.493 203.837 228.85 204.223 229.135 204.739C229.419 205.255 229.561 205.946 229.561 206.812V214H227.885V212.523H227.799C227.686 212.759 227.496 213.013 227.231 213.283C226.966 213.553 226.613 213.782 226.173 213.972C225.733 214.161 225.195 214.256 224.561 214.256ZM224.816 212.75C225.479 212.75 226.038 212.62 226.493 212.359C226.952 212.099 227.297 211.763 227.529 211.351C227.766 210.939 227.885 210.506 227.885 210.051V208.517C227.814 208.602 227.657 208.68 227.416 208.751C227.179 208.818 226.904 208.877 226.592 208.929C226.284 208.976 225.984 209.019 225.69 209.057C225.401 209.09 225.167 209.118 224.987 209.142C224.551 209.199 224.144 209.291 223.765 209.419C223.391 209.542 223.088 209.729 222.856 209.98C222.629 210.226 222.515 210.562 222.515 210.989C222.515 211.571 222.731 212.011 223.162 212.31C223.597 212.603 224.149 212.75 224.816 212.75ZM239.069 214H237.222L242.563 199.455H244.381L249.722 214H247.876L243.529 201.756H243.415L239.069 214ZM239.751 208.318H247.194V209.881H239.751V208.318ZM253.437 207.438V214H251.761V203.091H253.38V204.795H253.522C253.778 204.241 254.166 203.796 254.687 203.46C255.208 203.119 255.88 202.949 256.704 202.949C257.442 202.949 258.089 203.1 258.643 203.403C259.197 203.702 259.628 204.156 259.935 204.767C260.243 205.373 260.397 206.14 260.397 207.068V214H258.721V207.182C258.721 206.325 258.498 205.657 258.053 205.179C257.608 204.696 256.997 204.455 256.221 204.455C255.686 204.455 255.208 204.571 254.786 204.803C254.37 205.035 254.04 205.373 253.799 205.818C253.558 206.263 253.437 206.803 253.437 207.438ZM266.67 214.256C265.979 214.256 265.351 214.125 264.788 213.865C264.225 213.6 263.777 213.219 263.446 212.722C263.114 212.22 262.949 211.614 262.949 210.903C262.949 210.278 263.072 209.772 263.318 209.384C263.564 208.991 263.893 208.683 264.305 208.46C264.717 208.238 265.172 208.072 265.669 207.963C266.171 207.849 266.675 207.759 267.181 207.693C267.844 207.608 268.382 207.544 268.794 207.501C269.21 207.454 269.513 207.376 269.703 207.267C269.897 207.158 269.994 206.969 269.994 206.699V206.642C269.994 205.941 269.802 205.397 269.419 205.009C269.04 204.62 268.465 204.426 267.693 204.426C266.893 204.426 266.265 204.601 265.811 204.952C265.356 205.302 265.037 205.676 264.852 206.074L263.261 205.506C263.545 204.843 263.924 204.327 264.397 203.957C264.876 203.583 265.396 203.323 265.96 203.176C266.528 203.025 267.087 202.949 267.636 202.949C267.986 202.949 268.389 202.991 268.843 203.077C269.303 203.157 269.745 203.325 270.172 203.581C270.602 203.837 270.96 204.223 271.244 204.739C271.528 205.255 271.67 205.946 271.67 206.812V214H269.994V212.523H269.909C269.795 212.759 269.606 213.013 269.341 213.283C269.075 213.553 268.723 213.782 268.282 213.972C267.842 214.161 267.305 214.256 266.67 214.256ZM266.926 212.75C267.589 212.75 268.147 212.62 268.602 212.359C269.061 212.099 269.407 211.763 269.639 211.351C269.876 210.939 269.994 210.506 269.994 210.051V208.517C269.923 208.602 269.767 208.68 269.525 208.751C269.288 208.818 269.014 208.877 268.701 208.929C268.394 208.976 268.093 209.019 267.799 209.057C267.511 209.09 267.276 209.118 267.096 209.142C266.661 209.199 266.253 209.291 265.875 209.419C265.501 209.542 265.198 209.729 264.966 209.98C264.738 210.226 264.625 210.562 264.625 210.989C264.625 211.571 264.84 212.011 265.271 212.31C265.707 212.603 266.258 212.75 266.926 212.75ZM276.406 199.455V214H274.729V199.455H276.406ZM280.555 218.091C280.271 218.091 280.018 218.067 279.795 218.02C279.573 217.977 279.419 217.935 279.333 217.892L279.76 216.415C280.167 216.519 280.527 216.557 280.839 216.528C281.152 216.5 281.429 216.36 281.67 216.109C281.916 215.863 282.141 215.463 282.345 214.909L282.657 214.057L278.623 203.091H280.441L283.453 211.784H283.566L286.578 203.091H288.396L283.765 215.591C283.557 216.154 283.299 216.621 282.991 216.99C282.683 217.364 282.326 217.641 281.919 217.821C281.516 218.001 281.062 218.091 280.555 218.091ZM298.336 205.534L296.83 205.96C296.735 205.709 296.596 205.465 296.411 205.229C296.231 204.987 295.985 204.788 295.672 204.632C295.36 204.476 294.96 204.398 294.472 204.398C293.804 204.398 293.248 204.552 292.803 204.859C292.363 205.162 292.142 205.548 292.142 206.017C292.142 206.434 292.294 206.763 292.597 207.004C292.9 207.246 293.373 207.447 294.017 207.608L295.637 208.006C296.612 208.242 297.339 208.605 297.817 209.092C298.295 209.575 298.534 210.198 298.534 210.96C298.534 211.585 298.355 212.144 297.995 212.636C297.64 213.129 297.142 213.517 296.503 213.801C295.864 214.085 295.121 214.227 294.273 214.227C293.16 214.227 292.239 213.986 291.51 213.503C290.781 213.02 290.319 212.314 290.125 211.386L291.716 210.989C291.868 211.576 292.154 212.016 292.576 212.31C293.002 212.603 293.558 212.75 294.245 212.75C295.026 212.75 295.646 212.584 296.105 212.253C296.569 211.917 296.801 211.514 296.801 211.045C296.801 210.667 296.669 210.349 296.404 210.094C296.139 209.833 295.731 209.639 295.182 209.511L293.364 209.085C292.365 208.848 291.631 208.482 291.162 207.984C290.698 207.482 290.466 206.855 290.466 206.102C290.466 205.487 290.639 204.942 290.985 204.469C291.335 203.995 291.811 203.624 292.412 203.354C293.018 203.084 293.705 202.949 294.472 202.949C295.551 202.949 296.399 203.186 297.015 203.659C297.635 204.133 298.075 204.758 298.336 205.534ZM301.058 214V203.091H302.734V214H301.058ZM301.91 201.273C301.583 201.273 301.301 201.161 301.065 200.939C300.833 200.716 300.717 200.449 300.717 200.136C300.717 199.824 300.833 199.556 301.065 199.334C301.301 199.111 301.583 199 301.91 199C302.237 199 302.516 199.111 302.748 199.334C302.985 199.556 303.103 199.824 303.103 200.136C303.103 200.449 302.985 200.716 302.748 200.939C302.516 201.161 302.237 201.273 301.91 201.273ZM313.531 205.534L312.025 205.96C311.931 205.709 311.791 205.465 311.606 205.229C311.426 204.987 311.18 204.788 310.868 204.632C310.555 204.476 310.155 204.398 309.667 204.398C309 204.398 308.443 204.552 307.998 204.859C307.558 205.162 307.338 205.548 307.338 206.017C307.338 206.434 307.489 206.763 307.792 207.004C308.095 207.246 308.569 207.447 309.213 207.608L310.832 208.006C311.807 208.242 312.534 208.605 313.012 209.092C313.491 209.575 313.73 210.198 313.73 210.96C313.73 211.585 313.55 212.144 313.19 212.636C312.835 213.129 312.338 213.517 311.699 213.801C311.059 214.085 310.316 214.227 309.468 214.227C308.356 214.227 307.435 213.986 306.706 213.503C305.976 213.02 305.515 212.314 305.321 211.386L306.912 210.989C307.063 211.576 307.35 212.016 307.771 212.31C308.197 212.603 308.753 212.75 309.44 212.75C310.221 212.75 310.842 212.584 311.301 212.253C311.765 211.917 311.997 211.514 311.997 211.045C311.997 210.667 311.864 210.349 311.599 210.094C311.334 209.833 310.927 209.639 310.377 209.511L308.559 209.085C307.56 208.848 306.826 208.482 306.358 207.984C305.894 207.482 305.662 206.855 305.662 206.102C305.662 205.487 305.834 204.942 306.18 204.469C306.53 203.995 307.006 203.624 307.608 203.354C308.214 203.084 308.9 202.949 309.667 202.949C310.747 202.949 311.594 203.186 312.21 203.659C312.83 204.133 313.27 204.758 313.531 205.534ZM317.474 214.114C317.124 214.114 316.823 213.988 316.572 213.737C316.321 213.486 316.196 213.186 316.196 212.835C316.196 212.485 316.321 212.184 316.572 211.933C316.823 211.682 317.124 211.557 317.474 211.557C317.825 211.557 318.125 211.682 318.376 211.933C318.627 212.184 318.753 212.485 318.753 212.835C318.753 213.067 318.694 213.28 318.575 213.474C318.462 213.669 318.308 213.825 318.114 213.943C317.924 214.057 317.711 214.114 317.474 214.114Z" fill="#585858"/>
<path d="M329.671 266.034H33.0085C24.0727 266.034 15.9319 269.693 10.0489 275.58C4.16588 281.467 0.477051 289.614 0.477051 298.556C0.477051 316.472 15.1051 331.11 33.0085 331.11H329.671L371.138 298.556L329.671 266.034ZM33.9942 323.186C20.5428 323.186 9.63547 312.271 9.63547 298.811C9.63547 285.35 20.5428 274.435 33.9942 274.435C47.4456 274.435 58.3531 285.35 58.3531 298.811C58.3531 312.271 47.4456 323.186 33.9942 323.186Z" fill="#00A797"/>
<path opacity="0.3" d="M108.025 0H0.477051V90.5979H108.025V0Z" fill="#00A797"/>
<path d="M35.3298 90.5979H32.6904V266.034H35.3298V90.5979Z" fill="#00A797"/>
<path d="M33.8665 308.239C32.5938 308.239 31.4602 308.02 30.4659 307.582C29.4773 307.139 28.696 306.531 28.1222 305.759C27.554 304.98 27.2614 304.082 27.2443 303.065H30.9602C30.983 303.491 31.1222 303.866 31.3778 304.19C31.6392 304.509 31.9858 304.756 32.4176 304.932C32.8494 305.108 33.3352 305.196 33.875 305.196C34.4375 305.196 34.9347 305.097 35.3665 304.898C35.7983 304.699 36.1364 304.423 36.3807 304.071C36.625 303.719 36.7472 303.312 36.7472 302.852C36.7472 302.386 36.6165 301.974 36.3551 301.616C36.0994 301.253 35.7301 300.969 35.2472 300.764C34.7699 300.56 34.2017 300.457 33.5426 300.457H31.9148V297.747H33.5426C34.0994 297.747 34.5909 297.651 35.017 297.457C35.4489 297.264 35.7841 296.997 36.0227 296.656C36.2614 296.31 36.3807 295.906 36.3807 295.446C36.3807 295.009 36.2756 294.625 36.0653 294.295C35.8608 293.96 35.571 293.699 35.196 293.511C34.8267 293.324 34.3949 293.23 33.9006 293.23C33.4006 293.23 32.9432 293.321 32.5284 293.503C32.1136 293.679 31.7812 293.932 31.5312 294.261C31.2812 294.591 31.1477 294.977 31.1307 295.42H27.5938C27.6108 294.415 27.8977 293.528 28.4545 292.761C29.0114 291.994 29.7614 291.395 30.7045 290.963C31.6534 290.526 32.7244 290.307 33.9176 290.307C35.1222 290.307 36.1761 290.526 37.0795 290.963C37.983 291.401 38.6847 291.991 39.1847 292.736C39.6903 293.474 39.9403 294.304 39.9347 295.224C39.9403 296.202 39.6364 297.017 39.0227 297.67C38.4148 298.324 37.6222 298.739 36.6449 298.915V299.051C37.929 299.216 38.9063 299.662 39.5767 300.389C40.2528 301.111 40.5881 302.014 40.5824 303.099C40.5881 304.094 40.3011 304.977 39.7216 305.75C39.1477 306.523 38.3551 307.131 37.3438 307.574C36.3324 308.017 35.1733 308.239 33.8665 308.239Z" fill="#00A797"/>
<path d="M87.098 284.547H83.9872C83.9304 284.144 83.8144 283.787 83.6392 283.474C83.464 283.157 83.2391 282.887 82.9645 282.665C82.6899 282.442 82.3726 282.272 82.0128 282.153C81.6577 282.035 81.2718 281.976 80.8551 281.976C80.1023 281.976 79.4465 282.163 78.8878 282.537C78.3291 282.906 77.8958 283.446 77.5881 284.156C77.2803 284.862 77.1264 285.719 77.1264 286.727C77.1264 287.764 77.2803 288.635 77.5881 289.341C77.9006 290.046 78.3362 290.579 78.8949 290.939C79.4536 291.299 80.0999 291.479 80.8338 291.479C81.2457 291.479 81.6269 291.424 81.9773 291.315C82.3324 291.206 82.6473 291.048 82.9219 290.839C83.1965 290.626 83.4238 290.368 83.6037 290.065C83.7884 289.762 83.9162 289.417 83.9872 289.028L87.098 289.043C87.0175 289.71 86.8163 290.354 86.4943 290.974C86.1771 291.59 85.7486 292.142 85.2088 292.629C84.6738 293.112 84.0346 293.496 83.2912 293.78C82.5526 294.059 81.7169 294.199 80.7841 294.199C79.4867 294.199 78.3267 293.905 77.304 293.318C76.286 292.731 75.4811 291.881 74.8892 290.768C74.3021 289.656 74.0085 288.309 74.0085 286.727C74.0085 285.141 74.3068 283.792 74.9034 282.679C75.5 281.566 76.3097 280.719 77.3324 280.136C78.3551 279.549 79.5057 279.256 80.7841 279.256C81.6269 279.256 82.4081 279.374 83.1278 279.611C83.8523 279.848 84.4938 280.193 85.0526 280.648C85.6113 281.098 86.0658 281.649 86.4162 282.303C86.7713 282.956 86.9986 283.704 87.098 284.547ZM102.67 286.727C102.67 288.313 102.369 289.663 101.768 290.776C101.171 291.888 100.357 292.738 99.3246 293.325C98.2971 293.908 97.1418 294.199 95.8587 294.199C94.5661 294.199 93.406 293.905 92.3786 293.318C91.3511 292.731 90.5391 291.881 89.9425 290.768C89.3459 289.656 89.0476 288.309 89.0476 286.727C89.0476 285.141 89.3459 283.792 89.9425 282.679C90.5391 281.566 91.3511 280.719 92.3786 280.136C93.406 279.549 94.5661 279.256 95.8587 279.256C97.1418 279.256 98.2971 279.549 99.3246 280.136C100.357 280.719 101.171 281.566 101.768 282.679C102.369 283.792 102.67 285.141 102.67 286.727ZM99.5518 286.727C99.5518 285.7 99.398 284.833 99.0902 284.128C98.7872 283.422 98.3587 282.887 97.8047 282.523C97.2507 282.158 96.602 281.976 95.8587 281.976C95.1153 281.976 94.4666 282.158 93.9126 282.523C93.3587 282.887 92.9278 283.422 92.62 284.128C92.317 284.833 92.1655 285.7 92.1655 286.727C92.1655 287.755 92.317 288.621 92.62 289.327C92.9278 290.032 93.3587 290.567 93.9126 290.932C94.4666 291.296 95.1153 291.479 95.8587 291.479C96.602 291.479 97.2507 291.296 97.8047 290.932C98.3587 290.567 98.7872 290.032 99.0902 289.327C99.398 288.621 99.5518 287.755 99.5518 286.727ZM117.114 279.455V294H114.458L108.13 284.845H108.023V294H104.948V279.455H107.647L113.925 288.602H114.053V279.455H117.114ZM119.101 281.99V279.455H131.047V281.99H126.594V294H123.554V281.99H119.101ZM136.089 279.455V294H133.014V279.455H136.089ZM150.786 279.455V294H148.13L141.801 284.845H141.695V294H138.62V279.455H141.319L147.597 288.602H147.725V279.455H150.786ZM162.311 279.455H165.386V288.901C165.386 289.961 165.133 290.889 164.626 291.685C164.125 292.48 163.421 293.1 162.517 293.545C161.613 293.986 160.559 294.206 159.357 294.206C158.149 294.206 157.093 293.986 156.189 293.545C155.285 293.1 154.581 292.48 154.08 291.685C153.578 290.889 153.327 289.961 153.327 288.901V279.455H156.402V288.638C156.402 289.192 156.523 289.684 156.764 290.115C157.01 290.546 157.356 290.884 157.801 291.131C158.246 291.377 158.765 291.5 159.357 291.5C159.953 291.5 160.472 291.377 160.912 291.131C161.357 290.884 161.7 290.546 161.942 290.115C162.188 289.684 162.311 289.192 162.311 288.638V279.455ZM181.283 286.727C181.283 288.313 180.982 289.663 180.381 290.776C179.784 291.888 178.97 292.738 177.938 293.325C176.91 293.908 175.755 294.199 174.472 294.199C173.179 294.199 172.019 293.905 170.992 293.318C169.964 292.731 169.152 291.881 168.556 290.768C167.959 289.656 167.661 288.309 167.661 286.727C167.661 285.141 167.959 283.792 168.556 282.679C169.152 281.566 169.964 280.719 170.992 280.136C172.019 279.549 173.179 279.256 174.472 279.256C175.755 279.256 176.91 279.549 177.938 280.136C178.97 280.719 179.784 281.566 180.381 282.679C180.982 283.792 181.283 285.141 181.283 286.727ZM178.165 286.727C178.165 285.7 178.011 284.833 177.703 284.128C177.4 283.422 176.972 282.887 176.418 282.523C175.864 282.158 175.215 281.976 174.472 281.976C173.729 281.976 173.08 282.158 172.526 282.523C171.972 282.887 171.541 283.422 171.233 284.128C170.93 284.833 170.779 285.7 170.779 286.727C170.779 287.755 170.93 288.621 171.233 289.327C171.541 290.032 171.972 290.567 172.526 290.932C173.08 291.296 173.729 291.479 174.472 291.479C175.215 291.479 175.864 291.296 176.418 290.932C176.972 290.567 177.4 290.032 177.703 289.327C178.011 288.621 178.165 287.755 178.165 286.727ZM192.545 279.455H195.621V288.901C195.621 289.961 195.367 290.889 194.861 291.685C194.359 292.48 193.656 293.1 192.751 293.545C191.847 293.986 190.794 294.206 189.591 294.206C188.384 294.206 187.328 293.986 186.423 293.545C185.519 293.1 184.816 292.48 184.314 291.685C183.812 290.889 183.561 289.961 183.561 288.901V279.455H186.636V288.638C186.636 289.192 186.757 289.684 186.999 290.115C187.245 290.546 187.59 290.884 188.036 291.131C188.481 291.377 188.999 291.5 189.591 291.5C190.188 291.5 190.706 291.377 191.146 291.131C191.591 290.884 191.935 290.546 192.176 290.115C192.422 289.684 192.545 289.192 192.545 288.638V279.455ZM206.042 283.638C205.985 283.065 205.741 282.62 205.31 282.303C204.879 281.985 204.294 281.827 203.556 281.827C203.054 281.827 202.63 281.898 202.284 282.04C201.939 282.177 201.674 282.369 201.489 282.615C201.309 282.861 201.219 283.141 201.219 283.453C201.21 283.714 201.264 283.941 201.382 284.135C201.506 284.329 201.674 284.497 201.887 284.639C202.1 284.777 202.346 284.897 202.625 285.001C202.905 285.101 203.203 285.186 203.52 285.257L204.827 285.57C205.462 285.712 206.044 285.901 206.574 286.138C207.105 286.375 207.564 286.666 207.952 287.011C208.34 287.357 208.641 287.764 208.854 288.233C209.072 288.702 209.183 289.239 209.188 289.845C209.183 290.735 208.956 291.507 208.506 292.161C208.061 292.809 207.417 293.313 206.574 293.673C205.736 294.028 204.725 294.206 203.542 294.206C202.367 294.206 201.345 294.026 200.473 293.666C199.607 293.306 198.93 292.774 198.442 292.068C197.959 291.358 197.706 290.48 197.682 289.433H200.658C200.691 289.921 200.831 290.328 201.077 290.655C201.328 290.977 201.662 291.221 202.078 291.386C202.5 291.547 202.976 291.628 203.506 291.628C204.027 291.628 204.479 291.552 204.863 291.401C205.251 291.249 205.551 291.038 205.765 290.768C205.978 290.499 206.084 290.188 206.084 289.838C206.084 289.511 205.987 289.237 205.793 289.014C205.604 288.792 205.324 288.602 204.955 288.446C204.59 288.29 204.143 288.148 203.613 288.02L202.029 287.622C200.802 287.324 199.834 286.857 199.124 286.223C198.414 285.589 198.061 284.734 198.066 283.659C198.061 282.778 198.295 282.009 198.769 281.351C199.247 280.693 199.903 280.179 200.736 279.81C201.569 279.44 202.516 279.256 203.577 279.256C204.657 279.256 205.599 279.44 206.404 279.81C207.213 280.179 207.843 280.693 208.293 281.351C208.743 282.009 208.975 282.771 208.989 283.638H206.042ZM87.6307 310.727C87.6307 312.313 87.33 313.663 86.7287 314.776C86.1321 315.888 85.3177 316.738 84.2855 317.325C83.258 317.908 82.1027 318.199 80.8196 318.199C79.527 318.199 78.367 317.905 77.3395 317.318C76.312 316.731 75.5 315.881 74.9034 314.768C74.3068 313.656 74.0085 312.309 74.0085 310.727C74.0085 309.141 74.3068 307.792 74.9034 306.679C75.5 305.566 76.312 304.719 77.3395 304.136C78.367 303.549 79.527 303.256 80.8196 303.256C82.1027 303.256 83.258 303.549 84.2855 304.136C85.3177 304.719 86.1321 305.566 86.7287 306.679C87.33 307.792 87.6307 309.141 87.6307 310.727ZM84.5128 310.727C84.5128 309.7 84.3589 308.833 84.0511 308.128C83.7481 307.422 83.3196 306.887 82.7656 306.523C82.2116 306.158 81.563 305.976 80.8196 305.976C80.0762 305.976 79.4276 306.158 78.8736 306.523C78.3196 306.887 77.8887 307.422 77.581 308.128C77.2779 308.833 77.1264 309.7 77.1264 310.727C77.1264 311.755 77.2779 312.621 77.581 313.327C77.8887 314.032 78.3196 314.567 78.8736 314.932C79.4276 315.296 80.0762 315.479 80.8196 315.479C81.563 315.479 82.2116 315.296 82.7656 314.932C83.3196 314.567 83.7481 314.032 84.0511 313.327C84.3589 312.621 84.5128 311.755 84.5128 310.727ZM89.9087 318V303.455H95.6474C96.7506 303.455 97.6905 303.665 98.467 304.087C99.2435 304.503 99.8353 305.083 100.243 305.827C100.654 306.565 100.86 307.418 100.86 308.384C100.86 309.349 100.652 310.202 100.235 310.94C99.8188 311.679 99.2151 312.254 98.4244 312.666C97.6384 313.078 96.6867 313.284 95.5692 313.284H91.9116V310.82H95.0721C95.6639 310.82 96.1516 310.718 96.5352 310.514C96.9234 310.306 97.2122 310.019 97.4016 309.655C97.5958 309.286 97.6928 308.862 97.6928 308.384C97.6928 307.901 97.5958 307.479 97.4016 307.119C97.2122 306.755 96.9234 306.473 96.5352 306.274C96.1469 306.071 95.6545 305.969 95.0579 305.969H92.984V318H89.9087ZM102.304 305.99V303.455H114.25V305.99H109.797V318H106.757V305.99H102.304ZM119.293 303.455V318H116.217V303.455H119.293ZM121.823 303.455H125.615L129.621 313.227H129.792L133.797 303.455H137.59V318H134.607V308.533H134.486L130.722 317.929H128.691L124.926 308.497H124.806V318H121.823V303.455ZM143.199 303.455V318H140.124V303.455H143.199ZM145.573 318V316.175L152.831 305.99H145.559V303.455H156.695V305.28L149.429 315.464H156.709V318H145.573ZM161.576 318H158.281L163.302 303.455H167.265L172.279 318H168.984L165.34 306.778H165.227L161.576 318ZM161.37 312.283H169.154V314.683H161.37V312.283ZM171.699 305.99V303.455H183.645V305.99H179.191V318H176.152V305.99H171.699ZM188.687 303.455V318H185.612V303.455H188.687ZM204.584 310.727C204.584 312.313 204.283 313.663 203.682 314.776C203.085 315.888 202.271 316.738 201.239 317.325C200.211 317.908 199.056 318.199 197.773 318.199C196.48 318.199 195.32 317.905 194.293 317.318C193.265 316.731 192.453 315.881 191.857 314.768C191.26 313.656 190.962 312.309 190.962 310.727C190.962 309.141 191.26 307.792 191.857 306.679C192.453 305.566 193.265 304.719 194.293 304.136C195.32 303.549 196.48 303.256 197.773 303.256C199.056 303.256 200.211 303.549 201.239 304.136C202.271 304.719 203.085 305.566 203.682 306.679C204.283 307.792 204.584 309.141 204.584 310.727ZM201.466 310.727C201.466 309.7 201.312 308.833 201.004 308.128C200.701 307.422 200.273 306.887 199.719 306.523C199.165 306.158 198.516 305.976 197.773 305.976C197.029 305.976 196.381 306.158 195.827 306.523C195.273 306.887 194.842 307.422 194.534 308.128C194.231 308.833 194.08 309.7 194.08 310.727C194.08 311.755 194.231 312.621 194.534 313.327C194.842 314.032 195.273 314.567 195.827 314.932C196.381 315.296 197.029 315.479 197.773 315.479C198.516 315.479 199.165 315.296 199.719 314.932C200.273 314.567 200.701 314.032 201.004 313.327C201.312 312.621 201.466 311.755 201.466 310.727ZM219.028 303.455V318H216.372L210.044 308.845H209.937V318H206.862V303.455H209.561L215.839 312.602H215.967V303.455H219.028Z" fill="white"/>
<path fill-rule="evenodd" clip-rule="evenodd" d="M58.0927 51.347C57.0455 50.2997 55.5979 49.6511 53.9991 49.6511C52.4003 49.6511 50.9527 50.2988 49.9055 51.347C48.8582 52.3941 48.2096 53.8418 48.2096 55.4406C48.2096 57.0394 48.8573 58.487 49.9055 59.5342C50.9527 60.5814 52.4003 61.23 53.9991 61.23C55.5979 61.23 57.0455 60.5823 58.0927 59.5342C59.1399 58.487 59.7885 57.0394 59.7885 55.4406C59.7885 53.8418 59.1408 52.3941 58.0927 51.347ZM53.9991 48.1932C56.0001 48.1932 57.8117 49.0043 59.1231 50.3156C60.4344 51.6269 61.2455 53.4386 61.2455 55.4396C61.2455 57.4407 60.4344 59.2523 59.1231 60.5636C57.8117 61.875 56.0001 62.686 53.9991 62.686C51.998 62.686 50.1864 61.875 48.875 60.5636C47.5637 59.2523 46.7527 57.4407 46.7527 55.4396C46.7527 53.4386 47.5637 51.6269 48.875 50.3156C50.1864 49.0043 51.998 48.1932 53.9991 48.1932ZM26.7858 44.962L26.406 43.0608H22.3572L21.9773 44.962H21.9754C21.9241 45.2187 21.7356 45.438 21.4677 45.5173C21.1214 45.6191 20.7845 45.7367 20.4588 45.8701L20.4242 45.8851C20.0948 46.0213 19.7802 46.1707 19.4806 46.3321C19.2436 46.4889 18.9253 46.4983 18.6733 46.3312L17.0586 45.2551L14.1961 48.1176L15.2722 49.7323L15.2704 49.7341C15.415 49.9516 15.4374 50.2391 15.304 50.4846C15.1341 50.7953 14.9792 51.1174 14.841 51.4478L14.827 51.4842C14.6917 51.8108 14.5732 52.1431 14.4724 52.48C14.4117 52.7535 14.1952 52.9784 13.903 53.0363L11.999 53.4171V55.4406H12.0018V57.465L13.903 57.8448V57.8467C14.1597 57.898 14.379 58.0866 14.4584 58.3544C14.5601 58.7007 14.6777 59.0376 14.8112 59.3634L14.8261 59.3979C14.9624 59.7274 15.1117 60.0419 15.2732 60.3415C15.43 60.5786 15.4393 60.8968 15.2722 61.1479L14.1961 62.7626L17.0586 65.6251L18.6733 64.549V64.5508C18.8917 64.4062 19.1801 64.3838 19.4246 64.5172C19.7401 64.6899 20.0742 64.8495 20.4242 64.9942C20.7462 65.1286 21.0785 65.2462 21.421 65.3488C21.6945 65.4095 21.9194 65.626 21.9773 65.9182L22.3572 67.8194H26.406L26.7858 65.9182H26.7877C26.839 65.6615 27.0276 65.4422 27.2954 65.3628C27.6417 65.2611 27.9786 65.1435 28.3044 65.01L28.3389 64.9951C28.6684 64.8588 28.9829 64.7095 29.2825 64.548C29.5196 64.3912 29.8378 64.3819 30.0898 64.549L31.7045 65.6251L34.567 62.7626L33.4909 61.1479L33.4928 61.146C33.3481 60.9286 33.3257 60.6411 33.4592 60.3956C33.6318 60.0802 33.7914 59.746 33.9361 59.396C34.0696 59.075 34.1881 58.7427 34.2908 58.4002C34.3514 58.1267 34.568 57.9018 34.8601 57.8439L36.7641 57.4631V57.1971C36.7622 57.1756 36.7613 57.1542 36.7613 57.1327C36.7613 57.1112 36.7622 57.0898 36.7641 57.0683V55.4387H36.7613V53.4143L36.3208 53.3266C36.3068 53.3238 36.2928 53.3209 36.2797 53.3181L34.8601 53.0344V53.0326C34.6034 52.9812 34.3841 52.7927 34.3048 52.5248C34.203 52.1786 34.0854 51.8416 33.952 51.5159L33.937 51.4813C33.8008 51.1519 33.6514 50.8374 33.49 50.5378C33.3332 50.3007 33.3238 49.9824 33.4909 49.7304L34.567 48.1157L31.7045 45.2532L30.0898 46.3293L30.088 46.3275C29.8705 46.4721 29.583 46.4945 29.3376 46.3611C29.0221 46.1884 28.688 46.0288 28.338 45.8841C28.016 45.7497 27.6837 45.6321 27.3412 45.5295C27.0677 45.4688 26.8428 45.2523 26.7849 44.9601L26.7858 44.962ZM35.715 49.0229V51.7203L35.5657 51.6904C35.4836 51.445 35.393 51.2023 35.2941 50.9624L35.2792 50.9241C35.1765 50.6759 35.0636 50.4286 34.9404 50.1831L35.7141 49.022L35.715 49.0229ZM33.0121 44.5019H35.715V47.2048L33.0121 44.5019ZM56.4043 44.9629C56.4621 45.2551 56.688 45.4707 56.9605 45.5323C57.2657 45.6228 57.5625 45.7264 57.8509 45.8421C57.8845 45.8589 57.92 45.8739 57.9564 45.8851C58.3064 46.0307 58.6396 46.1903 58.956 46.3629C59.2015 46.4964 59.4889 46.474 59.7064 46.3293L59.7083 46.3312L61.3229 45.2551L62.6781 46.6103L62.6847 46.6168L64.1864 48.1185L63.1103 49.7332C62.9423 49.9852 62.9516 50.3026 63.1093 50.5406C63.2708 50.8402 63.4201 51.1547 63.5564 51.4842L63.5713 51.5187C63.7048 51.8444 63.8224 52.1814 63.9241 52.5276C64.0025 52.7964 64.2228 52.984 64.4795 53.0354V53.0372L66.3807 53.4171V55.4415H66.3835V57.0711C66.3816 57.0926 66.3807 57.114 66.3807 57.1355C66.3807 57.157 66.3816 57.1784 66.3835 57.1999V57.4659L64.4795 57.8467C64.1873 57.9046 63.9717 58.1304 63.9101 58.403C63.8084 58.7455 63.6899 59.0778 63.5564 59.3998H63.5555C63.4108 59.7498 63.2512 60.083 63.0785 60.3984C62.9451 60.6439 62.9675 60.9314 63.1121 61.1488L63.1103 61.1507L64.1864 62.7654L61.3239 65.6279L59.7092 64.5518C59.4572 64.3838 59.1399 64.3931 58.9019 64.5508C58.6023 64.7123 58.2877 64.8616 57.9583 64.9979L57.9237 65.0128C57.598 65.1463 57.2611 65.2639 56.9148 65.3656C56.646 65.445 56.4584 65.6643 56.4071 65.921H56.4052L56.0253 67.8222H51.9765L51.5967 65.921C51.5388 65.6288 51.3129 65.4123 51.0404 65.3516C50.6979 65.2499 50.3656 65.1314 50.0436 64.9979C49.6936 64.8523 49.3604 64.6927 49.044 64.52C48.7985 64.3866 48.5111 64.409 48.2936 64.5536L48.2917 64.5518L46.677 65.6279L43.8145 62.7654L44.8907 61.1507C45.0587 60.8987 45.0493 60.5814 44.8916 60.3443C44.7301 60.0447 44.5808 59.7302 44.4445 59.4007L44.4296 59.3662C44.2961 59.0404 44.1785 58.7035 44.0768 58.3572C43.9984 58.0884 43.7781 57.9008 43.5214 57.8495V57.8476L41.6202 57.4678V55.4434H41.6174V53.8138C41.6193 53.7923 41.6202 53.7708 41.6202 53.7494C41.6202 53.7279 41.6193 53.7064 41.6174 53.685V53.419L43.5214 53.0382C43.8136 52.9803 44.0292 52.7544 44.0908 52.4819C44.1916 52.145 44.3101 51.8118 44.4454 51.486L44.4594 51.4496C44.5976 51.1192 44.7525 50.7982 44.9224 50.4864C45.0559 50.2419 45.0334 49.9535 44.8888 49.736L44.8907 49.7341L43.8145 48.1195L45.3162 46.6177L45.3228 46.6112L46.678 45.256L48.2927 46.3321C48.5447 46.5001 48.862 46.4908 49.1 46.3331C49.3996 46.1716 49.7141 46.0223 50.0436 45.886L50.0511 45.8823C50.0847 45.8711 50.1173 45.8571 50.1491 45.8412C50.4524 45.7199 50.7651 45.6116 51.0871 45.5173C51.3559 45.4389 51.5435 45.2187 51.5948 44.962H51.5967L51.9765 43.0608H56.0253L56.4052 44.962L56.4043 44.9629ZM45.5328 44.3395L46.0695 43.8028C46.3205 43.5517 46.7088 43.5219 46.9916 43.7132L48.7435 44.8808C48.8592 44.8229 48.9749 44.7669 49.0907 44.7137V38.6013H45.5328V44.3395ZM40.1624 56.4056V55.4406H40.1652V54.4755H38.2192V55.4406H38.2164V56.4056H40.1624ZM58.9084 44.7147C59.0251 44.7679 59.1408 44.8239 59.2556 44.8817L61.0103 43.7123C61.3089 43.5135 61.7019 43.5639 61.9408 43.8149L62.4663 44.3404V31.6508H58.9084V44.7147ZM86.0217 44.9629L85.6419 43.0617H81.5931L81.2132 44.9629H81.2113C81.16 45.2196 80.9715 45.4389 80.7036 45.5183C80.3573 45.62 80.0204 45.7376 79.6947 45.8711L79.6601 45.886C79.3307 46.0223 79.0161 46.1716 78.7165 46.3331C78.4795 46.4899 78.1612 46.4992 77.9092 46.3321L76.2945 45.256L73.432 48.1185L74.5081 49.7332L74.5063 49.7351C74.6509 49.9526 74.6733 50.24 74.5399 50.4855C74.37 50.7963 74.2151 51.1183 74.0769 51.4487L74.0629 51.4851C73.9276 51.8118 73.8091 52.144 73.7083 52.4809C73.6476 52.7544 73.4311 52.9794 73.1389 53.0372L71.7203 53.321C71.7063 53.3238 71.6923 53.3266 71.6773 53.3294L71.234 53.418V53.684C71.2359 53.7055 71.2368 53.727 71.2368 53.7484C71.2368 53.7699 71.2359 53.7914 71.234 53.8128V55.4424H71.2368V57.4668L73.138 57.8467V57.8486C73.3947 57.8999 73.614 58.0884 73.6933 58.3563C73.7951 58.7026 73.9127 59.0395 74.0461 59.3652L74.0611 59.3998C74.1973 59.7292 74.3467 60.0438 74.5081 60.3434C74.6649 60.5804 74.6743 60.8987 74.5072 61.1498L73.4311 62.7644L76.2936 65.627L77.9083 64.5508L77.9101 64.5527C78.1276 64.408 78.4151 64.3856 78.6605 64.5191C78.976 64.6918 79.3101 64.8514 79.6601 64.996C79.9821 65.1304 80.3144 65.248 80.6569 65.3507C80.9304 65.4114 81.1553 65.6279 81.2132 65.92L81.5931 67.8212H85.6419L86.0217 65.92H86.0236C86.0749 65.6634 86.2635 65.444 86.5313 65.3647C86.8776 65.263 87.2145 65.1454 87.5403 65.0119L87.5748 64.997C87.9043 64.8607 88.2188 64.7114 88.5184 64.5499C88.7555 64.3931 89.0737 64.3838 89.3257 64.5508L90.9404 65.627L93.803 62.7644L92.7268 61.1498L92.7287 61.1479C92.584 60.9304 92.5616 60.643 92.6951 60.3975C92.8678 60.082 93.0274 59.7479 93.172 59.3979C93.3055 59.0768 93.424 58.7446 93.5267 58.402C93.5873 58.1286 93.8039 57.9036 94.096 57.8458L96 57.465V55.4415H95.9972V53.4171L94.096 53.0372V53.0354C93.8394 52.984 93.62 52.7955 93.5407 52.5276C93.4389 52.1814 93.3214 51.8444 93.1879 51.5187L93.173 51.4842C93.0367 51.1547 92.8874 50.8402 92.7259 50.5406C92.5691 50.3035 92.5598 49.9852 92.7268 49.7332L93.803 48.1185L90.9404 45.256L89.3257 46.3321V46.3303C89.1073 46.4749 88.8189 46.4973 88.5744 46.3639C88.2589 46.1912 87.9248 46.0316 87.5748 45.8869C87.2528 45.7525 86.9205 45.6349 86.578 45.5323C86.3045 45.4716 86.0796 45.2551 86.0217 44.9629ZM72.284 47.2057V22.1672H75.8419V43.6843C75.7868 43.716 75.7345 43.7552 75.6869 43.8028L72.284 47.2057ZM72.284 51.7212V49.0239L73.0577 50.185C72.9429 50.4155 72.8347 50.6507 72.7348 50.8887L72.718 50.9251C72.6144 51.1752 72.5192 51.43 72.4315 51.6904L72.2831 51.7203L72.284 51.7212ZM69.7799 56.4056V55.4406H69.7827V54.4755H67.8367V55.4406H67.8339V56.4056H69.7799ZM87.7102 51.347C88.7574 52.3941 89.406 53.8418 89.406 55.4406C89.406 57.0394 88.7583 58.487 87.7102 59.5342C86.6629 60.5814 85.2153 61.23 83.6165 61.23C82.0177 61.23 80.5701 60.5823 79.5229 59.5342C78.4757 58.487 77.8271 57.0394 77.8271 55.4406C77.8271 53.8418 78.4748 52.3941 79.5229 51.347C80.5701 50.2997 82.0177 49.6511 83.6165 49.6511C85.2153 49.6511 86.6629 50.2988 87.7102 51.347ZM83.6165 48.1932C85.6176 48.1932 87.4292 49.0043 88.7405 50.3156C90.0519 51.6269 90.863 53.4386 90.863 55.4396C90.863 57.4407 90.0519 59.2523 88.7405 60.5636C87.4292 61.875 85.6176 62.686 83.6165 62.686C81.6155 62.686 79.8039 61.875 78.4925 60.5636C77.1812 59.2523 76.3701 57.4407 76.3701 55.4396C76.3701 53.4386 77.1812 51.6269 78.4925 50.3156C79.8039 49.0043 81.6155 48.1932 83.6165 48.1932ZM28.4742 51.347C29.5214 52.3941 30.1701 53.8418 30.1701 55.4406C30.1701 57.0394 29.5224 58.487 28.4742 59.5342C27.427 60.5814 25.9794 61.23 24.3806 61.23C22.7818 61.23 21.3342 60.5823 20.287 59.5342C19.2398 58.487 18.5912 57.0394 18.5912 55.4406C18.5912 53.8418 19.2389 52.3941 20.287 51.347C21.3342 50.2997 22.7818 49.6511 24.3806 49.6511C25.9794 49.6511 27.427 50.2988 28.4742 51.347ZM24.3806 48.1932C26.3817 48.1932 28.1933 49.0043 29.5046 50.3156C30.816 51.6269 31.627 53.4386 31.627 55.4396C31.627 57.4407 30.816 59.2523 29.5046 60.5636C28.1933 61.875 26.3817 62.686 24.3806 62.686C22.3796 62.686 20.568 61.875 19.2566 60.5636C17.9453 59.2523 17.1342 57.4407 17.1342 55.4396C17.1342 53.4386 17.9453 51.6269 19.2566 50.3156C20.568 49.0043 22.3796 48.1932 24.3806 48.1932ZM70.4211 16.4225C70.8093 16.5261 71.0399 16.9256 70.9363 17.3139L69.2124 23.7492C69.1088 24.1375 68.7093 24.368 68.3211 24.2644C67.9328 24.1608 67.7023 23.7613 67.8059 23.3731L68.8251 19.5679C64.8547 23.3936 60.4447 26.706 55.7005 29.4453C50.1752 32.6364 44.1962 35.0463 37.9326 36.5779C37.5425 36.6721 37.1505 36.4323 37.0553 36.0421C36.961 35.652 37.2009 35.26 37.5901 35.1648C43.7137 33.6668 49.562 31.3101 54.9707 28.1872H54.9725C60.0237 25.2715 64.6913 21.6847 68.8428 17.5061L63.6077 16.1033C63.2195 15.9997 62.9889 15.6003 63.0925 15.212C63.1961 14.8237 63.5956 14.5932 63.9839 14.6968L70.4192 16.4207L70.4211 16.4225Z" fill="#0E8372"/>
</svg>
