<svg width="371" height="332" viewBox="0 0 371 332" fill="none" xmlns="http://www.w3.org/2000/svg">
<path d="M77.4659 156H75.7045C75.6004 155.493 75.4181 155.048 75.1577 154.665C74.902 154.281 74.5895 153.959 74.2202 153.699C73.8556 153.434 73.4508 153.235 73.0057 153.102C72.5606 152.97 72.0966 152.903 71.6136 152.903C70.733 152.903 69.9351 153.126 69.2202 153.571C68.5099 154.016 67.9441 154.672 67.5227 155.538C67.1061 156.405 66.8977 157.468 66.8977 158.727C66.8977 159.987 67.1061 161.05 67.5227 161.916C67.9441 162.783 68.5099 163.438 69.2202 163.884C69.9351 164.329 70.733 164.551 71.6136 164.551C72.0966 164.551 72.5606 164.485 73.0057 164.352C73.4508 164.22 73.8556 164.023 74.2202 163.763C74.5895 163.498 74.902 163.173 75.1577 162.79C75.4181 162.402 75.6004 161.956 75.7045 161.455H77.4659C77.3333 162.198 77.0919 162.863 76.7415 163.45C76.3911 164.037 75.9555 164.537 75.4347 164.949C74.9138 165.356 74.3291 165.666 73.6804 165.879C73.0365 166.092 72.3475 166.199 71.6136 166.199C70.3731 166.199 69.2699 165.896 68.304 165.29C67.3381 164.684 66.5781 163.822 66.0241 162.705C65.4702 161.587 65.1932 160.261 65.1932 158.727C65.1932 157.193 65.4702 155.867 66.0241 154.75C66.5781 153.633 67.3381 152.771 68.304 152.165C69.2699 151.559 70.3731 151.256 71.6136 151.256C72.3475 151.256 73.0365 151.362 73.6804 151.575C74.3291 151.788 74.9138 152.101 75.4347 152.513C75.9555 152.92 76.3911 153.417 76.7415 154.004C77.0919 154.587 77.3333 155.252 77.4659 156ZM84.5167 166.227C83.5318 166.227 82.6677 165.993 81.9244 165.524C81.1857 165.055 80.6081 164.4 80.1914 163.557C79.7795 162.714 79.5735 161.729 79.5735 160.602C79.5735 159.466 79.7795 158.474 80.1914 157.626C80.6081 156.779 81.1857 156.121 81.9244 155.652C82.6677 155.183 83.5318 154.949 84.5167 154.949C85.5015 154.949 86.3633 155.183 87.1019 155.652C87.8453 156.121 88.4229 156.779 88.8349 157.626C89.2515 158.474 89.4599 159.466 89.4599 160.602C89.4599 161.729 89.2515 162.714 88.8349 163.557C88.4229 164.4 87.8453 165.055 87.1019 165.524C86.3633 165.993 85.5015 166.227 84.5167 166.227ZM84.5167 164.722C85.2648 164.722 85.8803 164.53 86.3633 164.146C86.8462 163.763 87.2037 163.259 87.4357 162.634C87.6677 162.009 87.7837 161.331 87.7837 160.602C87.7837 159.873 87.6677 159.194 87.4357 158.564C87.2037 157.934 86.8462 157.425 86.3633 157.037C85.8803 156.649 85.2648 156.455 84.5167 156.455C83.7686 156.455 83.1531 156.649 82.6701 157.037C82.1871 157.425 81.8297 157.934 81.5977 158.564C81.3656 159.194 81.2496 159.873 81.2496 160.602C81.2496 161.331 81.3656 162.009 81.5977 162.634C81.8297 163.259 82.1871 163.763 82.6701 164.146C83.1531 164.53 83.7686 164.722 84.5167 164.722ZM92.0185 166V155.091H93.6378V156.795H93.7798C94.0071 156.213 94.3741 155.761 94.8807 155.439C95.3873 155.112 95.9957 154.949 96.706 154.949C97.4257 154.949 98.0246 155.112 98.5028 155.439C98.9858 155.761 99.3622 156.213 99.6321 156.795H99.7457C100.025 156.232 100.444 155.785 101.003 155.453C101.562 155.117 102.232 154.949 103.013 154.949C103.988 154.949 104.786 155.254 105.406 155.865C106.027 156.471 106.337 157.416 106.337 158.699V166H104.661V158.699C104.661 157.894 104.44 157.319 104 156.973C103.56 156.627 103.041 156.455 102.445 156.455C101.678 156.455 101.083 156.687 100.662 157.151C100.241 157.61 100.03 158.192 100.03 158.898V166H98.3253V158.528C98.3253 157.908 98.1241 157.409 97.7216 157.03C97.3191 156.646 96.8007 156.455 96.1662 156.455C95.7306 156.455 95.3234 156.571 94.9446 156.803C94.5705 157.035 94.2675 157.357 94.0355 157.768C93.8082 158.176 93.6946 158.647 93.6946 159.182V166H92.0185ZM109.401 170.091V155.091H111.021V156.824H111.219C111.343 156.634 111.513 156.393 111.731 156.099C111.953 155.801 112.271 155.536 112.683 155.304C113.099 155.067 113.663 154.949 114.373 154.949C115.291 154.949 116.101 155.179 116.802 155.638C117.503 156.097 118.049 156.748 118.442 157.591C118.835 158.434 119.032 159.428 119.032 160.574C119.032 161.729 118.835 162.731 118.442 163.578C118.049 164.421 117.505 165.074 116.809 165.538C116.113 165.998 115.31 166.227 114.401 166.227C113.701 166.227 113.139 166.111 112.718 165.879C112.297 165.643 111.972 165.375 111.745 165.077C111.518 164.774 111.343 164.523 111.219 164.324H111.077V170.091H109.401ZM111.049 160.545C111.049 161.369 111.17 162.096 111.411 162.726C111.653 163.351 112.005 163.841 112.469 164.196C112.933 164.546 113.502 164.722 114.174 164.722C114.875 164.722 115.46 164.537 115.928 164.168C116.402 163.794 116.757 163.292 116.994 162.662C117.235 162.027 117.356 161.322 117.356 160.545C117.356 159.778 117.237 159.087 117.001 158.472C116.769 157.851 116.416 157.361 115.942 157.001C115.474 156.637 114.884 156.455 114.174 156.455C113.492 156.455 112.919 156.627 112.455 156.973C111.991 157.314 111.641 157.792 111.404 158.408C111.167 159.018 111.049 159.731 111.049 160.545ZM121.589 166V155.091H123.208V156.739H123.322C123.521 156.199 123.88 155.761 124.401 155.425C124.922 155.089 125.509 154.92 126.163 154.92C126.286 154.92 126.44 154.923 126.624 154.928C126.809 154.932 126.949 154.939 127.043 154.949V156.653C126.987 156.639 126.856 156.618 126.653 156.589C126.454 156.556 126.243 156.54 126.021 156.54C125.49 156.54 125.017 156.651 124.6 156.874C124.188 157.091 123.862 157.394 123.62 157.783C123.383 158.166 123.265 158.604 123.265 159.097V166H121.589ZM133.272 166.227C132.221 166.227 131.314 165.995 130.552 165.531C129.794 165.062 129.21 164.409 128.798 163.571C128.39 162.728 128.187 161.748 128.187 160.631C128.187 159.513 128.39 158.528 128.798 157.676C129.21 156.819 129.782 156.152 130.516 155.673C131.255 155.19 132.117 154.949 133.102 154.949C133.67 154.949 134.231 155.044 134.785 155.233C135.339 155.422 135.843 155.73 136.298 156.156C136.752 156.578 137.114 157.136 137.384 157.832C137.654 158.528 137.789 159.385 137.789 160.403V161.114H129.38V159.665H136.085C136.085 159.049 135.961 158.5 135.715 158.017C135.474 157.534 135.128 157.153 134.678 156.874C134.233 156.594 133.708 156.455 133.102 156.455C132.434 156.455 131.856 156.62 131.369 156.952C130.886 157.278 130.514 157.705 130.254 158.23C129.993 158.756 129.863 159.319 129.863 159.92V160.886C129.863 161.71 130.005 162.409 130.289 162.982C130.578 163.55 130.978 163.983 131.489 164.281C132.001 164.575 132.595 164.722 133.272 164.722C133.712 164.722 134.11 164.66 134.465 164.537C134.825 164.409 135.135 164.22 135.396 163.969C135.656 163.713 135.857 163.396 135.999 163.017L137.619 163.472C137.448 164.021 137.162 164.504 136.759 164.92C136.357 165.332 135.86 165.654 135.268 165.886C134.676 166.114 134.011 166.227 133.272 166.227ZM142.015 159.438V166H140.339V151.455H142.015V156.795H142.157C142.413 156.232 142.796 155.785 143.308 155.453C143.824 155.117 144.51 154.949 145.367 154.949C146.111 154.949 146.762 155.098 147.32 155.396C147.879 155.69 148.312 156.142 148.62 156.753C148.933 157.359 149.089 158.131 149.089 159.068V166H147.413V159.182C147.413 158.315 147.188 157.645 146.738 157.172C146.293 156.694 145.675 156.455 144.884 156.455C144.335 156.455 143.843 156.571 143.407 156.803C142.976 157.035 142.635 157.373 142.384 157.818C142.138 158.263 142.015 158.803 142.015 159.438ZM156.729 166.227C155.678 166.227 154.771 165.995 154.009 165.531C153.251 165.062 152.667 164.409 152.255 163.571C151.847 162.728 151.644 161.748 151.644 160.631C151.644 159.513 151.847 158.528 152.255 157.676C152.667 156.819 153.239 156.152 153.973 155.673C154.712 155.19 155.574 154.949 156.559 154.949C157.127 154.949 157.688 155.044 158.242 155.233C158.796 155.422 159.3 155.73 159.755 156.156C160.209 156.578 160.571 157.136 160.841 157.832C161.111 158.528 161.246 159.385 161.246 160.403V161.114H152.837V159.665H159.542C159.542 159.049 159.418 158.5 159.172 158.017C158.931 157.534 158.585 157.153 158.135 156.874C157.69 156.594 157.165 156.455 156.559 156.455C155.891 156.455 155.313 156.62 154.826 156.952C154.343 157.278 153.971 157.705 153.711 158.23C153.45 158.756 153.32 159.319 153.32 159.92V160.886C153.32 161.71 153.462 162.409 153.746 162.982C154.035 163.55 154.435 163.983 154.946 164.281C155.458 164.575 156.052 164.722 156.729 164.722C157.169 164.722 157.567 164.66 157.922 164.537C158.282 164.409 158.592 164.22 158.853 163.969C159.113 163.713 159.314 163.396 159.456 163.017L161.076 163.472C160.905 164.021 160.619 164.504 160.216 164.92C159.814 165.332 159.317 165.654 158.725 165.886C158.133 166.114 157.468 166.227 156.729 166.227ZM165.472 159.438V166H163.796V155.091H165.415V156.795H165.557C165.813 156.241 166.201 155.796 166.722 155.46C167.243 155.119 167.915 154.949 168.739 154.949C169.478 154.949 170.124 155.1 170.678 155.403C171.232 155.702 171.663 156.156 171.971 156.767C172.278 157.373 172.432 158.14 172.432 159.068V166H170.756V159.182C170.756 158.325 170.533 157.657 170.088 157.179C169.643 156.696 169.033 156.455 168.256 156.455C167.721 156.455 167.243 156.571 166.821 156.803C166.405 157.035 166.076 157.373 165.834 157.818C165.593 158.263 165.472 158.803 165.472 159.438ZM183.222 157.534L181.717 157.96C181.622 157.709 181.482 157.465 181.298 157.229C181.118 156.987 180.871 156.788 180.559 156.632C180.246 156.476 179.846 156.398 179.359 156.398C178.691 156.398 178.135 156.552 177.69 156.859C177.249 157.162 177.029 157.548 177.029 158.017C177.029 158.434 177.181 158.763 177.484 159.004C177.787 159.246 178.26 159.447 178.904 159.608L180.523 160.006C181.499 160.242 182.226 160.605 182.704 161.092C183.182 161.575 183.421 162.198 183.421 162.96C183.421 163.585 183.241 164.144 182.881 164.636C182.526 165.129 182.029 165.517 181.39 165.801C180.751 166.085 180.007 166.227 179.16 166.227C178.047 166.227 177.126 165.986 176.397 165.503C175.668 165.02 175.206 164.314 175.012 163.386L176.603 162.989C176.754 163.576 177.041 164.016 177.462 164.31C177.888 164.603 178.445 164.75 179.131 164.75C179.913 164.75 180.533 164.584 180.992 164.253C181.456 163.917 181.688 163.514 181.688 163.045C181.688 162.667 181.556 162.349 181.29 162.094C181.025 161.833 180.618 161.639 180.069 161.511L178.251 161.085C177.252 160.848 176.518 160.482 176.049 159.984C175.585 159.482 175.353 158.855 175.353 158.102C175.353 157.487 175.526 156.942 175.871 156.469C176.222 155.995 176.698 155.624 177.299 155.354C177.905 155.084 178.592 154.949 179.359 154.949C180.438 154.949 181.286 155.186 181.901 155.659C182.522 156.133 182.962 156.758 183.222 157.534ZM185.944 166V155.091H187.62V166H185.944ZM186.797 153.273C186.47 153.273 186.188 153.161 185.951 152.939C185.719 152.716 185.603 152.449 185.603 152.136C185.603 151.824 185.719 151.556 185.951 151.334C186.188 151.111 186.47 151 186.797 151C187.123 151 187.403 151.111 187.635 151.334C187.871 151.556 187.99 151.824 187.99 152.136C187.99 152.449 187.871 152.716 187.635 152.939C187.403 153.161 187.123 153.273 186.797 153.273ZM199.611 155.091L195.577 166H193.872L189.838 155.091H191.656L194.668 163.784H194.781L197.793 155.091H199.611ZM206.006 166.227C204.955 166.227 204.049 165.995 203.286 165.531C202.529 165.062 201.944 164.409 201.532 163.571C201.125 162.728 200.921 161.748 200.921 160.631C200.921 159.513 201.125 158.528 201.532 157.676C201.944 156.819 202.517 156.152 203.251 155.673C203.989 155.19 204.851 154.949 205.836 154.949C206.404 154.949 206.965 155.044 207.519 155.233C208.073 155.422 208.577 155.73 209.032 156.156C209.487 156.578 209.849 157.136 210.119 157.832C210.388 158.528 210.523 159.385 210.523 160.403V161.114H202.114V159.665H208.819C208.819 159.049 208.696 158.5 208.45 158.017C208.208 157.534 207.862 157.153 207.413 156.874C206.968 156.594 206.442 156.455 205.836 156.455C205.168 156.455 204.591 156.62 204.103 156.952C203.62 157.278 203.248 157.705 202.988 158.23C202.728 158.756 202.597 159.319 202.597 159.92V160.886C202.597 161.71 202.739 162.409 203.023 162.982C203.312 163.55 203.712 163.983 204.224 164.281C204.735 164.575 205.329 164.722 206.006 164.722C206.447 164.722 206.844 164.66 207.2 164.537C207.559 164.409 207.87 164.22 208.13 163.969C208.39 163.713 208.592 163.396 208.734 163.017L210.353 163.472C210.183 164.021 209.896 164.504 209.494 164.92C209.091 165.332 208.594 165.654 208.002 165.886C207.41 166.114 206.745 166.227 206.006 166.227ZM219.522 166H217.675L223.016 151.455H224.835L230.175 166H228.329L223.982 153.756H223.869L219.522 166ZM220.204 160.318H227.647V161.881H220.204V160.318ZM233.89 159.438V166H232.214V155.091H233.833V156.795H233.975C234.231 156.241 234.619 155.796 235.14 155.46C235.661 155.119 236.333 154.949 237.157 154.949C237.896 154.949 238.542 155.1 239.096 155.403C239.65 155.702 240.081 156.156 240.388 156.767C240.696 157.373 240.85 158.14 240.85 159.068V166H239.174V159.182C239.174 158.325 238.951 157.657 238.506 157.179C238.061 156.696 237.451 156.455 236.674 156.455C236.139 156.455 235.661 156.571 235.239 156.803C234.823 157.035 234.494 157.373 234.252 157.818C234.011 158.263 233.89 158.803 233.89 159.438ZM247.123 166.256C246.432 166.256 245.805 166.125 245.241 165.865C244.678 165.6 244.23 165.219 243.899 164.722C243.567 164.22 243.402 163.614 243.402 162.903C243.402 162.278 243.525 161.772 243.771 161.384C244.017 160.991 244.346 160.683 244.758 160.46C245.17 160.238 245.625 160.072 246.122 159.963C246.624 159.849 247.128 159.759 247.635 159.693C248.297 159.608 248.835 159.544 249.247 159.501C249.663 159.454 249.967 159.376 250.156 159.267C250.35 159.158 250.447 158.969 250.447 158.699V158.642C250.447 157.941 250.255 157.397 249.872 157.009C249.493 156.62 248.918 156.426 248.146 156.426C247.346 156.426 246.718 156.601 246.264 156.952C245.809 157.302 245.49 157.676 245.305 158.074L243.714 157.506C243.998 156.843 244.377 156.327 244.85 155.957C245.329 155.583 245.85 155.323 246.413 155.176C246.981 155.025 247.54 154.949 248.089 154.949C248.44 154.949 248.842 154.991 249.297 155.077C249.756 155.157 250.199 155.325 250.625 155.581C251.056 155.837 251.413 156.223 251.697 156.739C251.981 157.255 252.123 157.946 252.123 158.812V166H250.447V164.523H250.362C250.248 164.759 250.059 165.013 249.794 165.283C249.529 165.553 249.176 165.782 248.735 165.972C248.295 166.161 247.758 166.256 247.123 166.256ZM247.379 164.75C248.042 164.75 248.6 164.62 249.055 164.359C249.514 164.099 249.86 163.763 250.092 163.351C250.329 162.939 250.447 162.506 250.447 162.051V160.517C250.376 160.602 250.22 160.68 249.978 160.751C249.742 160.818 249.467 160.877 249.154 160.929C248.847 160.976 248.546 161.019 248.252 161.057C247.964 161.09 247.729 161.118 247.549 161.142C247.114 161.199 246.707 161.291 246.328 161.419C245.954 161.542 245.651 161.729 245.419 161.98C245.191 162.226 245.078 162.562 245.078 162.989C245.078 163.571 245.293 164.011 245.724 164.31C246.16 164.603 246.711 164.75 247.379 164.75ZM256.859 151.455V166H255.183V151.455H256.859ZM261.008 170.091C260.724 170.091 260.471 170.067 260.248 170.02C260.026 169.977 259.872 169.935 259.787 169.892L260.213 168.415C260.62 168.519 260.98 168.557 261.292 168.528C261.605 168.5 261.882 168.36 262.123 168.109C262.369 167.863 262.594 167.463 262.798 166.909L263.11 166.057L259.076 155.091H260.895L263.906 163.784H264.02L267.031 155.091H268.849L264.218 167.591C264.01 168.154 263.752 168.621 263.444 168.99C263.136 169.364 262.779 169.641 262.372 169.821C261.969 170.001 261.515 170.091 261.008 170.091ZM278.789 157.534L277.283 157.96C277.188 157.709 277.049 157.465 276.864 157.229C276.684 156.987 276.438 156.788 276.125 156.632C275.813 156.476 275.413 156.398 274.925 156.398C274.257 156.398 273.701 156.552 273.256 156.859C272.816 157.162 272.596 157.548 272.596 158.017C272.596 158.434 272.747 158.763 273.05 159.004C273.353 159.246 273.827 159.447 274.471 159.608L276.09 160.006C277.065 160.242 277.792 160.605 278.27 161.092C278.748 161.575 278.988 162.198 278.988 162.96C278.988 163.585 278.808 164.144 278.448 164.636C278.093 165.129 277.596 165.517 276.956 165.801C276.317 166.085 275.574 166.227 274.726 166.227C273.614 166.227 272.693 165.986 271.963 165.503C271.234 165.02 270.773 164.314 270.578 163.386L272.169 162.989C272.321 163.576 272.607 164.016 273.029 164.31C273.455 164.603 274.011 164.75 274.698 164.75C275.479 164.75 276.099 164.584 276.559 164.253C277.023 163.917 277.255 163.514 277.255 163.045C277.255 162.667 277.122 162.349 276.857 162.094C276.592 161.833 276.185 161.639 275.635 161.511L273.817 161.085C272.818 160.848 272.084 160.482 271.615 159.984C271.151 159.482 270.919 158.855 270.919 158.102C270.919 157.487 271.092 156.942 271.438 156.469C271.788 155.995 272.264 155.624 272.865 155.354C273.471 155.084 274.158 154.949 274.925 154.949C276.005 154.949 276.852 155.186 277.468 155.659C278.088 156.133 278.528 156.758 278.789 157.534ZM281.511 166V155.091H283.187V166H281.511ZM282.363 153.273C282.036 153.273 281.754 153.161 281.518 152.939C281.286 152.716 281.17 152.449 281.17 152.136C281.17 151.824 281.286 151.556 281.518 151.334C281.754 151.111 282.036 151 282.363 151C282.69 151 282.969 151.111 283.201 151.334C283.438 151.556 283.556 151.824 283.556 152.136C283.556 152.449 283.438 152.716 283.201 152.939C282.969 153.161 282.69 153.273 282.363 153.273ZM293.984 157.534L292.478 157.96C292.384 157.709 292.244 157.465 292.059 157.229C291.879 156.987 291.633 156.788 291.321 156.632C291.008 156.476 290.608 156.398 290.12 156.398C289.453 156.398 288.896 156.552 288.451 156.859C288.011 157.162 287.791 157.548 287.791 158.017C287.791 158.434 287.942 158.763 288.245 159.004C288.548 159.246 289.022 159.447 289.666 159.608L291.285 160.006C292.261 160.242 292.987 160.605 293.466 161.092C293.944 161.575 294.183 162.198 294.183 162.96C294.183 163.585 294.003 164.144 293.643 164.636C293.288 165.129 292.791 165.517 292.152 165.801C291.512 166.085 290.769 166.227 289.922 166.227C288.809 166.227 287.888 165.986 287.159 165.503C286.43 165.02 285.968 164.314 285.774 163.386L287.365 162.989C287.516 163.576 287.803 164.016 288.224 164.31C288.65 164.603 289.207 164.75 289.893 164.75C290.674 164.75 291.295 164.584 291.754 164.253C292.218 163.917 292.45 163.514 292.45 163.045C292.45 162.667 292.317 162.349 292.052 162.094C291.787 161.833 291.38 161.639 290.831 161.511L289.012 161.085C288.013 160.848 287.279 160.482 286.811 159.984C286.347 159.482 286.115 158.855 286.115 158.102C286.115 157.487 286.288 156.942 286.633 156.469C286.984 155.995 287.459 155.624 288.061 155.354C288.667 155.084 289.353 154.949 290.12 154.949C291.2 154.949 292.047 155.186 292.663 155.659C293.283 156.133 293.724 156.758 293.984 157.534ZM301.763 153.017V151.455H312.672V153.017H308.098V166H306.337V153.017H301.763ZM318.013 166.227C317.028 166.227 316.164 165.993 315.42 165.524C314.682 165.055 314.104 164.4 313.688 163.557C313.276 162.714 313.07 161.729 313.07 160.602C313.07 159.466 313.276 158.474 313.688 157.626C314.104 156.779 314.682 156.121 315.42 155.652C316.164 155.183 317.028 154.949 318.013 154.949C318.998 154.949 319.859 155.183 320.598 155.652C321.341 156.121 321.919 156.779 322.331 157.626C322.748 158.474 322.956 159.466 322.956 160.602C322.956 161.729 322.748 162.714 322.331 163.557C321.919 164.4 321.341 165.055 320.598 165.524C319.859 165.993 318.998 166.227 318.013 166.227ZM318.013 164.722C318.761 164.722 319.376 164.53 319.859 164.146C320.342 163.763 320.7 163.259 320.932 162.634C321.164 162.009 321.28 161.331 321.28 160.602C321.28 159.873 321.164 159.194 320.932 158.564C320.7 157.934 320.342 157.425 319.859 157.037C319.376 156.649 318.761 156.455 318.013 156.455C317.265 156.455 316.649 156.649 316.166 157.037C315.683 157.425 315.326 157.934 315.094 158.564C314.862 159.194 314.746 159.873 314.746 160.602C314.746 161.331 314.862 162.009 315.094 162.634C315.326 163.259 315.683 163.763 316.166 164.146C316.649 164.53 317.265 164.722 318.013 164.722ZM64.9659 177.017V175.455H75.875V177.017H71.3011V190H69.5398V177.017H64.9659ZM80.092 190.256C79.4007 190.256 78.7733 190.125 78.2099 189.865C77.6464 189.6 77.199 189.219 76.8675 188.722C76.5361 188.22 76.3704 187.614 76.3704 186.903C76.3704 186.278 76.4935 185.772 76.7397 185.384C76.9859 184.991 77.315 184.683 77.7269 184.46C78.1388 184.238 78.5934 184.072 79.0906 183.963C79.5924 183.849 80.0967 183.759 80.6033 183.693C81.2662 183.608 81.8036 183.544 82.2156 183.501C82.6322 183.454 82.9353 183.376 83.1246 183.267C83.3188 183.158 83.4158 182.969 83.4158 182.699V182.642C83.4158 181.941 83.2241 181.397 82.8406 181.009C82.4618 180.62 81.8865 180.426 81.1147 180.426C80.3145 180.426 79.6871 180.601 79.2326 180.952C78.7781 181.302 78.4585 181.676 78.2738 182.074L76.6829 181.506C76.967 180.843 77.3458 180.327 77.8192 179.957C78.2975 179.583 78.8183 179.323 79.3817 179.176C79.9499 179.025 80.5086 178.949 81.0579 178.949C81.4083 178.949 81.8107 178.991 82.2653 179.077C82.7246 179.157 83.1673 179.325 83.5934 179.581C84.0243 179.837 84.3817 180.223 84.6658 180.739C84.9499 181.255 85.092 181.946 85.092 182.812V190H83.4158V188.523H83.3306C83.217 188.759 83.0276 189.013 82.7624 189.283C82.4973 189.553 82.1445 189.782 81.7042 189.972C81.2638 190.161 80.7264 190.256 80.092 190.256ZM80.3477 188.75C81.0105 188.75 81.5692 188.62 82.0238 188.359C82.4831 188.099 82.8287 187.763 83.0607 187.351C83.2975 186.939 83.4158 186.506 83.4158 186.051V184.517C83.3448 184.602 83.1886 184.68 82.9471 184.751C82.7103 184.818 82.4357 184.877 82.1232 184.929C81.8155 184.976 81.5148 185.019 81.2212 185.057C80.9324 185.09 80.698 185.118 80.5181 185.142C80.0825 185.199 79.6753 185.291 79.2965 185.419C78.9225 185.542 78.6194 185.729 78.3874 185.98C78.1602 186.226 78.0465 186.562 78.0465 186.989C78.0465 187.571 78.262 188.011 78.6928 188.31C79.1284 188.603 79.68 188.75 80.3477 188.75ZM88.1513 190V179.091H89.8274V190H88.1513ZM89.0036 177.273C88.6768 177.273 88.3951 177.161 88.1584 176.939C87.9264 176.716 87.8104 176.449 87.8104 176.136C87.8104 175.824 87.9264 175.556 88.1584 175.334C88.3951 175.111 88.6768 175 89.0036 175C89.3303 175 89.6096 175.111 89.8416 175.334C90.0784 175.556 90.1967 175.824 90.1967 176.136C90.1967 176.449 90.0784 176.716 89.8416 176.939C89.6096 177.161 89.3303 177.273 89.0036 177.273ZM94.5735 175.455V190H92.8974V175.455H94.5735ZM102.075 190.227C101.09 190.227 100.226 189.993 99.483 189.524C98.7443 189.055 98.1667 188.4 97.75 187.557C97.3381 186.714 97.1321 185.729 97.1321 184.602C97.1321 183.466 97.3381 182.474 97.75 181.626C98.1667 180.779 98.7443 180.121 99.483 179.652C100.226 179.183 101.09 178.949 102.075 178.949C103.06 178.949 103.922 179.183 104.661 179.652C105.404 180.121 105.982 180.779 106.393 181.626C106.81 182.474 107.018 183.466 107.018 184.602C107.018 185.729 106.81 186.714 106.393 187.557C105.982 188.4 105.404 189.055 104.661 189.524C103.922 189.993 103.06 190.227 102.075 190.227ZM102.075 188.722C102.823 188.722 103.439 188.53 103.922 188.146C104.405 187.763 104.762 187.259 104.994 186.634C105.226 186.009 105.342 185.331 105.342 184.602C105.342 183.873 105.226 183.194 104.994 182.564C104.762 181.934 104.405 181.425 103.922 181.037C103.439 180.649 102.823 180.455 102.075 180.455C101.327 180.455 100.712 180.649 100.229 181.037C99.7457 181.425 99.3883 181.934 99.1562 182.564C98.9242 183.194 98.8082 183.873 98.8082 184.602C98.8082 185.331 98.9242 186.009 99.1562 186.634C99.3883 187.259 99.7457 187.763 100.229 188.146C100.712 188.53 101.327 188.722 102.075 188.722ZM109.577 190V179.091H111.196V180.739H111.31C111.509 180.199 111.869 179.761 112.39 179.425C112.91 179.089 113.498 178.92 114.151 178.92C114.274 178.92 114.428 178.923 114.613 178.928C114.797 178.932 114.937 178.939 115.032 178.949V180.653C114.975 180.639 114.845 180.618 114.641 180.589C114.442 180.556 114.231 180.54 114.009 180.54C113.479 180.54 113.005 180.651 112.588 180.874C112.176 181.091 111.85 181.394 111.608 181.783C111.372 182.166 111.253 182.604 111.253 183.097V190H109.577ZM130.825 179.091C130.74 178.371 130.394 177.812 129.788 177.415C129.182 177.017 128.439 176.818 127.558 176.818C126.914 176.818 126.351 176.922 125.868 177.131C125.39 177.339 125.016 177.625 124.746 177.99C124.481 178.355 124.348 178.769 124.348 179.233C124.348 179.621 124.44 179.955 124.625 180.234C124.814 180.509 125.056 180.739 125.349 180.923C125.643 181.103 125.951 181.252 126.273 181.371C126.595 181.484 126.891 181.577 127.161 181.648L128.638 182.045C129.017 182.145 129.438 182.282 129.902 182.457C130.371 182.633 130.818 182.872 131.244 183.175C131.675 183.473 132.03 183.857 132.31 184.325C132.589 184.794 132.729 185.369 132.729 186.051C132.729 186.837 132.523 187.547 132.111 188.182C131.704 188.816 131.107 189.321 130.321 189.695C129.54 190.069 128.59 190.256 127.473 190.256C126.431 190.256 125.529 190.088 124.767 189.751C124.009 189.415 123.413 188.946 122.977 188.345C122.546 187.744 122.303 187.045 122.246 186.25H124.064C124.111 186.799 124.296 187.254 124.618 187.614C124.945 187.969 125.357 188.234 125.854 188.409C126.356 188.58 126.895 188.665 127.473 188.665C128.145 188.665 128.749 188.556 129.284 188.338C129.819 188.116 130.243 187.808 130.555 187.415C130.868 187.017 131.024 186.553 131.024 186.023C131.024 185.54 130.889 185.147 130.619 184.844C130.349 184.541 129.994 184.295 129.554 184.105C129.114 183.916 128.638 183.75 128.126 183.608L126.337 183.097C125.2 182.77 124.301 182.304 123.638 181.697C122.975 181.091 122.643 180.298 122.643 179.318C122.643 178.504 122.864 177.794 123.304 177.188C123.749 176.577 124.346 176.103 125.094 175.767C125.847 175.426 126.687 175.256 127.615 175.256C128.553 175.256 129.386 175.424 130.115 175.76C130.844 176.091 131.422 176.546 131.848 177.124C132.279 177.701 132.506 178.357 132.53 179.091H130.825ZM140.142 179.091V180.511H134.488V179.091H140.142ZM136.136 176.477H137.812V186.875C137.812 187.348 137.881 187.704 138.018 187.94C138.16 188.172 138.34 188.329 138.558 188.409C138.78 188.485 139.015 188.523 139.261 188.523C139.446 188.523 139.597 188.513 139.716 188.494C139.834 188.471 139.929 188.452 140 188.438L140.341 189.943C140.227 189.986 140.068 190.028 139.865 190.071C139.661 190.118 139.403 190.142 139.091 190.142C138.617 190.142 138.153 190.04 137.699 189.837C137.249 189.633 136.875 189.323 136.576 188.906C136.283 188.49 136.136 187.964 136.136 187.33V176.477ZM142.663 190V179.091H144.282V180.739H144.396C144.595 180.199 144.955 179.761 145.475 179.425C145.996 179.089 146.583 178.92 147.237 178.92C147.36 178.92 147.514 178.923 147.699 178.928C147.883 178.932 148.023 178.939 148.118 178.949V180.653C148.061 180.639 147.931 180.618 147.727 180.589C147.528 180.556 147.317 180.54 147.095 180.54C146.565 180.54 146.091 180.651 145.674 180.874C145.262 181.091 144.936 181.394 144.694 181.783C144.458 182.166 144.339 182.604 144.339 183.097V190H142.663ZM153.315 190.256C152.623 190.256 151.996 190.125 151.433 189.865C150.869 189.6 150.422 189.219 150.09 188.722C149.759 188.22 149.593 187.614 149.593 186.903C149.593 186.278 149.716 185.772 149.962 185.384C150.209 184.991 150.538 184.683 150.95 184.46C151.362 184.238 151.816 184.072 152.313 183.963C152.815 183.849 153.319 183.759 153.826 183.693C154.489 183.608 155.026 183.544 155.438 183.501C155.855 183.454 156.158 183.376 156.347 183.267C156.541 183.158 156.638 182.969 156.638 182.699V182.642C156.638 181.941 156.447 181.397 156.063 181.009C155.684 180.62 155.109 180.426 154.337 180.426C153.537 180.426 152.91 180.601 152.455 180.952C152.001 181.302 151.681 181.676 151.496 182.074L149.906 181.506C150.19 180.843 150.568 180.327 151.042 179.957C151.52 179.583 152.041 179.323 152.604 179.176C153.173 179.025 153.731 178.949 154.281 178.949C154.631 178.949 155.033 178.991 155.488 179.077C155.947 179.157 156.39 179.325 156.816 179.581C157.247 179.837 157.604 180.223 157.888 180.739C158.173 181.255 158.315 181.946 158.315 182.812V190H156.638V188.523H156.553C156.44 188.759 156.25 189.013 155.985 189.283C155.72 189.553 155.367 189.782 154.927 189.972C154.487 190.161 153.949 190.256 153.315 190.256ZM153.57 188.75C154.233 188.75 154.792 188.62 155.246 188.359C155.706 188.099 156.051 187.763 156.283 187.351C156.52 186.939 156.638 186.506 156.638 186.051V184.517C156.567 184.602 156.411 184.68 156.17 184.751C155.933 184.818 155.658 184.877 155.346 184.929C155.038 184.976 154.737 185.019 154.444 185.057C154.155 185.09 153.921 185.118 153.741 185.142C153.305 185.199 152.898 185.291 152.519 185.419C152.145 185.542 151.842 185.729 151.61 185.98C151.383 186.226 151.269 186.562 151.269 186.989C151.269 187.571 151.485 188.011 151.915 188.31C152.351 188.603 152.903 188.75 153.57 188.75ZM166.118 179.091V180.511H160.465V179.091H166.118ZM162.113 176.477H163.789V186.875C163.789 187.348 163.857 187.704 163.995 187.94C164.137 188.172 164.317 188.329 164.534 188.409C164.757 188.485 164.991 188.523 165.238 188.523C165.422 188.523 165.574 188.513 165.692 188.494C165.81 188.471 165.905 188.452 165.976 188.438L166.317 189.943C166.203 189.986 166.045 190.028 165.841 190.071C165.638 190.118 165.38 190.142 165.067 190.142C164.594 190.142 164.13 190.04 163.675 189.837C163.225 189.633 162.851 189.323 162.553 188.906C162.259 188.49 162.113 187.964 162.113 187.33V176.477ZM173.096 190.227C172.045 190.227 171.138 189.995 170.376 189.531C169.618 189.062 169.034 188.409 168.622 187.571C168.215 186.728 168.011 185.748 168.011 184.631C168.011 183.513 168.215 182.528 168.622 181.676C169.034 180.819 169.607 180.152 170.341 179.673C171.079 179.19 171.941 178.949 172.926 178.949C173.494 178.949 174.055 179.044 174.609 179.233C175.163 179.422 175.667 179.73 176.122 180.156C176.576 180.578 176.939 181.136 177.208 181.832C177.478 182.528 177.613 183.385 177.613 184.403V185.114H169.204V183.665H175.909C175.909 183.049 175.786 182.5 175.539 182.017C175.298 181.534 174.952 181.153 174.502 180.874C174.057 180.594 173.532 180.455 172.926 180.455C172.258 180.455 171.681 180.62 171.193 180.952C170.71 181.278 170.338 181.705 170.078 182.23C169.817 182.756 169.687 183.319 169.687 183.92V184.886C169.687 185.71 169.829 186.409 170.113 186.982C170.402 187.55 170.802 187.983 171.314 188.281C171.825 188.575 172.419 188.722 173.096 188.722C173.537 188.722 173.934 188.66 174.289 188.537C174.649 188.409 174.959 188.22 175.22 187.969C175.48 187.713 175.681 187.396 175.824 187.017L177.443 187.472C177.272 188.021 176.986 188.504 176.583 188.92C176.181 189.332 175.684 189.654 175.092 189.886C174.5 190.114 173.835 190.227 173.096 190.227ZM184.566 194.318C183.757 194.318 183.061 194.214 182.478 194.006C181.896 193.802 181.411 193.532 181.022 193.196C180.639 192.865 180.333 192.509 180.106 192.131L181.441 191.193C181.593 191.392 181.785 191.619 182.017 191.875C182.249 192.135 182.566 192.36 182.968 192.55C183.376 192.744 183.908 192.841 184.566 192.841C185.447 192.841 186.174 192.628 186.747 192.202C187.32 191.776 187.606 191.108 187.606 190.199V187.983H187.464C187.341 188.182 187.166 188.428 186.939 188.722C186.716 189.01 186.394 189.268 185.973 189.496C185.556 189.718 184.993 189.83 184.282 189.83C183.402 189.83 182.611 189.621 181.91 189.205C181.214 188.788 180.663 188.182 180.255 187.386C179.853 186.591 179.652 185.625 179.652 184.489C179.652 183.371 179.848 182.398 180.241 181.57C180.634 180.736 181.181 180.092 181.882 179.638C182.583 179.179 183.392 178.949 184.311 178.949C185.021 178.949 185.584 179.067 186.001 179.304C186.422 179.536 186.744 179.801 186.967 180.099C187.194 180.393 187.369 180.634 187.493 180.824H187.663V179.091H189.282V190.312C189.282 191.25 189.069 192.012 188.643 192.599C188.222 193.191 187.654 193.625 186.939 193.899C186.228 194.179 185.438 194.318 184.566 194.318ZM184.51 188.324C185.182 188.324 185.75 188.17 186.214 187.862C186.678 187.554 187.031 187.112 187.272 186.534C187.514 185.956 187.635 185.265 187.635 184.46C187.635 183.674 187.516 182.981 187.279 182.379C187.043 181.778 186.692 181.307 186.228 180.966C185.764 180.625 185.191 180.455 184.51 180.455C183.799 180.455 183.208 180.634 182.734 180.994C182.265 181.354 181.913 181.837 181.676 182.443C181.444 183.049 181.328 183.722 181.328 184.46C181.328 185.218 181.446 185.888 181.683 186.47C181.924 187.048 182.279 187.502 182.748 187.834C183.222 188.161 183.809 188.324 184.51 188.324ZM192.35 190V179.091H194.027V190H192.35ZM193.203 177.273C192.876 177.273 192.594 177.161 192.358 176.939C192.126 176.716 192.01 176.449 192.01 176.136C192.01 175.824 192.126 175.556 192.358 175.334C192.594 175.111 192.876 175 193.203 175C193.529 175 193.809 175.111 194.041 175.334C194.278 175.556 194.396 175.824 194.396 176.136C194.396 176.449 194.278 176.716 194.041 176.939C193.809 177.161 193.529 177.273 193.203 177.273ZM201.67 190.227C200.619 190.227 199.713 189.995 198.95 189.531C198.193 189.062 197.608 188.409 197.196 187.571C196.789 186.728 196.585 185.748 196.585 184.631C196.585 183.513 196.789 182.528 197.196 181.676C197.608 180.819 198.181 180.152 198.915 179.673C199.653 179.19 200.515 178.949 201.5 178.949C202.068 178.949 202.629 179.044 203.183 179.233C203.737 179.422 204.241 179.73 204.696 180.156C205.151 180.578 205.513 181.136 205.783 181.832C206.053 182.528 206.188 183.385 206.188 184.403V185.114H197.778V183.665H204.483C204.483 183.049 204.36 182.5 204.114 182.017C203.872 181.534 203.527 181.153 203.077 180.874C202.632 180.594 202.106 180.455 201.5 180.455C200.832 180.455 200.255 180.62 199.767 180.952C199.284 181.278 198.912 181.705 198.652 182.23C198.392 182.756 198.261 183.319 198.261 183.92V184.886C198.261 185.71 198.403 186.409 198.688 186.982C198.976 187.55 199.376 187.983 199.888 188.281C200.399 188.575 200.993 188.722 201.67 188.722C202.111 188.722 202.509 188.66 202.864 188.537C203.223 188.409 203.534 188.22 203.794 187.969C204.054 187.713 204.256 187.396 204.398 187.017L206.017 187.472C205.847 188.021 205.56 188.504 205.158 188.92C204.755 189.332 204.258 189.654 203.666 189.886C203.074 190.114 202.409 190.227 201.67 190.227ZM216.464 181.534L214.959 181.96C214.864 181.709 214.724 181.465 214.54 181.229C214.36 180.987 214.114 180.788 213.801 180.632C213.489 180.476 213.089 180.398 212.601 180.398C211.933 180.398 211.377 180.552 210.932 180.859C210.491 181.162 210.271 181.548 210.271 182.017C210.271 182.434 210.423 182.763 210.726 183.004C211.029 183.246 211.502 183.447 212.146 183.608L213.766 184.006C214.741 184.242 215.468 184.605 215.946 185.092C216.424 185.575 216.663 186.198 216.663 186.96C216.663 187.585 216.483 188.144 216.124 188.636C215.768 189.129 215.271 189.517 214.632 189.801C213.993 190.085 213.25 190.227 212.402 190.227C211.289 190.227 210.368 189.986 209.639 189.503C208.91 189.02 208.448 188.314 208.254 187.386L209.845 186.989C209.997 187.576 210.283 188.016 210.705 188.31C211.131 188.603 211.687 188.75 212.374 188.75C213.155 188.75 213.775 188.584 214.234 188.253C214.698 187.917 214.93 187.514 214.93 187.045C214.93 186.667 214.798 186.349 214.533 186.094C214.268 185.833 213.86 185.639 213.311 185.511L211.493 185.085C210.494 184.848 209.76 184.482 209.291 183.984C208.827 183.482 208.595 182.855 208.595 182.102C208.595 181.487 208.768 180.942 209.114 180.469C209.464 179.995 209.94 179.624 210.541 179.354C211.147 179.084 211.834 178.949 212.601 178.949C213.68 178.949 214.528 179.186 215.143 179.659C215.764 180.133 216.204 180.758 216.464 181.534ZM224.243 177.017V175.455H235.152V177.017H230.578V190H228.817V177.017H224.243ZM240.493 190.227C239.508 190.227 238.644 189.993 237.901 189.524C237.162 189.055 236.585 188.4 236.168 187.557C235.756 186.714 235.55 185.729 235.55 184.602C235.55 183.466 235.756 182.474 236.168 181.626C236.585 180.779 237.162 180.121 237.901 179.652C238.644 179.183 239.508 178.949 240.493 178.949C241.478 178.949 242.34 179.183 243.078 179.652C243.822 180.121 244.4 180.779 244.811 181.626C245.228 182.474 245.436 183.466 245.436 184.602C245.436 185.729 245.228 186.714 244.811 187.557C244.4 188.4 243.822 189.055 243.078 189.524C242.34 189.993 241.478 190.227 240.493 190.227ZM240.493 188.722C241.241 188.722 241.857 188.53 242.34 188.146C242.823 187.763 243.18 187.259 243.412 186.634C243.644 186.009 243.76 185.331 243.76 184.602C243.76 183.873 243.644 183.194 243.412 182.564C243.18 181.934 242.823 181.425 242.34 181.037C241.857 180.649 241.241 180.455 240.493 180.455C239.745 180.455 239.13 180.649 238.647 181.037C238.164 181.425 237.806 181.934 237.574 182.564C237.342 183.194 237.226 183.873 237.226 184.602C237.226 185.331 237.342 186.009 237.574 186.634C237.806 187.259 238.164 187.763 238.647 188.146C239.13 188.53 239.745 188.722 240.493 188.722ZM252.597 175.455H254.614L258.648 182.244H258.819L262.853 175.455H264.87L259.614 184.006V190H257.853V184.006L252.597 175.455ZM269.81 190.227C268.825 190.227 267.961 189.993 267.217 189.524C266.479 189.055 265.901 188.4 265.484 187.557C265.072 186.714 264.866 185.729 264.866 184.602C264.866 183.466 265.072 182.474 265.484 181.626C265.901 180.779 266.479 180.121 267.217 179.652C267.961 179.183 268.825 178.949 269.81 178.949C270.795 178.949 271.656 179.183 272.395 179.652C273.138 180.121 273.716 180.779 274.128 181.626C274.545 182.474 274.753 183.466 274.753 184.602C274.753 185.729 274.545 186.714 274.128 187.557C273.716 188.4 273.138 189.055 272.395 189.524C271.656 189.993 270.795 190.227 269.81 190.227ZM269.81 188.722C270.558 188.722 271.173 188.53 271.656 188.146C272.139 187.763 272.497 187.259 272.729 186.634C272.961 186.009 273.077 185.331 273.077 184.602C273.077 183.873 272.961 183.194 272.729 182.564C272.497 181.934 272.139 181.425 271.656 181.037C271.173 180.649 270.558 180.455 269.81 180.455C269.062 180.455 268.446 180.649 267.963 181.037C267.48 181.425 267.123 181.934 266.891 182.564C266.659 183.194 266.543 183.873 266.543 184.602C266.543 185.331 266.659 186.009 266.891 186.634C267.123 187.259 267.48 187.763 267.963 188.146C268.446 188.53 269.062 188.722 269.81 188.722ZM284.186 185.54V179.091H285.863V190H284.186V188.153H284.073C283.817 188.707 283.419 189.179 282.88 189.567C282.34 189.95 281.658 190.142 280.834 190.142C280.152 190.142 279.546 189.993 279.016 189.695C278.486 189.392 278.069 188.937 277.766 188.331C277.463 187.72 277.311 186.951 277.311 186.023V179.091H278.988V185.909C278.988 186.705 279.21 187.339 279.655 187.812C280.105 188.286 280.678 188.523 281.374 188.523C281.791 188.523 282.214 188.416 282.645 188.203C283.081 187.99 283.445 187.663 283.739 187.223C284.037 186.783 284.186 186.222 284.186 185.54ZM288.933 190V179.091H290.552V180.739H290.665C290.864 180.199 291.224 179.761 291.745 179.425C292.266 179.089 292.853 178.92 293.506 178.92C293.629 178.92 293.783 178.923 293.968 178.928C294.153 178.932 294.292 178.939 294.387 178.949V180.653C294.33 180.639 294.2 180.618 293.996 180.589C293.798 180.556 293.587 180.54 293.364 180.54C292.834 180.54 292.361 180.651 291.944 180.874C291.532 181.091 291.205 181.394 290.964 181.783C290.727 182.166 290.609 182.604 290.609 183.097V190H288.933ZM65.7614 214V199.455H70.8466C71.8598 199.455 72.6955 199.63 73.3537 199.98C74.0118 200.326 74.5019 200.792 74.8239 201.379C75.1458 201.962 75.3068 202.608 75.3068 203.318C75.3068 203.943 75.1955 204.459 74.973 204.866C74.7552 205.274 74.4664 205.596 74.1065 205.832C73.7514 206.069 73.3655 206.244 72.9489 206.358V206.5C73.3939 206.528 73.8414 206.685 74.2912 206.969C74.741 207.253 75.1174 207.66 75.4205 208.19C75.7235 208.721 75.875 209.369 75.875 210.136C75.875 210.866 75.7093 211.521 75.3778 212.104C75.0464 212.686 74.5232 213.148 73.8082 213.489C73.0933 213.83 72.1629 214 71.017 214H65.7614ZM67.5227 212.438H71.017C72.1676 212.438 72.9844 212.215 73.4673 211.77C73.955 211.32 74.1989 210.776 74.1989 210.136C74.1989 209.644 74.0734 209.189 73.8224 208.773C73.5715 208.351 73.214 208.015 72.75 207.764C72.286 207.509 71.7367 207.381 71.1023 207.381H67.5227V212.438ZM67.5227 205.847H70.7898C71.3201 205.847 71.7983 205.742 72.2244 205.534C72.6553 205.326 72.9962 205.032 73.2472 204.653C73.5028 204.275 73.6307 203.83 73.6307 203.318C73.6307 202.679 73.4081 202.137 72.9631 201.692C72.518 201.242 71.8125 201.017 70.8466 201.017H67.5227V205.847ZM78.5419 214V203.091H80.1612V204.739H80.2749C80.4737 204.199 80.8336 203.761 81.3544 203.425C81.8752 203.089 82.4624 202.92 83.1158 202.92C83.2389 202.92 83.3928 202.923 83.5774 202.928C83.7621 202.932 83.9018 202.939 83.9964 202.949V204.653C83.9396 204.639 83.8094 204.618 83.6058 204.589C83.407 204.556 83.1963 204.54 82.9737 204.54C82.4434 204.54 81.9699 204.651 81.5533 204.874C81.1413 205.091 80.8146 205.394 80.5732 205.783C80.3364 206.166 80.218 206.604 80.218 207.097V214H78.5419ZM89.1935 214.256C88.5022 214.256 87.8749 214.125 87.3114 213.865C86.748 213.6 86.3005 213.219 85.9691 212.722C85.6377 212.22 85.4719 211.614 85.4719 210.903C85.4719 210.278 85.5951 209.772 85.8413 209.384C86.0875 208.991 86.4165 208.683 86.8285 208.46C87.2404 208.238 87.695 208.072 88.1921 207.963C88.694 207.849 89.1983 207.759 89.7049 207.693C90.3678 207.608 90.9052 207.544 91.3171 207.501C91.7338 207.454 92.0368 207.376 92.2262 207.267C92.4203 207.158 92.5174 206.969 92.5174 206.699V206.642C92.5174 205.941 92.3256 205.397 91.9421 205.009C91.5633 204.62 90.988 204.426 90.2163 204.426C89.4161 204.426 88.7887 204.601 88.3342 204.952C87.8796 205.302 87.56 205.676 87.3754 206.074L85.7844 205.506C86.0685 204.843 86.4473 204.327 86.9208 203.957C87.399 203.583 87.9199 203.323 88.4833 203.176C89.0515 203.025 89.6102 202.949 90.1594 202.949C90.5098 202.949 90.9123 202.991 91.3668 203.077C91.8261 203.157 92.2688 203.325 92.695 203.581C93.1258 203.837 93.4833 204.223 93.7674 204.739C94.0515 205.255 94.1935 205.946 94.1935 206.812V214H92.5174V212.523H92.4322C92.3185 212.759 92.1291 213.013 91.864 213.283C91.5988 213.553 91.2461 213.782 90.8058 213.972C90.3654 214.161 89.828 214.256 89.1935 214.256ZM89.4492 212.75C90.1121 212.75 90.6708 212.62 91.1254 212.359C91.5846 212.099 91.9303 211.763 92.1623 211.351C92.399 210.939 92.5174 210.506 92.5174 210.051V208.517C92.4464 208.602 92.2901 208.68 92.0487 208.751C91.8119 208.818 91.5373 208.877 91.2248 208.929C90.917 208.976 90.6164 209.019 90.3228 209.057C90.034 209.09 89.7996 209.118 89.6197 209.142C89.1841 209.199 88.7769 209.291 88.3981 209.419C88.024 209.542 87.721 209.729 87.489 209.98C87.2617 210.226 87.1481 210.562 87.1481 210.989C87.1481 211.571 87.3635 212.011 87.7944 212.31C88.23 212.603 88.7816 212.75 89.4492 212.75ZM98.929 207.438V214H97.2528V203.091H98.8722V204.795H99.0142C99.2699 204.241 99.6581 203.796 100.179 203.46C100.7 203.119 101.372 202.949 102.196 202.949C102.935 202.949 103.581 203.1 104.135 203.403C104.689 203.702 105.12 204.156 105.428 204.767C105.735 205.373 105.889 206.14 105.889 207.068V214H104.213V207.182C104.213 206.325 103.991 205.657 103.545 205.179C103.1 204.696 102.49 204.455 101.713 204.455C101.178 204.455 100.7 204.571 100.278 204.803C99.8617 205.035 99.5327 205.373 99.2912 205.818C99.0497 206.263 98.929 206.803 98.929 207.438ZM113.071 214.227C112.162 214.227 111.36 213.998 110.664 213.538C109.968 213.074 109.423 212.421 109.03 211.578C108.637 210.731 108.441 209.729 108.441 208.574C108.441 207.428 108.637 206.434 109.03 205.591C109.423 204.748 109.97 204.097 110.671 203.638C111.372 203.179 112.181 202.949 113.1 202.949C113.81 202.949 114.371 203.067 114.783 203.304C115.2 203.536 115.517 203.801 115.735 204.099C115.957 204.393 116.13 204.634 116.253 204.824H116.395V199.455H118.071V214H116.452V212.324H116.253C116.13 212.523 115.955 212.774 115.728 213.077C115.5 213.375 115.176 213.643 114.755 213.879C114.333 214.111 113.772 214.227 113.071 214.227ZM113.299 212.722C113.971 212.722 114.539 212.546 115.003 212.196C115.467 211.841 115.82 211.351 116.061 210.726C116.303 210.096 116.424 209.369 116.424 208.545C116.424 207.731 116.305 207.018 116.069 206.408C115.832 205.792 115.481 205.314 115.017 204.973C114.553 204.627 113.98 204.455 113.299 204.455C112.588 204.455 111.997 204.637 111.523 205.001C111.054 205.361 110.702 205.851 110.465 206.472C110.233 207.087 110.117 207.778 110.117 208.545C110.117 209.322 110.235 210.027 110.472 210.662C110.713 211.292 111.069 211.794 111.537 212.168C112.011 212.537 112.598 212.722 113.299 212.722ZM122.823 199.455V204.455H121.26V199.455H122.823ZM133.535 205.534L132.029 205.96C131.934 205.709 131.795 205.465 131.61 205.229C131.43 204.987 131.184 204.788 130.871 204.632C130.559 204.476 130.159 204.398 129.671 204.398C129.004 204.398 128.447 204.552 128.002 204.859C127.562 205.162 127.342 205.548 127.342 206.017C127.342 206.434 127.493 206.763 127.796 207.004C128.099 207.246 128.573 207.447 129.217 207.608L130.836 208.006C131.811 208.242 132.538 208.605 133.016 209.092C133.495 209.575 133.734 210.198 133.734 210.96C133.734 211.585 133.554 212.144 133.194 212.636C132.839 213.129 132.342 213.517 131.702 213.801C131.063 214.085 130.32 214.227 129.472 214.227C128.36 214.227 127.439 213.986 126.71 213.503C125.98 213.02 125.519 212.314 125.325 211.386L126.915 210.989C127.067 211.576 127.353 212.016 127.775 212.31C128.201 212.603 128.757 212.75 129.444 212.75C130.225 212.75 130.845 212.584 131.305 212.253C131.769 211.917 132.001 211.514 132.001 211.045C132.001 210.667 131.868 210.349 131.603 210.094C131.338 209.833 130.931 209.639 130.381 209.511L128.563 209.085C127.564 208.848 126.83 208.482 126.362 207.984C125.897 207.482 125.665 206.855 125.665 206.102C125.665 205.487 125.838 204.942 126.184 204.469C126.534 203.995 127.01 203.624 127.612 203.354C128.218 203.084 128.904 202.949 129.671 202.949C130.751 202.949 131.598 203.186 132.214 203.659C132.834 204.133 133.274 204.758 133.535 205.534ZM152.052 204C151.896 203.522 151.69 203.093 151.434 202.714C151.183 202.331 150.883 202.004 150.532 201.734C150.187 201.464 149.794 201.259 149.353 201.116C148.913 200.974 148.43 200.903 147.904 200.903C147.043 200.903 146.259 201.126 145.554 201.571C144.848 202.016 144.287 202.672 143.87 203.538C143.454 204.405 143.245 205.468 143.245 206.727C143.245 207.987 143.456 209.05 143.877 209.916C144.299 210.783 144.869 211.438 145.589 211.884C146.309 212.329 147.118 212.551 148.018 212.551C148.851 212.551 149.585 212.374 150.22 212.018C150.859 211.659 151.356 211.152 151.711 210.499C152.071 209.84 152.251 209.066 152.251 208.176L152.791 208.29H148.416V206.727H153.956V208.29C153.956 209.488 153.7 210.529 153.189 211.415C152.682 212.3 151.981 212.987 151.086 213.474C150.196 213.957 149.173 214.199 148.018 214.199C146.73 214.199 145.599 213.896 144.623 213.29C143.653 212.684 142.895 211.822 142.35 210.705C141.811 209.587 141.541 208.261 141.541 206.727C141.541 205.577 141.695 204.542 142.002 203.624C142.315 202.7 142.755 201.914 143.324 201.266C143.892 200.617 144.564 200.12 145.341 199.774C146.117 199.429 146.972 199.256 147.904 199.256C148.672 199.256 149.386 199.372 150.049 199.604C150.717 199.831 151.311 200.155 151.832 200.577C152.358 200.993 152.796 201.493 153.146 202.075C153.496 202.653 153.738 203.295 153.87 204H152.052ZM161.177 214.227C160.192 214.227 159.328 213.993 158.585 213.524C157.846 213.055 157.268 212.4 156.852 211.557C156.44 210.714 156.234 209.729 156.234 208.602C156.234 207.466 156.44 206.474 156.852 205.626C157.268 204.779 157.846 204.121 158.585 203.652C159.328 203.183 160.192 202.949 161.177 202.949C162.162 202.949 163.023 203.183 163.762 203.652C164.505 204.121 165.083 204.779 165.495 205.626C165.912 206.474 166.12 207.466 166.12 208.602C166.12 209.729 165.912 210.714 165.495 211.557C165.083 212.4 164.505 213.055 163.762 213.524C163.023 213.993 162.162 214.227 161.177 214.227ZM161.177 212.722C161.925 212.722 162.54 212.53 163.023 212.146C163.506 211.763 163.864 211.259 164.096 210.634C164.328 210.009 164.444 209.331 164.444 208.602C164.444 207.873 164.328 207.194 164.096 206.564C163.864 205.934 163.506 205.425 163.023 205.037C162.54 204.649 161.925 204.455 161.177 204.455C160.429 204.455 159.813 204.649 159.33 205.037C158.847 205.425 158.49 205.934 158.258 206.564C158.026 207.194 157.91 207.873 157.91 208.602C157.91 209.331 158.026 210.009 158.258 210.634C158.49 211.259 158.847 211.763 159.33 212.146C159.813 212.53 160.429 212.722 161.177 212.722ZM171.889 214.256C171.198 214.256 170.57 214.125 170.007 213.865C169.443 213.6 168.996 213.219 168.664 212.722C168.333 212.22 168.167 211.614 168.167 210.903C168.167 210.278 168.29 209.772 168.537 209.384C168.783 208.991 169.112 208.683 169.524 208.46C169.936 208.238 170.39 208.072 170.887 207.963C171.389 207.849 171.894 207.759 172.4 207.693C173.063 207.608 173.6 207.544 174.012 207.501C174.429 207.454 174.732 207.376 174.922 207.267C175.116 207.158 175.213 206.969 175.213 206.699V206.642C175.213 205.941 175.021 205.397 174.637 205.009C174.259 204.62 173.683 204.426 172.912 204.426C172.111 204.426 171.484 204.601 171.029 204.952C170.575 205.302 170.255 205.676 170.071 206.074L168.48 205.506C168.764 204.843 169.143 204.327 169.616 203.957C170.094 203.583 170.615 203.323 171.179 203.176C171.747 203.025 172.306 202.949 172.855 202.949C173.205 202.949 173.608 202.991 174.062 203.077C174.521 203.157 174.964 203.325 175.39 203.581C175.821 203.837 176.179 204.223 176.463 204.739C176.747 205.255 176.889 205.946 176.889 206.812V214H175.213V212.523H175.127C175.014 212.759 174.824 213.013 174.559 213.283C174.294 213.553 173.941 213.782 173.501 213.972C173.061 214.161 172.523 214.256 171.889 214.256ZM172.145 212.75C172.807 212.75 173.366 212.62 173.821 212.359C174.28 212.099 174.626 211.763 174.858 211.351C175.094 210.939 175.213 210.506 175.213 210.051V208.517C175.142 208.602 174.985 208.68 174.744 208.751C174.507 208.818 174.233 208.877 173.92 208.929C173.612 208.976 173.312 209.019 173.018 209.057C172.729 209.09 172.495 209.118 172.315 209.142C171.879 209.199 171.472 209.291 171.093 209.419C170.719 209.542 170.416 209.729 170.184 209.98C169.957 210.226 169.843 210.562 169.843 210.989C169.843 211.571 170.059 212.011 170.49 212.31C170.925 212.603 171.477 212.75 172.145 212.75ZM181.624 199.455V214H179.948V199.455H181.624ZM192.422 205.534L190.916 205.96C190.821 205.709 190.681 205.465 190.497 205.229C190.317 204.987 190.071 204.788 189.758 204.632C189.446 204.476 189.046 204.398 188.558 204.398C187.89 204.398 187.334 204.552 186.889 204.859C186.449 205.162 186.228 205.548 186.228 206.017C186.228 206.434 186.38 206.763 186.683 207.004C186.986 207.246 187.459 207.447 188.103 207.608L189.723 208.006C190.698 208.242 191.425 208.605 191.903 209.092C192.381 209.575 192.62 210.198 192.62 210.96C192.62 211.585 192.44 212.144 192.081 212.636C191.725 213.129 191.228 213.517 190.589 213.801C189.95 214.085 189.207 214.227 188.359 214.227C187.246 214.227 186.325 213.986 185.596 213.503C184.867 213.02 184.405 212.314 184.211 211.386L185.802 210.989C185.954 211.576 186.24 212.016 186.662 212.31C187.088 212.603 187.644 212.75 188.331 212.75C189.112 212.75 189.732 212.584 190.191 212.253C190.655 211.917 190.887 211.514 190.887 211.045C190.887 210.667 190.755 210.349 190.49 210.094C190.225 209.833 189.817 209.639 189.268 209.511L187.45 209.085C186.451 208.848 185.717 208.482 185.248 207.984C184.784 207.482 184.552 206.855 184.552 206.102C184.552 205.487 184.725 204.942 185.071 204.469C185.421 203.995 185.897 203.624 186.498 203.354C187.104 203.084 187.791 202.949 188.558 202.949C189.637 202.949 190.485 203.186 191.1 203.659C191.721 204.133 192.161 204.758 192.422 205.534ZM196.365 214.114C196.015 214.114 195.714 213.988 195.463 213.737C195.212 213.486 195.087 213.186 195.087 212.835C195.087 212.485 195.212 212.184 195.463 211.933C195.714 211.682 196.015 211.557 196.365 211.557C196.715 211.557 197.016 211.682 197.267 211.933C197.518 212.184 197.643 212.485 197.643 212.835C197.643 213.067 197.584 213.28 197.466 213.474C197.352 213.669 197.198 213.825 197.004 213.943C196.815 214.057 196.602 214.114 196.365 214.114Z" fill="#585858"/>
<path opacity="0.3" d="M107.548 0H0V90.5979H107.548V0Z" fill="#00A797"/>
<path d="M34.821 90.5979H32.1816V266.034H34.821V90.5979Z" fill="#00A797"/>
<path d="M329.162 266.034H32.5314C23.5956 266.034 15.4548 269.693 9.5718 275.58C3.657 281.467 0 289.614 0 298.556C0 316.472 14.628 331.11 32.5314 331.11H329.194L370.661 298.556L329.162 266.034ZM33.5172 323.186C20.0658 323.186 9.1584 312.271 9.1584 298.811C9.1584 285.35 20.0658 274.435 33.5172 274.435C46.9686 274.435 57.876 285.35 57.876 298.811C57.876 312.271 46.9686 323.186 33.5172 323.186Z" fill="#00A797"/>
<path d="M78.098 284.547H74.9872C74.9304 284.144 74.8144 283.787 74.6392 283.474C74.464 283.157 74.2391 282.887 73.9645 282.665C73.6899 282.442 73.3726 282.272 73.0128 282.153C72.6577 282.035 72.2718 281.976 71.8551 281.976C71.1023 281.976 70.4465 282.163 69.8878 282.537C69.3291 282.906 68.8958 283.446 68.5881 284.156C68.2803 284.862 68.1264 285.719 68.1264 286.727C68.1264 287.764 68.2803 288.635 68.5881 289.341C68.9006 290.046 69.3362 290.579 69.8949 290.939C70.4536 291.299 71.0999 291.479 71.8338 291.479C72.2457 291.479 72.6269 291.424 72.9773 291.315C73.3324 291.206 73.6473 291.048 73.9219 290.839C74.1965 290.626 74.4238 290.368 74.6037 290.065C74.7884 289.762 74.9162 289.417 74.9872 289.028L78.098 289.043C78.0175 289.71 77.8163 290.354 77.4943 290.974C77.1771 291.59 76.7486 292.142 76.2088 292.629C75.6738 293.112 75.0346 293.496 74.2912 293.78C73.5526 294.059 72.7169 294.199 71.7841 294.199C70.4867 294.199 69.3267 293.905 68.304 293.318C67.286 292.731 66.4811 291.881 65.8892 290.768C65.3021 289.656 65.0085 288.309 65.0085 286.727C65.0085 285.141 65.3068 283.792 65.9034 282.679C66.5 281.566 67.3097 280.719 68.3324 280.136C69.3551 279.549 70.5057 279.256 71.7841 279.256C72.6269 279.256 73.4081 279.374 74.1278 279.611C74.8523 279.848 75.4938 280.193 76.0526 280.648C76.6113 281.098 77.0658 281.649 77.4162 282.303C77.7713 282.956 77.9986 283.704 78.098 284.547ZM93.6697 286.727C93.6697 288.313 93.3691 289.663 92.7678 290.776C92.1712 291.888 91.3568 292.738 90.3246 293.325C89.2971 293.908 88.1418 294.199 86.8587 294.199C85.5661 294.199 84.406 293.905 83.3786 293.318C82.3511 292.731 81.5391 291.881 80.9425 290.768C80.3459 289.656 80.0476 288.309 80.0476 286.727C80.0476 285.141 80.3459 283.792 80.9425 282.679C81.5391 281.566 82.3511 280.719 83.3786 280.136C84.406 279.549 85.5661 279.256 86.8587 279.256C88.1418 279.256 89.2971 279.549 90.3246 280.136C91.3568 280.719 92.1712 281.566 92.7678 282.679C93.3691 283.792 93.6697 285.141 93.6697 286.727ZM90.5518 286.727C90.5518 285.7 90.398 284.833 90.0902 284.128C89.7872 283.422 89.3587 282.887 88.8047 282.523C88.2507 282.158 87.602 281.976 86.8587 281.976C86.1153 281.976 85.4666 282.158 84.9126 282.523C84.3587 282.887 83.9278 283.422 83.62 284.128C83.317 284.833 83.1655 285.7 83.1655 286.727C83.1655 287.755 83.317 288.621 83.62 289.327C83.9278 290.032 84.3587 290.567 84.9126 290.932C85.4666 291.296 86.1153 291.479 86.8587 291.479C87.602 291.479 88.2507 291.296 88.8047 290.932C89.3587 290.567 89.7872 290.032 90.0902 289.327C90.398 288.621 90.5518 287.755 90.5518 286.727ZM108.114 279.455V294H105.458L99.1296 284.845H99.0231V294H95.9478V279.455H98.6467L104.925 288.602H105.053V279.455H108.114ZM118.545 283.638C118.489 283.065 118.245 282.62 117.814 282.303C117.383 281.985 116.798 281.827 116.06 281.827C115.558 281.827 115.134 281.898 114.788 282.04C114.443 282.177 114.178 282.369 113.993 282.615C113.813 282.861 113.723 283.141 113.723 283.453C113.714 283.714 113.768 283.941 113.886 284.135C114.009 284.329 114.178 284.497 114.391 284.639C114.604 284.777 114.85 284.897 115.129 285.001C115.409 285.101 115.707 285.186 116.024 285.257L117.331 285.57C117.965 285.712 118.548 285.901 119.078 286.138C119.608 286.375 120.068 286.666 120.456 287.011C120.844 287.357 121.145 287.764 121.358 288.233C121.576 288.702 121.687 289.239 121.692 289.845C121.687 290.735 121.46 291.507 121.01 292.161C120.565 292.809 119.921 293.313 119.078 293.673C118.24 294.028 117.229 294.206 116.045 294.206C114.871 294.206 113.848 294.026 112.977 293.666C112.111 293.306 111.434 292.774 110.946 292.068C110.463 291.358 110.21 290.48 110.186 289.433H113.162C113.195 289.921 113.335 290.328 113.581 290.655C113.832 290.977 114.166 291.221 114.582 291.386C115.004 291.547 115.48 291.628 116.01 291.628C116.531 291.628 116.983 291.552 117.366 291.401C117.755 291.249 118.055 291.038 118.268 290.768C118.482 290.499 118.588 290.188 118.588 289.838C118.588 289.511 118.491 289.237 118.297 289.014C118.107 288.792 117.828 288.602 117.459 288.446C117.094 288.29 116.647 288.148 116.116 288.02L114.533 287.622C113.306 287.324 112.338 286.857 111.628 286.223C110.918 285.589 110.565 284.734 110.57 283.659C110.565 282.778 110.799 282.009 111.273 281.351C111.751 280.693 112.407 280.179 113.24 279.81C114.073 279.44 115.02 279.256 116.081 279.256C117.161 279.256 118.103 279.44 118.908 279.81C119.717 280.179 120.347 280.693 120.797 281.351C121.247 282.009 121.479 282.771 121.493 283.638H118.545ZM132.745 279.455H135.82V288.901C135.82 289.961 135.567 290.889 135.06 291.685C134.558 292.48 133.855 293.1 132.951 293.545C132.046 293.986 130.993 294.206 129.79 294.206C128.583 294.206 127.527 293.986 126.623 293.545C125.718 293.1 125.015 292.48 124.513 291.685C124.011 290.889 123.76 289.961 123.76 288.901V279.455H126.836V288.638C126.836 289.192 126.956 289.684 127.198 290.115C127.444 290.546 127.79 290.884 128.235 291.131C128.68 291.377 129.198 291.5 129.79 291.5C130.387 291.5 130.905 291.377 131.346 291.131C131.791 290.884 132.134 290.546 132.375 290.115C132.622 289.684 132.745 289.192 132.745 288.638V279.455ZM138.35 294V279.455H141.425V291.464H147.661V294H138.35ZM147.327 281.99V279.455H159.273V281.99H154.82V294H151.781V281.99H147.327ZM161.971 294H158.675L163.696 279.455H167.659L172.674 294H169.378L165.735 282.778H165.621L161.971 294ZM161.765 288.283H169.549V290.683H161.765V288.283ZM172.093 281.99V279.455H184.039V281.99H179.586V294H176.546V281.99H172.093ZM189.082 279.455V294H186.006V279.455H189.082ZM204.978 286.727C204.978 288.313 204.678 289.663 204.076 290.776C203.48 291.888 202.665 292.738 201.633 293.325C200.606 293.908 199.45 294.199 198.167 294.199C196.875 294.199 195.715 293.905 194.687 293.318C193.66 292.731 192.848 291.881 192.251 290.768C191.654 289.656 191.356 288.309 191.356 286.727C191.356 285.141 191.654 283.792 192.251 282.679C192.848 281.566 193.66 280.719 194.687 280.136C195.715 279.549 196.875 279.256 198.167 279.256C199.45 279.256 200.606 279.549 201.633 280.136C202.665 280.719 203.48 281.566 204.076 282.679C204.678 283.792 204.978 285.141 204.978 286.727ZM201.86 286.727C201.86 285.7 201.707 284.833 201.399 284.128C201.096 283.422 200.667 282.887 200.113 282.523C199.559 282.158 198.911 281.976 198.167 281.976C197.424 281.976 196.775 282.158 196.221 282.523C195.667 282.887 195.236 283.422 194.929 284.128C194.626 284.833 194.474 285.7 194.474 286.727C194.474 287.755 194.626 288.621 194.929 289.327C195.236 290.032 195.667 290.567 196.221 290.932C196.775 291.296 197.424 291.479 198.167 291.479C198.911 291.479 199.559 291.296 200.113 290.932C200.667 290.567 201.096 290.032 201.399 289.327C201.707 288.621 201.86 287.755 201.86 286.727ZM219.423 279.455V294H216.766L210.438 284.845H210.332V294H207.256V279.455H209.955L216.234 288.602H216.362V279.455H219.423ZM229.099 294H225.804L230.825 279.455H234.788L239.803 294H236.507L232.864 282.778H232.75L229.099 294ZM228.893 288.283H236.678V290.683H228.893V288.283ZM253.719 279.455V294H251.063L244.735 284.845H244.629V294H241.553V279.455H244.252L250.531 288.602H250.658V279.455H253.719ZM261.417 294H256.26V279.455H261.459C262.922 279.455 264.182 279.746 265.238 280.328C266.293 280.906 267.105 281.737 267.674 282.821C268.247 283.905 268.533 285.203 268.533 286.713C268.533 288.228 268.247 289.53 267.674 290.619C267.105 291.708 266.289 292.544 265.223 293.126C264.163 293.709 262.894 294 261.417 294ZM259.336 291.365H261.289C262.198 291.365 262.962 291.204 263.583 290.882C264.208 290.555 264.676 290.051 264.989 289.369C265.306 288.683 265.465 287.797 265.465 286.713C265.465 285.638 265.306 284.76 264.989 284.078C264.676 283.396 264.21 282.894 263.59 282.572C262.97 282.25 262.205 282.089 261.296 282.089H259.336V291.365ZM73.1548 307.638C73.098 307.065 72.8542 306.62 72.4233 306.303C71.9924 305.985 71.4077 305.827 70.669 305.827C70.1671 305.827 69.7434 305.898 69.3977 306.04C69.0521 306.177 68.7869 306.369 68.6023 306.615C68.4223 306.861 68.3324 307.141 68.3324 307.453C68.3229 307.714 68.3774 307.941 68.4957 308.135C68.6188 308.329 68.7869 308.497 69 308.639C69.2131 308.777 69.4593 308.897 69.7386 309.001C70.018 309.101 70.3163 309.186 70.6335 309.257L71.9403 309.57C72.5748 309.712 73.1572 309.901 73.6875 310.138C74.2178 310.375 74.6771 310.666 75.0653 311.011C75.4536 311.357 75.7543 311.764 75.9673 312.233C76.1851 312.702 76.2964 313.239 76.3011 313.845C76.2964 314.735 76.0691 315.507 75.6193 316.161C75.1742 316.809 74.5303 317.313 73.6875 317.673C72.8494 318.028 71.8385 318.206 70.6548 318.206C69.4806 318.206 68.4579 318.026 67.5866 317.666C66.7202 317.306 66.0431 316.774 65.5554 316.068C65.0724 315.358 64.8191 314.48 64.7955 313.433H67.7713C67.8045 313.921 67.9441 314.328 68.1903 314.655C68.4413 314.977 68.7751 315.221 69.1918 315.386C69.6132 315.547 70.089 315.628 70.6193 315.628C71.1402 315.628 71.5923 315.552 71.9759 315.401C72.3641 315.249 72.6648 315.038 72.8778 314.768C73.0909 314.499 73.1974 314.188 73.1974 313.838C73.1974 313.511 73.1004 313.237 72.9062 313.014C72.7169 312.792 72.4375 312.602 72.0682 312.446C71.7036 312.29 71.2562 312.148 70.7259 312.02L69.142 311.622C67.9157 311.324 66.9474 310.857 66.2372 310.223C65.527 309.589 65.1742 308.734 65.179 307.659C65.1742 306.778 65.4086 306.009 65.8821 305.351C66.3603 304.693 67.0161 304.179 67.8494 303.81C68.6828 303.44 69.6297 303.256 70.6903 303.256C71.7699 303.256 72.7121 303.44 73.517 303.81C74.3267 304.179 74.9564 304.693 75.4062 305.351C75.8561 306.009 76.0881 306.771 76.1023 307.638H73.1548ZM77.8157 305.99V303.455H89.7617V305.99H85.3086V318H82.2688V305.99H77.8157ZM91.729 318V303.455H97.4677C98.5662 303.455 99.5037 303.651 100.28 304.044C101.061 304.432 101.656 304.984 102.063 305.699C102.475 306.409 102.681 307.245 102.681 308.206C102.681 309.172 102.472 310.003 102.056 310.699C101.639 311.39 101.035 311.92 100.245 312.29C99.4587 312.659 98.507 312.844 97.3896 312.844H93.5472V310.372H96.8924C97.4795 310.372 97.9672 310.292 98.3555 310.131C98.7437 309.97 99.0326 309.728 99.2219 309.406C99.4161 309.084 99.5131 308.684 99.5131 308.206C99.5131 307.723 99.4161 307.316 99.2219 306.984C99.0326 306.653 98.7414 306.402 98.3484 306.232C97.9601 306.056 97.4701 305.969 96.8782 305.969H94.8043V318H91.729ZM99.5842 311.381L103.199 318H99.8043L96.2674 311.381H99.5842ZM107.361 318H104.066L109.087 303.455H113.05L118.064 318H114.769L111.125 306.778H111.012L107.361 318ZM107.155 312.283H114.939V314.683H107.155V312.283ZM117.484 305.99V303.455H129.43V305.99H124.977V318H121.937V305.99H117.484ZM131.397 318V303.455H141.198V305.99H134.472V309.456H140.694V311.991H134.472V315.464H141.227V318H131.397ZM153.288 308.156C153.189 307.811 153.049 307.505 152.869 307.24C152.689 306.97 152.469 306.743 152.208 306.558C151.953 306.369 151.659 306.224 151.328 306.125C151.001 306.026 150.639 305.976 150.241 305.976C149.498 305.976 148.844 306.161 148.281 306.53C147.722 306.899 147.287 307.437 146.974 308.142C146.662 308.843 146.505 309.7 146.505 310.713C146.505 311.726 146.659 312.588 146.967 313.298C147.275 314.009 147.71 314.551 148.274 314.925C148.837 315.294 149.502 315.479 150.27 315.479C150.966 315.479 151.56 315.356 152.052 315.109C152.549 314.858 152.928 314.506 153.189 314.051C153.454 313.597 153.586 313.059 153.586 312.439L154.211 312.531H150.461V310.216H156.548V312.048C156.548 313.327 156.278 314.425 155.738 315.344C155.199 316.258 154.455 316.963 153.508 317.46C152.561 317.953 151.477 318.199 150.255 318.199C148.892 318.199 147.694 317.898 146.662 317.297C145.629 316.691 144.824 315.831 144.247 314.719C143.674 313.601 143.387 312.276 143.387 310.741C143.387 309.562 143.558 308.511 143.899 307.588C144.244 306.66 144.727 305.874 145.348 305.23C145.968 304.586 146.69 304.096 147.514 303.76C148.338 303.424 149.23 303.256 150.191 303.256C151.015 303.256 151.782 303.376 152.493 303.618C153.203 303.855 153.833 304.191 154.382 304.626C154.936 305.062 155.388 305.58 155.738 306.182C156.089 306.778 156.314 307.437 156.413 308.156H153.288ZM157.42 303.455H160.864L164.181 309.719H164.323L167.64 303.455H171.085L165.779 312.858V318H162.725V312.858L157.42 303.455ZM182.549 318H177.393V303.455H182.592C184.055 303.455 185.315 303.746 186.37 304.328C187.426 304.906 188.238 305.737 188.806 306.821C189.379 307.905 189.666 309.203 189.666 310.713C189.666 312.228 189.379 313.53 188.806 314.619C188.238 315.708 187.422 316.544 186.356 317.126C185.296 317.709 184.027 318 182.549 318ZM180.468 315.365H182.422C183.331 315.365 184.095 315.204 184.716 314.882C185.341 314.555 185.809 314.051 186.122 313.369C186.439 312.683 186.598 311.797 186.598 310.713C186.598 309.638 186.439 308.76 186.122 308.078C185.809 307.396 185.343 306.894 184.723 306.572C184.102 306.25 183.338 306.089 182.429 306.089H180.468V315.365ZM191.944 318V303.455H201.745V305.99H195.019V309.456H201.241V311.991H195.019V315.464H201.773V318H191.944ZM206.818 303.455L210.333 314.506H210.468L213.991 303.455H217.4L212.386 318H208.423L203.402 303.455H206.818ZM219.151 318V303.455H228.952V305.99H222.226V309.456H228.448V311.991H222.226V315.464H228.98V318H219.151ZM231.397 318V303.455H234.472V315.464H240.708V318H231.397ZM255.545 310.727C255.545 312.313 255.244 313.663 254.643 314.776C254.046 315.888 253.232 316.738 252.2 317.325C251.172 317.908 250.017 318.199 248.734 318.199C247.441 318.199 246.281 317.905 245.254 317.318C244.226 316.731 243.414 315.881 242.817 314.768C242.221 313.656 241.923 312.309 241.923 310.727C241.923 309.141 242.221 307.792 242.817 306.679C243.414 305.566 244.226 304.719 245.254 304.136C246.281 303.549 247.441 303.256 248.734 303.256C250.017 303.256 251.172 303.549 252.2 304.136C253.232 304.719 254.046 305.566 254.643 306.679C255.244 307.792 255.545 309.141 255.545 310.727ZM252.427 310.727C252.427 309.7 252.273 308.833 251.965 308.128C251.662 307.422 251.234 306.887 250.68 306.523C250.126 306.158 249.477 305.976 248.734 305.976C247.99 305.976 247.342 306.158 246.788 306.523C246.234 306.887 245.803 307.422 245.495 308.128C245.192 308.833 245.04 309.7 245.04 310.727C245.04 311.755 245.192 312.621 245.495 313.327C245.803 314.032 246.234 314.567 246.788 314.932C247.342 315.296 247.99 315.479 248.734 315.479C249.477 315.479 250.126 315.296 250.68 314.932C251.234 314.567 251.662 314.032 251.965 313.327C252.273 312.621 252.427 311.755 252.427 310.727ZM257.823 318V303.455H263.561C264.665 303.455 265.605 303.665 266.381 304.087C267.158 304.503 267.749 305.083 268.157 305.827C268.569 306.565 268.775 307.418 268.775 308.384C268.775 309.349 268.566 310.202 268.15 310.94C267.733 311.679 267.129 312.254 266.338 312.666C265.552 313.078 264.601 313.284 263.483 313.284H259.826V310.82H262.986C263.578 310.82 264.066 310.718 264.449 310.514C264.837 310.306 265.126 310.019 265.316 309.655C265.51 309.286 265.607 308.862 265.607 308.384C265.607 307.901 265.51 307.479 265.316 307.119C265.126 306.755 264.837 306.473 264.449 306.274C264.061 306.071 263.569 305.969 262.972 305.969H260.898V318H257.823ZM270.772 303.455H274.565L278.57 313.227H278.741L282.746 303.455H286.539V318H283.556V308.533H283.435L279.671 317.929H277.64L273.876 308.497H273.755V318H270.772V303.455ZM289.073 318V303.455H298.874V305.99H292.148V309.456H298.37V311.991H292.148V315.464H298.902V318H289.073ZM313.485 303.455V318H310.829L304.501 308.845H304.394V318H301.319V303.455H304.018L310.296 312.602H310.424V303.455H313.485ZM315.472 305.99V303.455H327.418V305.99H322.965V318H319.925V305.99H315.472Z" fill="white"/>
<path d="M34.0085 290.545V308H30.3182V294.048H30.2159L26.2188 296.554V293.281L30.5398 290.545H34.0085Z" fill="#00A797"/>
<path fill-rule="evenodd" clip-rule="evenodd" d="M55.8914 23.072L56.8626 25.4204C56.9605 25.6599 56.9596 25.9284 56.8599 26.1671C56.7602 26.4059 56.57 26.5954 56.3308 26.6941L54.9521 27.2641C55.041 27.9176 55.0851 28.5764 55.0842 29.2359C55.0836 29.8979 55.0381 30.5591 54.9481 31.2149L56.3292 31.7881C56.5676 31.8875 56.757 32.0773 56.8559 32.316C56.9548 32.5547 56.9552 32.8228 56.857 33.0617L54.7825 38.0586C54.683 38.298 54.4926 38.4881 54.253 38.5871C54.0134 38.686 53.7442 38.6858 53.5048 38.5864L52.1245 38.0132C51.7239 38.5405 51.2877 39.0397 50.8189 39.5074C50.3527 39.9735 49.8548 40.4068 49.3287 40.8042L49.9003 42.1869C49.9982 42.4264 49.9973 42.6949 49.8976 42.9337C49.7979 43.1724 49.6077 43.3619 49.3685 43.4606L44.3733 45.5248C44.2547 45.5735 44.1277 45.5984 43.9996 45.598C43.8714 45.5977 43.7446 45.5721 43.6263 45.5227C43.508 45.4733 43.4006 45.4011 43.3103 45.3102C43.2199 45.2194 43.1483 45.1116 43.0996 44.993L42.5296 43.6143C41.8761 43.7032 41.2173 43.7473 40.5578 43.7464C39.8958 43.7458 39.2346 43.7003 38.5788 43.6103L38.0056 44.9914C37.9061 45.2299 37.7163 45.4192 37.4777 45.5181C37.239 45.617 36.9709 45.6174 36.7319 45.5192L33.0191 43.9781C32.9212 46.9921 33.4695 49.9922 34.6272 52.7769C35.979 55.9327 38.0915 58.7046 40.7759 60.8449C41.9381 61.7617 42.8738 62.9337 43.5106 64.27C44.1473 65.6064 44.4681 67.0713 44.4481 68.5515V69.6333C44.4504 70.3904 44.7522 71.1157 45.2875 71.651C45.8228 72.1863 46.5481 72.4881 47.3051 72.4904H61.0841C61.4591 72.4904 61.8305 72.4163 62.1768 72.2723C62.5231 72.1283 62.8376 71.9173 63.1021 71.6513C63.2498 71.5036 63.3811 71.3402 63.4937 71.1642C63.5073 71.1403 63.5216 71.1164 63.5367 71.0941C63.8015 70.6529 63.9413 70.1479 63.9411 69.6333V68.5515C63.9212 67.0714 64.2419 65.6066 64.8785 64.2703C65.5152 62.9339 66.4506 61.7619 67.6125 60.8449C70.9177 58.1633 73.3437 54.553 74.5776 50.4796C75.8116 46.4062 75.7969 42.0566 74.5356 37.9916C73.2742 33.9267 70.8239 30.3328 67.5008 27.6735C64.1776 25.0143 60.134 23.4115 55.8914 23.072ZM67.6499 57.4378H41.4088C41.1538 57.4305 40.9117 57.3241 40.7339 57.1412C40.5562 56.9583 40.4567 56.7133 40.4567 56.4582C40.4567 56.2032 40.5562 55.9581 40.7339 55.7752C40.9117 55.5923 41.1538 55.4859 41.4088 55.4787H42.762V48.9964C42.762 48.7365 42.8653 48.4872 43.0491 48.3035C43.2328 48.1197 43.4821 48.0164 43.742 48.0164H48.6982C48.9581 48.0164 49.2074 48.1197 49.3912 48.3035C49.5749 48.4872 49.6782 48.7365 49.6782 48.9964V55.4787H51.767V42.6717C51.7672 42.412 51.8706 42.1629 52.0543 41.9793C52.2381 41.7957 52.4872 41.6926 52.747 41.6926H57.7032C57.963 41.6926 58.2121 41.7957 58.3959 41.9793C58.5796 42.1629 58.683 42.412 58.6832 42.6717V55.4787H60.8667V37.8349C60.8666 37.7062 60.8919 37.5788 60.941 37.4599C60.9902 37.3411 61.0623 37.233 61.1533 37.142C61.2442 37.051 61.3522 36.9788 61.471 36.9296C61.5899 36.8803 61.7172 36.8549 61.8459 36.8549H66.8029C67.0627 36.8552 67.3117 36.9585 67.4953 37.1422C67.6789 37.326 67.7821 37.5751 67.7821 37.8349V55.4882C68.0286 55.5214 68.2533 55.6472 68.4105 55.84C68.5677 56.0328 68.6455 56.2783 68.6283 56.5264C68.6111 56.7746 68.5 57.0069 68.3177 57.1762C68.1354 57.3455 67.8955 57.439 67.6468 57.4378H67.6499ZM46.9167 78.1997H61.451V78.9329C61.4496 79.2807 61.3107 79.6139 61.0647 79.8597C60.8186 80.1056 60.4854 80.2443 60.1376 80.2456H48.2302C47.8823 80.2443 47.5491 80.1056 47.303 79.8597C47.057 79.6139 46.9181 79.2807 46.9167 78.9329V78.1997ZM62.8282 38.814H65.8262V55.4787H62.8282V38.814ZM53.7293 43.6517H56.7273V55.4787H53.7293V43.6517ZM44.7243 49.9787H47.7223V55.4819H44.7243V49.9787ZM33.5278 39.6356C33.715 39.7618 33.8527 39.9488 33.9177 40.165C33.9827 40.3812 33.971 40.6132 33.8844 40.8217L33.3877 42.0158L36.5719 43.338L37.0496 42.1814C37.1297 41.9628 37.2851 41.78 37.4879 41.6658C37.6907 41.5515 37.9276 41.5133 38.1561 41.558C39.7373 41.8725 41.3648 41.8744 42.9467 41.5636C43.1678 41.5213 43.3967 41.5567 43.5947 41.6638C43.7927 41.7708 43.9477 41.943 44.0333 42.1511L44.5261 43.3452L47.7167 42.0269L47.2295 40.8464C47.1387 40.6367 47.1243 40.4019 47.1887 40.1827C47.2531 39.9635 47.3924 39.7739 47.5822 39.6467C48.9182 38.7482 50.0672 37.599 50.9654 36.2627C51.0915 36.0756 51.2784 35.9379 51.4944 35.8729C51.7105 35.8079 51.9423 35.8196 52.1507 35.906L53.3448 36.4028L54.6671 33.2186L53.5104 32.7409C53.2918 32.6608 53.1089 32.5054 52.9945 32.3026C52.8802 32.0998 52.8418 31.8629 52.8863 31.6344C53.2004 30.0532 53.2026 28.4258 52.8927 26.8437C52.8507 26.6226 52.8864 26.3938 52.9935 26.1958C53.1007 25.9979 53.2729 25.8429 53.4809 25.7571L54.675 25.2644L53.3655 22.0714L52.185 22.5594C51.9754 22.6501 51.7407 22.6645 51.5217 22.6001C51.3026 22.5357 51.1131 22.3965 50.9861 22.2067C50.0876 20.8707 48.9383 19.7217 47.6021 18.8235C47.4151 18.6973 47.2775 18.5103 47.2127 18.2943C47.1478 18.0783 47.1597 17.8465 47.2462 17.6382L47.7422 16.4441L44.5579 15.1218L44.0803 16.2793C43.9999 16.4976 43.8444 16.6803 43.6417 16.7945C43.439 16.9087 43.2022 16.947 42.9738 16.9026C41.3926 16.5884 39.7652 16.5863 38.1831 16.8962C37.962 16.9383 37.7331 16.9027 37.5351 16.7955C37.3371 16.6884 37.1822 16.5161 37.0965 16.3079L36.603 15.1139L33.4084 16.4289L33.8964 17.6103C33.9871 17.8198 34.0015 18.0545 33.9371 18.2736C33.8727 18.4926 33.7335 18.6821 33.5437 18.8092C32.2074 19.7086 31.0583 20.859 30.1605 22.1964C30.0343 22.3833 29.8473 22.5209 29.6313 22.5857C29.4153 22.6506 29.1835 22.6388 28.9752 22.5522L27.7811 22.0563L26.4588 25.2405L27.6155 25.7181C27.834 25.7984 28.0168 25.9538 28.1311 26.1566C28.2455 26.3593 28.2839 26.5961 28.2396 26.8246C27.9244 28.4058 27.9222 30.0333 28.2332 31.6153C28.2755 31.8364 28.2401 32.0653 28.1331 32.2633C28.026 32.4613 27.8539 32.6162 27.6457 32.7019L26.4517 33.1955L27.7699 36.3861L28.9505 35.8981C29.1601 35.8073 29.395 35.7929 29.6141 35.8573C29.8333 35.9217 30.023 36.0609 30.1501 36.2507C31.0469 37.5865 32.1939 38.7359 33.5278 39.6356ZM31.7956 32.8508C31.3199 31.6993 31.0758 30.4654 31.0771 29.2195C31.0784 27.9737 31.3251 26.7403 31.8032 25.5898C32.2812 24.4393 32.9813 23.3943 33.8633 22.5144C34.7453 21.6345 35.792 20.937 36.9437 20.4618C38.6614 19.7496 40.5511 19.5602 42.376 19.9173L42.4054 19.9228C42.9801 20.0374 43.543 20.205 44.0867 20.4236L44.1177 20.4363L44.1575 20.4522L44.1973 20.4689C46.2337 21.3114 47.9116 22.839 48.941 24.7875L48.9482 24.8003L48.9792 24.8608L49.0135 24.9268L49.0382 24.977L49.0581 25.0168L49.0931 25.0884L49.1186 25.141L49.1369 25.18C49.1504 25.2086 49.1631 25.2365 49.1767 25.2644L49.1886 25.2914L49.2228 25.3671L49.2348 25.3933L49.273 25.4825L49.2865 25.5135L49.3223 25.5987L49.3271 25.6099V25.6146C49.3407 25.6473 49.3542 25.6799 49.3669 25.7126L49.3741 25.7301L49.4123 25.828L49.4195 25.8455L49.4553 25.9418L49.4632 25.9625L49.4975 26.058V26.0652V26.074C49.5086 26.1058 49.5198 26.1369 49.5301 26.1687L49.5381 26.1894L49.5667 26.2778L49.5811 26.3215L49.6002 26.3812L49.6177 26.437L49.6352 26.4935L49.6543 26.5564L49.6654 26.5962C49.675 26.6272 49.6838 26.6591 49.6925 26.6901V26.6997C49.9525 27.6318 50.0671 28.5984 50.0324 29.5655V29.6451V29.6538C50.0111 30.1317 49.9536 30.6072 49.8605 31.0764C49.8605 31.0931 49.8533 31.1098 49.8493 31.1265C49.4441 33.1193 48.4093 34.9292 46.8976 36.2893C45.3858 37.6495 43.4771 38.488 41.4527 38.6811C39.4283 38.8743 37.3954 38.4119 35.6537 37.3622C33.912 36.3125 32.5536 34.731 31.7789 32.8508H31.7956ZM48.0829 29.7223L41.7144 28.4597L42.977 22.0913C43.2588 22.186 43.5347 22.2974 43.8033 22.4248L43.8423 22.4439L43.8678 22.4567C45.4984 23.2504 46.7865 24.6078 47.4938 26.2778C47.5094 26.3259 47.5288 26.3728 47.5519 26.4179C47.9113 27.31 48.0959 28.2629 48.0956 29.2248V29.2972C48.0996 29.4405 48.0956 29.5822 48.0845 29.7223H48.0829ZM33.6321 32.1773C33.6165 32.1291 33.5971 32.0823 33.574 32.0372C32.8398 30.2071 32.8521 28.1622 33.6081 26.341C34.364 24.5198 35.8036 23.0673 37.6179 22.2951C37.6661 22.2795 37.713 22.2601 37.758 22.237C38.8048 21.8151 39.9332 21.6349 41.0593 21.71L39.6057 29.0425C39.5561 29.2972 39.6097 29.5611 39.7546 29.7764C39.8996 29.9916 40.124 30.1405 40.3787 30.1904L47.7024 31.6424C47.6493 31.8016 47.5899 31.9608 47.5241 32.12C46.9551 33.4901 45.9943 34.6618 44.7622 35.4881C43.5301 36.3144 42.0814 36.7586 40.5979 36.765C39.1144 36.7713 37.662 36.3396 36.4228 35.5239C35.1836 34.7082 34.2128 33.5449 33.6321 32.1797V32.1773ZM53.0073 16.2602V10.9791C53.0073 10.7195 53.1104 10.4704 53.2941 10.2868C53.4777 10.1032 53.7267 10 53.9864 10C54.2461 10 54.4952 10.1032 54.6788 10.2868C54.8624 10.4704 54.9656 10.7195 54.9656 10.9791V16.2602C54.9656 16.5199 54.8624 16.7689 54.6788 16.9525C54.4952 17.1362 54.2461 17.2393 53.9864 17.2393C53.7267 17.2393 53.4777 17.1362 53.2941 16.9525C53.1104 16.7689 53.0073 16.5199 53.0073 16.2602ZM24.2331 46.9927H18.952C18.6971 46.9854 18.455 46.8791 18.2772 46.6962C18.0994 46.5132 18 46.2682 18 46.0132C18 45.7581 18.0994 45.5131 18.2772 45.3302C18.455 45.1473 18.6971 45.0409 18.952 45.0336H24.2331C24.364 45.0299 24.4944 45.0525 24.6165 45.1C24.7387 45.1476 24.85 45.2191 24.944 45.3104C25.0379 45.4018 25.1126 45.511 25.1636 45.6317C25.2146 45.7524 25.2409 45.8821 25.2409 46.0132C25.2409 46.1442 25.2146 46.2739 25.1636 46.3946C25.1126 46.5153 25.0379 46.6246 24.944 46.7159C24.85 46.8072 24.7387 46.8788 24.6165 46.9263C24.4944 46.9739 24.364 46.9965 24.2331 46.9927ZM29.0651 60.4071C29.129 60.5181 29.1703 60.6407 29.1868 60.7677C29.2033 60.8948 29.1946 61.0238 29.1612 61.1475C29.1277 61.2712 29.0703 61.3871 28.9921 61.4885C28.9138 61.59 28.8164 61.6751 28.7053 61.7389L24.1343 64.3762C24.0233 64.44 23.9007 64.4813 23.7737 64.4978C23.6466 64.5143 23.5176 64.5055 23.3939 64.4721C23.2703 64.4387 23.1544 64.3813 23.0529 64.3031C22.9514 64.2249 22.8664 64.1274 22.8025 64.0164C22.7387 63.9053 22.6974 63.7827 22.6809 63.6557C22.6645 63.5287 22.6732 63.3996 22.7066 63.276C22.74 63.1523 22.7975 63.0364 22.8757 62.9349C22.9539 62.8335 23.0513 62.7484 23.1624 62.6846L27.7357 60.0449C27.9601 59.9168 28.2261 59.8831 28.4753 59.951C28.7246 60.0189 28.9367 60.1829 29.0651 60.4071ZM85.1727 64.0196C85.1089 64.1307 85.0239 64.2281 84.9224 64.3063C84.8209 64.3845 84.7051 64.442 84.5814 64.4754C84.4577 64.5088 84.3286 64.5176 84.2016 64.5011C84.0745 64.4846 83.952 64.4432 83.8409 64.3794L79.2676 61.7389C79.1556 61.6755 79.0573 61.5907 78.9783 61.4892C78.8993 61.3877 78.8411 61.2716 78.8072 61.1475C78.7732 61.0234 78.7642 60.8939 78.7805 60.7663C78.7968 60.6387 78.8382 60.5156 78.9023 60.4041C78.9664 60.2926 79.052 60.1949 79.154 60.1166C79.256 60.0382 79.3726 59.9809 79.4968 59.9478C79.6211 59.9147 79.7508 59.9065 79.8782 59.9237C80.0057 59.9409 80.1285 59.9832 80.2396 60.048L84.8129 62.6878C85.0363 62.8167 85.1995 63.0289 85.2669 63.2778C85.3343 63.5268 85.3005 63.7923 85.1727 64.0164V64.0196ZM90 46.0136C90 46.2733 89.8968 46.5223 89.7132 46.7059C89.5296 46.8896 89.2805 46.9927 89.0209 46.9927H83.7398C83.6088 46.9965 83.4784 46.9739 83.3563 46.9263C83.2342 46.8788 83.1229 46.8072 83.0289 46.7159C82.9349 46.6246 82.8602 46.5153 82.8092 46.3946C82.7582 46.2739 82.7319 46.1442 82.7319 46.0132C82.7319 45.8821 82.7582 45.7524 82.8092 45.6317C82.8602 45.511 82.9349 45.4018 83.0289 45.3104C83.1229 45.2191 83.2342 45.1476 83.3563 45.1C83.4784 45.0525 83.6088 45.0299 83.7398 45.0336H89.0209C89.2806 45.0338 89.5297 45.1372 89.7133 45.3209C89.8969 45.5047 90 45.7538 90 46.0136ZM78.9078 31.6265C78.8434 31.5154 78.8016 31.3928 78.7847 31.2657C78.7678 31.1385 78.7761 31.0092 78.8091 30.8852C78.8422 30.7613 78.8993 30.645 78.9773 30.5431C79.0553 30.4413 79.1526 30.3557 79.2636 30.2915L83.8385 27.6509C83.9495 27.5866 84.0722 27.5448 84.1993 27.5278C84.3265 27.5108 84.4558 27.5191 84.5798 27.5521C84.7038 27.5851 84.8201 27.6422 84.9221 27.7202C85.024 27.7981 85.1096 27.8954 85.1739 28.0064C85.2383 28.1174 85.2801 28.24 85.2971 28.3672C85.314 28.4944 85.3058 28.6237 85.2728 28.7477C85.2398 28.8717 85.1827 28.988 85.1047 29.0899C85.0268 29.1918 84.9295 29.2774 84.8185 29.3418L80.2451 31.9823C80.134 32.0469 80.0112 32.0889 79.8838 32.106C79.7564 32.123 79.6269 32.1148 79.5026 32.0818C79.3784 32.0487 79.2619 31.9915 79.1599 31.9133C79.0578 31.8352 78.9721 31.7377 78.9078 31.6265ZM68.0177 19.7565L70.6582 15.1831C70.7226 15.0721 70.8082 14.9748 70.9101 14.8969C71.012 14.8189 71.1283 14.7618 71.2523 14.7288C71.3763 14.6958 71.5056 14.6876 71.6328 14.7045C71.76 14.7215 71.8826 14.7633 71.9936 14.8277C72.1046 14.892 72.2019 14.9776 72.2798 15.0795C72.3578 15.1815 72.4149 15.2978 72.4479 15.4218C72.4809 15.5458 72.4892 15.675 72.4722 15.8022C72.4552 15.9294 72.4134 16.052 72.3491 16.1631L69.7085 20.7364C69.6442 20.8474 69.5586 20.9447 69.4567 21.0226C69.3547 21.1006 69.2385 21.1577 69.1145 21.1907C68.9905 21.2237 68.8612 21.232 68.734 21.215C68.6068 21.198 68.4842 21.1562 68.3732 21.0918C68.2621 21.0275 68.1649 20.9419 68.0869 20.84C68.009 20.7381 67.9519 20.6218 67.9189 20.4978C67.8859 20.3738 67.8776 20.2445 67.8946 20.1173C67.9115 19.9901 67.9534 19.8675 68.0177 19.7565ZM61.0841 74.4495C61.8817 74.4506 62.6669 74.2519 63.368 73.8715V76.2406H45.0021V73.8604C45.708 74.2473 46.5002 74.4496 47.3051 74.4487L61.0841 74.4495Z" fill="#0E8372"/>
</svg>
