<svg width="262" height="84" viewBox="0 0 262 84" fill="none" xmlns="http://www.w3.org/2000/svg">
<path d="M68.5998 41.4096C68.5998 42.7169 68.4909 44.0242 68.4183 45.3314C66.6035 62.7488 52.6294 76.3598 35.679 76.3598C17.4946 76.3598 2.7583 60.7495 2.7583 41.4865C2.7583 22.2236 17.4946 6.61328 35.679 6.61328C41.305 6.61328 46.6042 8.11279 51.1776 10.7273L47.7657 17.7635C44.1361 15.6488 40.0709 14.5338 35.679 14.5338C21.5961 14.5338 10.199 26.6452 10.199 41.525C10.199 56.4048 21.6324 68.5162 35.679 68.5162C48.5279 68.5162 59.0902 58.5579 60.905 45.4468H30.7427V53.2135H45.479V60.9802H23.4472V22.0698H45.5153V29.8365H30.7427V37.6032H68.4183C68.5272 38.7951 68.5998 40.1024 68.5998 41.4096Z" fill="white"/>
<path d="M83.4813 53.2906C81.2309 53.2906 79.2709 52.4447 77.6739 50.7529C76.0768 49.0612 75.2783 46.9849 75.2783 44.6011C75.2783 42.1788 76.0768 40.141 77.6739 38.4493C79.2709 36.7575 81.2309 35.9116 83.4813 35.9116C85.7317 35.9116 87.6917 36.7575 89.2887 38.4493C90.4139 39.6412 91.1761 41.1022 91.5028 42.794C91.6117 43.3707 91.6843 43.9859 91.6843 44.6011C91.6843 45.2163 91.648 45.8315 91.5028 46.4082H79.4887C79.4887 45.4085 79.8154 44.5626 80.4687 43.8706C81.122 43.1785 81.9568 42.8324 82.8643 42.8324H87.9094C87.6554 42.1404 87.2924 41.5252 86.8205 41.0253C85.8768 40.0257 84.7517 39.5258 83.4087 39.5258C82.0657 39.5258 80.9405 40.0257 79.9968 41.0253C79.0531 42.025 78.5813 43.2169 78.5813 44.6395C78.5813 46.0622 79.0531 47.2541 79.9968 48.2538C80.9405 49.2534 82.0657 49.7533 83.4087 49.7533H86.6391C87.6191 49.7533 88.4539 50.1377 89.1072 50.9067C89.7242 51.5988 90.0146 52.4447 90.0146 53.3675H83.4813V53.2906Z" fill="white"/>
<path d="M96.6207 50.7529C95.0236 48.8689 94.2251 46.8311 94.2251 44.6011C94.2251 42.3711 95.0236 40.3333 96.6207 38.4493C98.3266 36.7575 100.25 35.9116 102.428 35.9116C104.533 35.9116 106.457 36.7575 108.235 38.4493C109.215 39.4874 109.869 40.6408 110.232 41.9481C109.724 42.2557 109.179 42.4095 108.598 42.4095C107.655 42.4095 106.856 42.0635 106.167 41.3714L105.804 41.0253C104.824 40.0257 103.698 39.5258 102.392 39.5258C101.158 39.5258 100.033 40.0257 98.9799 41.0253C98.0362 42.1019 97.5643 43.3323 97.5643 44.6395C97.5643 45.9468 98.0362 47.1387 98.9799 48.2538C99.9962 49.2534 101.158 49.7533 102.392 49.7533C103.662 49.7533 104.824 49.2534 105.804 48.2538L106.167 47.9077C106.747 47.331 107.255 46.9849 107.691 46.9465C108.127 46.908 108.417 46.8696 108.562 46.8696C109.143 46.8696 109.724 47.0234 110.232 47.331C109.833 48.6382 109.179 49.7917 108.235 50.8298C106.457 52.5216 104.533 53.3675 102.428 53.3675C100.25 53.2906 98.3266 52.4831 96.6207 50.7529Z" fill="white"/>
<path d="M115.204 50.7529C113.607 49.0612 112.809 46.9849 112.809 44.6011C112.809 42.1788 113.607 40.141 115.204 38.4493C116.801 36.7575 118.761 35.9116 121.048 35.9116C123.298 35.9116 125.222 36.7575 126.855 38.4493C128.452 40.141 129.287 42.1788 129.287 44.6011C129.287 46.9849 128.489 49.0612 126.855 50.7529C125.258 52.4447 123.335 53.2906 121.048 53.2906C118.761 53.2906 116.801 52.4831 115.204 50.7529ZM124.423 48.2153C125.367 47.2156 125.839 46.0237 125.839 44.6011C125.839 43.1785 125.367 41.9866 124.423 40.9869C123.48 39.9872 122.355 39.4874 121.048 39.4874C119.705 39.4874 118.58 39.9872 117.636 40.9869C116.692 41.9866 116.22 43.1785 116.22 44.6011C116.22 46.0237 116.692 47.2156 117.636 48.2153C118.58 49.215 119.705 49.7148 121.048 49.7148C122.355 49.6764 123.48 49.1765 124.423 48.2153Z" fill="white"/>
<path d="M158.832 52.2523C158.179 51.5602 157.852 50.6759 157.852 49.7147V44.601C157.852 43.1399 157.381 41.948 156.401 40.9868C155.457 39.9871 154.295 39.5257 152.916 39.5257H152.88C151.609 39.6026 150.521 40.1024 149.686 41.0637C148.851 41.9864 148.379 43.1399 148.27 44.4856C148.27 44.5625 148.27 47.5231 148.27 53.3289C147.29 53.3289 146.528 52.9444 145.838 52.2523C145.149 51.5602 144.858 50.7144 144.858 49.7147V44.3703C144.749 42.9477 144.241 41.7942 143.334 40.8714C142.426 39.9486 141.301 39.5257 139.995 39.5257H139.886C138.543 39.6026 137.454 40.1409 136.583 41.1406C135.712 42.1402 135.276 43.3322 135.276 44.7163V49.6762C135.276 50.6759 134.949 51.5218 134.296 52.2139C133.643 52.906 132.808 53.252 131.864 53.252V35.9115C132.808 35.9115 133.606 36.2575 134.296 36.9496C134.55 37.2188 134.768 37.4879 134.913 37.8339C136.401 36.5267 138.107 35.873 140.104 35.873C142.753 35.873 144.931 36.9881 146.601 39.2566C148.306 36.9881 150.448 35.873 153.098 35.873C155.348 35.873 157.272 36.7189 158.905 38.4491C160.538 40.1793 161.337 42.1787 161.337 44.601V53.2904C160.284 53.2904 159.486 52.9444 158.832 52.2523Z" fill="white"/>
<path d="M163.732 60.7496C163.732 59.3654 164.349 58.2888 165.584 57.5583C166.092 57.2891 166.6 57.1738 167.144 57.1738H171.935C173.278 57.1738 174.404 56.674 175.347 55.6743C176.291 54.6746 176.763 53.4827 176.763 52.0601V51.6756C175.347 52.7522 173.75 53.3289 171.935 53.3289C170.229 53.3289 168.705 52.8291 167.326 51.8294C166.273 51.0604 165.438 50.1376 164.821 48.9457C164.095 47.6384 163.732 46.1774 163.732 44.601C163.732 42.2171 164.531 40.1409 166.128 38.4491C167.725 36.7574 169.685 35.873 171.935 35.873H180.138C180.138 36.8727 179.812 37.7186 179.158 38.4107C178.505 39.1028 177.67 39.4488 176.763 39.4488H171.935C170.592 39.4488 169.467 39.9486 168.524 40.9483C167.58 41.948 167.108 43.1399 167.108 44.5625C167.108 45.1008 167.181 45.5622 167.326 46.0236C167.689 47.254 168.378 48.2152 169.431 48.9073C170.157 49.4071 170.992 49.6378 171.935 49.6378C172.879 49.6378 173.678 49.3686 174.44 48.9073C175.456 48.2152 176.182 47.254 176.545 46.0236C176.69 45.5622 176.763 45.0624 176.763 44.5625C176.763 43.6782 177.017 42.9477 177.525 42.294C178.215 41.4097 179.086 40.9483 180.175 40.9483V51.9832C180.175 54.4055 179.376 56.4433 177.743 58.135C176.146 59.8268 174.222 60.6727 171.935 60.6727H163.732V60.7496Z" fill="white"/>
<path d="M183.695 52.2522C183.042 51.5601 182.715 50.6758 182.715 49.7146V25.4917C183.659 25.4917 184.458 25.8377 185.111 26.5298C185.764 27.2219 186.091 28.1062 186.091 29.1059V53.3288C185.147 53.2903 184.349 52.9443 183.695 52.2522Z" fill="white"/>
<path d="M196.835 53.2906C194.584 53.2906 192.624 52.4447 191.027 50.7529C189.43 49.0612 188.632 46.9849 188.632 44.6011C188.632 42.1788 189.43 40.141 191.027 38.4493C192.624 36.7575 194.584 35.9116 196.835 35.9116C199.085 35.9116 201.045 36.7575 202.642 38.4493C203.767 39.6412 204.53 41.1022 204.856 42.794C204.965 43.3707 205.038 43.9859 205.038 44.6011C205.038 45.2163 205.001 45.8315 204.856 46.4082H192.842C192.842 45.4085 193.169 44.5626 193.822 43.8706C194.476 43.1785 195.31 42.8324 196.218 42.8324H201.263C201.009 42.1404 200.646 41.5252 200.174 41.0253C199.23 40.0257 198.105 39.5258 196.762 39.5258C195.419 39.5258 194.294 40.0257 193.35 41.0253C192.407 42.025 191.935 43.2169 191.935 44.6395C191.935 46.0622 192.407 47.2541 193.35 48.2538C194.294 49.2534 195.419 49.7533 196.762 49.7533H199.993C200.973 49.7533 201.807 50.1377 202.461 50.9067C203.078 51.5988 203.368 52.4447 203.368 53.3675H196.835V53.2906Z" fill="white"/>
<path d="M220.972 51.368C220.718 50.8682 220.609 50.3299 220.609 49.7147V44.601C220.609 43.1784 220.137 41.9864 219.193 40.9868C218.25 39.9871 217.125 39.4873 215.782 39.4873C214.439 39.4873 213.313 39.9871 212.37 40.9868C211.426 41.9864 210.954 43.1784 210.954 44.601C210.954 46.0236 211.426 47.2155 212.37 48.2152C213.313 49.2149 214.439 49.7147 215.782 49.7147H217.197C218.613 49.7147 219.629 50.4452 220.319 51.8678C220.5 52.3292 220.609 52.7906 220.609 53.2904H215.782C213.059 53.2904 210.845 52.0985 209.139 49.6762C208.123 48.1767 207.579 46.485 207.579 44.5625C207.579 42.1402 208.377 40.1024 209.974 38.4107C211.571 36.7189 213.531 35.873 215.782 35.873H216.217C216.507 35.873 216.798 35.9115 217.088 35.9884C217.487 36.0268 217.778 36.1037 218.032 36.2191C218.359 36.296 218.649 36.4113 218.903 36.5267C219.484 36.7958 220.028 37.1034 220.536 37.4879L220.573 37.5264C220.936 37.7955 221.262 38.1031 221.553 38.4107C223.15 40.1024 223.948 42.1402 223.948 44.5625V53.252C222.714 53.2904 221.698 52.6753 220.972 51.368Z" fill="white"/>
<path d="M253.602 52.2523C252.949 51.5602 252.622 50.6759 252.622 49.7147V44.601C252.622 43.1399 252.15 41.948 251.17 40.9868C250.226 39.9871 249.065 39.5257 247.686 39.5257H247.649C246.379 39.6026 245.29 40.1024 244.455 41.0637C243.62 41.9864 243.149 43.1399 243.04 44.4856C243.04 44.5625 243.04 47.5231 243.04 53.3289C242.06 53.3289 241.297 52.9444 240.608 52.2523C239.918 51.5602 239.628 50.7144 239.628 49.7147V44.3703C239.519 42.9477 239.011 41.7942 238.103 40.8714C237.196 39.9486 236.071 39.5257 234.764 39.5257H234.655C233.312 39.6026 232.223 40.1409 231.352 41.1406C230.481 42.1402 230.046 43.3322 230.046 44.7163V49.6762C230.046 50.6759 229.719 51.5218 229.066 52.2139C228.412 52.906 227.577 53.252 226.634 53.252V35.9115C227.577 35.9115 228.376 36.2575 229.066 36.9496C229.32 37.2188 229.537 37.4879 229.683 37.8339C231.171 36.5267 232.877 35.873 234.873 35.873C237.523 35.873 239.7 36.9881 241.37 39.2566C243.076 36.9881 245.217 35.873 247.867 35.873C250.117 35.873 252.041 36.7189 253.675 38.4491C255.308 40.1793 256.106 42.1787 256.106 44.601V53.2904C255.054 53.2904 254.255 52.9444 253.602 52.2523Z" fill="white"/>
</svg>
