<svg width="279" height="378" viewBox="0 0 279 378" fill="none" xmlns="http://www.w3.org/2000/svg">
<path d="M106.502 128.961H0.660645V20.4507C0.660645 9.24393 9.91067 -0.00610352 21.1174 -0.00610352H126.959V108.504C126.959 119.711 117.709 128.961 106.502 128.961Z" fill="url(#paint0_linear_423_675)"/>
<path d="M114.685 13.6909L120.555 24.7198H112.373L114.685 13.6909Z" fill="#CAD4DD"/>
<path d="M258.238 378H47.978C36.7713 378 27.5212 368.75 27.5212 357.543V45.1769C27.5212 33.9701 36.7713 24.7201 47.978 24.7201H258.416C269.623 24.7201 278.873 33.9701 278.873 45.1769V357.365C278.695 368.75 269.623 378 258.238 378Z" fill="white"/>
<path opacity="0.7" d="M255.036 374.264H51.1795C39.9727 374.264 30.7227 365.014 30.7227 353.808V50.5133C30.7227 39.3065 39.9727 30.0565 51.1795 30.0565H255.214C266.421 30.0565 275.671 39.3065 275.671 50.5133V353.808C275.493 365.014 266.421 374.264 255.036 374.264Z" fill="url(#paint1_linear_423_675)"/>
<path d="M247.387 251.168H58.8286C50.6459 251.168 43.8862 244.408 43.8862 236.225V57.0951C43.8862 48.9123 50.6459 42.1527 58.8286 42.1527H247.387C255.57 42.1527 262.329 48.9123 262.329 57.0951V236.225C262.329 244.408 255.57 251.168 247.387 251.168Z" fill="url(#paint2_linear_423_675)"/>
<path opacity="0.3" d="M253.08 47.8448C206.652 129.316 138.877 209.72 49.7568 242.096C52.4251 245.831 56.8722 248.499 61.853 248.499H244.541C252.724 248.499 259.483 241.74 259.483 233.557V60.1189C259.306 54.9602 256.815 50.5131 253.08 47.8448Z" fill="url(#paint3_linear_423_675)"/>
<path opacity="0.3" d="M253.079 47.8448C250.589 46.0659 247.743 45.1765 244.541 45.1765H61.8528C53.6701 45.1765 46.9104 51.9361 46.9104 60.1189V233.557C46.9104 236.759 47.9777 239.783 49.5787 242.095C138.699 209.72 206.473 129.138 253.079 47.8448Z" fill="url(#paint4_linear_423_675)"/>
<path d="M197.58 314.139C197.58 339.221 177.301 359.5 152.219 359.5C127.137 359.5 106.858 339.221 106.858 314.139C106.858 289.057 127.137 268.778 152.219 268.778C177.301 268.778 197.58 289.057 197.58 314.139Z" fill="url(#paint5_linear_423_675)"/>
<path d="M192.066 314.139C192.066 336.197 174.277 353.985 152.219 353.985C130.162 353.985 112.373 336.197 112.373 314.139C112.373 292.081 130.162 274.293 152.219 274.293C174.277 274.293 192.066 292.081 192.066 314.139Z" fill="white"/>
<path opacity="0.7" d="M190.465 314.139C190.465 335.307 173.388 352.384 152.219 352.384C131.051 352.384 113.974 335.307 113.974 314.139C113.974 292.971 131.051 275.894 152.219 275.894C173.388 275.894 190.465 292.971 190.465 314.139Z" fill="url(#paint6_linear_423_675)"/>
<path d="M114.685 13.6909H41.3963C27.5213 13.6909 16.3145 24.8977 16.3145 38.7727V112.061C70.5694 112.061 114.685 67.9459 114.685 13.6909Z" fill="white"/>
<path opacity="0.7" d="M111.305 13.6909H40.5069C27.1655 13.6909 16.3145 24.5419 16.3145 37.8833V108.682C68.7906 108.504 111.305 65.9892 111.305 13.6909Z" fill="url(#paint7_linear_423_675)"/>
<path d="M56.8724 56.3834C56.8724 60.2969 55.9829 63.3209 54.2041 65.2777C52.4252 67.2344 49.9348 68.3017 46.9107 68.3017C43.7088 68.3017 41.3963 67.2344 39.4395 65.2777C37.6607 63.3209 36.7712 60.2969 36.7712 56.3834V50.3353C36.7712 46.4218 37.6607 43.3978 39.4395 41.441C41.2184 39.4843 43.7088 38.417 46.9107 38.417C49.9348 38.417 52.4252 39.4843 54.3819 41.441C56.1608 43.3978 57.0502 46.4218 57.0502 50.3353V56.3834H56.8724ZM50.1126 49.8017C50.1126 47.4892 49.7569 46.0661 49.2232 44.9987C48.6895 44.1093 47.8002 43.5757 46.7329 43.5757C45.6656 43.5757 44.7761 44.1093 44.2424 44.9987C43.7088 45.8882 43.353 47.4892 43.353 49.8017V56.7392C43.353 59.0517 43.7088 60.6526 44.2424 61.5421C44.7761 62.4315 45.6656 62.9652 46.7329 62.9652C47.8002 62.9652 48.6895 62.4315 49.2232 61.5421C49.7569 60.6526 50.1126 58.8738 50.1126 56.7392V49.8017Z" fill="url(#paint8_linear_423_675)"/>
<path d="M78.0409 56.5611H81.065V61.7198H78.0409V67.7679H71.2813V61.7198H60.0745L59.7188 57.6284L71.4591 38.7726H78.2189V56.5611H78.0409ZM65.7669 56.5611H71.4591V47.489H71.2813L70.7477 48.3784L65.7669 56.5611Z" fill="url(#paint9_linear_423_675)"/>
<path d="M82.5852 134H81.1761C81.0928 133.595 80.947 133.239 80.7386 132.932C80.5341 132.625 80.2841 132.367 79.9886 132.159C79.697 131.947 79.3731 131.788 79.017 131.682C78.661 131.576 78.2898 131.523 77.9034 131.523C77.1989 131.523 76.5606 131.701 75.9886 132.057C75.4205 132.413 74.9678 132.938 74.6307 133.631C74.2973 134.324 74.1307 135.174 74.1307 136.182C74.1307 137.189 74.2973 138.04 74.6307 138.733C74.9678 139.426 75.4205 139.951 75.9886 140.307C76.5606 140.663 77.1989 140.841 77.9034 140.841C78.2898 140.841 78.661 140.788 79.017 140.682C79.3731 140.576 79.697 140.419 79.9886 140.21C80.2841 139.998 80.5341 139.739 80.7386 139.432C80.947 139.121 81.0928 138.765 81.1761 138.364H82.5852C82.4792 138.958 82.286 139.491 82.0057 139.96C81.7254 140.43 81.3769 140.83 80.9602 141.159C80.5436 141.485 80.0758 141.733 79.5568 141.903C79.0417 142.074 78.4905 142.159 77.9034 142.159C76.911 142.159 76.0284 141.917 75.2557 141.432C74.483 140.947 73.875 140.258 73.4318 139.364C72.9886 138.47 72.767 137.409 72.767 136.182C72.767 134.955 72.9886 133.894 73.4318 133C73.875 132.106 74.483 131.417 75.2557 130.932C76.0284 130.447 76.911 130.205 77.9034 130.205C78.4905 130.205 79.0417 130.29 79.5568 130.46C80.0758 130.631 80.5436 130.881 80.9602 131.21C81.3769 131.536 81.7254 131.934 82.0057 132.403C82.286 132.869 82.4792 133.402 82.5852 134ZM88.2259 142.182C87.438 142.182 86.7467 141.994 86.152 141.619C85.5611 141.244 85.099 140.72 84.7656 140.045C84.4361 139.371 84.2713 138.583 84.2713 137.682C84.2713 136.773 84.4361 135.979 84.7656 135.301C85.099 134.623 85.5611 134.097 86.152 133.722C86.7467 133.347 87.438 133.159 88.2259 133.159C89.0137 133.159 89.7031 133.347 90.294 133.722C90.8887 134.097 91.3509 134.623 91.6804 135.301C92.0137 135.979 92.1804 136.773 92.1804 137.682C92.1804 138.583 92.0137 139.371 91.6804 140.045C91.3509 140.72 90.8887 141.244 90.294 141.619C89.7031 141.994 89.0137 142.182 88.2259 142.182ZM88.2259 140.977C88.8243 140.977 89.3168 140.824 89.7031 140.517C90.0895 140.21 90.3755 139.807 90.5611 139.307C90.7467 138.807 90.8395 138.265 90.8395 137.682C90.8395 137.098 90.7467 136.555 90.5611 136.051C90.3755 135.547 90.0895 135.14 89.7031 134.83C89.3168 134.519 88.8243 134.364 88.2259 134.364C87.6274 134.364 87.1349 134.519 86.7486 134.83C86.3622 135.14 86.0762 135.547 85.8906 136.051C85.705 136.555 85.6122 137.098 85.6122 137.682C85.6122 138.265 85.705 138.807 85.8906 139.307C86.0762 139.807 86.3622 140.21 86.7486 140.517C87.1349 140.824 87.6274 140.977 88.2259 140.977ZM95.5682 136.75V142H94.2273V133.273H95.5227V134.636H95.6364C95.8409 134.193 96.1515 133.837 96.5682 133.568C96.9848 133.295 97.5227 133.159 98.1818 133.159C98.7727 133.159 99.2898 133.28 99.733 133.523C100.176 133.761 100.521 134.125 100.767 134.614C101.013 135.098 101.136 135.712 101.136 136.455V142H99.7955V136.545C99.7955 135.86 99.6174 135.326 99.2614 134.943C98.9053 134.557 98.4167 134.364 97.7955 134.364C97.3674 134.364 96.9848 134.456 96.6477 134.642C96.3144 134.828 96.0511 135.098 95.858 135.455C95.6648 135.811 95.5682 136.242 95.5682 136.75ZM107.382 133.273V134.409H102.859V133.273H107.382ZM104.178 131.182H105.518V139.5C105.518 139.879 105.573 140.163 105.683 140.352C105.797 140.538 105.941 140.663 106.115 140.727C106.293 140.788 106.481 140.818 106.678 140.818C106.825 140.818 106.946 140.811 107.041 140.795C107.136 140.777 107.212 140.761 107.268 140.75L107.541 141.955C107.45 141.989 107.323 142.023 107.161 142.057C106.998 142.095 106.791 142.114 106.541 142.114C106.162 142.114 105.791 142.032 105.428 141.869C105.068 141.706 104.768 141.458 104.53 141.125C104.295 140.792 104.178 140.371 104.178 139.864V131.182ZM109.399 142V133.273H110.74V142H109.399ZM110.081 131.818C109.82 131.818 109.594 131.729 109.405 131.551C109.219 131.373 109.126 131.159 109.126 130.909C109.126 130.659 109.219 130.445 109.405 130.267C109.594 130.089 109.82 130 110.081 130C110.342 130 110.566 130.089 110.751 130.267C110.941 130.445 111.036 130.659 111.036 130.909C111.036 131.159 110.941 131.373 110.751 131.551C110.566 131.729 110.342 131.818 110.081 131.818ZM114.537 136.75V142H113.196V133.273H114.491V134.636H114.605C114.81 134.193 115.12 133.837 115.537 133.568C115.954 133.295 116.491 133.159 117.151 133.159C117.741 133.159 118.259 133.28 118.702 133.523C119.145 133.761 119.49 134.125 119.736 134.614C119.982 135.098 120.105 135.712 120.105 136.455V142H118.764V136.545C118.764 135.86 118.586 135.326 118.23 134.943C117.874 134.557 117.385 134.364 116.764 134.364C116.336 134.364 115.954 134.456 115.616 134.642C115.283 134.828 115.02 135.098 114.827 135.455C114.634 135.811 114.537 136.242 114.537 136.75ZM128.055 138.432V133.273H129.396V142H128.055V140.523H127.964C127.76 140.966 127.442 141.343 127.01 141.653C126.578 141.96 126.033 142.114 125.374 142.114C124.828 142.114 124.343 141.994 123.919 141.756C123.495 141.513 123.161 141.15 122.919 140.665C122.677 140.176 122.555 139.561 122.555 138.818V133.273H123.896V138.727C123.896 139.364 124.074 139.871 124.43 140.25C124.79 140.629 125.249 140.818 125.805 140.818C126.139 140.818 126.478 140.733 126.822 140.562C127.171 140.392 127.463 140.131 127.697 139.778C127.936 139.426 128.055 138.977 128.055 138.432ZM135.398 142.182C134.61 142.182 133.919 141.994 133.324 141.619C132.733 141.244 132.271 140.72 131.938 140.045C131.608 139.371 131.443 138.583 131.443 137.682C131.443 136.773 131.608 135.979 131.938 135.301C132.271 134.623 132.733 134.097 133.324 133.722C133.919 133.347 134.61 133.159 135.398 133.159C136.186 133.159 136.875 133.347 137.466 133.722C138.061 134.097 138.523 134.623 138.852 135.301C139.186 135.979 139.352 136.773 139.352 137.682C139.352 138.583 139.186 139.371 138.852 140.045C138.523 140.72 138.061 141.244 137.466 141.619C136.875 141.994 136.186 142.182 135.398 142.182ZM135.398 140.977C135.996 140.977 136.489 140.824 136.875 140.517C137.261 140.21 137.547 139.807 137.733 139.307C137.919 138.807 138.011 138.265 138.011 137.682C138.011 137.098 137.919 136.555 137.733 136.051C137.547 135.547 137.261 135.14 136.875 134.83C136.489 134.519 135.996 134.364 135.398 134.364C134.799 134.364 134.307 134.519 133.92 134.83C133.534 135.14 133.248 135.547 133.062 136.051C132.877 136.555 132.784 137.098 132.784 137.682C132.784 138.265 132.877 138.807 133.062 139.307C133.248 139.807 133.534 140.21 133.92 140.517C134.307 140.824 134.799 140.977 135.398 140.977ZM146.899 138.432V133.273H148.24V142H146.899V140.523H146.808C146.604 140.966 146.286 141.343 145.854 141.653C145.422 141.96 144.876 142.114 144.217 142.114C143.672 142.114 143.187 141.994 142.763 141.756C142.339 141.513 142.005 141.15 141.763 140.665C141.52 140.176 141.399 139.561 141.399 138.818V133.273H142.74V138.727C142.74 139.364 142.918 139.871 143.274 140.25C143.634 140.629 144.092 140.818 144.649 140.818C144.982 140.818 145.321 140.733 145.666 140.562C146.015 140.392 146.306 140.131 146.541 139.778C146.78 139.426 146.899 138.977 146.899 138.432ZM156.878 135.227L155.673 135.568C155.598 135.367 155.486 135.172 155.338 134.983C155.194 134.79 154.997 134.631 154.747 134.506C154.497 134.381 154.177 134.318 153.787 134.318C153.253 134.318 152.808 134.441 152.452 134.688C152.099 134.93 151.923 135.239 151.923 135.614C151.923 135.947 152.045 136.21 152.287 136.403C152.529 136.597 152.908 136.758 153.423 136.886L154.719 137.205C155.499 137.394 156.08 137.684 156.463 138.074C156.846 138.46 157.037 138.958 157.037 139.568C157.037 140.068 156.893 140.515 156.605 140.909C156.321 141.303 155.923 141.614 155.412 141.841C154.901 142.068 154.306 142.182 153.628 142.182C152.738 142.182 152.001 141.989 151.418 141.602C150.834 141.216 150.465 140.652 150.31 139.909L151.582 139.591C151.704 140.061 151.933 140.413 152.27 140.648C152.611 140.883 153.056 141 153.605 141C154.23 141 154.726 140.867 155.094 140.602C155.465 140.333 155.651 140.011 155.651 139.636C155.651 139.333 155.545 139.08 155.332 138.875C155.12 138.667 154.795 138.511 154.355 138.409L152.901 138.068C152.101 137.879 151.514 137.585 151.139 137.188C150.768 136.786 150.582 136.284 150.582 135.682C150.582 135.189 150.721 134.754 150.997 134.375C151.277 133.996 151.658 133.699 152.139 133.483C152.624 133.267 153.173 133.159 153.787 133.159C154.651 133.159 155.329 133.348 155.821 133.727C156.317 134.106 156.67 134.606 156.878 135.227ZM160.396 130.364V142H159.055V130.364H160.396ZM163.716 145.273C163.489 145.273 163.286 145.254 163.108 145.216C162.93 145.182 162.807 145.148 162.739 145.114L163.08 143.932C163.405 144.015 163.693 144.045 163.943 144.023C164.193 144 164.415 143.888 164.608 143.688C164.805 143.491 164.985 143.17 165.148 142.727L165.398 142.045L162.17 133.273H163.625L166.034 140.227H166.125L168.534 133.273H169.989L166.284 143.273C166.117 143.723 165.911 144.097 165.665 144.392C165.419 144.691 165.133 144.913 164.807 145.057C164.485 145.201 164.121 145.273 163.716 145.273ZM176.44 130.364H178.122L182.077 140.023H182.213L186.168 130.364H187.849V142H186.531V133.159H186.418L182.781 142H181.509L177.872 133.159H177.759V142H176.44V130.364ZM194.038 142.182C193.25 142.182 192.559 141.994 191.964 141.619C191.374 141.244 190.911 140.72 190.578 140.045C190.249 139.371 190.084 138.583 190.084 137.682C190.084 136.773 190.249 135.979 190.578 135.301C190.911 134.623 191.374 134.097 191.964 133.722C192.559 133.347 193.25 133.159 194.038 133.159C194.826 133.159 195.516 133.347 196.107 133.722C196.701 134.097 197.163 134.623 197.493 135.301C197.826 135.979 197.993 136.773 197.993 137.682C197.993 138.583 197.826 139.371 197.493 140.045C197.163 140.72 196.701 141.244 196.107 141.619C195.516 141.994 194.826 142.182 194.038 142.182ZM194.038 140.977C194.637 140.977 195.129 140.824 195.516 140.517C195.902 140.21 196.188 139.807 196.374 139.307C196.559 138.807 196.652 138.265 196.652 137.682C196.652 137.098 196.559 136.555 196.374 136.051C196.188 135.547 195.902 135.14 195.516 134.83C195.129 134.519 194.637 134.364 194.038 134.364C193.44 134.364 192.947 134.519 192.561 134.83C192.175 135.14 191.889 135.547 191.703 136.051C191.518 136.555 191.425 137.098 191.425 137.682C191.425 138.265 191.518 138.807 191.703 139.307C191.889 139.807 192.175 140.21 192.561 140.517C192.947 140.824 193.44 140.977 194.038 140.977ZM201.381 136.75V142H200.04V133.273H201.335V134.636H201.449C201.653 134.193 201.964 133.837 202.381 133.568C202.797 133.295 203.335 133.159 203.994 133.159C204.585 133.159 205.102 133.28 205.545 133.523C205.989 133.761 206.333 134.125 206.58 134.614C206.826 135.098 206.949 135.712 206.949 136.455V142H205.608V136.545C205.608 135.86 205.43 135.326 205.074 134.943C204.718 134.557 204.229 134.364 203.608 134.364C203.18 134.364 202.797 134.456 202.46 134.642C202.127 134.828 201.864 135.098 201.67 135.455C201.477 135.811 201.381 136.242 201.381 136.75ZM209.399 142V133.273H210.74V142H209.399ZM210.081 131.818C209.82 131.818 209.594 131.729 209.405 131.551C209.219 131.373 209.126 131.159 209.126 130.909C209.126 130.659 209.219 130.445 209.405 130.267C209.594 130.089 209.82 130 210.081 130C210.342 130 210.566 130.089 210.751 130.267C210.941 130.445 211.036 130.659 211.036 130.909C211.036 131.159 210.941 131.373 210.751 131.551C210.566 131.729 210.342 131.818 210.081 131.818ZM216.991 133.273V134.409H212.469V133.273H216.991ZM213.787 131.182H215.128V139.5C215.128 139.879 215.183 140.163 215.293 140.352C215.406 140.538 215.55 140.663 215.724 140.727C215.902 140.788 216.09 140.818 216.287 140.818C216.435 140.818 216.556 140.811 216.651 140.795C216.745 140.777 216.821 140.761 216.878 140.75L217.151 141.955C217.06 141.989 216.933 142.023 216.77 142.057C216.607 142.095 216.401 142.114 216.151 142.114C215.772 142.114 215.401 142.032 215.037 141.869C214.677 141.706 214.378 141.458 214.139 141.125C213.904 140.792 213.787 140.371 213.787 139.864V131.182ZM222.46 142.182C221.672 142.182 220.981 141.994 220.386 141.619C219.795 141.244 219.333 140.72 219 140.045C218.67 139.371 218.506 138.583 218.506 137.682C218.506 136.773 218.67 135.979 219 135.301C219.333 134.623 219.795 134.097 220.386 133.722C220.981 133.347 221.672 133.159 222.46 133.159C223.248 133.159 223.938 133.347 224.528 133.722C225.123 134.097 225.585 134.623 225.915 135.301C226.248 135.979 226.415 136.773 226.415 137.682C226.415 138.583 226.248 139.371 225.915 140.045C225.585 140.72 225.123 141.244 224.528 141.619C223.938 141.994 223.248 142.182 222.46 142.182ZM222.46 140.977C223.059 140.977 223.551 140.824 223.938 140.517C224.324 140.21 224.61 139.807 224.795 139.307C224.981 138.807 225.074 138.265 225.074 137.682C225.074 137.098 224.981 136.555 224.795 136.051C224.61 135.547 224.324 135.14 223.938 134.83C223.551 134.519 223.059 134.364 222.46 134.364C221.862 134.364 221.369 134.519 220.983 134.83C220.597 135.14 220.311 135.547 220.125 136.051C219.939 136.555 219.847 137.098 219.847 137.682C219.847 138.265 219.939 138.807 220.125 139.307C220.311 139.807 220.597 140.21 220.983 140.517C221.369 140.824 221.862 140.977 222.46 140.977ZM228.462 142V133.273H229.757V134.591H229.848C230.007 134.159 230.295 133.809 230.712 133.54C231.128 133.271 231.598 133.136 232.121 133.136C232.219 133.136 232.342 133.138 232.49 133.142C232.638 133.146 232.75 133.152 232.825 133.159V134.523C232.78 134.511 232.676 134.494 232.513 134.472C232.354 134.445 232.185 134.432 232.007 134.432C231.583 134.432 231.204 134.521 230.871 134.699C230.541 134.873 230.28 135.116 230.087 135.426C229.897 135.733 229.803 136.083 229.803 136.477V142H228.462ZM104.902 161H103.425L107.697 149.364H109.152L113.425 161H111.947L108.47 151.205H108.379L104.902 161ZM105.447 156.455H111.402V157.705H105.447V156.455ZM116.396 155.75V161H115.055V152.273H116.351V153.636H116.464C116.669 153.193 116.98 152.837 117.396 152.568C117.813 152.295 118.351 152.159 119.01 152.159C119.601 152.159 120.118 152.28 120.561 152.523C121.004 152.761 121.349 153.125 121.595 153.614C121.841 154.098 121.964 154.712 121.964 155.455V161H120.624V155.545C120.624 154.86 120.446 154.326 120.089 153.943C119.733 153.557 119.245 153.364 118.624 153.364C118.196 153.364 117.813 153.456 117.476 153.642C117.143 153.828 116.879 154.098 116.686 154.455C116.493 154.811 116.396 155.242 116.396 155.75ZM127.71 161.182C126.983 161.182 126.341 160.998 125.784 160.631C125.227 160.259 124.792 159.737 124.477 159.062C124.163 158.384 124.006 157.583 124.006 156.659C124.006 155.742 124.163 154.947 124.477 154.273C124.792 153.598 125.229 153.078 125.79 152.71C126.35 152.343 126.998 152.159 127.733 152.159C128.301 152.159 128.75 152.254 129.08 152.443C129.413 152.629 129.667 152.841 129.841 153.08C130.019 153.314 130.157 153.508 130.256 153.659H130.369V149.364H131.71V161H130.415V159.659H130.256C130.157 159.818 130.017 160.019 129.835 160.261C129.653 160.5 129.394 160.714 129.057 160.903C128.72 161.089 128.271 161.182 127.71 161.182ZM127.892 159.977C128.43 159.977 128.884 159.837 129.256 159.557C129.627 159.273 129.909 158.881 130.102 158.381C130.295 157.877 130.392 157.295 130.392 156.636C130.392 155.985 130.297 155.415 130.108 154.926C129.919 154.434 129.638 154.051 129.267 153.778C128.896 153.502 128.438 153.364 127.892 153.364C127.324 153.364 126.85 153.509 126.472 153.801C126.097 154.089 125.814 154.481 125.625 154.977C125.439 155.47 125.347 156.023 125.347 156.636C125.347 157.258 125.441 157.822 125.631 158.33C125.824 158.833 126.108 159.235 126.483 159.534C126.862 159.83 127.331 159.977 127.892 159.977ZM139.034 161V149.364H146.057V150.614H140.443V154.545H145.693V155.795H140.443V159.75H146.148V161H139.034ZM155.551 152.273L152.324 161H150.96L147.733 152.273H149.188L151.597 159.227H151.688L154.097 152.273H155.551ZM159.624 161.205C159.071 161.205 158.569 161.1 158.118 160.892C157.667 160.68 157.309 160.375 157.044 159.977C156.779 159.576 156.646 159.091 156.646 158.523C156.646 158.023 156.745 157.617 156.942 157.307C157.139 156.992 157.402 156.746 157.732 156.568C158.061 156.39 158.425 156.258 158.822 156.17C159.224 156.08 159.627 156.008 160.033 155.955C160.563 155.886 160.993 155.835 161.322 155.801C161.656 155.763 161.898 155.701 162.05 155.614C162.205 155.527 162.283 155.375 162.283 155.159V155.114C162.283 154.553 162.129 154.117 161.822 153.807C161.519 153.496 161.059 153.341 160.442 153.341C159.802 153.341 159.3 153.481 158.936 153.761C158.572 154.042 158.317 154.341 158.169 154.659L156.896 154.205C157.124 153.674 157.427 153.261 157.805 152.966C158.188 152.667 158.605 152.458 159.055 152.341C159.51 152.22 159.957 152.159 160.396 152.159C160.677 152.159 160.999 152.193 161.362 152.261C161.73 152.326 162.084 152.46 162.425 152.665C162.769 152.869 163.055 153.178 163.283 153.591C163.51 154.004 163.624 154.557 163.624 155.25V161H162.283V159.818H162.214C162.124 160.008 161.972 160.21 161.76 160.426C161.548 160.642 161.266 160.826 160.913 160.977C160.561 161.129 160.131 161.205 159.624 161.205ZM159.828 160C160.358 160 160.805 159.896 161.169 159.688C161.536 159.479 161.813 159.21 161.999 158.881C162.188 158.551 162.283 158.205 162.283 157.841V156.614C162.226 156.682 162.101 156.744 161.908 156.801C161.718 156.854 161.499 156.902 161.249 156.943C161.002 156.981 160.762 157.015 160.527 157.045C160.296 157.072 160.108 157.095 159.964 157.114C159.616 157.159 159.29 157.233 158.987 157.335C158.688 157.434 158.446 157.583 158.26 157.784C158.078 157.981 157.987 158.25 157.987 158.591C157.987 159.057 158.16 159.409 158.504 159.648C158.853 159.883 159.294 160 159.828 160ZM167.412 149.364V161H166.071V149.364H167.412ZM175.368 157.432V152.273H176.709V161H175.368V159.523H175.277C175.072 159.966 174.754 160.343 174.322 160.653C173.891 160.96 173.345 161.114 172.686 161.114C172.141 161.114 171.656 160.994 171.232 160.756C170.807 160.513 170.474 160.15 170.232 159.665C169.989 159.176 169.868 158.561 169.868 157.818V152.273H171.209V157.727C171.209 158.364 171.387 158.871 171.743 159.25C172.103 159.629 172.561 159.818 173.118 159.818C173.451 159.818 173.79 159.733 174.135 159.562C174.483 159.392 174.775 159.131 175.01 158.778C175.249 158.426 175.368 157.977 175.368 157.432ZM181.733 161.205C181.18 161.205 180.678 161.1 180.227 160.892C179.777 160.68 179.419 160.375 179.153 159.977C178.888 159.576 178.756 159.091 178.756 158.523C178.756 158.023 178.854 157.617 179.051 157.307C179.248 156.992 179.511 156.746 179.841 156.568C180.17 156.39 180.534 156.258 180.932 156.17C181.333 156.08 181.737 156.008 182.142 155.955C182.672 155.886 183.102 155.835 183.432 155.801C183.765 155.763 184.008 155.701 184.159 155.614C184.314 155.527 184.392 155.375 184.392 155.159V155.114C184.392 154.553 184.239 154.117 183.932 153.807C183.629 153.496 183.169 153.341 182.551 153.341C181.911 153.341 181.409 153.481 181.045 153.761C180.682 154.042 180.426 154.341 180.278 154.659L179.006 154.205C179.233 153.674 179.536 153.261 179.915 152.966C180.297 152.667 180.714 152.458 181.165 152.341C181.619 152.22 182.066 152.159 182.506 152.159C182.786 152.159 183.108 152.193 183.472 152.261C183.839 152.326 184.193 152.46 184.534 152.665C184.879 152.869 185.165 153.178 185.392 153.591C185.619 154.004 185.733 154.557 185.733 155.25V161H184.392V159.818H184.324C184.233 160.008 184.081 160.21 183.869 160.426C183.657 160.642 183.375 160.826 183.023 160.977C182.67 161.129 182.241 161.205 181.733 161.205ZM181.938 160C182.468 160 182.915 159.896 183.278 159.688C183.646 159.479 183.922 159.21 184.108 158.881C184.297 158.551 184.392 158.205 184.392 157.841V156.614C184.335 156.682 184.21 156.744 184.017 156.801C183.828 156.854 183.608 156.902 183.358 156.943C183.112 156.981 182.871 157.015 182.636 157.045C182.405 157.072 182.218 157.095 182.074 157.114C181.725 157.159 181.4 157.233 181.097 157.335C180.797 157.434 180.555 157.583 180.369 157.784C180.188 157.981 180.097 158.25 180.097 158.591C180.097 159.057 180.269 159.409 180.614 159.648C180.962 159.883 181.403 160 181.938 160ZM191.976 152.273V153.409H187.453V152.273H191.976ZM188.771 150.182H190.112V158.5C190.112 158.879 190.167 159.163 190.277 159.352C190.391 159.538 190.535 159.663 190.709 159.727C190.887 159.788 191.074 159.818 191.271 159.818C191.419 159.818 191.54 159.811 191.635 159.795C191.73 159.777 191.805 159.761 191.862 159.75L192.135 160.955C192.044 160.989 191.917 161.023 191.754 161.057C191.591 161.095 191.385 161.114 191.135 161.114C190.756 161.114 190.385 161.032 190.021 160.869C189.661 160.706 189.362 160.458 189.124 160.125C188.889 159.792 188.771 159.371 188.771 158.864V150.182ZM197.558 161.182C196.717 161.182 195.992 160.996 195.382 160.625C194.776 160.25 194.308 159.727 193.979 159.057C193.653 158.383 193.49 157.598 193.49 156.705C193.49 155.811 193.653 155.023 193.979 154.341C194.308 153.655 194.767 153.121 195.354 152.739C195.945 152.352 196.634 152.159 197.422 152.159C197.876 152.159 198.325 152.235 198.768 152.386C199.212 152.538 199.615 152.784 199.979 153.125C200.342 153.462 200.632 153.909 200.848 154.466C201.064 155.023 201.172 155.708 201.172 156.523V157.091H194.445V155.932H199.808C199.808 155.439 199.71 155 199.513 154.614C199.32 154.227 199.043 153.922 198.683 153.699C198.327 153.475 197.907 153.364 197.422 153.364C196.888 153.364 196.426 153.496 196.036 153.761C195.649 154.023 195.352 154.364 195.143 154.784C194.935 155.205 194.831 155.655 194.831 156.136V156.909C194.831 157.568 194.945 158.127 195.172 158.585C195.403 159.04 195.723 159.386 196.132 159.625C196.541 159.86 197.017 159.977 197.558 159.977C197.911 159.977 198.229 159.928 198.513 159.83C198.801 159.727 199.049 159.576 199.257 159.375C199.465 159.17 199.626 158.917 199.74 158.614L201.036 158.977C200.899 159.417 200.67 159.803 200.348 160.136C200.026 160.466 199.628 160.723 199.155 160.909C198.681 161.091 198.149 161.182 197.558 161.182ZM74.7997 180V168.364H78.7315C79.6444 168.364 80.3906 168.528 80.9702 168.858C81.5535 169.184 81.9853 169.625 82.2656 170.182C82.5459 170.739 82.6861 171.36 82.6861 172.045C82.6861 172.731 82.5459 173.354 82.2656 173.915C81.9891 174.475 81.5611 174.922 80.9815 175.256C80.402 175.585 79.6596 175.75 78.7543 175.75H75.9361V174.5H78.7088C79.3338 174.5 79.8357 174.392 80.2145 174.176C80.5933 173.96 80.8679 173.669 81.0384 173.301C81.2126 172.93 81.2997 172.511 81.2997 172.045C81.2997 171.58 81.2126 171.163 81.0384 170.795C80.8679 170.428 80.5914 170.14 80.2088 169.932C79.8262 169.72 79.3187 169.614 78.6861 169.614H76.2088V180H74.7997ZM88.3395 180.182C87.4986 180.182 86.7732 179.996 86.1634 179.625C85.5573 179.25 85.0895 178.727 84.7599 178.057C84.4342 177.383 84.2713 176.598 84.2713 175.705C84.2713 174.811 84.4342 174.023 84.7599 173.341C85.0895 172.655 85.5478 172.121 86.1349 171.739C86.7259 171.352 87.4152 171.159 88.2031 171.159C88.6577 171.159 89.1065 171.235 89.5497 171.386C89.9929 171.538 90.3963 171.784 90.7599 172.125C91.1236 172.462 91.4134 172.909 91.6293 173.466C91.8452 174.023 91.9531 174.708 91.9531 175.523V176.091H85.2259V174.932H90.5895C90.5895 174.439 90.491 174 90.294 173.614C90.1009 173.227 89.8243 172.922 89.4645 172.699C89.1084 172.475 88.688 172.364 88.2031 172.364C87.669 172.364 87.2069 172.496 86.8168 172.761C86.4304 173.023 86.133 173.364 85.9247 173.784C85.7164 174.205 85.6122 174.655 85.6122 175.136V175.909C85.6122 176.568 85.7259 177.127 85.9531 177.585C86.1842 178.04 86.5043 178.386 86.9134 178.625C87.3224 178.86 87.7978 178.977 88.3395 178.977C88.6918 178.977 89.0099 178.928 89.294 178.83C89.5819 178.727 89.83 178.576 90.0384 178.375C90.2467 178.17 90.4077 177.917 90.5213 177.614L91.8168 177.977C91.6804 178.417 91.4512 178.803 91.1293 179.136C90.8073 179.466 90.4096 179.723 89.9361 179.909C89.4626 180.091 88.9304 180.182 88.3395 180.182ZM93.9929 180V171.273H95.2884V172.591H95.3793C95.5384 172.159 95.8262 171.809 96.2429 171.54C96.6596 171.271 97.1293 171.136 97.652 171.136C97.7505 171.136 97.8736 171.138 98.0213 171.142C98.169 171.146 98.2808 171.152 98.3565 171.159V172.523C98.3111 172.511 98.2069 172.494 98.044 172.472C97.8849 172.445 97.7164 172.432 97.5384 172.432C97.1141 172.432 96.7353 172.521 96.402 172.699C96.0724 172.873 95.8111 173.116 95.6179 173.426C95.4285 173.733 95.3338 174.083 95.3338 174.477V180H93.9929ZM104.379 171.273V172.409H99.6747V171.273H104.379ZM101.084 180V170.068C101.084 169.568 101.201 169.152 101.436 168.818C101.671 168.485 101.976 168.235 102.351 168.068C102.726 167.902 103.122 167.818 103.538 167.818C103.868 167.818 104.137 167.845 104.345 167.898C104.554 167.951 104.709 168 104.811 168.045L104.425 169.205C104.357 169.182 104.262 169.153 104.141 169.119C104.023 169.085 103.868 169.068 103.675 169.068C103.232 169.068 102.911 169.18 102.714 169.403C102.521 169.627 102.425 169.955 102.425 170.386V180H101.084ZM109.445 180.182C108.657 180.182 107.965 179.994 107.371 179.619C106.78 179.244 106.318 178.72 105.984 178.045C105.655 177.371 105.49 176.583 105.49 175.682C105.49 174.773 105.655 173.979 105.984 173.301C106.318 172.623 106.78 172.097 107.371 171.722C107.965 171.347 108.657 171.159 109.445 171.159C110.232 171.159 110.922 171.347 111.513 171.722C112.107 172.097 112.57 172.623 112.899 173.301C113.232 173.979 113.399 174.773 113.399 175.682C113.399 176.583 113.232 177.371 112.899 178.045C112.57 178.72 112.107 179.244 111.513 179.619C110.922 179.994 110.232 180.182 109.445 180.182ZM109.445 178.977C110.043 178.977 110.536 178.824 110.922 178.517C111.308 178.21 111.594 177.807 111.78 177.307C111.965 176.807 112.058 176.265 112.058 175.682C112.058 175.098 111.965 174.555 111.78 174.051C111.594 173.547 111.308 173.14 110.922 172.83C110.536 172.519 110.043 172.364 109.445 172.364C108.846 172.364 108.354 172.519 107.967 172.83C107.581 173.14 107.295 173.547 107.109 174.051C106.924 174.555 106.831 175.098 106.831 175.682C106.831 176.265 106.924 176.807 107.109 177.307C107.295 177.807 107.581 178.21 107.967 178.517C108.354 178.824 108.846 178.977 109.445 178.977ZM115.446 180V171.273H116.741V172.591H116.832C116.991 172.159 117.279 171.809 117.696 171.54C118.113 171.271 118.582 171.136 119.105 171.136C119.204 171.136 119.327 171.138 119.474 171.142C119.622 171.146 119.734 171.152 119.81 171.159V172.523C119.764 172.511 119.66 172.494 119.497 172.472C119.338 172.445 119.17 172.432 118.991 172.432C118.567 172.432 118.188 172.521 117.855 172.699C117.526 172.873 117.264 173.116 117.071 173.426C116.882 173.733 116.787 174.083 116.787 174.477V180H115.446ZM121.399 180V171.273H122.695V172.636H122.808C122.99 172.17 123.284 171.809 123.689 171.551C124.094 171.29 124.581 171.159 125.149 171.159C125.725 171.159 126.204 171.29 126.587 171.551C126.973 171.809 127.274 172.17 127.49 172.636H127.581C127.804 172.186 128.14 171.828 128.587 171.562C129.034 171.294 129.57 171.159 130.195 171.159C130.975 171.159 131.613 171.403 132.109 171.892C132.606 172.377 132.854 173.133 132.854 174.159V180H131.513V174.159C131.513 173.515 131.337 173.055 130.984 172.778C130.632 172.502 130.217 172.364 129.74 172.364C129.126 172.364 128.651 172.549 128.314 172.92C127.977 173.288 127.808 173.754 127.808 174.318V180H126.445V174.023C126.445 173.527 126.284 173.127 125.962 172.824C125.64 172.517 125.225 172.364 124.717 172.364C124.369 172.364 124.043 172.456 123.74 172.642C123.441 172.828 123.198 173.085 123.013 173.415C122.831 173.741 122.74 174.117 122.74 174.545V180H121.399ZM137.874 180.205C137.321 180.205 136.819 180.1 136.368 179.892C135.917 179.68 135.559 179.375 135.294 178.977C135.029 178.576 134.896 178.091 134.896 177.523C134.896 177.023 134.995 176.617 135.192 176.307C135.389 175.992 135.652 175.746 135.982 175.568C136.311 175.39 136.675 175.258 137.072 175.17C137.474 175.08 137.877 175.008 138.283 174.955C138.813 174.886 139.243 174.835 139.572 174.801C139.906 174.763 140.148 174.701 140.3 174.614C140.455 174.527 140.533 174.375 140.533 174.159V174.114C140.533 173.553 140.379 173.117 140.072 172.807C139.769 172.496 139.309 172.341 138.692 172.341C138.052 172.341 137.55 172.481 137.186 172.761C136.822 173.042 136.567 173.341 136.419 173.659L135.146 173.205C135.374 172.674 135.677 172.261 136.055 171.966C136.438 171.667 136.855 171.458 137.305 171.341C137.76 171.22 138.207 171.159 138.646 171.159C138.927 171.159 139.249 171.193 139.612 171.261C139.98 171.326 140.334 171.46 140.675 171.665C141.019 171.869 141.305 172.178 141.533 172.591C141.76 173.004 141.874 173.557 141.874 174.25V180H140.533V178.818H140.464C140.374 179.008 140.222 179.21 140.01 179.426C139.798 179.642 139.516 179.826 139.163 179.977C138.811 180.129 138.381 180.205 137.874 180.205ZM138.078 179C138.608 179 139.055 178.896 139.419 178.688C139.786 178.479 140.063 178.21 140.249 177.881C140.438 177.551 140.533 177.205 140.533 176.841V175.614C140.476 175.682 140.351 175.744 140.158 175.801C139.968 175.854 139.749 175.902 139.499 175.943C139.252 175.981 139.012 176.015 138.777 176.045C138.546 176.072 138.358 176.095 138.214 176.114C137.866 176.159 137.54 176.233 137.237 176.335C136.938 176.434 136.696 176.583 136.51 176.784C136.328 176.981 136.237 177.25 136.237 177.591C136.237 178.057 136.41 178.409 136.754 178.648C137.103 178.883 137.544 179 138.078 179ZM145.662 174.75V180H144.321V171.273H145.616V172.636H145.73C145.935 172.193 146.245 171.837 146.662 171.568C147.079 171.295 147.616 171.159 148.276 171.159C148.866 171.159 149.384 171.28 149.827 171.523C150.27 171.761 150.615 172.125 150.861 172.614C151.107 173.098 151.23 173.712 151.23 174.455V180H149.889V174.545C149.889 173.86 149.711 173.326 149.355 172.943C148.999 172.557 148.51 172.364 147.889 172.364C147.461 172.364 147.079 172.456 146.741 172.642C146.408 172.828 146.145 173.098 145.952 173.455C145.759 173.811 145.662 174.242 145.662 174.75ZM157.226 180.182C156.408 180.182 155.703 179.989 155.112 179.602C154.521 179.216 154.067 178.684 153.749 178.006C153.43 177.328 153.271 176.553 153.271 175.682C153.271 174.795 153.434 174.013 153.76 173.335C154.089 172.653 154.548 172.121 155.135 171.739C155.726 171.352 156.415 171.159 157.203 171.159C157.817 171.159 158.37 171.273 158.862 171.5C159.355 171.727 159.758 172.045 160.072 172.455C160.387 172.864 160.582 173.341 160.658 173.886H159.317C159.214 173.489 158.987 173.136 158.635 172.83C158.286 172.519 157.817 172.364 157.226 172.364C156.703 172.364 156.245 172.5 155.851 172.773C155.461 173.042 155.156 173.422 154.936 173.915C154.72 174.403 154.612 174.977 154.612 175.636C154.612 176.311 154.718 176.898 154.93 177.398C155.146 177.898 155.449 178.286 155.839 178.562C156.233 178.839 156.696 178.977 157.226 178.977C157.574 178.977 157.891 178.917 158.175 178.795C158.459 178.674 158.699 178.5 158.896 178.273C159.093 178.045 159.233 177.773 159.317 177.455H160.658C160.582 177.97 160.394 178.434 160.095 178.847C159.8 179.256 159.408 179.581 158.919 179.824C158.434 180.062 157.87 180.182 157.226 180.182ZM166.277 180.182C165.436 180.182 164.711 179.996 164.101 179.625C163.495 179.25 163.027 178.727 162.697 178.057C162.372 177.383 162.209 176.598 162.209 175.705C162.209 174.811 162.372 174.023 162.697 173.341C163.027 172.655 163.485 172.121 164.072 171.739C164.663 171.352 165.353 171.159 166.141 171.159C166.595 171.159 167.044 171.235 167.487 171.386C167.93 171.538 168.334 171.784 168.697 172.125C169.061 172.462 169.351 172.909 169.567 173.466C169.783 174.023 169.891 174.708 169.891 175.523V176.091H163.163V174.932H168.527C168.527 174.439 168.429 174 168.232 173.614C168.038 173.227 167.762 172.922 167.402 172.699C167.046 172.475 166.625 172.364 166.141 172.364C165.607 172.364 165.144 172.496 164.754 172.761C164.368 173.023 164.071 173.364 163.862 173.784C163.654 174.205 163.55 174.655 163.55 175.136V175.909C163.55 176.568 163.663 177.127 163.891 177.585C164.122 178.04 164.442 178.386 164.851 178.625C165.26 178.86 165.735 178.977 166.277 178.977C166.629 178.977 166.947 178.928 167.232 178.83C167.519 178.727 167.768 178.576 167.976 178.375C168.184 178.17 168.345 177.917 168.459 177.614L169.754 177.977C169.618 178.417 169.389 178.803 169.067 179.136C168.745 179.466 168.347 179.723 167.874 179.909C167.4 180.091 166.868 180.182 166.277 180.182ZM176.612 168.364H178.294L182.249 178.023H182.385L186.339 168.364H188.021V180H186.703V171.159H186.589L182.953 180H181.68L178.044 171.159H177.93V180H176.612V168.364ZM194.324 180.182C193.483 180.182 192.758 179.996 192.148 179.625C191.542 179.25 191.074 178.727 190.744 178.057C190.419 177.383 190.256 176.598 190.256 175.705C190.256 174.811 190.419 174.023 190.744 173.341C191.074 172.655 191.532 172.121 192.119 171.739C192.71 171.352 193.4 171.159 194.188 171.159C194.642 171.159 195.091 171.235 195.534 171.386C195.977 171.538 196.381 171.784 196.744 172.125C197.108 172.462 197.398 172.909 197.614 173.466C197.83 174.023 197.938 174.708 197.938 175.523V176.091H191.21V174.932H196.574C196.574 174.439 196.475 174 196.278 173.614C196.085 173.227 195.809 172.922 195.449 172.699C195.093 172.475 194.672 172.364 194.188 172.364C193.653 172.364 193.191 172.496 192.801 172.761C192.415 173.023 192.117 173.364 191.909 173.784C191.701 174.205 191.597 174.655 191.597 175.136V175.909C191.597 176.568 191.71 177.127 191.938 177.585C192.169 178.04 192.489 178.386 192.898 178.625C193.307 178.86 193.782 178.977 194.324 178.977C194.676 178.977 194.994 178.928 195.278 178.83C195.566 178.727 195.814 178.576 196.023 178.375C196.231 178.17 196.392 177.917 196.506 177.614L197.801 177.977C197.665 178.417 197.436 178.803 197.114 179.136C196.792 179.466 196.394 179.723 195.92 179.909C195.447 180.091 194.915 180.182 194.324 180.182ZM203.773 171.273V172.409H199.25V171.273H203.773ZM200.568 169.182H201.909V177.5C201.909 177.879 201.964 178.163 202.074 178.352C202.188 178.538 202.331 178.663 202.506 178.727C202.684 178.788 202.871 178.818 203.068 178.818C203.216 178.818 203.337 178.811 203.432 178.795C203.527 178.777 203.602 178.761 203.659 178.75L203.932 179.955C203.841 179.989 203.714 180.023 203.551 180.057C203.388 180.095 203.182 180.114 202.932 180.114C202.553 180.114 202.182 180.032 201.818 179.869C201.458 179.706 201.159 179.458 200.92 179.125C200.686 178.792 200.568 178.371 200.568 177.864V169.182ZM205.79 180V171.273H207.085V172.591H207.176C207.335 172.159 207.623 171.809 208.04 171.54C208.456 171.271 208.926 171.136 209.449 171.136C209.547 171.136 209.67 171.138 209.818 171.142C209.966 171.146 210.078 171.152 210.153 171.159V172.523C210.108 172.511 210.004 172.494 209.841 172.472C209.682 172.445 209.513 172.432 209.335 172.432C208.911 172.432 208.532 172.521 208.199 172.699C207.869 172.873 207.608 173.116 207.415 173.426C207.225 173.733 207.131 174.083 207.131 174.477V180H205.79ZM211.743 180V171.273H213.084V180H211.743ZM212.425 169.818C212.163 169.818 211.938 169.729 211.749 169.551C211.563 169.373 211.47 169.159 211.47 168.909C211.47 168.659 211.563 168.445 211.749 168.267C211.938 168.089 212.163 168 212.425 168C212.686 168 212.91 168.089 213.095 168.267C213.285 168.445 213.379 168.659 213.379 168.909C213.379 169.159 213.285 169.373 213.095 169.551C212.91 169.729 212.686 169.818 212.425 169.818ZM219.085 180.182C218.267 180.182 217.563 179.989 216.972 179.602C216.381 179.216 215.926 178.684 215.608 178.006C215.29 177.328 215.131 176.553 215.131 175.682C215.131 174.795 215.294 174.013 215.619 173.335C215.949 172.653 216.407 172.121 216.994 171.739C217.585 171.352 218.275 171.159 219.062 171.159C219.676 171.159 220.229 171.273 220.722 171.5C221.214 171.727 221.617 172.045 221.932 172.455C222.246 172.864 222.441 173.341 222.517 173.886H221.176C221.074 173.489 220.847 173.136 220.494 172.83C220.146 172.519 219.676 172.364 219.085 172.364C218.563 172.364 218.104 172.5 217.71 172.773C217.32 173.042 217.015 173.422 216.795 173.915C216.58 174.403 216.472 174.977 216.472 175.636C216.472 176.311 216.578 176.898 216.79 177.398C217.006 177.898 217.309 178.286 217.699 178.562C218.093 178.839 218.555 178.977 219.085 178.977C219.434 178.977 219.75 178.917 220.034 178.795C220.318 178.674 220.559 178.5 220.756 178.273C220.953 178.045 221.093 177.773 221.176 177.455H222.517C222.441 177.97 222.254 178.434 221.955 178.847C221.659 179.256 221.267 179.581 220.778 179.824C220.294 180.062 219.729 180.182 219.085 180.182ZM230.659 173.227L229.455 173.568C229.379 173.367 229.267 173.172 229.119 172.983C228.975 172.79 228.778 172.631 228.528 172.506C228.278 172.381 227.958 172.318 227.568 172.318C227.034 172.318 226.589 172.441 226.233 172.688C225.881 172.93 225.705 173.239 225.705 173.614C225.705 173.947 225.826 174.21 226.068 174.403C226.311 174.597 226.689 174.758 227.205 174.886L228.5 175.205C229.28 175.394 229.862 175.684 230.244 176.074C230.627 176.46 230.818 176.958 230.818 177.568C230.818 178.068 230.674 178.515 230.386 178.909C230.102 179.303 229.705 179.614 229.193 179.841C228.682 180.068 228.087 180.182 227.409 180.182C226.519 180.182 225.782 179.989 225.199 179.602C224.616 179.216 224.246 178.652 224.091 177.909L225.364 177.591C225.485 178.061 225.714 178.413 226.051 178.648C226.392 178.883 226.837 179 227.386 179C228.011 179 228.508 178.867 228.875 178.602C229.246 178.333 229.432 178.011 229.432 177.636C229.432 177.333 229.326 177.08 229.114 176.875C228.902 176.667 228.576 176.511 228.136 176.409L226.682 176.068C225.883 175.879 225.295 175.585 224.92 175.188C224.549 174.786 224.364 174.284 224.364 173.682C224.364 173.189 224.502 172.754 224.778 172.375C225.059 171.996 225.439 171.699 225.92 171.483C226.405 171.267 226.955 171.159 227.568 171.159C228.432 171.159 229.11 171.348 229.602 171.727C230.098 172.106 230.451 172.606 230.659 173.227ZM64.468 188.614V187.364H73.1953V188.614H69.5362V199H68.1271V188.614H64.468ZM77.468 199.182C76.6802 199.182 75.9889 198.994 75.3942 198.619C74.8033 198.244 74.3411 197.72 74.0078 197.045C73.6783 196.371 73.5135 195.583 73.5135 194.682C73.5135 193.773 73.6783 192.979 74.0078 192.301C74.3411 191.623 74.8033 191.097 75.3942 190.722C75.9889 190.347 76.6802 190.159 77.468 190.159C78.2559 190.159 78.9453 190.347 79.5362 190.722C80.1309 191.097 80.593 191.623 80.9226 192.301C81.2559 192.979 81.4226 193.773 81.4226 194.682C81.4226 195.583 81.2559 196.371 80.9226 197.045C80.593 197.72 80.1309 198.244 79.5362 198.619C78.9453 198.994 78.2559 199.182 77.468 199.182ZM77.468 197.977C78.0665 197.977 78.5589 197.824 78.9453 197.517C79.3317 197.21 79.6177 196.807 79.8033 196.307C79.9889 195.807 80.0817 195.265 80.0817 194.682C80.0817 194.098 79.9889 193.555 79.8033 193.051C79.6177 192.547 79.3317 192.14 78.9453 191.83C78.5589 191.519 78.0665 191.364 77.468 191.364C76.8696 191.364 76.3771 191.519 75.9908 191.83C75.6044 192.14 75.3184 192.547 75.1328 193.051C74.9472 193.555 74.8544 194.098 74.8544 194.682C74.8544 195.265 74.9472 195.807 75.1328 196.307C75.3184 196.807 75.6044 197.21 75.9908 197.517C76.3771 197.824 76.8696 197.977 77.468 197.977ZM97.9695 193.182C97.9695 194.409 97.7479 195.47 97.3047 196.364C96.8615 197.258 96.2536 197.947 95.4808 198.432C94.7081 198.917 93.8255 199.159 92.8331 199.159C91.8407 199.159 90.9581 198.917 90.1854 198.432C89.4126 197.947 88.8047 197.258 88.3615 196.364C87.9183 195.47 87.6967 194.409 87.6967 193.182C87.6967 191.955 87.9183 190.894 88.3615 190C88.8047 189.106 89.4126 188.417 90.1854 187.932C90.9581 187.447 91.8407 187.205 92.8331 187.205C93.8255 187.205 94.7081 187.447 95.4808 187.932C96.2536 188.417 96.8615 189.106 97.3047 190C97.7479 190.894 97.9695 191.955 97.9695 193.182ZM96.6058 193.182C96.6058 192.174 96.4373 191.324 96.1001 190.631C95.7668 189.938 95.3142 189.413 94.7422 189.057C94.174 188.701 93.5376 188.523 92.8331 188.523C92.1286 188.523 91.4903 188.701 90.9183 189.057C90.3501 189.413 89.8975 189.938 89.5604 190.631C89.227 191.324 89.0604 192.174 89.0604 193.182C89.0604 194.189 89.227 195.04 89.5604 195.733C89.8975 196.426 90.3501 196.951 90.9183 197.307C91.4903 197.663 92.1286 197.841 92.8331 197.841C93.5376 197.841 94.174 197.663 94.7422 197.307C95.3142 196.951 95.7668 196.426 96.1001 195.733C96.4373 195.04 96.6058 194.189 96.6058 193.182ZM100.157 202.273V190.273H101.452V191.659H101.612C101.71 191.508 101.846 191.314 102.021 191.08C102.199 190.841 102.452 190.629 102.782 190.443C103.115 190.254 103.566 190.159 104.134 190.159C104.869 190.159 105.517 190.343 106.077 190.71C106.638 191.078 107.076 191.598 107.39 192.273C107.704 192.947 107.862 193.742 107.862 194.659C107.862 195.583 107.704 196.384 107.39 197.062C107.076 197.737 106.64 198.259 106.083 198.631C105.526 198.998 104.884 199.182 104.157 199.182C103.596 199.182 103.147 199.089 102.81 198.903C102.473 198.714 102.214 198.5 102.032 198.261C101.85 198.019 101.71 197.818 101.612 197.659H101.498V202.273H100.157ZM101.475 194.636C101.475 195.295 101.572 195.877 101.765 196.381C101.958 196.881 102.24 197.273 102.612 197.557C102.983 197.837 103.437 197.977 103.975 197.977C104.536 197.977 105.004 197.83 105.379 197.534C105.757 197.235 106.041 196.833 106.231 196.33C106.424 195.822 106.521 195.258 106.521 194.636C106.521 194.023 106.426 193.47 106.237 192.977C106.051 192.481 105.769 192.089 105.39 191.801C105.015 191.509 104.543 191.364 103.975 191.364C103.43 191.364 102.971 191.502 102.6 191.778C102.229 192.051 101.949 192.434 101.759 192.926C101.57 193.415 101.475 193.985 101.475 194.636ZM113.702 190.273V191.409H109.18V190.273H113.702ZM110.498 188.182H111.839V196.5C111.839 196.879 111.894 197.163 112.004 197.352C112.117 197.538 112.261 197.663 112.435 197.727C112.613 197.788 112.801 197.818 112.998 197.818C113.146 197.818 113.267 197.811 113.362 197.795C113.456 197.777 113.532 197.761 113.589 197.75L113.862 198.955C113.771 198.989 113.644 199.023 113.481 199.057C113.318 199.095 113.112 199.114 112.862 199.114C112.483 199.114 112.112 199.032 111.748 198.869C111.388 198.706 111.089 198.458 110.85 198.125C110.615 197.792 110.498 197.371 110.498 196.864V188.182ZM115.719 199V190.273H117.06V199H115.719ZM116.401 188.818C116.14 188.818 115.915 188.729 115.725 188.551C115.54 188.373 115.447 188.159 115.447 187.909C115.447 187.659 115.54 187.445 115.725 187.267C115.915 187.089 116.14 187 116.401 187C116.663 187 116.886 187.089 117.072 187.267C117.261 187.445 117.356 187.659 117.356 187.909C117.356 188.159 117.261 188.373 117.072 188.551C116.886 188.729 116.663 188.818 116.401 188.818ZM119.516 199V190.273H120.812V191.636H120.925C121.107 191.17 121.401 190.809 121.806 190.551C122.211 190.29 122.698 190.159 123.266 190.159C123.842 190.159 124.321 190.29 124.704 190.551C125.09 190.809 125.391 191.17 125.607 191.636H125.698C125.922 191.186 126.257 190.828 126.704 190.562C127.151 190.294 127.687 190.159 128.312 190.159C129.092 190.159 129.73 190.403 130.227 190.892C130.723 191.377 130.971 192.133 130.971 193.159V199H129.63V193.159C129.63 192.515 129.454 192.055 129.102 191.778C128.749 191.502 128.335 191.364 127.857 191.364C127.244 191.364 126.768 191.549 126.431 191.92C126.094 192.288 125.925 192.754 125.925 193.318V199H124.562V193.023C124.562 192.527 124.401 192.127 124.079 191.824C123.757 191.517 123.342 191.364 122.835 191.364C122.486 191.364 122.16 191.456 121.857 191.642C121.558 191.828 121.316 192.085 121.13 192.415C120.948 192.741 120.857 193.117 120.857 193.545V199H119.516ZM133.423 199V190.273H134.763V199H133.423ZM134.104 188.818C133.843 188.818 133.618 188.729 133.428 188.551C133.243 188.373 133.15 188.159 133.15 187.909C133.15 187.659 133.243 187.445 133.428 187.267C133.618 187.089 133.843 187 134.104 187C134.366 187 134.589 187.089 134.775 187.267C134.964 187.445 135.059 187.659 135.059 187.909C135.059 188.159 134.964 188.373 134.775 188.551C134.589 188.729 134.366 188.818 134.104 188.818ZM136.969 199V197.977L141.924 191.614V191.523H137.129V190.273H143.651V191.341L138.833 197.659V197.75H143.81V199H136.969ZM149.285 199.182C148.444 199.182 147.719 198.996 147.109 198.625C146.503 198.25 146.035 197.727 145.705 197.057C145.379 196.383 145.217 195.598 145.217 194.705C145.217 193.811 145.379 193.023 145.705 192.341C146.035 191.655 146.493 191.121 147.08 190.739C147.671 190.352 148.361 190.159 149.148 190.159C149.603 190.159 150.052 190.235 150.495 190.386C150.938 190.538 151.342 190.784 151.705 191.125C152.069 191.462 152.359 191.909 152.575 192.466C152.79 193.023 152.898 193.708 152.898 194.523V195.091H146.171V193.932H151.535C151.535 193.439 151.436 193 151.239 192.614C151.046 192.227 150.77 191.922 150.41 191.699C150.054 191.475 149.633 191.364 149.148 191.364C148.614 191.364 148.152 191.496 147.762 191.761C147.376 192.023 147.078 192.364 146.87 192.784C146.662 193.205 146.558 193.655 146.558 194.136V194.909C146.558 195.568 146.671 196.127 146.898 196.585C147.129 197.04 147.45 197.386 147.859 197.625C148.268 197.86 148.743 197.977 149.285 197.977C149.637 197.977 149.955 197.928 150.239 197.83C150.527 197.727 150.775 197.576 150.984 197.375C151.192 197.17 151.353 196.917 151.467 196.614L152.762 196.977C152.626 197.417 152.397 197.803 152.075 198.136C151.753 198.466 151.355 198.723 150.881 198.909C150.408 199.091 149.876 199.182 149.285 199.182ZM169.438 193.182C169.438 194.409 169.217 195.47 168.773 196.364C168.33 197.258 167.722 197.947 166.95 198.432C166.177 198.917 165.294 199.159 164.302 199.159C163.309 199.159 162.427 198.917 161.654 198.432C160.881 197.947 160.273 197.258 159.83 196.364C159.387 195.47 159.165 194.409 159.165 193.182C159.165 191.955 159.387 190.894 159.83 190C160.273 189.106 160.881 188.417 161.654 187.932C162.427 187.447 163.309 187.205 164.302 187.205C165.294 187.205 166.177 187.447 166.95 187.932C167.722 188.417 168.33 189.106 168.773 190C169.217 190.894 169.438 191.955 169.438 193.182ZM168.075 193.182C168.075 192.174 167.906 191.324 167.569 190.631C167.236 189.938 166.783 189.413 166.211 189.057C165.643 188.701 165.006 188.523 164.302 188.523C163.597 188.523 162.959 188.701 162.387 189.057C161.819 189.413 161.366 189.938 161.029 190.631C160.696 191.324 160.529 192.174 160.529 193.182C160.529 194.189 160.696 195.04 161.029 195.733C161.366 196.426 161.819 196.951 162.387 197.307C162.959 197.663 163.597 197.841 164.302 197.841C165.006 197.841 165.643 197.663 166.211 197.307C166.783 196.951 167.236 196.426 167.569 195.733C167.906 195.04 168.075 194.189 168.075 193.182ZM171.626 202.273V190.273H172.921V191.659H173.08C173.179 191.508 173.315 191.314 173.489 191.08C173.667 190.841 173.921 190.629 174.251 190.443C174.584 190.254 175.035 190.159 175.603 190.159C176.338 190.159 176.986 190.343 177.546 190.71C178.107 191.078 178.544 191.598 178.859 192.273C179.173 192.947 179.33 193.742 179.33 194.659C179.33 195.583 179.173 196.384 178.859 197.062C178.544 197.737 178.109 198.259 177.552 198.631C176.995 198.998 176.353 199.182 175.626 199.182C175.065 199.182 174.616 199.089 174.279 198.903C173.942 198.714 173.683 198.5 173.501 198.261C173.319 198.019 173.179 197.818 173.08 197.659H172.967V202.273H171.626ZM172.944 194.636C172.944 195.295 173.04 195.877 173.234 196.381C173.427 196.881 173.709 197.273 174.08 197.557C174.451 197.837 174.906 197.977 175.444 197.977C176.004 197.977 176.472 197.83 176.847 197.534C177.226 197.235 177.51 196.833 177.7 196.33C177.893 195.822 177.989 195.258 177.989 194.636C177.989 194.023 177.895 193.47 177.705 192.977C177.52 192.481 177.237 192.089 176.859 191.801C176.484 191.509 176.012 191.364 175.444 191.364C174.898 191.364 174.44 191.502 174.069 191.778C173.698 192.051 173.417 192.434 173.228 192.926C173.039 193.415 172.944 193.985 172.944 194.636ZM185.035 199.182C184.194 199.182 183.469 198.996 182.859 198.625C182.253 198.25 181.785 197.727 181.455 197.057C181.129 196.383 180.967 195.598 180.967 194.705C180.967 193.811 181.129 193.023 181.455 192.341C181.785 191.655 182.243 191.121 182.83 190.739C183.421 190.352 184.111 190.159 184.898 190.159C185.353 190.159 185.802 190.235 186.245 190.386C186.688 190.538 187.092 190.784 187.455 191.125C187.819 191.462 188.109 191.909 188.325 192.466C188.54 193.023 188.648 193.708 188.648 194.523V195.091H181.921V193.932H187.285C187.285 193.439 187.186 193 186.989 192.614C186.796 192.227 186.52 191.922 186.16 191.699C185.804 191.475 185.383 191.364 184.898 191.364C184.364 191.364 183.902 191.496 183.512 191.761C183.126 192.023 182.828 192.364 182.62 192.784C182.412 193.205 182.308 193.655 182.308 194.136V194.909C182.308 195.568 182.421 196.127 182.648 196.585C182.879 197.04 183.2 197.386 183.609 197.625C184.018 197.86 184.493 197.977 185.035 197.977C185.387 197.977 185.705 197.928 185.989 197.83C186.277 197.727 186.525 197.576 186.734 197.375C186.942 197.17 187.103 196.917 187.217 196.614L188.512 196.977C188.376 197.417 188.147 197.803 187.825 198.136C187.503 198.466 187.105 198.723 186.631 198.909C186.158 199.091 185.626 199.182 185.035 199.182ZM190.688 199V190.273H191.984V191.591H192.075C192.234 191.159 192.522 190.809 192.938 190.54C193.355 190.271 193.825 190.136 194.347 190.136C194.446 190.136 194.569 190.138 194.717 190.142C194.864 190.146 194.976 190.152 195.052 190.159V191.523C195.006 191.511 194.902 191.494 194.739 191.472C194.58 191.445 194.412 191.432 194.234 191.432C193.809 191.432 193.431 191.521 193.097 191.699C192.768 191.873 192.506 192.116 192.313 192.426C192.124 192.733 192.029 193.083 192.029 193.477V199H190.688ZM199.21 199.205C198.656 199.205 198.155 199.1 197.704 198.892C197.253 198.68 196.895 198.375 196.63 197.977C196.365 197.576 196.232 197.091 196.232 196.523C196.232 196.023 196.331 195.617 196.528 195.307C196.725 194.992 196.988 194.746 197.317 194.568C197.647 194.39 198.011 194.258 198.408 194.17C198.81 194.08 199.213 194.008 199.619 193.955C200.149 193.886 200.579 193.835 200.908 193.801C201.242 193.763 201.484 193.701 201.636 193.614C201.791 193.527 201.869 193.375 201.869 193.159V193.114C201.869 192.553 201.715 192.117 201.408 191.807C201.105 191.496 200.645 191.341 200.028 191.341C199.388 191.341 198.886 191.481 198.522 191.761C198.158 192.042 197.903 192.341 197.755 192.659L196.482 192.205C196.71 191.674 197.013 191.261 197.391 190.966C197.774 190.667 198.191 190.458 198.641 190.341C199.096 190.22 199.543 190.159 199.982 190.159C200.263 190.159 200.585 190.193 200.948 190.261C201.316 190.326 201.67 190.46 202.011 190.665C202.355 190.869 202.641 191.178 202.869 191.591C203.096 192.004 203.21 192.557 203.21 193.25V199H201.869V197.818H201.8C201.71 198.008 201.558 198.21 201.346 198.426C201.134 198.642 200.852 198.826 200.499 198.977C200.147 199.129 199.717 199.205 199.21 199.205ZM199.414 198C199.944 198 200.391 197.896 200.755 197.688C201.122 197.479 201.399 197.21 201.585 196.881C201.774 196.551 201.869 196.205 201.869 195.841V194.614C201.812 194.682 201.687 194.744 201.494 194.801C201.304 194.854 201.085 194.902 200.835 194.943C200.588 194.981 200.348 195.015 200.113 195.045C199.882 195.072 199.694 195.095 199.55 195.114C199.202 195.159 198.876 195.233 198.573 195.335C198.274 195.434 198.031 195.583 197.846 195.784C197.664 195.981 197.573 196.25 197.573 196.591C197.573 197.057 197.746 197.409 198.09 197.648C198.439 197.883 198.88 198 199.414 198ZM209.452 190.273V191.409H204.93V190.273H209.452ZM206.248 188.182H207.589V196.5C207.589 196.879 207.644 197.163 207.754 197.352C207.867 197.538 208.011 197.663 208.185 197.727C208.363 197.788 208.551 197.818 208.748 197.818C208.896 197.818 209.017 197.811 209.112 197.795C209.206 197.777 209.282 197.761 209.339 197.75L209.612 198.955C209.521 198.989 209.394 199.023 209.231 199.057C209.068 199.095 208.862 199.114 208.612 199.114C208.233 199.114 207.862 199.032 207.498 198.869C207.138 198.706 206.839 198.458 206.6 198.125C206.365 197.792 206.248 197.371 206.248 196.864V188.182ZM211.469 199V190.273H212.81V199H211.469ZM212.151 188.818C211.89 188.818 211.665 188.729 211.475 188.551C211.29 188.373 211.197 188.159 211.197 187.909C211.197 187.659 211.29 187.445 211.475 187.267C211.665 187.089 211.89 187 212.151 187C212.413 187 212.636 187.089 212.822 187.267C213.011 187.445 213.106 187.659 213.106 187.909C213.106 188.159 213.011 188.373 212.822 188.551C212.636 188.729 212.413 188.818 212.151 188.818ZM218.812 199.182C218.024 199.182 217.333 198.994 216.738 198.619C216.147 198.244 215.685 197.72 215.352 197.045C215.022 196.371 214.857 195.583 214.857 194.682C214.857 193.773 215.022 192.979 215.352 192.301C215.685 191.623 216.147 191.097 216.738 190.722C217.333 190.347 218.024 190.159 218.812 190.159C219.6 190.159 220.289 190.347 220.88 190.722C221.475 191.097 221.937 191.623 222.266 192.301C222.6 192.979 222.766 193.773 222.766 194.682C222.766 195.583 222.6 196.371 222.266 197.045C221.937 197.72 221.475 198.244 220.88 198.619C220.289 198.994 219.6 199.182 218.812 199.182ZM218.812 197.977C219.41 197.977 219.903 197.824 220.289 197.517C220.675 197.21 220.961 196.807 221.147 196.307C221.333 195.807 221.425 195.265 221.425 194.682C221.425 194.098 221.333 193.555 221.147 193.051C220.961 192.547 220.675 192.14 220.289 191.83C219.903 191.519 219.41 191.364 218.812 191.364C218.213 191.364 217.721 191.519 217.335 191.83C216.948 192.14 216.662 192.547 216.477 193.051C216.291 193.555 216.198 194.098 216.198 194.682C216.198 195.265 216.291 195.807 216.477 196.307C216.662 196.807 216.948 197.21 217.335 197.517C217.721 197.824 218.213 197.977 218.812 197.977ZM226.154 193.75V199H224.813V190.273H226.109V191.636H226.222C226.427 191.193 226.737 190.837 227.154 190.568C227.571 190.295 228.109 190.159 228.768 190.159C229.359 190.159 229.876 190.28 230.319 190.523C230.762 190.761 231.107 191.125 231.353 191.614C231.599 192.098 231.722 192.712 231.722 193.455V199H230.381V193.545C230.381 192.86 230.203 192.326 229.847 191.943C229.491 191.557 229.003 191.364 228.381 191.364C227.953 191.364 227.571 191.456 227.234 191.642C226.9 191.828 226.637 192.098 226.444 192.455C226.251 192.811 226.154 193.242 226.154 193.75ZM240.354 192.227L239.15 192.568C239.074 192.367 238.962 192.172 238.815 191.983C238.671 191.79 238.474 191.631 238.224 191.506C237.974 191.381 237.654 191.318 237.263 191.318C236.729 191.318 236.284 191.441 235.928 191.688C235.576 191.93 235.4 192.239 235.4 192.614C235.4 192.947 235.521 193.21 235.763 193.403C236.006 193.597 236.385 193.758 236.9 193.886L238.195 194.205C238.976 194.394 239.557 194.684 239.94 195.074C240.322 195.46 240.513 195.958 240.513 196.568C240.513 197.068 240.37 197.515 240.082 197.909C239.798 198.303 239.4 198.614 238.888 198.841C238.377 199.068 237.782 199.182 237.104 199.182C236.214 199.182 235.478 198.989 234.894 198.602C234.311 198.216 233.942 197.652 233.786 196.909L235.059 196.591C235.18 197.061 235.409 197.413 235.746 197.648C236.087 197.883 236.532 198 237.082 198C237.707 198 238.203 197.867 238.57 197.602C238.942 197.333 239.127 197.011 239.127 196.636C239.127 196.333 239.021 196.08 238.809 195.875C238.597 195.667 238.271 195.511 237.832 195.409L236.377 195.068C235.578 194.879 234.991 194.585 234.616 194.188C234.245 193.786 234.059 193.284 234.059 192.682C234.059 192.189 234.197 191.754 234.474 191.375C234.754 190.996 235.135 190.699 235.616 190.483C236.101 190.267 236.65 190.159 237.263 190.159C238.127 190.159 238.805 190.348 239.298 190.727C239.794 191.106 240.146 191.606 240.354 192.227ZM107.105 218H105.628L109.901 206.364H111.355L115.628 218H114.151L110.673 208.205H110.582L107.105 218ZM107.651 213.455H113.605V214.705H107.651V213.455ZM118.599 212.75V218H117.259V209.273H118.554V210.636H118.668C118.872 210.193 119.183 209.837 119.599 209.568C120.016 209.295 120.554 209.159 121.213 209.159C121.804 209.159 122.321 209.28 122.764 209.523C123.207 209.761 123.552 210.125 123.798 210.614C124.045 211.098 124.168 211.712 124.168 212.455V218H122.827V212.545C122.827 211.86 122.649 211.326 122.293 210.943C121.937 210.557 121.448 210.364 120.827 210.364C120.399 210.364 120.016 210.456 119.679 210.642C119.346 210.828 119.082 211.098 118.889 211.455C118.696 211.811 118.599 212.242 118.599 212.75ZM129.913 218.182C129.186 218.182 128.544 217.998 127.987 217.631C127.43 217.259 126.995 216.737 126.68 216.062C126.366 215.384 126.209 214.583 126.209 213.659C126.209 212.742 126.366 211.947 126.68 211.273C126.995 210.598 127.432 210.078 127.993 209.71C128.554 209.343 129.201 209.159 129.936 209.159C130.504 209.159 130.953 209.254 131.283 209.443C131.616 209.629 131.87 209.841 132.044 210.08C132.222 210.314 132.36 210.508 132.459 210.659H132.572V206.364H133.913V218H132.618V216.659H132.459C132.36 216.818 132.22 217.019 132.038 217.261C131.857 217.5 131.597 217.714 131.26 217.903C130.923 218.089 130.474 218.182 129.913 218.182ZM130.095 216.977C130.633 216.977 131.088 216.837 131.459 216.557C131.83 216.273 132.112 215.881 132.305 215.381C132.499 214.877 132.595 214.295 132.595 213.636C132.595 212.985 132.5 212.415 132.311 211.926C132.122 211.434 131.841 211.051 131.47 210.778C131.099 210.502 130.641 210.364 130.095 210.364C129.527 210.364 129.054 210.509 128.675 210.801C128.3 211.089 128.018 211.481 127.828 211.977C127.643 212.47 127.55 213.023 127.55 213.636C127.55 214.258 127.644 214.822 127.834 215.33C128.027 215.833 128.311 216.235 128.686 216.534C129.065 216.83 129.535 216.977 130.095 216.977ZM141.714 218H140.237L144.51 206.364H145.964L150.237 218H148.76L145.283 208.205H145.192L141.714 218ZM142.26 213.455H148.214V214.705H142.26V213.455ZM155.413 218.182C154.595 218.182 153.891 217.989 153.3 217.602C152.709 217.216 152.254 216.684 151.936 216.006C151.618 215.328 151.459 214.553 151.459 213.682C151.459 212.795 151.622 212.013 151.947 211.335C152.277 210.653 152.735 210.121 153.322 209.739C153.913 209.352 154.603 209.159 155.391 209.159C156.004 209.159 156.557 209.273 157.05 209.5C157.542 209.727 157.946 210.045 158.26 210.455C158.574 210.864 158.769 211.341 158.845 211.886H157.504C157.402 211.489 157.175 211.136 156.822 210.83C156.474 210.519 156.004 210.364 155.413 210.364C154.891 210.364 154.432 210.5 154.038 210.773C153.648 211.042 153.343 211.422 153.124 211.915C152.908 212.403 152.8 212.977 152.8 213.636C152.8 214.311 152.906 214.898 153.118 215.398C153.334 215.898 153.637 216.286 154.027 216.562C154.421 216.839 154.883 216.977 155.413 216.977C155.762 216.977 156.078 216.917 156.362 216.795C156.646 216.674 156.887 216.5 157.084 216.273C157.281 216.045 157.421 215.773 157.504 215.455H158.845C158.769 215.97 158.582 216.434 158.283 216.847C157.987 217.256 157.595 217.581 157.107 217.824C156.622 218.062 156.057 218.182 155.413 218.182ZM162.146 212.75V218H160.805V206.364H162.146V210.636H162.26C162.464 210.186 162.771 209.828 163.18 209.562C163.593 209.294 164.143 209.159 164.828 209.159C165.423 209.159 165.944 209.278 166.391 209.517C166.838 209.752 167.184 210.114 167.43 210.602C167.68 211.087 167.805 211.705 167.805 212.455V218H166.464V212.545C166.464 211.852 166.285 211.316 165.925 210.938C165.569 210.555 165.074 210.364 164.442 210.364C164.002 210.364 163.608 210.456 163.26 210.642C162.915 210.828 162.643 211.098 162.442 211.455C162.245 211.811 162.146 212.242 162.146 212.75ZM170.259 218V209.273H171.599V218H170.259ZM170.94 207.818C170.679 207.818 170.454 207.729 170.264 207.551C170.079 207.373 169.986 207.159 169.986 206.909C169.986 206.659 170.079 206.445 170.264 206.267C170.454 206.089 170.679 206 170.94 206C171.202 206 171.425 206.089 171.611 206.267C171.8 206.445 171.895 206.659 171.895 206.909C171.895 207.159 171.8 207.373 171.611 207.551C171.425 207.729 171.202 207.818 170.94 207.818ZM177.714 218.182C176.874 218.182 176.148 217.996 175.538 217.625C174.932 217.25 174.464 216.727 174.135 216.057C173.809 215.383 173.646 214.598 173.646 213.705C173.646 212.811 173.809 212.023 174.135 211.341C174.464 210.655 174.923 210.121 175.51 209.739C176.101 209.352 176.79 209.159 177.578 209.159C178.033 209.159 178.482 209.235 178.925 209.386C179.368 209.538 179.771 209.784 180.135 210.125C180.499 210.462 180.788 210.909 181.004 211.466C181.22 212.023 181.328 212.708 181.328 213.523V214.091H174.601V212.932H179.964C179.964 212.439 179.866 212 179.669 211.614C179.476 211.227 179.199 210.922 178.839 210.699C178.483 210.475 178.063 210.364 177.578 210.364C177.044 210.364 176.582 210.496 176.192 210.761C175.805 211.023 175.508 211.364 175.3 211.784C175.091 212.205 174.987 212.655 174.987 213.136V213.909C174.987 214.568 175.101 215.127 175.328 215.585C175.559 216.04 175.879 216.386 176.288 216.625C176.697 216.86 177.173 216.977 177.714 216.977C178.067 216.977 178.385 216.928 178.669 216.83C178.957 216.727 179.205 216.576 179.413 216.375C179.622 216.17 179.783 215.917 179.896 215.614L181.192 215.977C181.055 216.417 180.826 216.803 180.504 217.136C180.182 217.466 179.785 217.723 179.311 217.909C178.838 218.091 178.305 218.182 177.714 218.182ZM190.239 209.273L187.011 218H185.648L182.42 209.273H183.875L186.284 216.227H186.375L188.784 209.273H190.239ZM195.355 218.182C194.514 218.182 193.789 217.996 193.179 217.625C192.573 217.25 192.105 216.727 191.776 216.057C191.45 215.383 191.287 214.598 191.287 213.705C191.287 212.811 191.45 212.023 191.776 211.341C192.105 210.655 192.563 210.121 193.151 209.739C193.741 209.352 194.431 209.159 195.219 209.159C195.673 209.159 196.122 209.235 196.565 209.386C197.009 209.538 197.412 209.784 197.776 210.125C198.139 210.462 198.429 210.909 198.645 211.466C198.861 212.023 198.969 212.708 198.969 213.523V214.091H192.241V212.932H197.605C197.605 212.439 197.507 212 197.31 211.614C197.116 211.227 196.84 210.922 196.48 210.699C196.124 210.475 195.704 210.364 195.219 210.364C194.685 210.364 194.223 210.496 193.832 210.761C193.446 211.023 193.149 211.364 192.94 211.784C192.732 212.205 192.628 212.655 192.628 213.136V213.909C192.628 214.568 192.741 215.127 192.969 215.585C193.2 216.04 193.52 216.386 193.929 216.625C194.338 216.86 194.813 216.977 195.355 216.977C195.707 216.977 196.026 216.928 196.31 216.83C196.598 216.727 196.846 216.576 197.054 216.375C197.262 216.17 197.423 215.917 197.537 215.614L198.832 215.977C198.696 216.417 198.467 216.803 198.145 217.136C197.823 217.466 197.425 217.723 196.952 217.909C196.478 218.091 195.946 218.182 195.355 218.182ZM84.2259 228.273C84.1577 227.697 83.8812 227.25 83.3963 226.932C82.9115 226.614 82.3168 226.455 81.6122 226.455C81.0971 226.455 80.6463 226.538 80.2599 226.705C79.8774 226.871 79.5781 227.1 79.3622 227.392C79.1501 227.684 79.044 228.015 79.044 228.386C79.044 228.697 79.1179 228.964 79.2656 229.188C79.4171 229.407 79.6103 229.591 79.8452 229.739C80.08 229.883 80.3262 230.002 80.5838 230.097C80.8414 230.187 81.0781 230.261 81.294 230.318L82.4759 230.636C82.7789 230.716 83.116 230.826 83.4872 230.966C83.8622 231.106 84.2202 231.297 84.5611 231.54C84.9058 231.778 85.1899 232.085 85.4134 232.46C85.6368 232.835 85.7486 233.295 85.7486 233.841C85.7486 234.47 85.5838 235.038 85.2543 235.545C84.9285 236.053 84.4512 236.456 83.8224 236.756C83.1974 237.055 82.438 237.205 81.544 237.205C80.7107 237.205 79.9891 237.07 79.3793 236.801C78.7732 236.532 78.2959 236.157 77.9474 235.676C77.6027 235.195 77.4077 234.636 77.3622 234H78.8168C78.8546 234.439 79.0024 234.803 79.2599 235.091C79.5213 235.375 79.8509 235.587 80.2486 235.727C80.6501 235.864 81.0819 235.932 81.544 235.932C82.0819 235.932 82.5649 235.845 82.9929 235.67C83.4209 235.492 83.7599 235.246 84.0099 234.932C84.2599 234.614 84.3849 234.242 84.3849 233.818C84.3849 233.432 84.277 233.117 84.0611 232.875C83.8452 232.633 83.5611 232.436 83.2088 232.284C82.8565 232.133 82.4759 232 82.0668 231.886L80.6349 231.477C79.7259 231.216 79.0062 230.843 78.4759 230.358C77.9455 229.873 77.6804 229.239 77.6804 228.455C77.6804 227.803 77.8565 227.235 78.2088 226.75C78.5649 226.261 79.0421 225.883 79.6406 225.614C80.2429 225.341 80.9152 225.205 81.6577 225.205C82.4077 225.205 83.0743 225.339 83.6577 225.608C84.241 225.873 84.7031 226.237 85.044 226.699C85.3887 227.161 85.5705 227.686 85.5895 228.273H84.2259ZM93.3835 233.432V228.273H94.7244V237H93.3835V235.523H93.2926C93.0881 235.966 92.7699 236.343 92.3381 236.653C91.9063 236.96 91.3608 237.114 90.7017 237.114C90.1562 237.114 89.6714 236.994 89.2472 236.756C88.8229 236.513 88.4896 236.15 88.2472 235.665C88.0047 235.176 87.8835 234.561 87.8835 233.818V228.273H89.2244V233.727C89.2244 234.364 89.4025 234.871 89.7585 235.25C90.1184 235.629 90.5767 235.818 91.1335 235.818C91.4669 235.818 91.8059 235.733 92.1506 235.562C92.4991 235.392 92.7907 235.131 93.0256 234.778C93.2642 234.426 93.3835 233.977 93.3835 233.432ZM103.362 230.227L102.158 230.568C102.082 230.367 101.97 230.172 101.822 229.983C101.679 229.79 101.482 229.631 101.232 229.506C100.982 229.381 100.661 229.318 100.271 229.318C99.7372 229.318 99.2921 229.441 98.9361 229.688C98.5838 229.93 98.4077 230.239 98.4077 230.614C98.4077 230.947 98.5289 231.21 98.7713 231.403C99.0137 231.597 99.3925 231.758 99.9077 231.886L101.203 232.205C101.983 232.394 102.565 232.684 102.947 233.074C103.33 233.46 103.521 233.958 103.521 234.568C103.521 235.068 103.377 235.515 103.089 235.909C102.805 236.303 102.408 236.614 101.896 236.841C101.385 237.068 100.79 237.182 100.112 237.182C99.2221 237.182 98.4853 236.989 97.902 236.602C97.3187 236.216 96.9493 235.652 96.794 234.909L98.0668 234.591C98.188 235.061 98.4171 235.413 98.7543 235.648C99.0952 235.883 99.5402 236 100.089 236C100.714 236 101.211 235.867 101.578 235.602C101.949 235.333 102.135 235.011 102.135 234.636C102.135 234.333 102.029 234.08 101.817 233.875C101.605 233.667 101.279 233.511 100.839 233.409L99.3849 233.068C98.5857 232.879 97.9986 232.585 97.6236 232.188C97.2524 231.786 97.0668 231.284 97.0668 230.682C97.0668 230.189 97.205 229.754 97.4815 229.375C97.7618 228.996 98.1425 228.699 98.6236 228.483C99.1084 228.267 99.6577 228.159 100.271 228.159C101.135 228.159 101.813 228.348 102.305 228.727C102.802 229.106 103.154 229.606 103.362 230.227ZM109.335 228.273V229.409H104.812V228.273H109.335ZM106.131 226.182H107.472V234.5C107.472 234.879 107.527 235.163 107.636 235.352C107.75 235.538 107.894 235.663 108.068 235.727C108.246 235.788 108.434 235.818 108.631 235.818C108.778 235.818 108.9 235.811 108.994 235.795C109.089 235.777 109.165 235.761 109.222 235.75L109.494 236.955C109.403 236.989 109.277 237.023 109.114 237.057C108.951 237.095 108.744 237.114 108.494 237.114C108.116 237.114 107.744 237.032 107.381 236.869C107.021 236.706 106.722 236.458 106.483 236.125C106.248 235.792 106.131 235.371 106.131 234.864V226.182ZM113.92 237.205C113.367 237.205 112.866 237.1 112.415 236.892C111.964 236.68 111.606 236.375 111.341 235.977C111.076 235.576 110.943 235.091 110.943 234.523C110.943 234.023 111.042 233.617 111.239 233.307C111.436 232.992 111.699 232.746 112.028 232.568C112.358 232.39 112.722 232.258 113.119 232.17C113.521 232.08 113.924 232.008 114.33 231.955C114.86 231.886 115.29 231.835 115.619 231.801C115.953 231.763 116.195 231.701 116.347 231.614C116.502 231.527 116.58 231.375 116.58 231.159V231.114C116.58 230.553 116.426 230.117 116.119 229.807C115.816 229.496 115.356 229.341 114.739 229.341C114.098 229.341 113.597 229.481 113.233 229.761C112.869 230.042 112.614 230.341 112.466 230.659L111.193 230.205C111.42 229.674 111.723 229.261 112.102 228.966C112.485 228.667 112.902 228.458 113.352 228.341C113.807 228.22 114.254 228.159 114.693 228.159C114.973 228.159 115.295 228.193 115.659 228.261C116.027 228.326 116.381 228.46 116.722 228.665C117.066 228.869 117.352 229.178 117.58 229.591C117.807 230.004 117.92 230.557 117.92 231.25V237H116.58V235.818H116.511C116.42 236.008 116.269 236.21 116.057 236.426C115.845 236.642 115.563 236.826 115.21 236.977C114.858 237.129 114.428 237.205 113.92 237.205ZM114.125 236C114.655 236 115.102 235.896 115.466 235.688C115.833 235.479 116.11 235.21 116.295 234.881C116.485 234.551 116.58 234.205 116.58 233.841V232.614C116.523 232.682 116.398 232.744 116.205 232.801C116.015 232.854 115.795 232.902 115.545 232.943C115.299 232.981 115.059 233.015 114.824 233.045C114.593 233.072 114.405 233.095 114.261 233.114C113.913 233.159 113.587 233.233 113.284 233.335C112.985 233.434 112.742 233.583 112.557 233.784C112.375 233.981 112.284 234.25 112.284 234.591C112.284 235.057 112.456 235.409 112.801 235.648C113.15 235.883 113.591 236 114.125 236ZM120.368 237V228.273H121.709V237H120.368ZM121.05 226.818C120.788 226.818 120.563 226.729 120.374 226.551C120.188 226.373 120.095 226.159 120.095 225.909C120.095 225.659 120.188 225.445 120.374 225.267C120.563 225.089 120.788 225 121.05 225C121.311 225 121.535 225.089 121.72 225.267C121.91 225.445 122.004 225.659 122.004 225.909C122.004 226.159 121.91 226.373 121.72 226.551C121.535 226.729 121.311 226.818 121.05 226.818ZM125.506 231.75V237H124.165V228.273H125.46V229.636H125.574C125.778 229.193 126.089 228.837 126.506 228.568C126.922 228.295 127.46 228.159 128.119 228.159C128.71 228.159 129.227 228.28 129.67 228.523C130.114 228.761 130.458 229.125 130.705 229.614C130.951 230.098 131.074 230.712 131.074 231.455V237H129.733V231.545C129.733 230.86 129.555 230.326 129.199 229.943C128.843 229.557 128.354 229.364 127.733 229.364C127.305 229.364 126.922 229.456 126.585 229.642C126.252 229.828 125.989 230.098 125.795 230.455C125.602 230.811 125.506 231.242 125.506 231.75ZM136.092 237.205C135.539 237.205 135.037 237.1 134.587 236.892C134.136 236.68 133.778 236.375 133.513 235.977C133.248 235.576 133.115 235.091 133.115 234.523C133.115 234.023 133.214 233.617 133.411 233.307C133.607 232.992 133.871 232.746 134.2 232.568C134.53 232.39 134.893 232.258 135.291 232.17C135.693 232.08 136.096 232.008 136.501 231.955C137.032 231.886 137.462 231.835 137.791 231.801C138.125 231.763 138.367 231.701 138.518 231.614C138.674 231.527 138.751 231.375 138.751 231.159V231.114C138.751 230.553 138.598 230.117 138.291 229.807C137.988 229.496 137.528 229.341 136.911 229.341C136.27 229.341 135.768 229.481 135.405 229.761C135.041 230.042 134.786 230.341 134.638 230.659L133.365 230.205C133.592 229.674 133.895 229.261 134.274 228.966C134.657 228.667 135.073 228.458 135.524 228.341C135.979 228.22 136.426 228.159 136.865 228.159C137.145 228.159 137.467 228.193 137.831 228.261C138.198 228.326 138.553 228.46 138.893 228.665C139.238 228.869 139.524 229.178 139.751 229.591C139.979 230.004 140.092 230.557 140.092 231.25V237H138.751V235.818H138.683C138.592 236.008 138.441 236.21 138.229 236.426C138.017 236.642 137.734 236.826 137.382 236.977C137.03 237.129 136.6 237.205 136.092 237.205ZM136.297 236C136.827 236 137.274 235.896 137.638 235.688C138.005 235.479 138.282 235.21 138.467 234.881C138.657 234.551 138.751 234.205 138.751 233.841V232.614C138.695 232.682 138.57 232.744 138.376 232.801C138.187 232.854 137.967 232.902 137.717 232.943C137.471 232.981 137.231 233.015 136.996 233.045C136.765 233.072 136.577 233.095 136.433 233.114C136.085 233.159 135.759 233.233 135.456 233.335C135.157 233.434 134.914 233.583 134.729 233.784C134.547 233.981 134.456 234.25 134.456 234.591C134.456 235.057 134.628 235.409 134.973 235.648C135.321 235.883 135.763 236 136.297 236ZM142.722 237V225.364H144.062V229.659H144.176C144.275 229.508 144.411 229.314 144.585 229.08C144.763 228.841 145.017 228.629 145.347 228.443C145.68 228.254 146.131 228.159 146.699 228.159C147.434 228.159 148.081 228.343 148.642 228.71C149.203 229.078 149.64 229.598 149.955 230.273C150.269 230.947 150.426 231.742 150.426 232.659C150.426 233.583 150.269 234.384 149.955 235.062C149.64 235.737 149.205 236.259 148.648 236.631C148.091 236.998 147.449 237.182 146.722 237.182C146.161 237.182 145.712 237.089 145.375 236.903C145.038 236.714 144.778 236.5 144.597 236.261C144.415 236.019 144.275 235.818 144.176 235.659H144.017V237H142.722ZM144.04 232.636C144.04 233.295 144.136 233.877 144.33 234.381C144.523 234.881 144.805 235.273 145.176 235.557C145.547 235.837 146.002 235.977 146.54 235.977C147.1 235.977 147.568 235.83 147.943 235.534C148.322 235.235 148.606 234.833 148.795 234.33C148.989 233.822 149.085 233.258 149.085 232.636C149.085 232.023 148.991 231.47 148.801 230.977C148.616 230.481 148.333 230.089 147.955 229.801C147.58 229.509 147.108 229.364 146.54 229.364C145.994 229.364 145.536 229.502 145.165 229.778C144.794 230.051 144.513 230.434 144.324 230.926C144.134 231.415 144.04 231.985 144.04 232.636ZM153.818 225.364V237H152.477V225.364H153.818ZM159.933 237.182C159.092 237.182 158.367 236.996 157.757 236.625C157.151 236.25 156.683 235.727 156.354 235.057C156.028 234.383 155.865 233.598 155.865 232.705C155.865 231.811 156.028 231.023 156.354 230.341C156.683 229.655 157.142 229.121 157.729 228.739C158.32 228.352 159.009 228.159 159.797 228.159C160.251 228.159 160.7 228.235 161.143 228.386C161.587 228.538 161.99 228.784 162.354 229.125C162.717 229.462 163.007 229.909 163.223 230.466C163.439 231.023 163.547 231.708 163.547 232.523V233.091H156.82V231.932H162.183C162.183 231.439 162.085 231 161.888 230.614C161.695 230.227 161.418 229.922 161.058 229.699C160.702 229.475 160.282 229.364 159.797 229.364C159.263 229.364 158.801 229.496 158.411 229.761C158.024 230.023 157.727 230.364 157.518 230.784C157.31 231.205 157.206 231.655 157.206 232.136V232.909C157.206 233.568 157.32 234.127 157.547 234.585C157.778 235.04 158.098 235.386 158.507 235.625C158.916 235.86 159.392 235.977 159.933 235.977C160.286 235.977 160.604 235.928 160.888 235.83C161.176 235.727 161.424 235.576 161.632 235.375C161.84 235.17 162.001 234.917 162.115 234.614L163.411 234.977C163.274 235.417 163.045 235.803 162.723 236.136C162.401 236.466 162.003 236.723 161.53 236.909C161.056 237.091 160.524 237.182 159.933 237.182ZM178.223 229C178.098 228.617 177.933 228.275 177.729 227.972C177.528 227.665 177.287 227.403 177.007 227.188C176.731 226.972 176.416 226.807 176.064 226.693C175.712 226.58 175.325 226.523 174.905 226.523C174.215 226.523 173.589 226.701 173.024 227.057C172.46 227.413 172.011 227.938 171.678 228.631C171.344 229.324 171.178 230.174 171.178 231.182C171.178 232.189 171.346 233.04 171.683 233.733C172.02 234.426 172.477 234.951 173.053 235.307C173.628 235.663 174.276 235.841 174.996 235.841C175.662 235.841 176.25 235.699 176.757 235.415C177.268 235.127 177.666 234.722 177.95 234.199C178.238 233.672 178.382 233.053 178.382 232.341L178.814 232.432H175.314V231.182H179.746V232.432C179.746 233.39 179.541 234.223 179.132 234.932C178.727 235.64 178.166 236.189 177.45 236.58C176.738 236.966 175.92 237.159 174.996 237.159C173.965 237.159 173.06 236.917 172.28 236.432C171.503 235.947 170.897 235.258 170.462 234.364C170.03 233.47 169.814 232.409 169.814 231.182C169.814 230.261 169.937 229.434 170.183 228.699C170.433 227.96 170.786 227.331 171.24 226.812C171.695 226.294 172.232 225.896 172.854 225.619C173.475 225.343 174.159 225.205 174.905 225.205C175.518 225.205 176.09 225.297 176.621 225.483C177.155 225.665 177.63 225.924 178.047 226.261C178.467 226.595 178.818 226.994 179.098 227.46C179.378 227.922 179.571 228.436 179.678 229H178.223ZM181.977 237V228.273H183.273V229.591H183.364C183.523 229.159 183.811 228.809 184.227 228.54C184.644 228.271 185.114 228.136 185.636 228.136C185.735 228.136 185.858 228.138 186.006 228.142C186.153 228.146 186.265 228.152 186.341 228.159V229.523C186.295 229.511 186.191 229.494 186.028 229.472C185.869 229.445 185.701 229.432 185.523 229.432C185.098 229.432 184.72 229.521 184.386 229.699C184.057 229.873 183.795 230.116 183.602 230.426C183.413 230.733 183.318 231.083 183.318 231.477V237H181.977ZM191.21 237.182C190.422 237.182 189.731 236.994 189.136 236.619C188.545 236.244 188.083 235.72 187.75 235.045C187.42 234.371 187.256 233.583 187.256 232.682C187.256 231.773 187.42 230.979 187.75 230.301C188.083 229.623 188.545 229.097 189.136 228.722C189.731 228.347 190.422 228.159 191.21 228.159C191.998 228.159 192.688 228.347 193.278 228.722C193.873 229.097 194.335 229.623 194.665 230.301C194.998 230.979 195.165 231.773 195.165 232.682C195.165 233.583 194.998 234.371 194.665 235.045C194.335 235.72 193.873 236.244 193.278 236.619C192.688 236.994 191.998 237.182 191.21 237.182ZM191.21 235.977C191.809 235.977 192.301 235.824 192.688 235.517C193.074 235.21 193.36 234.807 193.545 234.307C193.731 233.807 193.824 233.265 193.824 232.682C193.824 232.098 193.731 231.555 193.545 231.051C193.36 230.547 193.074 230.14 192.688 229.83C192.301 229.519 191.809 229.364 191.21 229.364C190.612 229.364 190.119 229.519 189.733 229.83C189.347 230.14 189.061 230.547 188.875 231.051C188.689 231.555 188.597 232.098 188.597 232.682C188.597 233.265 188.689 233.807 188.875 234.307C189.061 234.807 189.347 235.21 189.733 235.517C190.119 235.824 190.612 235.977 191.21 235.977ZM198.892 237L196.233 228.273H197.642L199.528 234.955H199.619L201.483 228.273H202.915L204.756 234.932H204.847L206.733 228.273H208.142L205.483 237H204.165L202.256 230.295H202.119L200.21 237H198.892ZM213.71 228.273V229.409H209.188V228.273H213.71ZM210.506 226.182H211.847V234.5C211.847 234.879 211.902 235.163 212.011 235.352C212.125 235.538 212.269 235.663 212.443 235.727C212.621 235.788 212.809 235.818 213.006 235.818C213.153 235.818 213.275 235.811 213.369 235.795C213.464 235.777 213.54 235.761 213.597 235.75L213.869 236.955C213.778 236.989 213.652 237.023 213.489 237.057C213.326 237.095 213.119 237.114 212.869 237.114C212.491 237.114 212.119 237.032 211.756 236.869C211.396 236.706 211.097 236.458 210.858 236.125C210.623 235.792 210.506 235.371 210.506 234.864V226.182ZM217.256 231.75V237H215.915V225.364H217.256V229.636H217.369C217.574 229.186 217.881 228.828 218.29 228.562C218.703 228.294 219.252 228.159 219.938 228.159C220.532 228.159 221.053 228.278 221.5 228.517C221.947 228.752 222.294 229.114 222.54 229.602C222.79 230.087 222.915 230.705 222.915 231.455V237H221.574V231.545C221.574 230.852 221.394 230.316 221.034 229.938C220.678 229.555 220.184 229.364 219.551 229.364C219.112 229.364 218.718 229.456 218.369 229.642C218.025 229.828 217.752 230.098 217.551 230.455C217.354 230.811 217.256 231.242 217.256 231.75ZM226.345 237.091C226.065 237.091 225.824 236.991 225.624 236.79C225.423 236.589 225.322 236.348 225.322 236.068C225.322 235.788 225.423 235.547 225.624 235.347C225.824 235.146 226.065 235.045 226.345 235.045C226.625 235.045 226.866 235.146 227.067 235.347C227.268 235.547 227.368 235.788 227.368 236.068C227.368 236.254 227.321 236.424 227.226 236.58C227.135 236.735 227.012 236.86 226.857 236.955C226.705 237.045 226.535 237.091 226.345 237.091Z" fill="white"/>
<path d="M77.2427 120V105.455H82.9814C84.0846 105.455 85.0244 105.665 85.801 106.087C86.5775 106.503 87.1693 107.083 87.5765 107.827C87.9885 108.565 88.1944 109.418 88.1944 110.384C88.1944 111.349 87.9861 112.202 87.5694 112.94C87.1528 113.679 86.5491 114.254 85.7583 114.666C84.9724 115.078 84.0207 115.284 82.9032 115.284H79.2456V112.82H82.4061C82.9979 112.82 83.4856 112.718 83.8691 112.514C84.2574 112.306 84.5462 112.019 84.7356 111.655C84.9297 111.286 85.0268 110.862 85.0268 110.384C85.0268 109.901 84.9297 109.479 84.7356 109.119C84.5462 108.755 84.2574 108.473 83.8691 108.274C83.4809 108.071 82.9885 107.969 82.3919 107.969H80.318V120H77.2427ZM90.1919 120V105.455H99.9931V107.99H93.2672V111.456H99.4888V113.991H93.2672V117.464H100.021V120H90.1919ZM102.438 120V105.455H108.177C109.275 105.455 110.213 105.651 110.989 106.044C111.77 106.432 112.365 106.984 112.772 107.699C113.184 108.409 113.39 109.245 113.39 110.206C113.39 111.172 113.181 112.003 112.765 112.699C112.348 113.39 111.744 113.92 110.954 114.29C110.168 114.659 109.216 114.844 108.099 114.844H104.256V112.372H107.601C108.189 112.372 108.676 112.292 109.064 112.131C109.453 111.97 109.742 111.728 109.931 111.406C110.125 111.084 110.222 110.684 110.222 110.206C110.222 109.723 110.125 109.316 109.931 108.984C109.742 108.653 109.45 108.402 109.057 108.232C108.669 108.056 108.179 107.969 107.587 107.969H105.513V120H102.438ZM110.293 113.381L113.908 120H110.513L106.976 113.381H110.293ZM115.563 120V105.455H125.194V107.99H118.638V111.456H124.555V113.991H118.638V120H115.563ZM140.629 112.727C140.629 114.313 140.328 115.663 139.727 116.776C139.13 117.888 138.316 118.738 137.284 119.325C136.256 119.908 135.101 120.199 133.818 120.199C132.525 120.199 131.365 119.905 130.338 119.318C129.31 118.731 128.498 117.881 127.901 116.768C127.305 115.656 127.007 114.309 127.007 112.727C127.007 111.141 127.305 109.792 127.901 108.679C128.498 107.566 129.31 106.719 130.338 106.136C131.365 105.549 132.525 105.256 133.818 105.256C135.101 105.256 136.256 105.549 137.284 106.136C138.316 106.719 139.13 107.566 139.727 108.679C140.328 109.792 140.629 111.141 140.629 112.727ZM137.511 112.727C137.511 111.7 137.357 110.833 137.049 110.128C136.746 109.422 136.318 108.887 135.764 108.523C135.21 108.158 134.561 107.976 133.818 107.976C133.074 107.976 132.426 108.158 131.872 108.523C131.318 108.887 130.887 109.422 130.579 110.128C130.276 110.833 130.124 111.7 130.124 112.727C130.124 113.755 130.276 114.621 130.579 115.327C130.887 116.032 131.318 116.567 131.872 116.932C132.426 117.296 133.074 117.479 133.818 117.479C134.561 117.479 135.21 117.296 135.764 116.932C136.318 116.567 136.746 116.032 137.049 115.327C137.357 114.621 137.511 113.755 137.511 112.727ZM142.907 120V105.455H148.645C149.744 105.455 150.681 105.651 151.458 106.044C152.239 106.432 152.833 106.984 153.241 107.699C153.653 108.409 153.858 109.245 153.858 110.206C153.858 111.172 153.65 112.003 153.233 112.699C152.817 113.39 152.213 113.92 151.422 114.29C150.636 114.659 149.685 114.844 148.567 114.844H144.725V112.372H148.07C148.657 112.372 149.145 112.292 149.533 112.131C149.921 111.97 150.21 111.728 150.4 111.406C150.594 111.084 150.691 110.684 150.691 110.206C150.691 109.723 150.594 109.316 150.4 108.984C150.21 108.653 149.919 108.402 149.526 108.232C149.138 108.056 148.648 107.969 148.056 107.969H145.982V120H142.907ZM150.762 113.381L154.377 120H150.982L147.445 113.381H150.762ZM156.032 105.455H159.824L163.83 115.227H164.001L168.006 105.455H171.799V120H168.816V110.533H168.695L164.931 119.929H162.9L159.135 110.497H159.015V120H156.032V105.455ZM176.84 120H173.544L178.566 105.455H182.529L187.543 120H184.247L180.604 108.778H180.49L176.84 120ZM176.634 114.283H184.418V116.683H176.634V114.283ZM201.46 105.455V120H198.803L192.475 110.845H192.369V120H189.294V105.455H191.992L198.271 114.602H198.399V105.455H201.46ZM216.834 110.547H213.724C213.667 110.144 213.551 109.787 213.376 109.474C213.2 109.157 212.975 108.887 212.701 108.665C212.426 108.442 212.109 108.272 211.749 108.153C211.394 108.035 211.008 107.976 210.591 107.976C209.839 107.976 209.183 108.163 208.624 108.537C208.065 108.906 207.632 109.446 207.324 110.156C207.017 110.862 206.863 111.719 206.863 112.727C206.863 113.764 207.017 114.635 207.324 115.341C207.637 116.046 208.073 116.579 208.631 116.939C209.19 117.299 209.836 117.479 210.57 117.479C210.982 117.479 211.363 117.424 211.714 117.315C212.069 117.206 212.384 117.048 212.658 116.839C212.933 116.626 213.16 116.368 213.34 116.065C213.525 115.762 213.653 115.417 213.724 115.028L216.834 115.043C216.754 115.71 216.553 116.354 216.231 116.974C215.913 117.59 215.485 118.142 214.945 118.629C214.41 119.112 213.771 119.496 213.028 119.78C212.289 120.059 211.453 120.199 210.52 120.199C209.223 120.199 208.063 119.905 207.04 119.318C206.022 118.731 205.217 117.881 204.626 116.768C204.038 115.656 203.745 114.309 203.745 112.727C203.745 111.141 204.043 109.792 204.64 108.679C205.236 107.566 206.046 106.719 207.069 106.136C208.091 105.549 209.242 105.256 210.52 105.256C211.363 105.256 212.144 105.374 212.864 105.611C213.589 105.848 214.23 106.193 214.789 106.648C215.348 107.098 215.802 107.649 216.153 108.303C216.508 108.956 216.735 109.704 216.834 110.547ZM219.04 120V105.455H228.841V107.99H222.115V111.456H228.336V113.991H222.115V117.464H228.869V120H219.04Z" fill="white"/>
<path d="M140.228 320.951L130.89 326.147C133.051 330.029 136.224 333.263 140.045 335.519L145.151 326.171C145.151 326.171 145.169 326.153 145.173 326.149C143.118 324.866 141.412 323.082 140.23 320.954L140.228 320.951Z" fill="#00A797"/>
<path d="M158.984 338.21L155.978 327.971V327.943C154.939 328.182 153.862 328.316 152.751 328.316C150.269 328.316 147.929 327.683 145.889 326.567L140.768 335.945C144.322 337.889 148.413 339 152.751 339C154.906 339 156.996 338.729 158.99 338.21L158.984 338.21Z" fill="#00A797"/>
<path d="M164.911 321.596C164.911 321.596 164.9 321.585 164.889 321.578C163.051 324.517 160.178 326.75 156.777 327.74L159.789 337.989C165.928 336.19 171.082 332.095 174.272 326.706L164.911 321.596Z" fill="#00A797"/>
<path d="M176.955 307.761L166.717 310.767H166.688C166.927 311.807 167.062 312.883 167.062 313.994C167.062 316.483 166.428 318.816 165.312 320.856L174.69 325.978C176.641 322.417 177.745 318.332 177.745 313.995C177.745 311.84 177.474 309.75 176.955 307.756L176.955 307.761Z" fill="#00A797"/>
<path d="M165.039 292.228L159.783 301.533C162.988 303.345 165.427 306.362 166.482 309.966L176.732 306.954C174.887 300.661 170.632 295.394 165.037 292.225L165.039 292.228Z" fill="#00A797"/>
<path d="M129.907 305.585H134.491V311.485H129.907V305.585Z" fill="#00A797"/>
<path d="M137.307 296.045H141.89V311.483H137.307V296.045Z" fill="#00A797"/>
<path d="M144.707 299.684H149.29V311.478H144.707V299.684Z" fill="#00A797"/>
<path d="M152.107 289H156.691V311.479H152.107V289Z" fill="#00A797"/>
<path d="M128.017 314.245H158.579V316.778H128.017V314.245Z" fill="#00A797"/>
<defs>
<linearGradient id="paint0_linear_423_675" x1="89.6111" y1="26.3273" x2="-27.7934" y2="199.469" gradientUnits="userSpaceOnUse">
<stop offset="0.1811" stop-color="#00A797"/>
<stop offset="0.9483" stop-color="#0E8372"/>
</linearGradient>
<linearGradient id="paint1_linear_423_675" x1="30.6744" y1="202.122" x2="275.551" y2="202.122" gradientUnits="userSpaceOnUse">
<stop offset="0.1098" stop-color="#E1EAF3"/>
<stop offset="0.6095" stop-color="#F6F9FC"/>
<stop offset="0.9483" stop-color="white"/>
</linearGradient>
<linearGradient id="paint2_linear_423_675" x1="266.399" y1="35.8223" x2="51.891" y2="245.701" gradientUnits="userSpaceOnUse">
<stop offset="0.1811" stop-color="#00A797"/>
<stop offset="0.9483" stop-color="#0E8372"/>
</linearGradient>
<linearGradient id="paint3_linear_423_675" x1="39.4238" y1="259.613" x2="210.992" y2="168.94" gradientUnits="userSpaceOnUse">
<stop stop-color="#0E1F29"/>
<stop offset="1" stop-color="#0E8372"/>
</linearGradient>
<linearGradient id="paint4_linear_423_675" x1="-4.82645" y1="175.956" x2="165.79" y2="85.7859" gradientUnits="userSpaceOnUse">
<stop stop-color="#00A797"/>
<stop offset="1" stop-color="#0E1F29"/>
</linearGradient>
<linearGradient id="paint5_linear_423_675" x1="183.006" y1="286.533" x2="102.365" y2="358.874" gradientUnits="userSpaceOnUse">
<stop offset="0.1811" stop-color="#00A797"/>
<stop offset="0.9483" stop-color="#0E8372"/>
</linearGradient>
<linearGradient id="paint6_linear_423_675" x1="113.979" y1="314.148" x2="190.467" y2="314.148" gradientUnits="userSpaceOnUse">
<stop offset="0.1098" stop-color="#E1EAF3"/>
<stop offset="0.6095" stop-color="#F6F9FC"/>
<stop offset="0.9483" stop-color="white"/>
</linearGradient>
<linearGradient id="paint7_linear_423_675" x1="88.9893" y1="85.9827" x2="14.2391" y2="12.2358" gradientUnits="userSpaceOnUse">
<stop offset="0.1098" stop-color="#E1EAF3"/>
<stop offset="0.6095" stop-color="#F6F9FC"/>
<stop offset="0.9483" stop-color="white"/>
</linearGradient>
<linearGradient id="paint8_linear_423_675" x1="36.5325" y1="53.3803" x2="81.0231" y2="53.3803" gradientUnits="userSpaceOnUse">
<stop offset="0.1811" stop-color="#00A797"/>
<stop offset="0.9483" stop-color="#0E1F29"/>
</linearGradient>
<linearGradient id="paint9_linear_423_675" x1="36.5328" y1="53.3802" x2="81.0233" y2="53.3802" gradientUnits="userSpaceOnUse">
<stop offset="0.1811" stop-color="#00A797"/>
<stop offset="0.9483" stop-color="#0E8372"/>
</linearGradient>
</defs>
</svg>
