<svg width="345" height="378" viewBox="0 0 345 378" fill="none" xmlns="http://www.w3.org/2000/svg">
<path d="M128.668 128.961H22.8264V20.4507C22.8264 9.24393 32.0764 -0.00610352 43.2832 -0.00610352H149.125V108.504C149.125 119.711 139.875 128.961 128.668 128.961Z" fill="url(#paint0_linear_423_672)"/>
<path d="M130.091 13.6909L135.961 24.7198H127.779L130.091 13.6909Z" fill="#CAD4DD"/>
<path d="M273.644 378H63.2061C51.9993 378 42.7493 368.75 42.7493 357.543V45.1769C42.7493 33.9701 51.9993 24.7201 63.2061 24.7201H273.644C284.851 24.7201 294.101 33.9701 294.101 45.1769V357.365C294.101 368.75 284.851 378 273.644 378Z" fill="white"/>
<path opacity="0.7" d="M270.443 374.264H66.4082C55.2014 374.264 45.9514 365.014 45.9514 353.808V50.5133C45.9514 39.3065 55.2014 30.0565 66.4082 30.0565H270.443C281.649 30.0565 290.899 39.3065 290.899 50.5133V353.808C290.899 365.014 281.649 374.264 270.443 374.264Z" fill="url(#paint1_linear_423_672)"/>
<path d="M262.793 251.168H74.0569C65.8741 251.168 59.1145 244.408 59.1145 236.225V57.0951C59.1145 48.9123 65.8741 42.1527 74.0569 42.1527H262.793C270.976 42.1527 277.735 48.9123 277.735 57.0951V236.225C277.735 244.408 270.976 251.168 262.793 251.168Z" fill="url(#paint2_linear_423_672)"/>
<path opacity="0.3" d="M261.726 45.1767C261.192 45.1767 260.481 44.9988 259.769 44.9988H77.081C68.8983 44.9988 62.1387 51.7584 62.1387 59.9412V224.307C153.394 205.273 236.11 134.831 261.726 45.1767Z" fill="url(#paint3_linear_423_672)"/>
<path d="M167.625 359.5C192.677 359.5 212.985 339.191 212.985 314.139C212.985 289.087 192.677 268.778 167.625 268.778C142.573 268.778 122.264 289.087 122.264 314.139C122.264 339.191 142.573 359.5 167.625 359.5Z" fill="url(#paint4_linear_423_672)"/>
<path d="M207.471 314.139C207.471 336.197 189.683 353.985 167.625 353.985C145.567 353.985 127.779 336.197 127.779 314.139C127.779 292.081 145.567 274.293 167.625 274.293C189.505 274.293 207.471 292.081 207.471 314.139Z" fill="white"/>
<path opacity="0.7" d="M167.625 352.384C188.747 352.384 205.87 335.261 205.87 314.139C205.87 293.017 188.747 275.894 167.625 275.894C146.502 275.894 129.379 293.017 129.379 314.139C129.379 335.261 146.502 352.384 167.625 352.384Z" fill="url(#paint5_linear_423_672)"/>
<path d="M31.7205 112.062L42.7493 117.398V107.97L31.7205 112.062Z" fill="#CAD4DD"/>
<path d="M130.091 13.6909H56.8023C42.9272 13.6909 31.7205 24.8977 31.7205 38.7727V112.061C85.9754 112.061 130.091 67.9459 130.091 13.6909Z" fill="white"/>
<path opacity="0.7" d="M126.533 13.6909H55.9128C42.5715 13.6909 31.7205 24.5419 31.7205 37.8833V108.682C84.0187 108.504 126.533 65.9892 126.533 13.6909Z" fill="url(#paint6_linear_423_672)"/>
<path d="M72.1008 56.3834C72.1008 60.2969 71.2114 63.3209 69.4325 65.2777C67.6537 67.2344 65.1633 68.3017 62.1392 68.3017C58.9373 68.3017 56.6248 67.2344 54.668 65.2777C52.8892 63.3209 51.9998 60.2969 51.9998 56.3834V50.3353C51.9998 46.4218 52.8892 43.3978 54.668 41.441C56.4469 39.4843 58.9373 38.417 62.1392 38.417C65.1633 38.417 67.6537 39.4843 69.6104 41.441C71.3892 43.3978 72.2787 46.4218 72.2787 50.3353V56.3834H72.1008ZM65.3411 49.8017C65.3411 47.4892 64.9854 46.0661 64.4517 44.9987C63.9181 43.9314 63.0286 43.5757 61.9613 43.5757C60.894 43.5757 60.0046 44.1093 59.4709 44.9987C58.9373 45.8882 58.5815 47.4892 58.5815 49.8017V56.7392C58.5815 59.0517 58.9373 60.6526 59.4709 61.5421C60.0046 62.4315 60.894 62.9652 61.9613 62.9652C63.0286 62.9652 63.9181 62.4315 64.4517 61.5421C64.9854 60.6526 65.3411 58.8738 65.3411 56.7392V49.8017Z" fill="url(#paint7_linear_423_672)"/>
<path d="M89.8891 67.9461H83.1295V45.7104H76.7256V40.9076L89.8891 38.9508V67.9461Z" fill="url(#paint8_linear_423_672)"/>
<path d="M344.265 159.735L309.222 133.408V141.413H277.736V178.235H309.222V186.24L344.265 159.735Z" fill="url(#paint9_linear_423_672)"/>
<path d="M121.056 120H117.761L122.782 105.455H126.745L131.76 120H128.464L124.821 108.778H124.707L121.056 120ZM120.85 114.283H128.635V116.683H120.85V114.283ZM145.676 105.455V120H143.02L136.692 110.845H136.586V120H133.51V105.455H136.209L142.488 114.602H142.615V105.455H145.676ZM150.724 120H147.429L152.45 105.455H156.413L161.428 120H158.132L154.489 108.778H154.375L150.724 120ZM150.518 114.283H158.303V116.683H150.518V114.283ZM163.178 120V105.455H166.254V117.464H172.489V120H163.178ZM171.818 105.455H175.263L178.58 111.719H178.722L182.038 105.455H185.483L180.178 114.858V120H177.124V114.858L171.818 105.455ZM195.053 109.638C194.996 109.065 194.753 108.62 194.322 108.303C193.891 107.985 193.306 107.827 192.567 107.827C192.066 107.827 191.642 107.898 191.296 108.04C190.951 108.177 190.685 108.369 190.501 108.615C190.321 108.861 190.231 109.141 190.231 109.453C190.221 109.714 190.276 109.941 190.394 110.135C190.517 110.329 190.685 110.497 190.898 110.639C191.112 110.777 191.358 110.897 191.637 111.001C191.916 111.101 192.215 111.186 192.532 111.257L193.839 111.57C194.473 111.712 195.056 111.901 195.586 112.138C196.116 112.375 196.576 112.666 196.964 113.011C197.352 113.357 197.653 113.764 197.866 114.233C198.084 114.702 198.195 115.239 198.2 115.845C198.195 116.735 197.968 117.507 197.518 118.161C197.073 118.809 196.429 119.313 195.586 119.673C194.748 120.028 193.737 120.206 192.553 120.206C191.379 120.206 190.356 120.026 189.485 119.666C188.619 119.306 187.942 118.774 187.454 118.068C186.971 117.358 186.718 116.48 186.694 115.433H189.67C189.703 115.921 189.843 116.328 190.089 116.655C190.34 116.977 190.674 117.221 191.09 117.386C191.512 117.547 191.987 117.628 192.518 117.628C193.039 117.628 193.491 117.552 193.874 117.401C194.263 117.249 194.563 117.038 194.776 116.768C194.989 116.499 195.096 116.188 195.096 115.838C195.096 115.511 194.999 115.237 194.805 115.014C194.615 114.792 194.336 114.602 193.967 114.446C193.602 114.29 193.155 114.148 192.624 114.02L191.04 113.622C189.814 113.324 188.846 112.857 188.136 112.223C187.425 111.589 187.073 110.734 187.077 109.659C187.073 108.778 187.307 108.009 187.781 107.351C188.259 106.693 188.915 106.179 189.748 105.81C190.581 105.44 191.528 105.256 192.589 105.256C193.668 105.256 194.611 105.44 195.415 105.81C196.225 106.179 196.855 106.693 197.305 107.351C197.754 108.009 197.987 108.771 198.001 109.638H195.053ZM203.343 105.455V120H200.268V105.455H203.343ZM213.764 109.638C213.707 109.065 213.464 108.62 213.033 108.303C212.602 107.985 212.017 107.827 211.278 107.827C210.777 107.827 210.353 107.898 210.007 108.04C209.661 108.177 209.396 108.369 209.212 108.615C209.032 108.861 208.942 109.141 208.942 109.453C208.932 109.714 208.987 109.941 209.105 110.135C209.228 110.329 209.396 110.497 209.609 110.639C209.822 110.777 210.069 110.897 210.348 111.001C210.627 111.101 210.926 111.186 211.243 111.257L212.55 111.57C213.184 111.712 213.767 111.901 214.297 112.138C214.827 112.375 215.286 112.666 215.675 113.011C216.063 113.357 216.364 113.764 216.577 114.233C216.795 114.702 216.906 115.239 216.911 115.845C216.906 116.735 216.679 117.507 216.229 118.161C215.784 118.809 215.14 119.313 214.297 119.673C213.459 120.028 212.448 120.206 211.264 120.206C210.09 120.206 209.067 120.026 208.196 119.666C207.33 119.306 206.652 118.774 206.165 118.068C205.682 117.358 205.429 116.48 205.405 115.433H208.381C208.414 115.921 208.554 116.328 208.8 116.655C209.051 116.977 209.384 117.221 209.801 117.386C210.223 117.547 210.698 117.628 211.229 117.628C211.75 117.628 212.202 117.552 212.585 117.401C212.973 117.249 213.274 117.038 213.487 116.768C213.7 116.499 213.807 116.188 213.807 115.838C213.807 115.511 213.71 115.237 213.516 115.014C213.326 114.792 213.047 114.602 212.678 114.446C212.313 114.29 211.866 114.148 211.335 114.02L209.751 113.622C208.525 113.324 207.557 112.857 206.847 112.223C206.136 111.589 205.784 110.734 205.788 109.659C205.784 108.778 206.018 108.009 206.491 107.351C206.97 106.693 207.625 106.179 208.459 105.81C209.292 105.44 210.239 105.256 211.3 105.256C212.379 105.256 213.321 105.44 214.126 105.81C214.936 106.179 215.566 106.693 216.016 107.351C216.465 108.009 216.697 108.771 216.712 109.638H213.764Z" fill="white"/>
<path d="M78.1712 135H76.7621C76.6787 134.595 76.5329 134.239 76.3246 133.932C76.12 133.625 75.87 133.367 75.5746 133.159C75.2829 132.947 74.959 132.788 74.603 132.682C74.2469 132.576 73.8757 132.523 73.4893 132.523C72.7848 132.523 72.1465 132.701 71.5746 133.057C71.0064 133.413 70.5537 133.938 70.2166 134.631C69.8833 135.324 69.7166 136.174 69.7166 137.182C69.7166 138.189 69.8833 139.04 70.2166 139.733C70.5537 140.426 71.0064 140.951 71.5746 141.307C72.1465 141.663 72.7848 141.841 73.4893 141.841C73.8757 141.841 74.2469 141.788 74.603 141.682C74.959 141.576 75.2829 141.419 75.5746 141.21C75.87 140.998 76.12 140.739 76.3246 140.432C76.5329 140.121 76.6787 139.765 76.7621 139.364H78.1712C78.0651 139.958 77.8719 140.491 77.5916 140.96C77.3113 141.43 76.9628 141.83 76.5462 142.159C76.1295 142.485 75.6617 142.733 75.1428 142.903C74.6276 143.074 74.0765 143.159 73.4893 143.159C72.4969 143.159 71.6143 142.917 70.8416 142.432C70.0689 141.947 69.4609 141.258 69.0178 140.364C68.5746 139.47 68.353 138.409 68.353 137.182C68.353 135.955 68.5746 134.894 69.0178 134C69.4609 133.106 70.0689 132.417 70.8416 131.932C71.6143 131.447 72.4969 131.205 73.4893 131.205C74.0765 131.205 74.6276 131.29 75.1428 131.46C75.6617 131.631 76.1295 131.881 76.5462 132.21C76.9628 132.536 77.3113 132.934 77.5916 133.403C77.8719 133.869 78.0651 134.402 78.1712 135ZM83.8118 143.182C83.0239 143.182 82.3326 142.994 81.7379 142.619C81.147 142.244 80.6849 141.72 80.3516 141.045C80.022 140.371 79.8572 139.583 79.8572 138.682C79.8572 137.773 80.022 136.979 80.3516 136.301C80.6849 135.623 81.147 135.097 81.7379 134.722C82.3326 134.347 83.0239 134.159 83.8118 134.159C84.5997 134.159 85.2891 134.347 85.88 134.722C86.4747 135.097 86.9368 135.623 87.2663 136.301C87.5997 136.979 87.7663 137.773 87.7663 138.682C87.7663 139.583 87.5997 140.371 87.2663 141.045C86.9368 141.72 86.4747 142.244 85.88 142.619C85.2891 142.994 84.5997 143.182 83.8118 143.182ZM83.8118 141.977C84.4103 141.977 84.9027 141.824 85.2891 141.517C85.6754 141.21 85.9614 140.807 86.147 140.307C86.3326 139.807 86.4254 139.265 86.4254 138.682C86.4254 138.098 86.3326 137.555 86.147 137.051C85.9614 136.547 85.6754 136.14 85.2891 135.83C84.9027 135.519 84.4103 135.364 83.8118 135.364C83.2133 135.364 82.7209 135.519 82.3345 135.83C81.9482 136.14 81.6622 136.547 81.4766 137.051C81.291 137.555 81.1982 138.098 81.1982 138.682C81.1982 139.265 81.291 139.807 81.4766 140.307C81.6622 140.807 81.9482 141.21 82.3345 141.517C82.7209 141.824 83.2133 141.977 83.8118 141.977ZM91.1541 137.75V143H89.8132V134.273H91.1087V135.636H91.2223C91.4268 135.193 91.7375 134.837 92.1541 134.568C92.5708 134.295 93.1087 134.159 93.7678 134.159C94.3587 134.159 94.8757 134.28 95.3189 134.523C95.7621 134.761 96.1068 135.125 96.353 135.614C96.5992 136.098 96.7223 136.712 96.7223 137.455V143H95.3814V137.545C95.3814 136.86 95.2034 136.326 94.8473 135.943C94.4912 135.557 94.0026 135.364 93.3814 135.364C92.9534 135.364 92.5708 135.456 92.2337 135.642C91.9003 135.828 91.6371 136.098 91.4439 136.455C91.2507 136.811 91.1541 137.242 91.1541 137.75ZM102.468 143.182C101.741 143.182 101.099 142.998 100.542 142.631C99.9851 142.259 99.5495 141.737 99.2351 141.062C98.9207 140.384 98.7635 139.583 98.7635 138.659C98.7635 137.742 98.9207 136.947 99.2351 136.273C99.5495 135.598 99.987 135.078 100.548 134.71C101.108 134.343 101.756 134.159 102.491 134.159C103.059 134.159 103.508 134.254 103.837 134.443C104.171 134.629 104.424 134.841 104.599 135.08C104.777 135.314 104.915 135.508 105.013 135.659H105.127V131.364H106.468V143H105.173V141.659H105.013C104.915 141.818 104.775 142.019 104.593 142.261C104.411 142.5 104.152 142.714 103.815 142.903C103.478 143.089 103.029 143.182 102.468 143.182ZM102.65 141.977C103.188 141.977 103.642 141.837 104.013 141.557C104.385 141.273 104.667 140.881 104.86 140.381C105.053 139.877 105.15 139.295 105.15 138.636C105.15 137.985 105.055 137.415 104.866 136.926C104.676 136.434 104.396 136.051 104.025 135.778C103.654 135.502 103.195 135.364 102.65 135.364C102.082 135.364 101.608 135.509 101.229 135.801C100.854 136.089 100.572 136.481 100.383 136.977C100.197 137.47 100.104 138.023 100.104 138.636C100.104 139.258 100.199 139.822 100.388 140.33C100.582 140.833 100.866 141.235 101.241 141.534C101.62 141.83 102.089 141.977 102.65 141.977ZM114.61 139.432V134.273H115.951V143H114.61V141.523H114.519C114.315 141.966 113.996 142.343 113.565 142.653C113.133 142.96 112.587 143.114 111.928 143.114C111.383 143.114 110.898 142.994 110.474 142.756C110.049 142.513 109.716 142.15 109.474 141.665C109.231 141.176 109.11 140.561 109.11 139.818V134.273H110.451V139.727C110.451 140.364 110.629 140.871 110.985 141.25C111.345 141.629 111.803 141.818 112.36 141.818C112.693 141.818 113.032 141.733 113.377 141.562C113.726 141.392 114.017 141.131 114.252 140.778C114.491 140.426 114.61 139.977 114.61 139.432ZM121.952 143.182C121.134 143.182 120.43 142.989 119.839 142.602C119.248 142.216 118.793 141.684 118.475 141.006C118.157 140.328 117.998 139.553 117.998 138.682C117.998 137.795 118.161 137.013 118.487 136.335C118.816 135.653 119.274 135.121 119.862 134.739C120.452 134.352 121.142 134.159 121.93 134.159C122.543 134.159 123.096 134.273 123.589 134.5C124.081 134.727 124.485 135.045 124.799 135.455C125.113 135.864 125.308 136.341 125.384 136.886H124.043C123.941 136.489 123.714 136.136 123.362 135.83C123.013 135.519 122.543 135.364 121.952 135.364C121.43 135.364 120.971 135.5 120.577 135.773C120.187 136.042 119.882 136.422 119.663 136.915C119.447 137.403 119.339 137.977 119.339 138.636C119.339 139.311 119.445 139.898 119.657 140.398C119.873 140.898 120.176 141.286 120.566 141.562C120.96 141.839 121.422 141.977 121.952 141.977C122.301 141.977 122.617 141.917 122.901 141.795C123.185 141.674 123.426 141.5 123.623 141.273C123.82 141.045 123.96 140.773 124.043 140.455H125.384C125.308 140.97 125.121 141.434 124.822 141.847C124.526 142.256 124.134 142.581 123.646 142.824C123.161 143.062 122.596 143.182 121.952 143.182ZM131.14 134.273V135.409H126.617V134.273H131.14ZM127.935 132.182H129.276V140.5C129.276 140.879 129.331 141.163 129.441 141.352C129.555 141.538 129.699 141.663 129.873 141.727C130.051 141.788 130.238 141.818 130.435 141.818C130.583 141.818 130.704 141.811 130.799 141.795C130.894 141.777 130.969 141.761 131.026 141.75L131.299 142.955C131.208 142.989 131.081 143.023 130.918 143.057C130.755 143.095 130.549 143.114 130.299 143.114C129.92 143.114 129.549 143.032 129.185 142.869C128.826 142.706 128.526 142.458 128.288 142.125C128.053 141.792 127.935 141.371 127.935 140.864V132.182ZM137.202 132.614V131.364H145.93V132.614H142.271V143H140.862V132.614H137.202ZM149.263 137.75V143H147.923V131.364H149.263V135.636H149.377C149.582 135.186 149.888 134.828 150.298 134.562C150.71 134.294 151.26 134.159 151.945 134.159C152.54 134.159 153.061 134.278 153.508 134.517C153.955 134.752 154.301 135.114 154.548 135.602C154.798 136.087 154.923 136.705 154.923 137.455V143H153.582V137.545C153.582 136.852 153.402 136.316 153.042 135.938C152.686 135.555 152.192 135.364 151.559 135.364C151.12 135.364 150.726 135.456 150.377 135.642C150.032 135.828 149.76 136.098 149.559 136.455C149.362 136.811 149.263 137.242 149.263 137.75ZM160.921 143.182C160.133 143.182 159.442 142.994 158.847 142.619C158.256 142.244 157.794 141.72 157.461 141.045C157.131 140.371 156.967 139.583 156.967 138.682C156.967 137.773 157.131 136.979 157.461 136.301C157.794 135.623 158.256 135.097 158.847 134.722C159.442 134.347 160.133 134.159 160.921 134.159C161.709 134.159 162.398 134.347 162.989 134.722C163.584 135.097 164.046 135.623 164.376 136.301C164.709 136.979 164.876 137.773 164.876 138.682C164.876 139.583 164.709 140.371 164.376 141.045C164.046 141.72 163.584 142.244 162.989 142.619C162.398 142.994 161.709 143.182 160.921 143.182ZM160.921 141.977C161.52 141.977 162.012 141.824 162.398 141.517C162.785 141.21 163.071 140.807 163.256 140.307C163.442 139.807 163.535 139.265 163.535 138.682C163.535 138.098 163.442 137.555 163.256 137.051C163.071 136.547 162.785 136.14 162.398 135.83C162.012 135.519 161.52 135.364 160.921 135.364C160.323 135.364 159.83 135.519 159.444 135.83C159.058 136.14 158.772 136.547 158.586 137.051C158.4 137.555 158.308 138.098 158.308 138.682C158.308 139.265 158.4 139.807 158.586 140.307C158.772 140.807 159.058 141.21 159.444 141.517C159.83 141.824 160.323 141.977 160.921 141.977ZM166.923 143V134.273H168.218V135.591H168.309C168.468 135.159 168.756 134.809 169.173 134.54C169.589 134.271 170.059 134.136 170.582 134.136C170.68 134.136 170.803 134.138 170.951 134.142C171.099 134.146 171.21 134.152 171.286 134.159V135.523C171.241 135.511 171.137 135.494 170.974 135.472C170.815 135.445 170.646 135.432 170.468 135.432C170.044 135.432 169.665 135.521 169.332 135.699C169.002 135.873 168.741 136.116 168.548 136.426C168.358 136.733 168.263 137.083 168.263 137.477V143H166.923ZM176.156 143.182C175.368 143.182 174.676 142.994 174.082 142.619C173.491 142.244 173.029 141.72 172.695 141.045C172.366 140.371 172.201 139.583 172.201 138.682C172.201 137.773 172.366 136.979 172.695 136.301C173.029 135.623 173.491 135.097 174.082 134.722C174.676 134.347 175.368 134.159 176.156 134.159C176.943 134.159 177.633 134.347 178.224 134.722C178.818 135.097 179.281 135.623 179.61 136.301C179.943 136.979 180.11 137.773 180.11 138.682C180.11 139.583 179.943 140.371 179.61 141.045C179.281 141.72 178.818 142.244 178.224 142.619C177.633 142.994 176.943 143.182 176.156 143.182ZM176.156 141.977C176.754 141.977 177.246 141.824 177.633 141.517C178.019 141.21 178.305 140.807 178.491 140.307C178.676 139.807 178.769 139.265 178.769 138.682C178.769 138.098 178.676 137.555 178.491 137.051C178.305 136.547 178.019 136.14 177.633 135.83C177.246 135.519 176.754 135.364 176.156 135.364C175.557 135.364 175.065 135.519 174.678 135.83C174.292 136.14 174.006 136.547 173.82 137.051C173.635 137.555 173.542 138.098 173.542 138.682C173.542 139.265 173.635 139.807 173.82 140.307C174.006 140.807 174.292 141.21 174.678 141.517C175.065 141.824 175.557 141.977 176.156 141.977ZM187.657 139.432V134.273H188.998V143H187.657V141.523H187.566C187.362 141.966 187.043 142.343 186.612 142.653C186.18 142.96 185.634 143.114 184.975 143.114C184.43 143.114 183.945 142.994 183.521 142.756C183.096 142.513 182.763 142.15 182.521 141.665C182.278 141.176 182.157 140.561 182.157 139.818V134.273H183.498V139.727C183.498 140.364 183.676 140.871 184.032 141.25C184.392 141.629 184.85 141.818 185.407 141.818C185.74 141.818 186.079 141.733 186.424 141.562C186.772 141.392 187.064 141.131 187.299 140.778C187.538 140.426 187.657 139.977 187.657 139.432ZM194.977 146.455C194.329 146.455 193.772 146.371 193.306 146.205C192.84 146.042 192.452 145.826 192.141 145.557C191.835 145.292 191.59 145.008 191.408 144.705L192.477 143.955C192.598 144.114 192.751 144.295 192.937 144.5C193.122 144.708 193.376 144.888 193.698 145.04C194.024 145.195 194.45 145.273 194.977 145.273C195.681 145.273 196.263 145.102 196.721 144.761C197.179 144.42 197.408 143.886 197.408 143.159V141.386H197.295C197.196 141.545 197.056 141.742 196.874 141.977C196.696 142.208 196.439 142.415 196.102 142.597C195.768 142.775 195.317 142.864 194.749 142.864C194.045 142.864 193.412 142.697 192.852 142.364C192.295 142.03 191.853 141.545 191.528 140.909C191.206 140.273 191.045 139.5 191.045 138.591C191.045 137.697 191.202 136.919 191.516 136.256C191.831 135.589 192.268 135.074 192.829 134.71C193.389 134.343 194.037 134.159 194.772 134.159C195.34 134.159 195.791 134.254 196.124 134.443C196.461 134.629 196.719 134.841 196.897 135.08C197.079 135.314 197.219 135.508 197.317 135.659H197.454V134.273H198.749V143.25C198.749 144 198.579 144.61 198.238 145.08C197.901 145.553 197.446 145.9 196.874 146.119C196.306 146.343 195.674 146.455 194.977 146.455ZM194.931 141.659C195.469 141.659 195.924 141.536 196.295 141.29C196.666 141.044 196.948 140.689 197.141 140.227C197.335 139.765 197.431 139.212 197.431 138.568C197.431 137.939 197.336 137.384 197.147 136.903C196.958 136.422 196.677 136.045 196.306 135.773C195.935 135.5 195.477 135.364 194.931 135.364C194.363 135.364 193.889 135.508 193.511 135.795C193.136 136.083 192.853 136.47 192.664 136.955C192.478 137.439 192.386 137.977 192.386 138.568C192.386 139.174 192.48 139.71 192.67 140.176C192.863 140.638 193.147 141.002 193.522 141.267C193.901 141.528 194.371 141.659 194.931 141.659ZM202.545 137.75V143H201.204V131.364H202.545V135.636H202.658C202.863 135.186 203.17 134.828 203.579 134.562C203.992 134.294 204.541 134.159 205.227 134.159C205.821 134.159 206.342 134.278 206.789 134.517C207.236 134.752 207.583 135.114 207.829 135.602C208.079 136.087 208.204 136.705 208.204 137.455V143H206.863V137.545C206.863 136.852 206.683 136.316 206.323 135.938C205.967 135.555 205.473 135.364 204.84 135.364C204.401 135.364 204.007 135.456 203.658 135.642C203.314 135.828 203.041 136.098 202.84 136.455C202.643 136.811 202.545 137.242 202.545 137.75ZM215.339 131.364H217.021L220.975 141.023H221.112L225.066 131.364H226.748V143H225.43V134.159H225.316L221.68 143H220.407L216.771 134.159H216.657V143H215.339V131.364ZM231.96 143.205C231.406 143.205 230.905 143.1 230.454 142.892C230.003 142.68 229.645 142.375 229.38 141.977C229.115 141.576 228.982 141.091 228.982 140.523C228.982 140.023 229.081 139.617 229.278 139.307C229.475 138.992 229.738 138.746 230.067 138.568C230.397 138.39 230.761 138.258 231.158 138.17C231.56 138.08 231.963 138.008 232.369 137.955C232.899 137.886 233.329 137.835 233.658 137.801C233.992 137.763 234.234 137.701 234.386 137.614C234.541 137.527 234.619 137.375 234.619 137.159V137.114C234.619 136.553 234.465 136.117 234.158 135.807C233.855 135.496 233.395 135.341 232.778 135.341C232.138 135.341 231.636 135.481 231.272 135.761C230.908 136.042 230.653 136.341 230.505 136.659L229.232 136.205C229.46 135.674 229.763 135.261 230.141 134.966C230.524 134.667 230.941 134.458 231.391 134.341C231.846 134.22 232.293 134.159 232.732 134.159C233.013 134.159 233.335 134.193 233.698 134.261C234.066 134.326 234.42 134.46 234.761 134.665C235.105 134.869 235.391 135.178 235.619 135.591C235.846 136.004 235.96 136.557 235.96 137.25V143H234.619V141.818H234.55C234.46 142.008 234.308 142.21 234.096 142.426C233.884 142.642 233.602 142.826 233.249 142.977C232.897 143.129 232.467 143.205 231.96 143.205ZM232.164 142C232.694 142 233.141 141.896 233.505 141.688C233.872 141.479 234.149 141.21 234.335 140.881C234.524 140.551 234.619 140.205 234.619 139.841V138.614C234.562 138.682 234.437 138.744 234.244 138.801C234.054 138.854 233.835 138.902 233.585 138.943C233.338 138.981 233.098 139.015 232.863 139.045C232.632 139.072 232.444 139.095 232.3 139.114C231.952 139.159 231.626 139.233 231.323 139.335C231.024 139.434 230.781 139.583 230.596 139.784C230.414 139.981 230.323 140.25 230.323 140.591C230.323 141.057 230.496 141.409 230.84 141.648C231.189 141.883 231.63 142 232.164 142ZM238.407 143V134.273H239.702V135.591H239.793C239.952 135.159 240.24 134.809 240.657 134.54C241.074 134.271 241.543 134.136 242.066 134.136C242.165 134.136 242.288 134.138 242.435 134.142C242.583 134.146 242.695 134.152 242.771 134.159V135.523C242.725 135.511 242.621 135.494 242.458 135.472C242.299 135.445 242.13 135.432 241.952 135.432C241.528 135.432 241.149 135.521 240.816 135.699C240.487 135.873 240.225 136.116 240.032 136.426C239.843 136.733 239.748 137.083 239.748 137.477V143H238.407ZM245.61 139.818L245.587 138.159H245.86L249.678 134.273H251.337L247.269 138.386H247.156L245.61 139.818ZM244.36 143V131.364H245.701V143H244.36ZM249.906 143L246.496 138.682L247.451 137.75L251.61 143H249.906ZM256.363 143.182C255.522 143.182 254.797 142.996 254.187 142.625C253.581 142.25 253.113 141.727 252.783 141.057C252.458 140.383 252.295 139.598 252.295 138.705C252.295 137.811 252.458 137.023 252.783 136.341C253.113 135.655 253.571 135.121 254.158 134.739C254.749 134.352 255.439 134.159 256.227 134.159C256.681 134.159 257.13 134.235 257.573 134.386C258.016 134.538 258.42 134.784 258.783 135.125C259.147 135.462 259.437 135.909 259.653 136.466C259.869 137.023 259.977 137.708 259.977 138.523V139.091H253.249V137.932H258.613C258.613 137.439 258.514 137 258.317 136.614C258.124 136.227 257.848 135.922 257.488 135.699C257.132 135.475 256.711 135.364 256.227 135.364C255.692 135.364 255.23 135.496 254.84 135.761C254.454 136.023 254.156 136.364 253.948 136.784C253.74 137.205 253.636 137.655 253.636 138.136V138.909C253.636 139.568 253.749 140.127 253.977 140.585C254.208 141.04 254.528 141.386 254.937 141.625C255.346 141.86 255.821 141.977 256.363 141.977C256.715 141.977 257.033 141.928 257.317 141.83C257.605 141.727 257.853 141.576 258.062 141.375C258.27 141.17 258.431 140.917 258.545 140.614L259.84 140.977C259.704 141.417 259.475 141.803 259.153 142.136C258.831 142.466 258.433 142.723 257.96 142.909C257.486 143.091 256.954 143.182 256.363 143.182ZM265.812 134.273V135.409H261.289V134.273H265.812ZM262.607 132.182H263.948V140.5C263.948 140.879 264.003 141.163 264.113 141.352C264.227 141.538 264.371 141.663 264.545 141.727C264.723 141.788 264.91 141.818 265.107 141.818C265.255 141.818 265.376 141.811 265.471 141.795C265.566 141.777 265.641 141.761 265.698 141.75L265.971 142.955C265.88 142.989 265.753 143.023 265.59 143.057C265.427 143.095 265.221 143.114 264.971 143.114C264.592 143.114 264.221 143.032 263.857 142.869C263.497 142.706 263.198 142.458 262.96 142.125C262.725 141.792 262.607 141.371 262.607 140.864V132.182ZM76.9176 162H75.4403L79.7131 150.364H81.1676L85.4403 162H83.9631L80.4858 152.205H80.3949L76.9176 162ZM77.4631 157.455H83.4176V158.705H77.4631V157.455ZM88.4119 156.75V162H87.071V153.273H88.3665V154.636H88.4801C88.6847 154.193 88.9953 153.837 89.4119 153.568C89.8286 153.295 90.3665 153.159 91.0256 153.159C91.6165 153.159 92.1335 153.28 92.5767 153.523C93.0199 153.761 93.3646 154.125 93.6108 154.614C93.857 155.098 93.9801 155.712 93.9801 156.455V162H92.6392V156.545C92.6392 155.86 92.4612 155.326 92.1051 154.943C91.7491 154.557 91.2604 154.364 90.6392 154.364C90.2112 154.364 89.8286 154.456 89.4915 154.642C89.1581 154.828 88.8949 155.098 88.7017 155.455C88.5085 155.811 88.4119 156.242 88.4119 156.75ZM99.7259 162.182C98.9986 162.182 98.3565 161.998 97.7997 161.631C97.2429 161.259 96.8073 160.737 96.4929 160.062C96.1785 159.384 96.0213 158.583 96.0213 157.659C96.0213 156.742 96.1785 155.947 96.4929 155.273C96.8073 154.598 97.2448 154.078 97.8054 153.71C98.366 153.343 99.0137 153.159 99.7486 153.159C100.317 153.159 100.766 153.254 101.095 153.443C101.429 153.629 101.682 153.841 101.857 154.08C102.035 154.314 102.173 154.508 102.271 154.659H102.385V150.364H103.726V162H102.43V160.659H102.271C102.173 160.818 102.033 161.019 101.851 161.261C101.669 161.5 101.41 161.714 101.072 161.903C100.735 162.089 100.286 162.182 99.7259 162.182ZM99.9077 160.977C100.446 160.977 100.9 160.837 101.271 160.557C101.643 160.273 101.925 159.881 102.118 159.381C102.311 158.877 102.408 158.295 102.408 157.636C102.408 156.985 102.313 156.415 102.124 155.926C101.934 155.434 101.654 155.051 101.283 154.778C100.911 154.502 100.453 154.364 99.9077 154.364C99.3395 154.364 98.866 154.509 98.4872 154.801C98.1122 155.089 97.83 155.481 97.6406 155.977C97.455 156.47 97.3622 157.023 97.3622 157.636C97.3622 158.258 97.4569 158.822 97.6463 159.33C97.8395 159.833 98.1236 160.235 98.4986 160.534C98.8774 160.83 99.3471 160.977 99.9077 160.977ZM111.05 162V150.364H114.982C115.894 150.364 116.641 150.528 117.22 150.858C117.804 151.184 118.235 151.625 118.516 152.182C118.796 152.739 118.936 153.36 118.936 154.045C118.936 154.731 118.796 155.354 118.516 155.915C118.239 156.475 117.811 156.922 117.232 157.256C116.652 157.585 115.91 157.75 115.004 157.75H112.186V156.5H114.959C115.584 156.5 116.086 156.392 116.464 156.176C116.843 155.96 117.118 155.669 117.288 155.301C117.463 154.93 117.55 154.511 117.55 154.045C117.55 153.58 117.463 153.163 117.288 152.795C117.118 152.428 116.841 152.14 116.459 151.932C116.076 151.72 115.569 151.614 114.936 151.614H112.459V162H111.05ZM121.024 162V153.273H122.32V154.591H122.411C122.57 154.159 122.857 153.809 123.274 153.54C123.691 153.271 124.161 153.136 124.683 153.136C124.782 153.136 124.905 153.138 125.053 153.142C125.2 153.146 125.312 153.152 125.388 153.159V154.523C125.342 154.511 125.238 154.494 125.075 154.472C124.916 154.445 124.748 154.432 124.57 154.432C124.145 154.432 123.767 154.521 123.433 154.699C123.104 154.873 122.842 155.116 122.649 155.426C122.46 155.733 122.365 156.083 122.365 156.477V162H121.024ZM130.257 162.182C129.469 162.182 128.778 161.994 128.183 161.619C127.592 161.244 127.13 160.72 126.797 160.045C126.467 159.371 126.303 158.583 126.303 157.682C126.303 156.773 126.467 155.979 126.797 155.301C127.13 154.623 127.592 154.097 128.183 153.722C128.778 153.347 129.469 153.159 130.257 153.159C131.045 153.159 131.734 153.347 132.325 153.722C132.92 154.097 133.382 154.623 133.712 155.301C134.045 155.979 134.212 156.773 134.212 157.682C134.212 158.583 134.045 159.371 133.712 160.045C133.382 160.72 132.92 161.244 132.325 161.619C131.734 161.994 131.045 162.182 130.257 162.182ZM130.257 160.977C130.856 160.977 131.348 160.824 131.734 160.517C132.121 160.21 132.407 159.807 132.592 159.307C132.778 158.807 132.871 158.265 132.871 157.682C132.871 157.098 132.778 156.555 132.592 156.051C132.407 155.547 132.121 155.14 131.734 154.83C131.348 154.519 130.856 154.364 130.257 154.364C129.659 154.364 129.166 154.519 128.78 154.83C128.393 155.14 128.107 155.547 127.922 156.051C127.736 156.555 127.643 157.098 127.643 157.682C127.643 158.265 127.736 158.807 127.922 159.307C128.107 159.807 128.393 160.21 128.78 160.517C129.166 160.824 129.659 160.977 130.257 160.977ZM139.554 162.182C138.827 162.182 138.185 161.998 137.628 161.631C137.071 161.259 136.635 160.737 136.321 160.062C136.007 159.384 135.849 158.583 135.849 157.659C135.849 156.742 136.007 155.947 136.321 155.273C136.635 154.598 137.073 154.078 137.634 153.71C138.194 153.343 138.842 153.159 139.577 153.159C140.145 153.159 140.594 153.254 140.923 153.443C141.257 153.629 141.51 153.841 141.685 154.08C141.863 154.314 142.001 154.508 142.099 154.659H142.213V150.364H143.554V162H142.259V160.659H142.099C142.001 160.818 141.861 161.019 141.679 161.261C141.497 161.5 141.238 161.714 140.901 161.903C140.563 162.089 140.115 162.182 139.554 162.182ZM139.736 160.977C140.274 160.977 140.728 160.837 141.099 160.557C141.471 160.273 141.753 159.881 141.946 159.381C142.139 158.877 142.236 158.295 142.236 157.636C142.236 156.985 142.141 156.415 141.952 155.926C141.762 155.434 141.482 155.051 141.111 154.778C140.74 154.502 140.281 154.364 139.736 154.364C139.168 154.364 138.694 154.509 138.315 154.801C137.94 155.089 137.658 155.481 137.469 155.977C137.283 156.47 137.19 157.023 137.19 157.636C137.19 158.258 137.285 158.822 137.474 159.33C137.668 159.833 137.952 160.235 138.327 160.534C138.705 160.83 139.175 160.977 139.736 160.977ZM151.696 158.432V153.273H153.037V162H151.696V160.523H151.605C151.401 160.966 151.082 161.343 150.651 161.653C150.219 161.96 149.673 162.114 149.014 162.114C148.469 162.114 147.984 161.994 147.56 161.756C147.135 161.513 146.802 161.15 146.56 160.665C146.317 160.176 146.196 159.561 146.196 158.818V153.273H147.537V158.727C147.537 159.364 147.715 159.871 148.071 160.25C148.431 160.629 148.889 160.818 149.446 160.818C149.779 160.818 150.118 160.733 150.463 160.562C150.812 160.392 151.103 160.131 151.338 159.778C151.577 159.426 151.696 158.977 151.696 158.432ZM159.038 162.182C158.22 162.182 157.516 161.989 156.925 161.602C156.334 161.216 155.879 160.684 155.561 160.006C155.243 159.328 155.084 158.553 155.084 157.682C155.084 156.795 155.247 156.013 155.572 155.335C155.902 154.653 156.36 154.121 156.947 153.739C157.538 153.352 158.228 153.159 159.016 153.159C159.629 153.159 160.182 153.273 160.675 153.5C161.167 153.727 161.571 154.045 161.885 154.455C162.199 154.864 162.394 155.341 162.47 155.886H161.129C161.027 155.489 160.8 155.136 160.447 154.83C160.099 154.519 159.629 154.364 159.038 154.364C158.516 154.364 158.057 154.5 157.663 154.773C157.273 155.042 156.968 155.422 156.749 155.915C156.533 156.403 156.425 156.977 156.425 157.636C156.425 158.311 156.531 158.898 156.743 159.398C156.959 159.898 157.262 160.286 157.652 160.562C158.046 160.839 158.508 160.977 159.038 160.977C159.387 160.977 159.703 160.917 159.987 160.795C160.271 160.674 160.512 160.5 160.709 160.273C160.906 160.045 161.046 159.773 161.129 159.455H162.47C162.394 159.97 162.207 160.434 161.908 160.847C161.612 161.256 161.22 161.581 160.732 161.824C160.247 162.062 159.682 162.182 159.038 162.182ZM168.226 153.273V154.409H163.703V153.273H168.226ZM165.021 151.182H166.362V159.5C166.362 159.879 166.417 160.163 166.527 160.352C166.641 160.538 166.785 160.663 166.959 160.727C167.137 160.788 167.324 160.818 167.521 160.818C167.669 160.818 167.79 160.811 167.885 160.795C167.98 160.777 168.055 160.761 168.112 160.75L168.385 161.955C168.294 161.989 168.167 162.023 168.004 162.057C167.841 162.095 167.635 162.114 167.385 162.114C167.006 162.114 166.635 162.032 166.271 161.869C165.911 161.706 165.612 161.458 165.374 161.125C165.139 160.792 165.021 160.371 165.021 159.864V151.182ZM175.402 162H173.925L178.197 150.364H179.652L183.925 162H182.447L178.97 152.205H178.879L175.402 162ZM175.947 157.455H181.902V158.705H175.947V157.455ZM186.896 156.75V162H185.555V153.273H186.851V154.636H186.964C187.169 154.193 187.48 153.837 187.896 153.568C188.313 153.295 188.851 153.159 189.51 153.159C190.101 153.159 190.618 153.28 191.061 153.523C191.504 153.761 191.849 154.125 192.095 154.614C192.341 155.098 192.464 155.712 192.464 156.455V162H191.124V156.545C191.124 155.86 190.946 155.326 190.589 154.943C190.233 154.557 189.745 154.364 189.124 154.364C188.696 154.364 188.313 154.456 187.976 154.642C187.643 154.828 187.379 155.098 187.186 155.455C186.993 155.811 186.896 156.242 186.896 156.75ZM197.483 162.205C196.93 162.205 196.428 162.1 195.977 161.892C195.527 161.68 195.169 161.375 194.903 160.977C194.638 160.576 194.506 160.091 194.506 159.523C194.506 159.023 194.604 158.617 194.801 158.307C194.998 157.992 195.261 157.746 195.591 157.568C195.92 157.39 196.284 157.258 196.682 157.17C197.083 157.08 197.487 157.008 197.892 156.955C198.422 156.886 198.852 156.835 199.182 156.801C199.515 156.763 199.758 156.701 199.909 156.614C200.064 156.527 200.142 156.375 200.142 156.159V156.114C200.142 155.553 199.989 155.117 199.682 154.807C199.379 154.496 198.919 154.341 198.301 154.341C197.661 154.341 197.159 154.481 196.795 154.761C196.432 155.042 196.176 155.341 196.028 155.659L194.756 155.205C194.983 154.674 195.286 154.261 195.665 153.966C196.047 153.667 196.464 153.458 196.915 153.341C197.369 153.22 197.816 153.159 198.256 153.159C198.536 153.159 198.858 153.193 199.222 153.261C199.589 153.326 199.943 153.46 200.284 153.665C200.629 153.869 200.915 154.178 201.142 154.591C201.369 155.004 201.483 155.557 201.483 156.25V162H200.142V160.818H200.074C199.983 161.008 199.831 161.21 199.619 161.426C199.407 161.642 199.125 161.826 198.773 161.977C198.42 162.129 197.991 162.205 197.483 162.205ZM197.688 161C198.218 161 198.665 160.896 199.028 160.688C199.396 160.479 199.672 160.21 199.858 159.881C200.047 159.551 200.142 159.205 200.142 158.841V157.614C200.085 157.682 199.96 157.744 199.767 157.801C199.578 157.854 199.358 157.902 199.108 157.943C198.862 157.981 198.621 158.015 198.386 158.045C198.155 158.072 197.968 158.095 197.824 158.114C197.475 158.159 197.15 158.233 196.847 158.335C196.547 158.434 196.305 158.583 196.119 158.784C195.938 158.981 195.847 159.25 195.847 159.591C195.847 160.057 196.019 160.409 196.364 160.648C196.712 160.883 197.153 161 197.688 161ZM205.271 150.364V162H203.93V150.364H205.271ZM208.591 165.273C208.364 165.273 208.161 165.254 207.983 165.216C207.805 165.182 207.682 165.148 207.614 165.114L207.955 163.932C208.28 164.015 208.568 164.045 208.818 164.023C209.068 164 209.29 163.888 209.483 163.688C209.68 163.491 209.86 163.17 210.023 162.727L210.273 162.045L207.045 153.273H208.5L210.909 160.227H211L213.409 153.273H214.864L211.159 163.273C210.992 163.723 210.786 164.097 210.54 164.392C210.294 164.691 210.008 164.913 209.682 165.057C209.36 165.201 208.996 165.273 208.591 165.273ZM222.815 155.227L221.611 155.568C221.535 155.367 221.423 155.172 221.276 154.983C221.132 154.79 220.935 154.631 220.685 154.506C220.435 154.381 220.115 154.318 219.724 154.318C219.19 154.318 218.745 154.441 218.389 154.688C218.037 154.93 217.861 155.239 217.861 155.614C217.861 155.947 217.982 156.21 218.224 156.403C218.467 156.597 218.846 156.758 219.361 156.886L220.656 157.205C221.437 157.394 222.018 157.684 222.401 158.074C222.783 158.46 222.974 158.958 222.974 159.568C222.974 160.068 222.83 160.515 222.543 160.909C222.259 161.303 221.861 161.614 221.349 161.841C220.838 162.068 220.243 162.182 219.565 162.182C218.675 162.182 217.938 161.989 217.355 161.602C216.772 161.216 216.402 160.652 216.247 159.909L217.52 159.591C217.641 160.061 217.87 160.413 218.207 160.648C218.548 160.883 218.993 161 219.543 161C220.168 161 220.664 160.867 221.031 160.602C221.402 160.333 221.588 160.011 221.588 159.636C221.588 159.333 221.482 159.08 221.27 158.875C221.058 158.667 220.732 158.511 220.293 158.409L218.838 158.068C218.039 157.879 217.452 157.585 217.077 157.188C216.705 156.786 216.52 156.284 216.52 155.682C216.52 155.189 216.658 154.754 216.935 154.375C217.215 153.996 217.596 153.699 218.077 153.483C218.562 153.267 219.111 153.159 219.724 153.159C220.588 153.159 221.266 153.348 221.759 153.727C222.255 154.106 222.607 154.606 222.815 155.227ZM224.993 162V153.273H226.334V162H224.993ZM225.675 151.818C225.413 151.818 225.188 151.729 224.999 151.551C224.813 151.373 224.72 151.159 224.72 150.909C224.72 150.659 224.813 150.445 224.999 150.267C225.188 150.089 225.413 150 225.675 150C225.936 150 226.16 150.089 226.345 150.267C226.535 150.445 226.629 150.659 226.629 150.909C226.629 151.159 226.535 151.373 226.345 151.551C226.16 151.729 225.936 151.818 225.675 151.818ZM234.972 155.227L233.767 155.568C233.691 155.367 233.58 155.172 233.432 154.983C233.288 154.79 233.091 154.631 232.841 154.506C232.591 154.381 232.271 154.318 231.881 154.318C231.347 154.318 230.902 154.441 230.545 154.688C230.193 154.93 230.017 155.239 230.017 155.614C230.017 155.947 230.138 156.21 230.381 156.403C230.623 156.597 231.002 156.758 231.517 156.886L232.812 157.205C233.593 157.394 234.174 157.684 234.557 158.074C234.939 158.46 235.131 158.958 235.131 159.568C235.131 160.068 234.987 160.515 234.699 160.909C234.415 161.303 234.017 161.614 233.506 161.841C232.994 162.068 232.4 162.182 231.722 162.182C230.831 162.182 230.095 161.989 229.511 161.602C228.928 161.216 228.559 160.652 228.403 159.909L229.676 159.591C229.797 160.061 230.027 160.413 230.364 160.648C230.705 160.883 231.15 161 231.699 161C232.324 161 232.82 160.867 233.188 160.602C233.559 160.333 233.744 160.011 233.744 159.636C233.744 159.333 233.638 159.08 233.426 158.875C233.214 158.667 232.888 158.511 232.449 158.409L230.994 158.068C230.195 157.879 229.608 157.585 229.233 157.188C228.862 156.786 228.676 156.284 228.676 155.682C228.676 155.189 228.814 154.754 229.091 154.375C229.371 153.996 229.752 153.699 230.233 153.483C230.718 153.267 231.267 153.159 231.881 153.159C232.744 153.159 233.422 153.348 233.915 153.727C234.411 154.106 234.763 154.606 234.972 155.227ZM241.195 151.614V150.364H249.922V151.614H246.263V162H244.854V151.614H241.195ZM254.195 162.182C253.407 162.182 252.715 161.994 252.121 161.619C251.53 161.244 251.068 160.72 250.734 160.045C250.405 159.371 250.24 158.583 250.24 157.682C250.24 156.773 250.405 155.979 250.734 155.301C251.068 154.623 251.53 154.097 252.121 153.722C252.715 153.347 253.407 153.159 254.195 153.159C254.982 153.159 255.672 153.347 256.263 153.722C256.857 154.097 257.32 154.623 257.649 155.301C257.982 155.979 258.149 156.773 258.149 157.682C258.149 158.583 257.982 159.371 257.649 160.045C257.32 160.72 256.857 161.244 256.263 161.619C255.672 161.994 254.982 162.182 254.195 162.182ZM254.195 160.977C254.793 160.977 255.286 160.824 255.672 160.517C256.058 160.21 256.344 159.807 256.53 159.307C256.715 158.807 256.808 158.265 256.808 157.682C256.808 157.098 256.715 156.555 256.53 156.051C256.344 155.547 256.058 155.14 255.672 154.83C255.286 154.519 254.793 154.364 254.195 154.364C253.596 154.364 253.104 154.519 252.717 154.83C252.331 155.14 252.045 155.547 251.859 156.051C251.674 156.555 251.581 157.098 251.581 157.682C251.581 158.265 251.674 158.807 251.859 159.307C252.045 159.807 252.331 160.21 252.717 160.517C253.104 160.824 253.596 160.977 254.195 160.977ZM101.092 169.364H102.501V177.068C102.501 177.864 102.314 178.574 101.939 179.199C101.568 179.82 101.043 180.311 100.365 180.67C99.687 181.027 98.8916 181.205 97.9787 181.205C97.0658 181.205 96.2704 181.027 95.5923 180.67C94.9143 180.311 94.3878 179.82 94.0128 179.199C93.6416 178.574 93.456 177.864 93.456 177.068V169.364H94.8651V176.955C94.8651 177.523 94.9901 178.028 95.2401 178.472C95.4901 178.911 95.8461 179.258 96.3082 179.511C96.7741 179.761 97.331 179.886 97.9787 179.886C98.6264 179.886 99.1832 179.761 99.6491 179.511C100.115 179.258 100.471 178.911 100.717 178.472C100.967 178.028 101.092 177.523 101.092 176.955V169.364ZM106.474 175.75V181H105.134V172.273H106.429V173.636H106.543C106.747 173.193 107.058 172.837 107.474 172.568C107.891 172.295 108.429 172.159 109.088 172.159C109.679 172.159 110.196 172.28 110.639 172.523C111.082 172.761 111.427 173.125 111.673 173.614C111.92 174.098 112.043 174.712 112.043 175.455V181H110.702V175.545C110.702 174.86 110.524 174.326 110.168 173.943C109.812 173.557 109.323 173.364 108.702 173.364C108.274 173.364 107.891 173.456 107.554 173.642C107.221 173.828 106.957 174.098 106.764 174.455C106.571 174.811 106.474 175.242 106.474 175.75ZM117.788 181.182C117.061 181.182 116.419 180.998 115.862 180.631C115.305 180.259 114.87 179.737 114.555 179.062C114.241 178.384 114.084 177.583 114.084 176.659C114.084 175.742 114.241 174.947 114.555 174.273C114.87 173.598 115.307 173.078 115.868 172.71C116.429 172.343 117.076 172.159 117.811 172.159C118.379 172.159 118.828 172.254 119.158 172.443C119.491 172.629 119.745 172.841 119.919 173.08C120.097 173.314 120.235 173.508 120.334 173.659H120.447V169.364H121.788V181H120.493V179.659H120.334C120.235 179.818 120.095 180.019 119.913 180.261C119.732 180.5 119.472 180.714 119.135 180.903C118.798 181.089 118.349 181.182 117.788 181.182ZM117.97 179.977C118.508 179.977 118.963 179.837 119.334 179.557C119.705 179.273 119.987 178.881 120.18 178.381C120.374 177.877 120.47 177.295 120.47 176.636C120.47 175.985 120.375 175.415 120.186 174.926C119.997 174.434 119.716 174.051 119.345 173.778C118.974 173.502 118.516 173.364 117.97 173.364C117.402 173.364 116.929 173.509 116.55 173.801C116.175 174.089 115.893 174.481 115.703 174.977C115.518 175.47 115.425 176.023 115.425 176.636C115.425 177.258 115.519 177.822 115.709 178.33C115.902 178.833 116.186 179.235 116.561 179.534C116.94 179.83 117.41 179.977 117.97 179.977ZM128.089 181.182C127.249 181.182 126.523 180.996 125.913 180.625C125.307 180.25 124.839 179.727 124.51 179.057C124.184 178.383 124.021 177.598 124.021 176.705C124.021 175.811 124.184 175.023 124.51 174.341C124.839 173.655 125.298 173.121 125.885 172.739C126.476 172.352 127.165 172.159 127.953 172.159C128.408 172.159 128.857 172.235 129.3 172.386C129.743 172.538 130.146 172.784 130.51 173.125C130.874 173.462 131.163 173.909 131.379 174.466C131.595 175.023 131.703 175.708 131.703 176.523V177.091H124.976V175.932H130.339C130.339 175.439 130.241 175 130.044 174.614C129.851 174.227 129.574 173.922 129.214 173.699C128.858 173.475 128.438 173.364 127.953 173.364C127.419 173.364 126.957 173.496 126.567 173.761C126.18 174.023 125.883 174.364 125.675 174.784C125.466 175.205 125.362 175.655 125.362 176.136V176.909C125.362 177.568 125.476 178.127 125.703 178.585C125.934 179.04 126.254 179.386 126.663 179.625C127.072 179.86 127.548 179.977 128.089 179.977C128.442 179.977 128.76 179.928 129.044 179.83C129.332 179.727 129.58 179.576 129.788 179.375C129.997 179.17 130.158 178.917 130.271 178.614L131.567 178.977C131.43 179.417 131.201 179.803 130.879 180.136C130.557 180.466 130.16 180.723 129.686 180.909C129.213 181.091 128.68 181.182 128.089 181.182ZM133.743 181V172.273H135.038V173.591H135.129C135.288 173.159 135.576 172.809 135.993 172.54C136.41 172.271 136.879 172.136 137.402 172.136C137.5 172.136 137.624 172.138 137.771 172.142C137.919 172.146 138.031 172.152 138.107 172.159V173.523C138.061 173.511 137.957 173.494 137.794 173.472C137.635 173.445 137.466 173.432 137.288 173.432C136.864 173.432 136.485 173.521 136.152 173.699C135.822 173.873 135.561 174.116 135.368 174.426C135.179 174.733 135.084 175.083 135.084 175.477V181H133.743ZM145.878 174.227L144.673 174.568C144.598 174.367 144.486 174.172 144.338 173.983C144.194 173.79 143.997 173.631 143.747 173.506C143.497 173.381 143.177 173.318 142.787 173.318C142.253 173.318 141.808 173.441 141.452 173.688C141.099 173.93 140.923 174.239 140.923 174.614C140.923 174.947 141.045 175.21 141.287 175.403C141.529 175.597 141.908 175.758 142.423 175.886L143.719 176.205C144.499 176.394 145.08 176.684 145.463 177.074C145.846 177.46 146.037 177.958 146.037 178.568C146.037 179.068 145.893 179.515 145.605 179.909C145.321 180.303 144.923 180.614 144.412 180.841C143.901 181.068 143.306 181.182 142.628 181.182C141.738 181.182 141.001 180.989 140.418 180.602C139.834 180.216 139.465 179.652 139.31 178.909L140.582 178.591C140.704 179.061 140.933 179.413 141.27 179.648C141.611 179.883 142.056 180 142.605 180C143.23 180 143.726 179.867 144.094 179.602C144.465 179.333 144.651 179.011 144.651 178.636C144.651 178.333 144.545 178.08 144.332 177.875C144.12 177.667 143.795 177.511 143.355 177.409L141.901 177.068C141.101 176.879 140.514 176.585 140.139 176.188C139.768 175.786 139.582 175.284 139.582 174.682C139.582 174.189 139.721 173.754 139.997 173.375C140.277 172.996 140.658 172.699 141.139 172.483C141.624 172.267 142.173 172.159 142.787 172.159C143.651 172.159 144.329 172.348 144.821 172.727C145.317 173.106 145.67 173.606 145.878 174.227ZM151.851 172.273V173.409H147.328V172.273H151.851ZM148.646 170.182H149.987V178.5C149.987 178.879 150.042 179.163 150.152 179.352C150.266 179.538 150.41 179.663 150.584 179.727C150.762 179.788 150.949 179.818 151.146 179.818C151.294 179.818 151.415 179.811 151.51 179.795C151.605 179.777 151.68 179.761 151.737 179.75L152.01 180.955C151.919 180.989 151.792 181.023 151.629 181.057C151.466 181.095 151.26 181.114 151.01 181.114C150.631 181.114 150.26 181.032 149.896 180.869C149.536 180.706 149.237 180.458 148.999 180.125C148.764 179.792 148.646 179.371 148.646 178.864V170.182ZM156.436 181.205C155.883 181.205 155.381 181.1 154.93 180.892C154.48 180.68 154.122 180.375 153.857 179.977C153.591 179.576 153.459 179.091 153.459 178.523C153.459 178.023 153.557 177.617 153.754 177.307C153.951 176.992 154.214 176.746 154.544 176.568C154.874 176.39 155.237 176.258 155.635 176.17C156.036 176.08 156.44 176.008 156.845 175.955C157.375 175.886 157.805 175.835 158.135 175.801C158.468 175.763 158.711 175.701 158.862 175.614C159.018 175.527 159.095 175.375 159.095 175.159V175.114C159.095 174.553 158.942 174.117 158.635 173.807C158.332 173.496 157.872 173.341 157.254 173.341C156.614 173.341 156.112 173.481 155.749 173.761C155.385 174.042 155.129 174.341 154.982 174.659L153.709 174.205C153.936 173.674 154.239 173.261 154.618 172.966C155 172.667 155.417 172.458 155.868 172.341C156.322 172.22 156.769 172.159 157.209 172.159C157.489 172.159 157.811 172.193 158.175 172.261C158.542 172.326 158.896 172.46 159.237 172.665C159.582 172.869 159.868 173.178 160.095 173.591C160.322 174.004 160.436 174.557 160.436 175.25V181H159.095V179.818H159.027C158.936 180.008 158.785 180.21 158.572 180.426C158.36 180.642 158.078 180.826 157.726 180.977C157.374 181.129 156.944 181.205 156.436 181.205ZM156.641 180C157.171 180 157.618 179.896 157.982 179.688C158.349 179.479 158.625 179.21 158.811 178.881C159 178.551 159.095 178.205 159.095 177.841V176.614C159.038 176.682 158.913 176.744 158.72 176.801C158.531 176.854 158.311 176.902 158.061 176.943C157.815 176.981 157.574 177.015 157.339 177.045C157.108 177.072 156.921 177.095 156.777 177.114C156.429 177.159 156.103 177.233 155.8 177.335C155.5 177.434 155.258 177.583 155.072 177.784C154.891 177.981 154.8 178.25 154.8 178.591C154.8 179.057 154.972 179.409 155.317 179.648C155.665 179.883 156.107 180 156.641 180ZM164.224 175.75V181H162.884V172.273H164.179V173.636H164.293C164.497 173.193 164.808 172.837 165.224 172.568C165.641 172.295 166.179 172.159 166.838 172.159C167.429 172.159 167.946 172.28 168.389 172.523C168.832 172.761 169.177 173.125 169.423 173.614C169.67 174.098 169.793 174.712 169.793 175.455V181H168.452V175.545C168.452 174.86 168.274 174.326 167.918 173.943C167.562 173.557 167.073 173.364 166.452 173.364C166.024 173.364 165.641 173.456 165.304 173.642C164.971 173.828 164.707 174.098 164.514 174.455C164.321 174.811 164.224 175.242 164.224 175.75ZM175.538 181.182C174.811 181.182 174.169 180.998 173.612 180.631C173.055 180.259 172.62 179.737 172.305 179.062C171.991 178.384 171.834 177.583 171.834 176.659C171.834 175.742 171.991 174.947 172.305 174.273C172.62 173.598 173.057 173.078 173.618 172.71C174.179 172.343 174.826 172.159 175.561 172.159C176.129 172.159 176.578 172.254 176.908 172.443C177.241 172.629 177.495 172.841 177.669 173.08C177.847 173.314 177.985 173.508 178.084 173.659H178.197V169.364H179.538V181H178.243V179.659H178.084C177.985 179.818 177.845 180.019 177.663 180.261C177.482 180.5 177.222 180.714 176.885 180.903C176.548 181.089 176.099 181.182 175.538 181.182ZM175.72 179.977C176.258 179.977 176.713 179.837 177.084 179.557C177.455 179.273 177.737 178.881 177.93 178.381C178.124 177.877 178.22 177.295 178.22 176.636C178.22 175.985 178.125 175.415 177.936 174.926C177.747 174.434 177.466 174.051 177.095 173.778C176.724 173.502 176.266 173.364 175.72 173.364C175.152 173.364 174.679 173.509 174.3 173.801C173.925 174.089 173.643 174.481 173.453 174.977C173.268 175.47 173.175 176.023 173.175 176.636C173.175 177.258 173.269 177.822 173.459 178.33C173.652 178.833 173.936 179.235 174.311 179.534C174.69 179.83 175.16 179.977 175.72 179.977ZM186.226 170.614V169.364H194.953V170.614H191.294V181H189.885V170.614H186.226ZM196.04 181V172.273H197.335V173.591H197.426C197.585 173.159 197.873 172.809 198.29 172.54C198.706 172.271 199.176 172.136 199.699 172.136C199.797 172.136 199.92 172.138 200.068 172.142C200.216 172.146 200.328 172.152 200.403 172.159V173.523C200.358 173.511 200.254 173.494 200.091 173.472C199.932 173.445 199.763 173.432 199.585 173.432C199.161 173.432 198.782 173.521 198.449 173.699C198.119 173.873 197.858 174.116 197.665 174.426C197.475 174.733 197.381 175.083 197.381 175.477V181H196.04ZM205.386 181.182C204.545 181.182 203.82 180.996 203.21 180.625C202.604 180.25 202.136 179.727 201.807 179.057C201.481 178.383 201.318 177.598 201.318 176.705C201.318 175.811 201.481 175.023 201.807 174.341C202.136 173.655 202.595 173.121 203.182 172.739C203.773 172.352 204.462 172.159 205.25 172.159C205.705 172.159 206.153 172.235 206.597 172.386C207.04 172.538 207.443 172.784 207.807 173.125C208.17 173.462 208.46 173.909 208.676 174.466C208.892 175.023 209 175.708 209 176.523V177.091H202.273V175.932H207.636C207.636 175.439 207.538 175 207.341 174.614C207.148 174.227 206.871 173.922 206.511 173.699C206.155 173.475 205.735 173.364 205.25 173.364C204.716 173.364 204.254 173.496 203.864 173.761C203.477 174.023 203.18 174.364 202.972 174.784C202.763 175.205 202.659 175.655 202.659 176.136V176.909C202.659 177.568 202.773 178.127 203 178.585C203.231 179.04 203.551 179.386 203.96 179.625C204.369 179.86 204.845 179.977 205.386 179.977C205.739 179.977 206.057 179.928 206.341 179.83C206.629 179.727 206.877 179.576 207.085 179.375C207.294 179.17 207.455 178.917 207.568 178.614L208.864 178.977C208.727 179.417 208.498 179.803 208.176 180.136C207.854 180.466 207.456 180.723 206.983 180.909C206.509 181.091 205.977 181.182 205.386 181.182ZM212.381 175.75V181H211.04V172.273H212.335V173.636H212.449C212.653 173.193 212.964 172.837 213.381 172.568C213.797 172.295 214.335 172.159 214.994 172.159C215.585 172.159 216.102 172.28 216.545 172.523C216.989 172.761 217.333 173.125 217.58 173.614C217.826 174.098 217.949 174.712 217.949 175.455V181H216.608V175.545C216.608 174.86 216.43 174.326 216.074 173.943C215.718 173.557 215.229 173.364 214.608 173.364C214.18 173.364 213.797 173.456 213.46 173.642C213.127 173.828 212.864 174.098 212.67 174.455C212.477 174.811 212.381 175.242 212.381 175.75ZM223.695 181.182C222.967 181.182 222.325 180.998 221.768 180.631C221.212 180.259 220.776 179.737 220.462 179.062C220.147 178.384 219.99 177.583 219.99 176.659C219.99 175.742 220.147 174.947 220.462 174.273C220.776 173.598 221.214 173.078 221.774 172.71C222.335 172.343 222.982 172.159 223.717 172.159C224.286 172.159 224.734 172.254 225.064 172.443C225.397 172.629 225.651 172.841 225.825 173.08C226.003 173.314 226.142 173.508 226.24 173.659H226.354V169.364H227.695V181H226.399V179.659H226.24C226.142 179.818 226.001 180.019 225.82 180.261C225.638 180.5 225.378 180.714 225.041 180.903C224.704 181.089 224.255 181.182 223.695 181.182ZM223.876 179.977C224.414 179.977 224.869 179.837 225.24 179.557C225.611 179.273 225.893 178.881 226.087 178.381C226.28 177.877 226.376 177.295 226.376 176.636C226.376 175.985 226.282 175.415 226.092 174.926C225.903 174.434 225.623 174.051 225.251 173.778C224.88 173.502 224.422 173.364 223.876 173.364C223.308 173.364 222.835 173.509 222.456 173.801C222.081 174.089 221.799 174.481 221.609 174.977C221.424 175.47 221.331 176.023 221.331 176.636C221.331 177.258 221.426 177.822 221.615 178.33C221.808 178.833 222.092 179.235 222.467 179.534C222.846 179.83 223.316 179.977 223.876 179.977ZM236.518 174.227L235.314 174.568C235.238 174.367 235.126 174.172 234.979 173.983C234.835 173.79 234.638 173.631 234.388 173.506C234.138 173.381 233.818 173.318 233.428 173.318C232.893 173.318 232.448 173.441 232.092 173.688C231.74 173.93 231.564 174.239 231.564 174.614C231.564 174.947 231.685 175.21 231.928 175.403C232.17 175.597 232.549 175.758 233.064 175.886L234.359 176.205C235.14 176.394 235.721 176.684 236.104 177.074C236.486 177.46 236.678 177.958 236.678 178.568C236.678 179.068 236.534 179.515 236.246 179.909C235.962 180.303 235.564 180.614 235.053 180.841C234.541 181.068 233.946 181.182 233.268 181.182C232.378 181.182 231.642 180.989 231.058 180.602C230.475 180.216 230.106 179.652 229.95 178.909L231.223 178.591C231.344 179.061 231.573 179.413 231.911 179.648C232.251 179.883 232.696 180 233.246 180C233.871 180 234.367 179.867 234.734 179.602C235.106 179.333 235.291 179.011 235.291 178.636C235.291 178.333 235.185 178.08 234.973 177.875C234.761 177.667 234.435 177.511 233.996 177.409L232.541 177.068C231.742 176.879 231.155 176.585 230.78 176.188C230.409 175.786 230.223 175.284 230.223 174.682C230.223 174.189 230.361 173.754 230.638 173.375C230.918 172.996 231.299 172.699 231.78 172.483C232.265 172.267 232.814 172.159 233.428 172.159C234.291 172.159 234.969 172.348 235.462 172.727C235.958 173.106 236.31 173.606 236.518 174.227ZM240.696 179.409L240.605 180.023C240.541 180.455 240.442 180.917 240.31 181.409C240.181 181.902 240.046 182.366 239.906 182.801C239.766 183.237 239.651 183.583 239.56 183.841H238.537C238.586 183.598 238.651 183.278 238.73 182.881C238.81 182.483 238.889 182.038 238.969 181.545C239.052 181.057 239.12 180.557 239.173 180.045L239.241 179.409H240.696ZM112.085 192H110.676C110.593 191.595 110.447 191.239 110.239 190.932C110.034 190.625 109.784 190.367 109.489 190.159C109.197 189.947 108.873 189.788 108.517 189.682C108.161 189.576 107.79 189.523 107.403 189.523C106.699 189.523 106.061 189.701 105.489 190.057C104.92 190.413 104.468 190.938 104.131 191.631C103.797 192.324 103.631 193.174 103.631 194.182C103.631 195.189 103.797 196.04 104.131 196.733C104.468 197.426 104.92 197.951 105.489 198.307C106.061 198.663 106.699 198.841 107.403 198.841C107.79 198.841 108.161 198.788 108.517 198.682C108.873 198.576 109.197 198.419 109.489 198.21C109.784 197.998 110.034 197.739 110.239 197.432C110.447 197.121 110.593 196.765 110.676 196.364H112.085C111.979 196.958 111.786 197.491 111.506 197.96C111.225 198.43 110.877 198.83 110.46 199.159C110.044 199.485 109.576 199.733 109.057 199.903C108.542 200.074 107.991 200.159 107.403 200.159C106.411 200.159 105.528 199.917 104.756 199.432C103.983 198.947 103.375 198.258 102.932 197.364C102.489 196.47 102.267 195.409 102.267 194.182C102.267 192.955 102.489 191.894 102.932 191C103.375 190.106 103.983 189.417 104.756 188.932C105.528 188.447 106.411 188.205 107.403 188.205C107.991 188.205 108.542 188.29 109.057 188.46C109.576 188.631 110.044 188.881 110.46 189.21C110.877 189.536 111.225 189.934 111.506 190.403C111.786 190.869 111.979 191.402 112.085 192ZM117.726 200.182C116.938 200.182 116.247 199.994 115.652 199.619C115.061 199.244 114.599 198.72 114.266 198.045C113.936 197.371 113.771 196.583 113.771 195.682C113.771 194.773 113.936 193.979 114.266 193.301C114.599 192.623 115.061 192.097 115.652 191.722C116.247 191.347 116.938 191.159 117.726 191.159C118.514 191.159 119.203 191.347 119.794 191.722C120.389 192.097 120.851 192.623 121.18 193.301C121.514 193.979 121.68 194.773 121.68 195.682C121.68 196.583 121.514 197.371 121.18 198.045C120.851 198.72 120.389 199.244 119.794 199.619C119.203 199.994 118.514 200.182 117.726 200.182ZM117.726 198.977C118.324 198.977 118.817 198.824 119.203 198.517C119.589 198.21 119.875 197.807 120.061 197.307C120.247 196.807 120.339 196.265 120.339 195.682C120.339 195.098 120.247 194.555 120.061 194.051C119.875 193.547 119.589 193.14 119.203 192.83C118.817 192.519 118.324 192.364 117.726 192.364C117.127 192.364 116.635 192.519 116.249 192.83C115.862 193.14 115.576 193.547 115.391 194.051C115.205 194.555 115.112 195.098 115.112 195.682C115.112 196.265 115.205 196.807 115.391 197.307C115.576 197.807 115.862 198.21 116.249 198.517C116.635 198.824 117.127 198.977 117.726 198.977ZM123.727 200V191.273H125.023V192.636H125.136C125.318 192.17 125.612 191.809 126.017 191.551C126.422 191.29 126.909 191.159 127.477 191.159C128.053 191.159 128.532 191.29 128.915 191.551C129.301 191.809 129.602 192.17 129.818 192.636H129.909C130.133 192.186 130.468 191.828 130.915 191.562C131.362 191.294 131.898 191.159 132.523 191.159C133.303 191.159 133.941 191.403 134.438 191.892C134.934 192.377 135.182 193.133 135.182 194.159V200H133.841V194.159C133.841 193.515 133.665 193.055 133.312 192.778C132.96 192.502 132.545 192.364 132.068 192.364C131.455 192.364 130.979 192.549 130.642 192.92C130.305 193.288 130.136 193.754 130.136 194.318V200H128.773V194.023C128.773 193.527 128.612 193.127 128.29 192.824C127.968 192.517 127.553 192.364 127.045 192.364C126.697 192.364 126.371 192.456 126.068 192.642C125.769 192.828 125.527 193.085 125.341 193.415C125.159 193.741 125.068 194.117 125.068 194.545V200H123.727ZM137.634 203.273V191.273H138.929V192.659H139.088C139.187 192.508 139.323 192.314 139.497 192.08C139.675 191.841 139.929 191.629 140.259 191.443C140.592 191.254 141.043 191.159 141.611 191.159C142.346 191.159 142.993 191.343 143.554 191.71C144.115 192.078 144.552 192.598 144.866 193.273C145.181 193.947 145.338 194.742 145.338 195.659C145.338 196.583 145.181 197.384 144.866 198.062C144.552 198.737 144.116 199.259 143.56 199.631C143.003 199.998 142.361 200.182 141.634 200.182C141.073 200.182 140.624 200.089 140.287 199.903C139.95 199.714 139.69 199.5 139.509 199.261C139.327 199.019 139.187 198.818 139.088 198.659H138.974V203.273H137.634ZM138.952 195.636C138.952 196.295 139.048 196.877 139.241 197.381C139.435 197.881 139.717 198.273 140.088 198.557C140.459 198.837 140.914 198.977 141.452 198.977C142.012 198.977 142.48 198.83 142.855 198.534C143.234 198.235 143.518 197.833 143.707 197.33C143.901 196.822 143.997 196.258 143.997 195.636C143.997 195.023 143.902 194.47 143.713 193.977C143.527 193.481 143.245 193.089 142.866 192.801C142.491 192.509 142.02 192.364 141.452 192.364C140.906 192.364 140.448 192.502 140.077 192.778C139.705 193.051 139.425 193.434 139.236 193.926C139.046 194.415 138.952 194.985 138.952 195.636ZM151.043 200.182C150.202 200.182 149.476 199.996 148.866 199.625C148.26 199.25 147.793 198.727 147.463 198.057C147.137 197.383 146.974 196.598 146.974 195.705C146.974 194.811 147.137 194.023 147.463 193.341C147.793 192.655 148.251 192.121 148.838 191.739C149.429 191.352 150.118 191.159 150.906 191.159C151.361 191.159 151.81 191.235 152.253 191.386C152.696 191.538 153.099 191.784 153.463 192.125C153.827 192.462 154.116 192.909 154.332 193.466C154.548 194.023 154.656 194.708 154.656 195.523V196.091H147.929V194.932H153.293C153.293 194.439 153.194 194 152.997 193.614C152.804 193.227 152.527 192.922 152.168 192.699C151.812 192.475 151.391 192.364 150.906 192.364C150.372 192.364 149.91 192.496 149.52 192.761C149.134 193.023 148.836 193.364 148.628 193.784C148.42 194.205 148.315 194.655 148.315 195.136V195.909C148.315 196.568 148.429 197.127 148.656 197.585C148.887 198.04 149.207 198.386 149.616 198.625C150.026 198.86 150.501 198.977 151.043 198.977C151.395 198.977 151.713 198.928 151.997 198.83C152.285 198.727 152.533 198.576 152.741 198.375C152.95 198.17 153.111 197.917 153.224 197.614L154.52 197.977C154.384 198.417 154.154 198.803 153.832 199.136C153.51 199.466 153.113 199.723 152.639 199.909C152.166 200.091 151.634 200.182 151.043 200.182ZM160.491 191.273V192.409H155.969V191.273H160.491ZM157.287 189.182H158.628V197.5C158.628 197.879 158.683 198.163 158.793 198.352C158.906 198.538 159.05 198.663 159.224 198.727C159.402 198.788 159.59 198.818 159.787 198.818C159.935 198.818 160.056 198.811 160.151 198.795C160.245 198.777 160.321 198.761 160.378 198.75L160.651 199.955C160.56 199.989 160.433 200.023 160.27 200.057C160.107 200.095 159.901 200.114 159.651 200.114C159.272 200.114 158.901 200.032 158.537 199.869C158.177 199.706 157.878 199.458 157.639 199.125C157.404 198.792 157.287 198.371 157.287 197.864V189.182ZM162.509 200V191.273H163.849V200H162.509ZM163.19 189.818C162.929 189.818 162.704 189.729 162.514 189.551C162.329 189.373 162.236 189.159 162.236 188.909C162.236 188.659 162.329 188.445 162.514 188.267C162.704 188.089 162.929 188 163.19 188C163.452 188 163.675 188.089 163.861 188.267C164.05 188.445 164.145 188.659 164.145 188.909C164.145 189.159 164.05 189.373 163.861 189.551C163.675 189.729 163.452 189.818 163.19 189.818ZM170.101 191.273V192.409H165.578V191.273H170.101ZM166.896 189.182H168.237V197.5C168.237 197.879 168.292 198.163 168.402 198.352C168.516 198.538 168.66 198.663 168.834 198.727C169.012 198.788 169.199 198.818 169.396 198.818C169.544 198.818 169.665 198.811 169.76 198.795C169.855 198.777 169.93 198.761 169.987 198.75L170.26 199.955C170.169 199.989 170.042 200.023 169.879 200.057C169.716 200.095 169.51 200.114 169.26 200.114C168.881 200.114 168.51 200.032 168.146 199.869C167.786 199.706 167.487 199.458 167.249 199.125C167.014 198.792 166.896 198.371 166.896 197.864V189.182ZM172.118 200V191.273H173.459V200H172.118ZM172.8 189.818C172.538 189.818 172.313 189.729 172.124 189.551C171.938 189.373 171.845 189.159 171.845 188.909C171.845 188.659 171.938 188.445 172.124 188.267C172.313 188.089 172.538 188 172.8 188C173.061 188 173.285 188.089 173.47 188.267C173.66 188.445 173.754 188.659 173.754 188.909C173.754 189.159 173.66 189.373 173.47 189.551C173.285 189.729 173.061 189.818 172.8 189.818ZM179.46 200.182C178.672 200.182 177.981 199.994 177.386 199.619C176.795 199.244 176.333 198.72 176 198.045C175.67 197.371 175.506 196.583 175.506 195.682C175.506 194.773 175.67 193.979 176 193.301C176.333 192.623 176.795 192.097 177.386 191.722C177.981 191.347 178.672 191.159 179.46 191.159C180.248 191.159 180.938 191.347 181.528 191.722C182.123 192.097 182.585 192.623 182.915 193.301C183.248 193.979 183.415 194.773 183.415 195.682C183.415 196.583 183.248 197.371 182.915 198.045C182.585 198.72 182.123 199.244 181.528 199.619C180.938 199.994 180.248 200.182 179.46 200.182ZM179.46 198.977C180.059 198.977 180.551 198.824 180.938 198.517C181.324 198.21 181.61 197.807 181.795 197.307C181.981 196.807 182.074 196.265 182.074 195.682C182.074 195.098 181.981 194.555 181.795 194.051C181.61 193.547 181.324 193.14 180.938 192.83C180.551 192.519 180.059 192.364 179.46 192.364C178.862 192.364 178.369 192.519 177.983 192.83C177.597 193.14 177.311 193.547 177.125 194.051C176.939 194.555 176.847 195.098 176.847 195.682C176.847 196.265 176.939 196.807 177.125 197.307C177.311 197.807 177.597 198.21 177.983 198.517C178.369 198.824 178.862 198.977 179.46 198.977ZM186.803 194.75V200H185.462V191.273H186.757V192.636H186.871C187.075 192.193 187.386 191.837 187.803 191.568C188.219 191.295 188.757 191.159 189.416 191.159C190.007 191.159 190.524 191.28 190.967 191.523C191.411 191.761 191.755 192.125 192.001 192.614C192.248 193.098 192.371 193.712 192.371 194.455V200H191.03V194.545C191.03 193.86 190.852 193.326 190.496 192.943C190.14 192.557 189.651 192.364 189.03 192.364C188.602 192.364 188.219 192.456 187.882 192.642C187.549 192.828 187.286 193.098 187.092 193.455C186.899 193.811 186.803 194.242 186.803 194.75ZM196.821 198.409L196.73 199.023C196.666 199.455 196.567 199.917 196.435 200.409C196.306 200.902 196.171 201.366 196.031 201.801C195.891 202.237 195.776 202.583 195.685 202.841H194.662C194.711 202.598 194.776 202.278 194.855 201.881C194.935 201.483 195.014 201.038 195.094 200.545C195.177 200.057 195.245 199.557 195.298 199.045L195.366 198.409H196.821ZM204.464 200H202.987L207.26 188.364H208.714L212.987 200H211.51L208.033 190.205H207.942L204.464 200ZM205.01 195.455H210.964V196.705H205.01V195.455ZM215.959 194.75V200H214.618V191.273H215.913V192.636H216.027C216.232 192.193 216.542 191.837 216.959 191.568C217.375 191.295 217.913 191.159 218.572 191.159C219.163 191.159 219.68 191.28 220.124 191.523C220.567 191.761 220.911 192.125 221.158 192.614C221.404 193.098 221.527 193.712 221.527 194.455V200H220.186V194.545C220.186 193.86 220.008 193.326 219.652 192.943C219.296 192.557 218.807 192.364 218.186 192.364C217.758 192.364 217.375 192.456 217.038 192.642C216.705 192.828 216.442 193.098 216.249 193.455C216.055 193.811 215.959 194.242 215.959 194.75ZM227.273 200.182C226.545 200.182 225.903 199.998 225.347 199.631C224.79 199.259 224.354 198.737 224.04 198.062C223.725 197.384 223.568 196.583 223.568 195.659C223.568 194.742 223.725 193.947 224.04 193.273C224.354 192.598 224.792 192.078 225.352 191.71C225.913 191.343 226.561 191.159 227.295 191.159C227.864 191.159 228.313 191.254 228.642 191.443C228.975 191.629 229.229 191.841 229.403 192.08C229.581 192.314 229.72 192.508 229.818 192.659H229.932V188.364H231.273V200H229.977V198.659H229.818C229.72 198.818 229.58 199.019 229.398 199.261C229.216 199.5 228.956 199.714 228.619 199.903C228.282 200.089 227.833 200.182 227.273 200.182ZM227.455 198.977C227.992 198.977 228.447 198.837 228.818 198.557C229.189 198.273 229.472 197.881 229.665 197.381C229.858 196.877 229.955 196.295 229.955 195.636C229.955 194.985 229.86 194.415 229.67 193.926C229.481 193.434 229.201 193.051 228.83 192.778C228.458 192.502 228 192.364 227.455 192.364C226.886 192.364 226.413 192.509 226.034 192.801C225.659 193.089 225.377 193.481 225.188 193.977C225.002 194.47 224.909 195.023 224.909 195.636C224.909 196.258 225.004 196.822 225.193 197.33C225.386 197.833 225.67 198.235 226.045 198.534C226.424 198.83 226.894 198.977 227.455 198.977ZM89.2102 211H87.8011C87.7178 210.595 87.572 210.239 87.3636 209.932C87.1591 209.625 86.9091 209.367 86.6136 209.159C86.322 208.947 85.9981 208.788 85.642 208.682C85.286 208.576 84.9148 208.523 84.5284 208.523C83.8239 208.523 83.1856 208.701 82.6136 209.057C82.0455 209.413 81.5928 209.938 81.2557 210.631C80.9223 211.324 80.7557 212.174 80.7557 213.182C80.7557 214.189 80.9223 215.04 81.2557 215.733C81.5928 216.426 82.0455 216.951 82.6136 217.307C83.1856 217.663 83.8239 217.841 84.5284 217.841C84.9148 217.841 85.286 217.788 85.642 217.682C85.9981 217.576 86.322 217.419 86.6136 217.21C86.9091 216.998 87.1591 216.739 87.3636 216.432C87.572 216.121 87.7178 215.765 87.8011 215.364H89.2102C89.1042 215.958 88.911 216.491 88.6307 216.96C88.3504 217.43 88.0019 217.83 87.5852 218.159C87.1686 218.485 86.7008 218.733 86.1818 218.903C85.6667 219.074 85.1155 219.159 84.5284 219.159C83.536 219.159 82.6534 218.917 81.8807 218.432C81.108 217.947 80.5 217.258 80.0568 216.364C79.6136 215.47 79.392 214.409 79.392 213.182C79.392 211.955 79.6136 210.894 80.0568 210C80.5 209.106 81.108 208.417 81.8807 207.932C82.6534 207.447 83.536 207.205 84.5284 207.205C85.1155 207.205 85.6667 207.29 86.1818 207.46C86.7008 207.631 87.1686 207.881 87.5852 208.21C88.0019 208.536 88.3504 208.934 88.6307 209.403C88.911 209.869 89.1042 210.402 89.2102 211ZM94.8509 219.182C94.063 219.182 93.3717 218.994 92.777 218.619C92.1861 218.244 91.724 217.72 91.3906 217.045C91.0611 216.371 90.8963 215.583 90.8963 214.682C90.8963 213.773 91.0611 212.979 91.3906 212.301C91.724 211.623 92.1861 211.097 92.777 210.722C93.3717 210.347 94.063 210.159 94.8509 210.159C95.6387 210.159 96.3281 210.347 96.919 210.722C97.5137 211.097 97.9759 211.623 98.3054 212.301C98.6387 212.979 98.8054 213.773 98.8054 214.682C98.8054 215.583 98.6387 216.371 98.3054 217.045C97.9759 217.72 97.5137 218.244 96.919 218.619C96.3281 218.994 95.6387 219.182 94.8509 219.182ZM94.8509 217.977C95.4493 217.977 95.9418 217.824 96.3281 217.517C96.7145 217.21 97.0005 216.807 97.1861 216.307C97.3717 215.807 97.4645 215.265 97.4645 214.682C97.4645 214.098 97.3717 213.555 97.1861 213.051C97.0005 212.547 96.7145 212.14 96.3281 211.83C95.9418 211.519 95.4493 211.364 94.8509 211.364C94.2524 211.364 93.7599 211.519 93.3736 211.83C92.9872 212.14 92.7012 212.547 92.5156 213.051C92.33 213.555 92.2372 214.098 92.2372 214.682C92.2372 215.265 92.33 215.807 92.5156 216.307C92.7012 216.807 92.9872 217.21 93.3736 217.517C93.7599 217.824 94.2524 217.977 94.8509 217.977ZM102.193 213.75V219H100.852V210.273H102.148V211.636H102.261C102.466 211.193 102.777 210.837 103.193 210.568C103.61 210.295 104.148 210.159 104.807 210.159C105.398 210.159 105.915 210.28 106.358 210.523C106.801 210.761 107.146 211.125 107.392 211.614C107.638 212.098 107.761 212.712 107.761 213.455V219H106.42V213.545C106.42 212.86 106.242 212.326 105.886 211.943C105.53 211.557 105.042 211.364 104.42 211.364C103.992 211.364 103.61 211.456 103.273 211.642C102.939 211.828 102.676 212.098 102.483 212.455C102.29 212.811 102.193 213.242 102.193 213.75ZM116.393 212.227L115.189 212.568C115.113 212.367 115.001 212.172 114.854 211.983C114.71 211.79 114.513 211.631 114.263 211.506C114.013 211.381 113.693 211.318 113.303 211.318C112.768 211.318 112.323 211.441 111.967 211.688C111.615 211.93 111.439 212.239 111.439 212.614C111.439 212.947 111.56 213.21 111.803 213.403C112.045 213.597 112.424 213.758 112.939 213.886L114.234 214.205C115.015 214.394 115.596 214.684 115.979 215.074C116.361 215.46 116.553 215.958 116.553 216.568C116.553 217.068 116.409 217.515 116.121 217.909C115.837 218.303 115.439 218.614 114.928 218.841C114.416 219.068 113.821 219.182 113.143 219.182C112.253 219.182 111.517 218.989 110.933 218.602C110.35 218.216 109.981 217.652 109.825 216.909L111.098 216.591C111.219 217.061 111.448 217.413 111.786 217.648C112.126 217.883 112.571 218 113.121 218C113.746 218 114.242 217.867 114.609 217.602C114.981 217.333 115.166 217.011 115.166 216.636C115.166 216.333 115.06 216.08 114.848 215.875C114.636 215.667 114.31 215.511 113.871 215.409L112.416 215.068C111.617 214.879 111.03 214.585 110.655 214.188C110.284 213.786 110.098 213.284 110.098 212.682C110.098 212.189 110.236 211.754 110.513 211.375C110.793 210.996 111.174 210.699 111.655 210.483C112.14 210.267 112.689 210.159 113.303 210.159C114.166 210.159 114.844 210.348 115.337 210.727C115.833 211.106 116.185 211.606 116.393 212.227ZM124.071 215.432V210.273H125.412V219H124.071V217.523H123.98C123.776 217.966 123.457 218.343 123.026 218.653C122.594 218.96 122.048 219.114 121.389 219.114C120.844 219.114 120.359 218.994 119.935 218.756C119.51 218.513 119.177 218.15 118.935 217.665C118.692 217.176 118.571 216.561 118.571 215.818V210.273H119.912V215.727C119.912 216.364 120.09 216.871 120.446 217.25C120.806 217.629 121.264 217.818 121.821 217.818C122.154 217.818 122.493 217.733 122.838 217.562C123.187 217.392 123.478 217.131 123.713 216.778C123.952 216.426 124.071 215.977 124.071 215.432ZM127.868 219V210.273H129.163V211.636H129.277C129.459 211.17 129.752 210.809 130.158 210.551C130.563 210.29 131.05 210.159 131.618 210.159C132.194 210.159 132.673 210.29 133.055 210.551C133.442 210.809 133.743 211.17 133.959 211.636H134.05C134.273 211.186 134.608 210.828 135.055 210.562C135.502 210.294 136.038 210.159 136.663 210.159C137.444 210.159 138.082 210.403 138.578 210.892C139.074 211.377 139.322 212.133 139.322 213.159V219H137.982V213.159C137.982 212.515 137.805 212.055 137.453 211.778C137.101 211.502 136.686 211.364 136.209 211.364C135.595 211.364 135.12 211.549 134.783 211.92C134.446 212.288 134.277 212.754 134.277 213.318V219H132.913V213.023C132.913 212.527 132.752 212.127 132.43 211.824C132.108 211.517 131.694 211.364 131.186 211.364C130.838 211.364 130.512 211.456 130.209 211.642C129.91 211.828 129.667 212.085 129.482 212.415C129.3 212.741 129.209 213.117 129.209 213.545V219H127.868ZM145.433 219.182C144.592 219.182 143.867 218.996 143.257 218.625C142.651 218.25 142.183 217.727 141.854 217.057C141.528 216.383 141.365 215.598 141.365 214.705C141.365 213.811 141.528 213.023 141.854 212.341C142.183 211.655 142.642 211.121 143.229 210.739C143.82 210.352 144.509 210.159 145.297 210.159C145.751 210.159 146.2 210.235 146.643 210.386C147.087 210.538 147.49 210.784 147.854 211.125C148.217 211.462 148.507 211.909 148.723 212.466C148.939 213.023 149.047 213.708 149.047 214.523V215.091H142.32V213.932H147.683C147.683 213.439 147.585 213 147.388 212.614C147.195 212.227 146.918 211.922 146.558 211.699C146.202 211.475 145.782 211.364 145.297 211.364C144.763 211.364 144.301 211.496 143.911 211.761C143.524 212.023 143.227 212.364 143.018 212.784C142.81 213.205 142.706 213.655 142.706 214.136V214.909C142.706 215.568 142.82 216.127 143.047 216.585C143.278 217.04 143.598 217.386 144.007 217.625C144.416 217.86 144.892 217.977 145.433 217.977C145.786 217.977 146.104 217.928 146.388 217.83C146.676 217.727 146.924 217.576 147.132 217.375C147.34 217.17 147.501 216.917 147.615 216.614L148.911 216.977C148.774 217.417 148.545 217.803 148.223 218.136C147.901 218.466 147.503 218.723 147.03 218.909C146.556 219.091 146.024 219.182 145.433 219.182ZM151.087 219V210.273H152.382V211.591H152.473C152.632 211.159 152.92 210.809 153.337 210.54C153.753 210.271 154.223 210.136 154.746 210.136C154.844 210.136 154.967 210.138 155.115 210.142C155.263 210.146 155.375 210.152 155.45 210.159V211.523C155.405 211.511 155.301 211.494 155.138 211.472C154.979 211.445 154.81 211.432 154.632 211.432C154.208 211.432 153.829 211.521 153.496 211.699C153.166 211.873 152.905 212.116 152.712 212.426C152.522 212.733 152.428 213.083 152.428 213.477V219H151.087ZM161.722 219V207.364H165.653C166.566 207.364 167.313 207.528 167.892 207.858C168.475 208.184 168.907 208.625 169.188 209.182C169.468 209.739 169.608 210.36 169.608 211.045C169.608 211.731 169.468 212.354 169.188 212.915C168.911 213.475 168.483 213.922 167.903 214.256C167.324 214.585 166.581 214.75 165.676 214.75H162.858V213.5H165.631C166.256 213.5 166.758 213.392 167.136 213.176C167.515 212.96 167.79 212.669 167.96 212.301C168.134 211.93 168.222 211.511 168.222 211.045C168.222 210.58 168.134 210.163 167.96 209.795C167.79 209.428 167.513 209.14 167.131 208.932C166.748 208.72 166.241 208.614 165.608 208.614H163.131V219H161.722ZM171.696 219V210.273H172.991V211.591H173.082C173.241 211.159 173.529 210.809 173.946 210.54C174.363 210.271 174.832 210.136 175.355 210.136C175.454 210.136 175.577 210.138 175.724 210.142C175.872 210.146 175.984 210.152 176.06 210.159V211.523C176.014 211.511 175.91 211.494 175.747 211.472C175.588 211.445 175.42 211.432 175.241 211.432C174.817 211.432 174.438 211.521 174.105 211.699C173.776 211.873 173.514 212.116 173.321 212.426C173.132 212.733 173.037 213.083 173.037 213.477V219H171.696ZM181.043 219.182C180.202 219.182 179.476 218.996 178.866 218.625C178.26 218.25 177.793 217.727 177.463 217.057C177.137 216.383 176.974 215.598 176.974 214.705C176.974 213.811 177.137 213.023 177.463 212.341C177.793 211.655 178.251 211.121 178.838 210.739C179.429 210.352 180.118 210.159 180.906 210.159C181.361 210.159 181.81 210.235 182.253 210.386C182.696 210.538 183.099 210.784 183.463 211.125C183.827 211.462 184.116 211.909 184.332 212.466C184.548 213.023 184.656 213.708 184.656 214.523V215.091H177.929V213.932H183.293C183.293 213.439 183.194 213 182.997 212.614C182.804 212.227 182.527 211.922 182.168 211.699C181.812 211.475 181.391 211.364 180.906 211.364C180.372 211.364 179.91 211.496 179.52 211.761C179.134 212.023 178.836 212.364 178.628 212.784C178.42 213.205 178.315 213.655 178.315 214.136V214.909C178.315 215.568 178.429 216.127 178.656 216.585C178.887 217.04 179.207 217.386 179.616 217.625C180.026 217.86 180.501 217.977 181.043 217.977C181.395 217.977 181.713 217.928 181.997 217.83C182.285 217.727 182.533 217.576 182.741 217.375C182.95 217.17 183.111 216.917 183.224 216.614L184.52 216.977C184.384 217.417 184.154 217.803 183.832 218.136C183.51 218.466 183.113 218.723 182.639 218.909C182.166 219.091 181.634 219.182 181.043 219.182ZM190.582 210.273V211.409H185.878V210.273H190.582ZM187.287 219V209.068C187.287 208.568 187.404 208.152 187.639 207.818C187.874 207.485 188.179 207.235 188.554 207.068C188.929 206.902 189.325 206.818 189.741 206.818C190.071 206.818 190.34 206.845 190.548 206.898C190.757 206.951 190.912 207 191.014 207.045L190.628 208.205C190.56 208.182 190.465 208.153 190.344 208.119C190.226 208.085 190.071 208.068 189.878 208.068C189.435 208.068 189.115 208.18 188.918 208.403C188.724 208.627 188.628 208.955 188.628 209.386V219H187.287ZM195.761 219.182C194.92 219.182 194.195 218.996 193.585 218.625C192.979 218.25 192.511 217.727 192.182 217.057C191.856 216.383 191.693 215.598 191.693 214.705C191.693 213.811 191.856 213.023 192.182 212.341C192.511 211.655 192.97 211.121 193.557 210.739C194.148 210.352 194.837 210.159 195.625 210.159C196.08 210.159 196.528 210.235 196.972 210.386C197.415 210.538 197.818 210.784 198.182 211.125C198.545 211.462 198.835 211.909 199.051 212.466C199.267 213.023 199.375 213.708 199.375 214.523V215.091H192.648V213.932H198.011C198.011 213.439 197.913 213 197.716 212.614C197.523 212.227 197.246 211.922 196.886 211.699C196.53 211.475 196.11 211.364 195.625 211.364C195.091 211.364 194.629 211.496 194.239 211.761C193.852 212.023 193.555 212.364 193.347 212.784C193.138 213.205 193.034 213.655 193.034 214.136V214.909C193.034 215.568 193.148 216.127 193.375 216.585C193.606 217.04 193.926 217.386 194.335 217.625C194.744 217.86 195.22 217.977 195.761 217.977C196.114 217.977 196.432 217.928 196.716 217.83C197.004 217.727 197.252 217.576 197.46 217.375C197.669 217.17 197.83 216.917 197.943 216.614L199.239 216.977C199.102 217.417 198.873 217.803 198.551 218.136C198.229 218.466 197.831 218.723 197.358 218.909C196.884 219.091 196.352 219.182 195.761 219.182ZM201.415 219V210.273H202.71V211.591H202.801C202.96 211.159 203.248 210.809 203.665 210.54C204.081 210.271 204.551 210.136 205.074 210.136C205.172 210.136 205.295 210.138 205.443 210.142C205.591 210.146 205.703 210.152 205.778 210.159V211.523C205.733 211.511 205.629 211.494 205.466 211.472C205.307 211.445 205.138 211.432 204.96 211.432C204.536 211.432 204.157 211.521 203.824 211.699C203.494 211.873 203.233 212.116 203.04 212.426C202.85 212.733 202.756 213.083 202.756 213.477V219H201.415ZM210.761 219.182C209.92 219.182 209.195 218.996 208.585 218.625C207.979 218.25 207.511 217.727 207.182 217.057C206.856 216.383 206.693 215.598 206.693 214.705C206.693 213.811 206.856 213.023 207.182 212.341C207.511 211.655 207.97 211.121 208.557 210.739C209.148 210.352 209.837 210.159 210.625 210.159C211.08 210.159 211.528 210.235 211.972 210.386C212.415 210.538 212.818 210.784 213.182 211.125C213.545 211.462 213.835 211.909 214.051 212.466C214.267 213.023 214.375 213.708 214.375 214.523V215.091H207.648V213.932H213.011C213.011 213.439 212.913 213 212.716 212.614C212.523 212.227 212.246 211.922 211.886 211.699C211.53 211.475 211.11 211.364 210.625 211.364C210.091 211.364 209.629 211.496 209.239 211.761C208.852 212.023 208.555 212.364 208.347 212.784C208.138 213.205 208.034 213.655 208.034 214.136V214.909C208.034 215.568 208.148 216.127 208.375 216.585C208.606 217.04 208.926 217.386 209.335 217.625C209.744 217.86 210.22 217.977 210.761 217.977C211.114 217.977 211.432 217.928 211.716 217.83C212.004 217.727 212.252 217.576 212.46 217.375C212.669 217.17 212.83 216.917 212.943 216.614L214.239 216.977C214.102 217.417 213.873 217.803 213.551 218.136C213.229 218.466 212.831 218.723 212.358 218.909C211.884 219.091 211.352 219.182 210.761 219.182ZM217.756 213.75V219H216.415V210.273H217.71V211.636H217.824C218.028 211.193 218.339 210.837 218.756 210.568C219.172 210.295 219.71 210.159 220.369 210.159C220.96 210.159 221.477 210.28 221.92 210.523C222.364 210.761 222.708 211.125 222.955 211.614C223.201 212.098 223.324 212.712 223.324 213.455V219H221.983V213.545C221.983 212.86 221.805 212.326 221.449 211.943C221.093 211.557 220.604 211.364 219.983 211.364C219.555 211.364 219.172 211.456 218.835 211.642C218.502 211.828 218.239 212.098 218.045 212.455C217.852 212.811 217.756 213.242 217.756 213.75ZM229.32 219.182C228.501 219.182 227.797 218.989 227.206 218.602C226.615 218.216 226.161 217.684 225.842 217.006C225.524 216.328 225.365 215.553 225.365 214.682C225.365 213.795 225.528 213.013 225.854 212.335C226.183 211.653 226.642 211.121 227.229 210.739C227.82 210.352 228.509 210.159 229.297 210.159C229.911 210.159 230.464 210.273 230.956 210.5C231.448 210.727 231.852 211.045 232.166 211.455C232.481 211.864 232.676 212.341 232.751 212.886H231.411C231.308 212.489 231.081 212.136 230.729 211.83C230.38 211.519 229.911 211.364 229.32 211.364C228.797 211.364 228.339 211.5 227.945 211.773C227.554 212.042 227.25 212.422 227.03 212.915C226.814 213.403 226.706 213.977 226.706 214.636C226.706 215.311 226.812 215.898 227.024 216.398C227.24 216.898 227.543 217.286 227.933 217.562C228.327 217.839 228.789 217.977 229.32 217.977C229.668 217.977 229.984 217.917 230.268 217.795C230.553 217.674 230.793 217.5 230.99 217.273C231.187 217.045 231.327 216.773 231.411 216.455H232.751C232.676 216.97 232.488 217.434 232.189 217.847C231.893 218.256 231.501 218.581 231.013 218.824C230.528 219.062 229.964 219.182 229.32 219.182ZM238.371 219.182C237.53 219.182 236.804 218.996 236.195 218.625C235.589 218.25 235.121 217.727 234.791 217.057C234.465 216.383 234.303 215.598 234.303 214.705C234.303 213.811 234.465 213.023 234.791 212.341C235.121 211.655 235.579 211.121 236.166 210.739C236.757 210.352 237.446 210.159 238.234 210.159C238.689 210.159 239.138 210.235 239.581 210.386C240.024 210.538 240.428 210.784 240.791 211.125C241.155 211.462 241.445 211.909 241.661 212.466C241.876 213.023 241.984 213.708 241.984 214.523V215.091H235.257V213.932H240.621C240.621 213.439 240.522 213 240.325 212.614C240.132 212.227 239.856 211.922 239.496 211.699C239.14 211.475 238.719 211.364 238.234 211.364C237.7 211.364 237.238 211.496 236.848 211.761C236.462 212.023 236.164 212.364 235.956 212.784C235.748 213.205 235.643 213.655 235.643 214.136V214.909C235.643 215.568 235.757 216.127 235.984 216.585C236.215 217.04 236.536 217.386 236.945 217.625C237.354 217.86 237.829 217.977 238.371 217.977C238.723 217.977 239.041 217.928 239.325 217.83C239.613 217.727 239.861 217.576 240.07 217.375C240.278 217.17 240.439 216.917 240.553 216.614L241.848 216.977C241.712 217.417 241.482 217.803 241.161 218.136C240.839 218.466 240.441 218.723 239.967 218.909C239.494 219.091 238.962 219.182 238.371 219.182ZM250.206 212.227L249.001 212.568C248.926 212.367 248.814 212.172 248.666 211.983C248.522 211.79 248.325 211.631 248.075 211.506C247.825 211.381 247.505 211.318 247.115 211.318C246.581 211.318 246.136 211.441 245.78 211.688C245.428 211.93 245.251 212.239 245.251 212.614C245.251 212.947 245.373 213.21 245.615 213.403C245.857 213.597 246.236 213.758 246.751 213.886L248.047 214.205C248.827 214.394 249.409 214.684 249.791 215.074C250.174 215.46 250.365 215.958 250.365 216.568C250.365 217.068 250.221 217.515 249.933 217.909C249.649 218.303 249.251 218.614 248.74 218.841C248.229 219.068 247.634 219.182 246.956 219.182C246.066 219.182 245.329 218.989 244.746 218.602C244.162 218.216 243.793 217.652 243.638 216.909L244.911 216.591C245.032 217.061 245.261 217.413 245.598 217.648C245.939 217.883 246.384 218 246.933 218C247.558 218 248.054 217.867 248.422 217.602C248.793 217.333 248.979 217.011 248.979 216.636C248.979 216.333 248.873 216.08 248.661 215.875C248.448 215.667 248.123 215.511 247.683 215.409L246.229 215.068C245.429 214.879 244.842 214.585 244.467 214.188C244.096 213.786 243.911 213.284 243.911 212.682C243.911 212.189 244.049 211.754 244.325 211.375C244.606 210.996 244.986 210.699 245.467 210.483C245.952 210.267 246.501 210.159 247.115 210.159C247.979 210.159 248.657 210.348 249.149 210.727C249.645 211.106 249.998 211.606 250.206 212.227ZM253.361 219.091C253.08 219.091 252.84 218.991 252.639 218.79C252.438 218.589 252.338 218.348 252.338 218.068C252.338 217.788 252.438 217.547 252.639 217.347C252.84 217.146 253.08 217.045 253.361 217.045C253.641 217.045 253.882 217.146 254.082 217.347C254.283 217.547 254.384 217.788 254.384 218.068C254.384 218.254 254.336 218.424 254.241 218.58C254.151 218.735 254.027 218.86 253.872 218.955C253.721 219.045 253.55 219.091 253.361 219.091Z" fill="white"/>
<path fill-rule="evenodd" clip-rule="evenodd" d="M152.076 297.499C152.074 297.414 152.09 297.329 152.123 297.251C152.156 297.172 152.205 297.101 152.267 297.042C152.328 296.983 152.402 296.937 152.483 296.907C152.563 296.877 152.649 296.864 152.735 296.869C152.821 296.873 152.905 296.895 152.982 296.933C153.059 296.971 153.128 297.025 153.183 297.09C153.238 297.155 153.279 297.231 153.303 297.312C153.327 297.394 153.334 297.48 153.323 297.564C153.807 297.699 154.233 297.984 154.54 298.377C154.847 298.77 155.019 299.249 155.029 299.745C155.031 299.827 155.017 299.909 154.987 299.986C154.957 300.063 154.912 300.133 154.854 300.192C154.797 300.252 154.728 300.299 154.652 300.333C154.576 300.366 154.494 300.384 154.41 300.386C154.327 300.388 154.244 300.374 154.167 300.344C154.089 300.315 154.018 300.27 153.958 300.213C153.897 300.157 153.849 300.089 153.815 300.014C153.782 299.939 153.763 299.858 153.761 299.775C153.755 299.562 153.686 299.356 153.562 299.18C153.439 299.005 153.267 298.869 153.067 298.789C152.867 298.708 152.648 298.687 152.435 298.728C152.223 298.768 152.028 298.868 151.872 299.016C151.767 299.115 151.683 299.233 151.626 299.365C151.568 299.496 151.537 299.637 151.536 299.78C151.531 300.072 151.642 300.353 151.847 300.563C152.051 300.773 152.331 300.895 152.626 300.901C153.198 300.907 153.749 301.118 154.176 301.495C154.602 301.872 154.876 302.388 154.946 302.949C155.015 303.51 154.876 304.077 154.554 304.544C154.233 305.012 153.75 305.348 153.196 305.49C153.204 305.576 153.194 305.662 153.166 305.743C153.138 305.825 153.093 305.899 153.035 305.963C152.976 306.026 152.905 306.077 152.825 306.111C152.745 306.146 152.659 306.164 152.572 306.164C152.485 306.164 152.399 306.146 152.32 306.111C152.24 306.077 152.169 306.026 152.11 305.963C152.051 305.899 152.007 305.825 151.979 305.743C151.951 305.662 151.941 305.576 151.949 305.49C151.465 305.353 151.039 305.067 150.732 304.673C150.425 304.28 150.254 303.8 150.243 303.304C150.24 303.223 150.254 303.143 150.283 303.067C150.312 302.992 150.356 302.923 150.413 302.864C150.469 302.806 150.537 302.759 150.612 302.727C150.686 302.694 150.767 302.677 150.849 302.675C151.014 302.671 151.174 302.732 151.295 302.844C151.415 302.956 151.485 303.11 151.49 303.274C151.498 303.488 151.568 303.696 151.693 303.871C151.818 304.047 151.993 304.183 152.195 304.261C152.397 304.34 152.618 304.359 152.831 304.316C153.044 304.272 153.24 304.168 153.393 304.016C153.547 303.864 153.652 303.671 153.697 303.461C153.741 303.251 153.722 303.033 153.642 302.833C153.562 302.634 153.425 302.461 153.247 302.338C153.069 302.214 152.858 302.145 152.641 302.138C152.015 302.13 151.418 301.877 150.98 301.435C150.542 300.994 150.299 300.399 150.304 299.78C150.311 299.268 150.488 298.771 150.808 298.367C151.128 297.963 151.573 297.674 152.076 297.544V297.499ZM151.394 322.815L148.385 324.554C148.282 324.614 148.207 324.711 148.176 324.825C148.144 324.938 148.159 325.059 148.217 325.162L154.438 335.777C154.5 335.879 154.599 335.953 154.715 335.984C154.831 336.015 154.954 336 155.059 335.943L158.074 334.224C158.126 334.194 158.171 334.153 158.207 334.106C158.243 334.058 158.269 334.003 158.284 333.945C158.299 333.887 158.302 333.827 158.293 333.768C158.283 333.709 158.263 333.652 158.231 333.601L152.56 323.911L152.015 322.981C151.953 322.879 151.854 322.805 151.738 322.774C151.622 322.743 151.499 322.758 151.394 322.815ZM153.939 323.82L160.4 320.136C160.686 319.965 161.004 319.854 161.336 319.811C161.667 319.767 162.004 319.793 162.325 319.885L172.329 322.544C172.73 322.65 173.072 322.909 173.28 323.263C173.488 323.618 173.544 324.04 173.437 324.436C173.329 324.832 173.067 325.169 172.707 325.374C172.348 325.579 171.921 325.635 171.52 325.529L168.353 324.69C168.193 324.646 168.022 324.666 167.877 324.747C167.732 324.828 167.626 324.962 167.582 325.12C167.537 325.277 167.558 325.446 167.639 325.589C167.721 325.732 167.857 325.837 168.017 325.881L173.424 327.313C173.765 327.404 174.12 327.427 174.47 327.381C174.82 327.334 175.156 327.219 175.46 327.042L184.477 321.92C184.866 321.704 185.327 321.648 185.758 321.765C186.189 321.881 186.555 322.161 186.778 322.544C186.999 322.925 187.058 323.378 186.942 323.802C186.827 324.226 186.547 324.589 186.162 324.81L173.205 332.179C172.563 332.56 171.848 332.806 171.105 332.902C170.362 332.998 169.607 332.942 168.887 332.737L160.568 330.535C160.482 330.515 160.392 330.512 160.304 330.527C160.216 330.543 160.133 330.576 160.059 330.626L158.471 331.53L153.955 323.83L153.939 323.82ZM156.994 305.053C157.868 304.001 158.321 302.67 158.268 301.31C158.215 299.951 157.659 298.658 156.706 297.676C155.753 296.694 154.468 296.09 153.095 295.979C151.722 295.869 150.355 296.258 149.253 297.075C148.151 297.891 147.39 299.078 147.114 300.411C146.838 301.744 147.067 303.13 147.756 304.308C148.445 305.486 149.548 306.373 150.855 306.803C152.162 307.233 153.584 307.176 154.851 306.641V305.681C154.851 305.517 154.917 305.36 155.034 305.244C155.152 305.128 155.311 305.063 155.477 305.063L156.994 305.053ZM164.794 305.651L165.13 305.319C165.376 305.079 165.668 304.889 165.989 304.76C166.309 304.632 166.653 304.567 166.999 304.57C167.661 304.568 168.3 304.814 168.786 305.259V297.117H164.799V305.661L164.794 305.651ZM160.095 316.447V316.754H156.108V306.299H160.095V310.32L158.313 312.079C156.602 313.768 158.099 316.286 160.095 316.462V316.447ZM168.786 312.522C168.675 312.44 168.569 312.351 168.47 312.255L166.999 310.803L164.799 312.994V316.774H168.786V312.522ZM177.477 307.043L173.485 310.984V316.754H177.477V307.043ZM182.176 296.272H183.092C183.512 296.272 183.915 296.437 184.212 296.73C184.509 297.023 184.676 297.421 184.676 297.835V303.666C184.681 303.873 184.643 304.079 184.564 304.271C184.485 304.463 184.367 304.636 184.217 304.781C183.949 305.047 183.594 305.21 183.215 305.24C182.836 305.271 182.459 305.167 182.15 304.947V316.754H186.137V292H182.176V296.272ZM173.485 303.666L174.875 302.293H173.485V303.666ZM178.5 300.469C178.558 300.412 178.604 300.343 178.636 300.268C178.667 300.193 178.683 300.113 178.683 300.032C178.683 299.951 178.667 299.87 178.636 299.795C178.604 299.72 178.558 299.652 178.5 299.594L176.942 298.061C176.893 298.015 176.86 297.955 176.846 297.889C176.832 297.823 176.838 297.755 176.864 297.693C176.89 297.631 176.934 297.578 176.99 297.54C177.047 297.503 177.113 297.483 177.181 297.483L183.087 297.509C183.177 297.51 183.263 297.546 183.327 297.609C183.391 297.672 183.427 297.756 183.428 297.845V303.676C183.429 303.719 183.421 303.763 183.404 303.803C183.388 303.844 183.363 303.881 183.332 303.912C183.301 303.945 183.263 303.971 183.222 303.989C183.18 304.006 183.135 304.016 183.09 304.016C183.044 304.016 183 304.006 182.958 303.989C182.916 303.971 182.879 303.945 182.848 303.912L181.29 302.379C181.232 302.321 181.163 302.276 181.087 302.245C181.011 302.214 180.929 302.198 180.847 302.198C180.765 302.198 180.683 302.214 180.607 302.245C180.531 302.276 180.462 302.321 180.404 302.379L171.311 311.381C171.183 311.507 171.03 311.608 170.863 311.676C170.695 311.744 170.515 311.779 170.333 311.778C169.966 311.777 169.615 311.632 169.356 311.376L167.442 309.476C167.383 309.418 167.314 309.373 167.238 309.342C167.162 309.311 167.081 309.295 166.999 309.295C166.916 309.295 166.835 309.311 166.759 309.342C166.683 309.373 166.614 309.418 166.556 309.476L161.128 314.849C159.952 316.01 158.018 314.105 159.199 312.939L166.021 306.204C166.28 305.947 166.632 305.803 166.999 305.802C167.18 305.801 167.36 305.835 167.528 305.903C167.696 305.972 167.848 306.072 167.976 306.199L169.89 308.089C169.949 308.146 170.018 308.192 170.094 308.223C170.17 308.254 170.251 308.27 170.333 308.27C170.416 308.27 170.497 308.254 170.573 308.223C170.649 308.192 170.718 308.146 170.776 308.089L178.5 300.469Z" fill="#00A797"/>
<defs>
<linearGradient id="paint0_linear_423_672" x1="22.7524" y1="64.4088" x2="149.051" y2="64.4088" gradientUnits="userSpaceOnUse">
<stop stop-color="#00A797"/>
<stop offset="1" stop-color="#0D8372"/>
</linearGradient>
<linearGradient id="paint1_linear_423_672" x1="46.0338" y1="202.122" x2="290.914" y2="202.122" gradientUnits="userSpaceOnUse">
<stop offset="0.1098" stop-color="#E1EAF3"/>
<stop offset="0.6095" stop-color="#F6F9FC"/>
<stop offset="0.9483" stop-color="white"/>
</linearGradient>
<linearGradient id="paint2_linear_423_672" x1="59.2428" y1="146.663" x2="277.704" y2="146.663" gradientUnits="userSpaceOnUse">
<stop stop-color="#00A797"/>
<stop offset="1" stop-color="#0D8372"/>
</linearGradient>
<linearGradient id="paint3_linear_423_672" x1="175.774" y1="208.048" x2="144.941" y2="44.3934" gradientUnits="userSpaceOnUse">
<stop stop-color="#0E1F29"/>
<stop offset="1" stop-color="#0D8372"/>
</linearGradient>
<linearGradient id="paint4_linear_423_672" x1="122.246" y1="314.148" x2="212.915" y2="314.148" gradientUnits="userSpaceOnUse">
<stop stop-color="#00A797"/>
<stop offset="1" stop-color="#0D8372"/>
</linearGradient>
<linearGradient id="paint5_linear_423_672" x1="129.337" y1="314.148" x2="205.824" y2="314.148" gradientUnits="userSpaceOnUse">
<stop offset="0.1098" stop-color="#E1EAF3"/>
<stop offset="0.6095" stop-color="#F6F9FC"/>
<stop offset="0.9483" stop-color="white"/>
</linearGradient>
<linearGradient id="paint6_linear_423_672" x1="104.351" y1="85.9828" x2="29.6002" y2="12.2356" gradientUnits="userSpaceOnUse">
<stop offset="0.1098" stop-color="#E1EAF3"/>
<stop offset="0.6095" stop-color="#F6F9FC"/>
<stop offset="0.9483" stop-color="white"/>
</linearGradient>
<linearGradient id="paint7_linear_423_672" x1="51.8943" y1="53.3803" x2="89.9711" y2="53.3803" gradientUnits="userSpaceOnUse">
<stop stop-color="#00A797"/>
<stop offset="1" stop-color="#0D8372"/>
</linearGradient>
<linearGradient id="paint8_linear_423_672" x1="51.8941" y1="53.3805" x2="89.9709" y2="53.3805" gradientUnits="userSpaceOnUse">
<stop stop-color="#00A797"/>
<stop offset="1" stop-color="#00A797"/>
</linearGradient>
<linearGradient id="paint9_linear_423_672" x1="349.625" y1="159.8" x2="280.488" y2="159.8" gradientUnits="userSpaceOnUse">
<stop stop-color="#00A797"/>
<stop offset="1" stop-color="#0D8372"/>
</linearGradient>
</defs>
</svg>
